%TF.GenerationSoftware,KiCad,Pcbnew,5.99.0-1.20210419gite0f69ad.fc33*%
%TF.CreationDate,2021-04-20T05:27:24+03:00*%
%TF.ProjectId,UniversalTKL,556e6976-6572-4736-916c-544b4c2e6b69,rev?*%
%TF.SameCoordinates,Original*%
%TF.FileFunction,Legend,Bot*%
%TF.FilePolarity,Positive*%
%FSLAX46Y46*%
G04 Gerber Fmt 4.6, Leading zero omitted, Abs format (unit mm)*
G04 Created by KiCad (PCBNEW 5.99.0-1.20210419gite0f69ad.fc33) date 2021-04-20 05:27:24*
%MOMM*%
%LPD*%
G01*
G04 APERTURE LIST*
G04 Aperture macros list*
%AMRoundRect*
0 Rectangle with rounded corners*
0 $1 Rounding radius*
0 $2 $3 $4 $5 $6 $7 $8 $9 X,Y pos of 4 corners*
0 Add a 4 corners polygon primitive as box body*
4,1,4,$2,$3,$4,$5,$6,$7,$8,$9,$2,$3,0*
0 Add four circle primitives for the rounded corners*
1,1,$1+$1,$2,$3*
1,1,$1+$1,$4,$5*
1,1,$1+$1,$6,$7*
1,1,$1+$1,$8,$9*
0 Add four rect primitives between the rounded corners*
20,1,$1+$1,$2,$3,$4,$5,0*
20,1,$1+$1,$4,$5,$6,$7,0*
20,1,$1+$1,$6,$7,$8,$9,0*
20,1,$1+$1,$8,$9,$2,$3,0*%
%AMHorizOval*
0 Thick line with rounded ends*
0 $1 width*
0 $2 $3 position (X,Y) of the first rounded end (center of the circle)*
0 $4 $5 position (X,Y) of the second rounded end (center of the circle)*
0 Add line between two ends*
20,1,$1,$2,$3,$4,$5,0*
0 Add two circle primitives to create the rounded ends*
1,1,$1,$2,$3*
1,1,$1,$4,$5*%
%AMRotRect*
0 Rectangle, with rotation*
0 The origin of the aperture is its center*
0 $1 length*
0 $2 width*
0 $3 Rotation angle, in degrees counterclockwise*
0 Add horizontal line*
21,1,$1,$2,0,0,$3*%
G04 Aperture macros list end*
%ADD10C,0.150000*%
%ADD11C,0.120000*%
%ADD12C,1.750000*%
%ADD13C,3.987800*%
%ADD14C,2.250000*%
%ADD15HorizOval,2.250000X0.655001X0.730000X-0.655001X-0.730000X0*%
%ADD16HorizOval,2.250000X0.020000X0.290000X-0.020000X-0.290000X0*%
%ADD17HorizOval,2.200000X0.681998X0.731354X-0.681998X-0.731354X0*%
%ADD18HorizOval,2.300000X0.015701X0.299589X-0.015701X-0.299589X0*%
%ADD19R,0.850000X1.600000*%
%ADD20R,1.600000X0.850000*%
%ADD21HorizOval,2.300000X0.681998X0.731354X-0.681998X-0.731354X0*%
%ADD22HorizOval,2.300000X0.008725X0.249848X-0.008725X-0.249848X0*%
%ADD23HorizOval,2.300000X0.647898X0.694786X-0.647898X-0.694786X0*%
%ADD24C,3.048000*%
%ADD25C,0.750000*%
%ADD26O,1.100000X2.200000*%
%ADD27O,1.100000X1.700000*%
%ADD28C,1.905000*%
%ADD29R,1.905000X1.905000*%
%ADD30R,1.700000X1.700000*%
%ADD31O,1.700000X1.700000*%
%ADD32C,1.701800*%
%ADD33HorizOval,2.300000X0.299589X-0.015701X-0.299589X0.015701X0*%
%ADD34HorizOval,2.300000X0.705988X-0.635674X-0.705988X0.635674X0*%
%ADD35RoundRect,0.135000X-0.185000X0.135000X-0.185000X-0.135000X0.185000X-0.135000X0.185000X0.135000X0*%
%ADD36RoundRect,0.150000X-0.150000X0.587500X-0.150000X-0.587500X0.150000X-0.587500X0.150000X0.587500X0*%
%ADD37RoundRect,0.135000X0.135000X0.185000X-0.135000X0.185000X-0.135000X-0.185000X0.135000X-0.185000X0*%
%ADD38RoundRect,0.140000X0.219203X0.021213X0.021213X0.219203X-0.219203X-0.021213X-0.021213X-0.219203X0*%
%ADD39RoundRect,0.150000X-0.150000X-0.625000X0.150000X-0.625000X0.150000X0.625000X-0.150000X0.625000X0*%
%ADD40RoundRect,0.250000X-0.350000X-0.650000X0.350000X-0.650000X0.350000X0.650000X-0.350000X0.650000X0*%
%ADD41R,1.200000X0.900000*%
%ADD42RoundRect,0.135000X-0.035355X0.226274X-0.226274X0.035355X0.035355X-0.226274X0.226274X-0.035355X0*%
%ADD43RoundRect,0.140000X0.140000X0.170000X-0.140000X0.170000X-0.140000X-0.170000X0.140000X-0.170000X0*%
%ADD44R,1.400000X1.200000*%
%ADD45R,1.400000X1.000000*%
%ADD46RoundRect,0.140000X0.170000X-0.140000X0.170000X0.140000X-0.170000X0.140000X-0.170000X-0.140000X0*%
%ADD47RoundRect,0.243750X-0.456250X0.243750X-0.456250X-0.243750X0.456250X-0.243750X0.456250X0.243750X0*%
%ADD48RoundRect,0.140000X-0.170000X0.140000X-0.170000X-0.140000X0.170000X-0.140000X0.170000X0.140000X0*%
%ADD49RotRect,0.400000X1.900000X135.000000*%
%ADD50RoundRect,0.062500X-0.380070X0.291682X0.291682X-0.380070X0.380070X-0.291682X-0.291682X0.380070X0*%
%ADD51RoundRect,0.062500X-0.380070X-0.291682X-0.291682X-0.380070X0.380070X0.291682X0.291682X0.380070X0*%
%ADD52RotRect,5.200000X5.200000X315.000000*%
G04 APERTURE END LIST*
D10*
%TO.C,D78*%
X372532380Y-137305714D02*
X371532380Y-137305714D01*
X371532380Y-137543809D01*
X371580000Y-137686666D01*
X371675238Y-137781904D01*
X371770476Y-137829523D01*
X371960952Y-137877142D01*
X372103809Y-137877142D01*
X372294285Y-137829523D01*
X372389523Y-137781904D01*
X372484761Y-137686666D01*
X372532380Y-137543809D01*
X372532380Y-137305714D01*
X371532380Y-138210476D02*
X371532380Y-138877142D01*
X372532380Y-138448571D01*
X371960952Y-139400952D02*
X371913333Y-139305714D01*
X371865714Y-139258095D01*
X371770476Y-139210476D01*
X371722857Y-139210476D01*
X371627619Y-139258095D01*
X371580000Y-139305714D01*
X371532380Y-139400952D01*
X371532380Y-139591428D01*
X371580000Y-139686666D01*
X371627619Y-139734285D01*
X371722857Y-139781904D01*
X371770476Y-139781904D01*
X371865714Y-139734285D01*
X371913333Y-139686666D01*
X371960952Y-139591428D01*
X371960952Y-139400952D01*
X372008571Y-139305714D01*
X372056190Y-139258095D01*
X372151428Y-139210476D01*
X372341904Y-139210476D01*
X372437142Y-139258095D01*
X372484761Y-139305714D01*
X372532380Y-139400952D01*
X372532380Y-139591428D01*
X372484761Y-139686666D01*
X372437142Y-139734285D01*
X372341904Y-139781904D01*
X372151428Y-139781904D01*
X372056190Y-139734285D01*
X372008571Y-139686666D01*
X371960952Y-139591428D01*
X374407380Y-135305714D02*
X374407380Y-134734285D01*
X374407380Y-135020000D02*
X373407380Y-135020000D01*
X373550238Y-134924761D01*
X373645476Y-134829523D01*
X373693095Y-134734285D01*
%TO.C,D77*%
X372052380Y-113935714D02*
X371052380Y-113935714D01*
X371052380Y-114173809D01*
X371100000Y-114316666D01*
X371195238Y-114411904D01*
X371290476Y-114459523D01*
X371480952Y-114507142D01*
X371623809Y-114507142D01*
X371814285Y-114459523D01*
X371909523Y-114411904D01*
X372004761Y-114316666D01*
X372052380Y-114173809D01*
X372052380Y-113935714D01*
X371052380Y-114840476D02*
X371052380Y-115507142D01*
X372052380Y-115078571D01*
X371052380Y-115792857D02*
X371052380Y-116459523D01*
X372052380Y-116030952D01*
X373927380Y-111935714D02*
X373927380Y-111364285D01*
X373927380Y-111650000D02*
X372927380Y-111650000D01*
X373070238Y-111554761D01*
X373165476Y-111459523D01*
X373213095Y-111364285D01*
%TO.C,D76*%
X372002380Y-92665714D02*
X371002380Y-92665714D01*
X371002380Y-92903809D01*
X371050000Y-93046666D01*
X371145238Y-93141904D01*
X371240476Y-93189523D01*
X371430952Y-93237142D01*
X371573809Y-93237142D01*
X371764285Y-93189523D01*
X371859523Y-93141904D01*
X371954761Y-93046666D01*
X372002380Y-92903809D01*
X372002380Y-92665714D01*
X371002380Y-93570476D02*
X371002380Y-94237142D01*
X372002380Y-93808571D01*
X371002380Y-95046666D02*
X371002380Y-94856190D01*
X371050000Y-94760952D01*
X371097619Y-94713333D01*
X371240476Y-94618095D01*
X371430952Y-94570476D01*
X371811904Y-94570476D01*
X371907142Y-94618095D01*
X371954761Y-94665714D01*
X372002380Y-94760952D01*
X372002380Y-94951428D01*
X371954761Y-95046666D01*
X371907142Y-95094285D01*
X371811904Y-95141904D01*
X371573809Y-95141904D01*
X371478571Y-95094285D01*
X371430952Y-95046666D01*
X371383333Y-94951428D01*
X371383333Y-94760952D01*
X371430952Y-94665714D01*
X371478571Y-94618095D01*
X371573809Y-94570476D01*
X373877380Y-90665714D02*
X373877380Y-90094285D01*
X373877380Y-90380000D02*
X372877380Y-90380000D01*
X373020238Y-90284761D01*
X373115476Y-90189523D01*
X373163095Y-90094285D01*
%TO.C,D75*%
X372032380Y-70175714D02*
X371032380Y-70175714D01*
X371032380Y-70413809D01*
X371080000Y-70556666D01*
X371175238Y-70651904D01*
X371270476Y-70699523D01*
X371460952Y-70747142D01*
X371603809Y-70747142D01*
X371794285Y-70699523D01*
X371889523Y-70651904D01*
X371984761Y-70556666D01*
X372032380Y-70413809D01*
X372032380Y-70175714D01*
X371032380Y-71080476D02*
X371032380Y-71747142D01*
X372032380Y-71318571D01*
X371032380Y-72604285D02*
X371032380Y-72128095D01*
X371508571Y-72080476D01*
X371460952Y-72128095D01*
X371413333Y-72223333D01*
X371413333Y-72461428D01*
X371460952Y-72556666D01*
X371508571Y-72604285D01*
X371603809Y-72651904D01*
X371841904Y-72651904D01*
X371937142Y-72604285D01*
X371984761Y-72556666D01*
X372032380Y-72461428D01*
X372032380Y-72223333D01*
X371984761Y-72128095D01*
X371937142Y-72080476D01*
X373907380Y-68175714D02*
X373907380Y-67604285D01*
X373907380Y-67890000D02*
X372907380Y-67890000D01*
X373050238Y-67794761D01*
X373145476Y-67699523D01*
X373193095Y-67604285D01*
%TO.C,D74*%
X372342380Y-49185714D02*
X371342380Y-49185714D01*
X371342380Y-49423809D01*
X371390000Y-49566666D01*
X371485238Y-49661904D01*
X371580476Y-49709523D01*
X371770952Y-49757142D01*
X371913809Y-49757142D01*
X372104285Y-49709523D01*
X372199523Y-49661904D01*
X372294761Y-49566666D01*
X372342380Y-49423809D01*
X372342380Y-49185714D01*
X371342380Y-50090476D02*
X371342380Y-50757142D01*
X372342380Y-50328571D01*
X371675714Y-51566666D02*
X372342380Y-51566666D01*
X371294761Y-51328571D02*
X372009047Y-51090476D01*
X372009047Y-51709523D01*
X374217380Y-47185714D02*
X374217380Y-46614285D01*
X374217380Y-46900000D02*
X373217380Y-46900000D01*
X373360238Y-46804761D01*
X373455476Y-46709523D01*
X373503095Y-46614285D01*
%TO.C,D73*%
X366644285Y-38752380D02*
X366644285Y-37752380D01*
X366406190Y-37752380D01*
X366263333Y-37800000D01*
X366168095Y-37895238D01*
X366120476Y-37990476D01*
X366072857Y-38180952D01*
X366072857Y-38323809D01*
X366120476Y-38514285D01*
X366168095Y-38609523D01*
X366263333Y-38704761D01*
X366406190Y-38752380D01*
X366644285Y-38752380D01*
X365739523Y-37752380D02*
X365072857Y-37752380D01*
X365501428Y-38752380D01*
X364787142Y-37752380D02*
X364168095Y-37752380D01*
X364501428Y-38133333D01*
X364358571Y-38133333D01*
X364263333Y-38180952D01*
X364215714Y-38228571D01*
X364168095Y-38323809D01*
X364168095Y-38561904D01*
X364215714Y-38657142D01*
X364263333Y-38704761D01*
X364358571Y-38752380D01*
X364644285Y-38752380D01*
X364739523Y-38704761D01*
X364787142Y-38657142D01*
X361644285Y-36877380D02*
X362215714Y-36877380D01*
X361930000Y-36877380D02*
X361930000Y-35877380D01*
X362025238Y-36020238D01*
X362120476Y-36115476D01*
X362215714Y-36163095D01*
%TO.C,D72*%
X338694285Y-38702380D02*
X338694285Y-37702380D01*
X338456190Y-37702380D01*
X338313333Y-37750000D01*
X338218095Y-37845238D01*
X338170476Y-37940476D01*
X338122857Y-38130952D01*
X338122857Y-38273809D01*
X338170476Y-38464285D01*
X338218095Y-38559523D01*
X338313333Y-38654761D01*
X338456190Y-38702380D01*
X338694285Y-38702380D01*
X337789523Y-37702380D02*
X337122857Y-37702380D01*
X337551428Y-38702380D01*
X336789523Y-37797619D02*
X336741904Y-37750000D01*
X336646666Y-37702380D01*
X336408571Y-37702380D01*
X336313333Y-37750000D01*
X336265714Y-37797619D01*
X336218095Y-37892857D01*
X336218095Y-37988095D01*
X336265714Y-38130952D01*
X336837142Y-38702380D01*
X336218095Y-38702380D01*
X333694285Y-36827380D02*
X334265714Y-36827380D01*
X333980000Y-36827380D02*
X333980000Y-35827380D01*
X334075238Y-35970238D01*
X334170476Y-36065476D01*
X334265714Y-36113095D01*
%TO.C,D71*%
X303154285Y-38462380D02*
X303154285Y-37462380D01*
X302916190Y-37462380D01*
X302773333Y-37510000D01*
X302678095Y-37605238D01*
X302630476Y-37700476D01*
X302582857Y-37890952D01*
X302582857Y-38033809D01*
X302630476Y-38224285D01*
X302678095Y-38319523D01*
X302773333Y-38414761D01*
X302916190Y-38462380D01*
X303154285Y-38462380D01*
X302249523Y-37462380D02*
X301582857Y-37462380D01*
X302011428Y-38462380D01*
X300678095Y-38462380D02*
X301249523Y-38462380D01*
X300963809Y-38462380D02*
X300963809Y-37462380D01*
X301059047Y-37605238D01*
X301154285Y-37700476D01*
X301249523Y-37748095D01*
X298154285Y-36587380D02*
X298725714Y-36587380D01*
X298440000Y-36587380D02*
X298440000Y-35587380D01*
X298535238Y-35730238D01*
X298630476Y-35825476D01*
X298725714Y-35873095D01*
%TO.C,D70*%
X361314285Y-147842380D02*
X361314285Y-146842380D01*
X361076190Y-146842380D01*
X360933333Y-146890000D01*
X360838095Y-146985238D01*
X360790476Y-147080476D01*
X360742857Y-147270952D01*
X360742857Y-147413809D01*
X360790476Y-147604285D01*
X360838095Y-147699523D01*
X360933333Y-147794761D01*
X361076190Y-147842380D01*
X361314285Y-147842380D01*
X360409523Y-146842380D02*
X359742857Y-146842380D01*
X360171428Y-147842380D01*
X359171428Y-146842380D02*
X359076190Y-146842380D01*
X358980952Y-146890000D01*
X358933333Y-146937619D01*
X358885714Y-147032857D01*
X358838095Y-147223333D01*
X358838095Y-147461428D01*
X358885714Y-147651904D01*
X358933333Y-147747142D01*
X358980952Y-147794761D01*
X359076190Y-147842380D01*
X359171428Y-147842380D01*
X359266666Y-147794761D01*
X359314285Y-147747142D01*
X359361904Y-147651904D01*
X359409523Y-147461428D01*
X359409523Y-147223333D01*
X359361904Y-147032857D01*
X359314285Y-146937619D01*
X359266666Y-146890000D01*
X359171428Y-146842380D01*
X363314285Y-149717380D02*
X363885714Y-149717380D01*
X363600000Y-149717380D02*
X363600000Y-148717380D01*
X363695238Y-148860238D01*
X363790476Y-148955476D01*
X363885714Y-149003095D01*
%TO.C,D69*%
X332384285Y-147752380D02*
X332384285Y-146752380D01*
X332146190Y-146752380D01*
X332003333Y-146800000D01*
X331908095Y-146895238D01*
X331860476Y-146990476D01*
X331812857Y-147180952D01*
X331812857Y-147323809D01*
X331860476Y-147514285D01*
X331908095Y-147609523D01*
X332003333Y-147704761D01*
X332146190Y-147752380D01*
X332384285Y-147752380D01*
X330955714Y-146752380D02*
X331146190Y-146752380D01*
X331241428Y-146800000D01*
X331289047Y-146847619D01*
X331384285Y-146990476D01*
X331431904Y-147180952D01*
X331431904Y-147561904D01*
X331384285Y-147657142D01*
X331336666Y-147704761D01*
X331241428Y-147752380D01*
X331050952Y-147752380D01*
X330955714Y-147704761D01*
X330908095Y-147657142D01*
X330860476Y-147561904D01*
X330860476Y-147323809D01*
X330908095Y-147228571D01*
X330955714Y-147180952D01*
X331050952Y-147133333D01*
X331241428Y-147133333D01*
X331336666Y-147180952D01*
X331384285Y-147228571D01*
X331431904Y-147323809D01*
X330384285Y-147752380D02*
X330193809Y-147752380D01*
X330098571Y-147704761D01*
X330050952Y-147657142D01*
X329955714Y-147514285D01*
X329908095Y-147323809D01*
X329908095Y-146942857D01*
X329955714Y-146847619D01*
X330003333Y-146800000D01*
X330098571Y-146752380D01*
X330289047Y-146752380D01*
X330384285Y-146800000D01*
X330431904Y-146847619D01*
X330479523Y-146942857D01*
X330479523Y-147180952D01*
X330431904Y-147276190D01*
X330384285Y-147323809D01*
X330289047Y-147371428D01*
X330098571Y-147371428D01*
X330003333Y-147323809D01*
X329955714Y-147276190D01*
X329908095Y-147180952D01*
X334384285Y-149627380D02*
X334955714Y-149627380D01*
X334670000Y-149627380D02*
X334670000Y-148627380D01*
X334765238Y-148770238D01*
X334860476Y-148865476D01*
X334955714Y-148913095D01*
%TO.C,D68*%
X255384285Y-38692380D02*
X255384285Y-37692380D01*
X255146190Y-37692380D01*
X255003333Y-37740000D01*
X254908095Y-37835238D01*
X254860476Y-37930476D01*
X254812857Y-38120952D01*
X254812857Y-38263809D01*
X254860476Y-38454285D01*
X254908095Y-38549523D01*
X255003333Y-38644761D01*
X255146190Y-38692380D01*
X255384285Y-38692380D01*
X253955714Y-37692380D02*
X254146190Y-37692380D01*
X254241428Y-37740000D01*
X254289047Y-37787619D01*
X254384285Y-37930476D01*
X254431904Y-38120952D01*
X254431904Y-38501904D01*
X254384285Y-38597142D01*
X254336666Y-38644761D01*
X254241428Y-38692380D01*
X254050952Y-38692380D01*
X253955714Y-38644761D01*
X253908095Y-38597142D01*
X253860476Y-38501904D01*
X253860476Y-38263809D01*
X253908095Y-38168571D01*
X253955714Y-38120952D01*
X254050952Y-38073333D01*
X254241428Y-38073333D01*
X254336666Y-38120952D01*
X254384285Y-38168571D01*
X254431904Y-38263809D01*
X253289047Y-38120952D02*
X253384285Y-38073333D01*
X253431904Y-38025714D01*
X253479523Y-37930476D01*
X253479523Y-37882857D01*
X253431904Y-37787619D01*
X253384285Y-37740000D01*
X253289047Y-37692380D01*
X253098571Y-37692380D01*
X253003333Y-37740000D01*
X252955714Y-37787619D01*
X252908095Y-37882857D01*
X252908095Y-37930476D01*
X252955714Y-38025714D01*
X253003333Y-38073333D01*
X253098571Y-38120952D01*
X253289047Y-38120952D01*
X253384285Y-38168571D01*
X253431904Y-38216190D01*
X253479523Y-38311428D01*
X253479523Y-38501904D01*
X253431904Y-38597142D01*
X253384285Y-38644761D01*
X253289047Y-38692380D01*
X253098571Y-38692380D01*
X253003333Y-38644761D01*
X252955714Y-38597142D01*
X252908095Y-38501904D01*
X252908095Y-38311428D01*
X252955714Y-38216190D01*
X253003333Y-38168571D01*
X253098571Y-38120952D01*
X250384285Y-36817380D02*
X250955714Y-36817380D01*
X250670000Y-36817380D02*
X250670000Y-35817380D01*
X250765238Y-35960238D01*
X250860476Y-36055476D01*
X250955714Y-36103095D01*
%TO.C,D67*%
X300054285Y-147792380D02*
X300054285Y-146792380D01*
X299816190Y-146792380D01*
X299673333Y-146840000D01*
X299578095Y-146935238D01*
X299530476Y-147030476D01*
X299482857Y-147220952D01*
X299482857Y-147363809D01*
X299530476Y-147554285D01*
X299578095Y-147649523D01*
X299673333Y-147744761D01*
X299816190Y-147792380D01*
X300054285Y-147792380D01*
X298625714Y-146792380D02*
X298816190Y-146792380D01*
X298911428Y-146840000D01*
X298959047Y-146887619D01*
X299054285Y-147030476D01*
X299101904Y-147220952D01*
X299101904Y-147601904D01*
X299054285Y-147697142D01*
X299006666Y-147744761D01*
X298911428Y-147792380D01*
X298720952Y-147792380D01*
X298625714Y-147744761D01*
X298578095Y-147697142D01*
X298530476Y-147601904D01*
X298530476Y-147363809D01*
X298578095Y-147268571D01*
X298625714Y-147220952D01*
X298720952Y-147173333D01*
X298911428Y-147173333D01*
X299006666Y-147220952D01*
X299054285Y-147268571D01*
X299101904Y-147363809D01*
X298197142Y-146792380D02*
X297530476Y-146792380D01*
X297959047Y-147792380D01*
X302054285Y-149667380D02*
X302625714Y-149667380D01*
X302340000Y-149667380D02*
X302340000Y-148667380D01*
X302435238Y-148810238D01*
X302530476Y-148905476D01*
X302625714Y-148953095D01*
%TO.C,D66*%
X223074285Y-38502380D02*
X223074285Y-37502380D01*
X222836190Y-37502380D01*
X222693333Y-37550000D01*
X222598095Y-37645238D01*
X222550476Y-37740476D01*
X222502857Y-37930952D01*
X222502857Y-38073809D01*
X222550476Y-38264285D01*
X222598095Y-38359523D01*
X222693333Y-38454761D01*
X222836190Y-38502380D01*
X223074285Y-38502380D01*
X221645714Y-37502380D02*
X221836190Y-37502380D01*
X221931428Y-37550000D01*
X221979047Y-37597619D01*
X222074285Y-37740476D01*
X222121904Y-37930952D01*
X222121904Y-38311904D01*
X222074285Y-38407142D01*
X222026666Y-38454761D01*
X221931428Y-38502380D01*
X221740952Y-38502380D01*
X221645714Y-38454761D01*
X221598095Y-38407142D01*
X221550476Y-38311904D01*
X221550476Y-38073809D01*
X221598095Y-37978571D01*
X221645714Y-37930952D01*
X221740952Y-37883333D01*
X221931428Y-37883333D01*
X222026666Y-37930952D01*
X222074285Y-37978571D01*
X222121904Y-38073809D01*
X220693333Y-37502380D02*
X220883809Y-37502380D01*
X220979047Y-37550000D01*
X221026666Y-37597619D01*
X221121904Y-37740476D01*
X221169523Y-37930952D01*
X221169523Y-38311904D01*
X221121904Y-38407142D01*
X221074285Y-38454761D01*
X220979047Y-38502380D01*
X220788571Y-38502380D01*
X220693333Y-38454761D01*
X220645714Y-38407142D01*
X220598095Y-38311904D01*
X220598095Y-38073809D01*
X220645714Y-37978571D01*
X220693333Y-37930952D01*
X220788571Y-37883333D01*
X220979047Y-37883333D01*
X221074285Y-37930952D01*
X221121904Y-37978571D01*
X221169523Y-38073809D01*
X218074285Y-36627380D02*
X218645714Y-36627380D01*
X218360000Y-36627380D02*
X218360000Y-35627380D01*
X218455238Y-35770238D01*
X218550476Y-35865476D01*
X218645714Y-35913095D01*
%TO.C,D65*%
X254834285Y-148012380D02*
X254834285Y-147012380D01*
X254596190Y-147012380D01*
X254453333Y-147060000D01*
X254358095Y-147155238D01*
X254310476Y-147250476D01*
X254262857Y-147440952D01*
X254262857Y-147583809D01*
X254310476Y-147774285D01*
X254358095Y-147869523D01*
X254453333Y-147964761D01*
X254596190Y-148012380D01*
X254834285Y-148012380D01*
X253405714Y-147012380D02*
X253596190Y-147012380D01*
X253691428Y-147060000D01*
X253739047Y-147107619D01*
X253834285Y-147250476D01*
X253881904Y-147440952D01*
X253881904Y-147821904D01*
X253834285Y-147917142D01*
X253786666Y-147964761D01*
X253691428Y-148012380D01*
X253500952Y-148012380D01*
X253405714Y-147964761D01*
X253358095Y-147917142D01*
X253310476Y-147821904D01*
X253310476Y-147583809D01*
X253358095Y-147488571D01*
X253405714Y-147440952D01*
X253500952Y-147393333D01*
X253691428Y-147393333D01*
X253786666Y-147440952D01*
X253834285Y-147488571D01*
X253881904Y-147583809D01*
X252405714Y-147012380D02*
X252881904Y-147012380D01*
X252929523Y-147488571D01*
X252881904Y-147440952D01*
X252786666Y-147393333D01*
X252548571Y-147393333D01*
X252453333Y-147440952D01*
X252405714Y-147488571D01*
X252358095Y-147583809D01*
X252358095Y-147821904D01*
X252405714Y-147917142D01*
X252453333Y-147964761D01*
X252548571Y-148012380D01*
X252786666Y-148012380D01*
X252881904Y-147964761D01*
X252929523Y-147917142D01*
X256834285Y-149887380D02*
X257405714Y-149887380D01*
X257120000Y-149887380D02*
X257120000Y-148887380D01*
X257215238Y-149030238D01*
X257310476Y-149125476D01*
X257405714Y-149173095D01*
%TO.C,D64*%
X192794285Y-39142380D02*
X192794285Y-38142380D01*
X192556190Y-38142380D01*
X192413333Y-38190000D01*
X192318095Y-38285238D01*
X192270476Y-38380476D01*
X192222857Y-38570952D01*
X192222857Y-38713809D01*
X192270476Y-38904285D01*
X192318095Y-38999523D01*
X192413333Y-39094761D01*
X192556190Y-39142380D01*
X192794285Y-39142380D01*
X191365714Y-38142380D02*
X191556190Y-38142380D01*
X191651428Y-38190000D01*
X191699047Y-38237619D01*
X191794285Y-38380476D01*
X191841904Y-38570952D01*
X191841904Y-38951904D01*
X191794285Y-39047142D01*
X191746666Y-39094761D01*
X191651428Y-39142380D01*
X191460952Y-39142380D01*
X191365714Y-39094761D01*
X191318095Y-39047142D01*
X191270476Y-38951904D01*
X191270476Y-38713809D01*
X191318095Y-38618571D01*
X191365714Y-38570952D01*
X191460952Y-38523333D01*
X191651428Y-38523333D01*
X191746666Y-38570952D01*
X191794285Y-38618571D01*
X191841904Y-38713809D01*
X190413333Y-38475714D02*
X190413333Y-39142380D01*
X190651428Y-38094761D02*
X190889523Y-38809047D01*
X190270476Y-38809047D01*
X187794285Y-37267380D02*
X188365714Y-37267380D01*
X188080000Y-37267380D02*
X188080000Y-36267380D01*
X188175238Y-36410238D01*
X188270476Y-36505476D01*
X188365714Y-36553095D01*
%TO.C,D63*%
X221564285Y-147832380D02*
X221564285Y-146832380D01*
X221326190Y-146832380D01*
X221183333Y-146880000D01*
X221088095Y-146975238D01*
X221040476Y-147070476D01*
X220992857Y-147260952D01*
X220992857Y-147403809D01*
X221040476Y-147594285D01*
X221088095Y-147689523D01*
X221183333Y-147784761D01*
X221326190Y-147832380D01*
X221564285Y-147832380D01*
X220135714Y-146832380D02*
X220326190Y-146832380D01*
X220421428Y-146880000D01*
X220469047Y-146927619D01*
X220564285Y-147070476D01*
X220611904Y-147260952D01*
X220611904Y-147641904D01*
X220564285Y-147737142D01*
X220516666Y-147784761D01*
X220421428Y-147832380D01*
X220230952Y-147832380D01*
X220135714Y-147784761D01*
X220088095Y-147737142D01*
X220040476Y-147641904D01*
X220040476Y-147403809D01*
X220088095Y-147308571D01*
X220135714Y-147260952D01*
X220230952Y-147213333D01*
X220421428Y-147213333D01*
X220516666Y-147260952D01*
X220564285Y-147308571D01*
X220611904Y-147403809D01*
X219707142Y-146832380D02*
X219088095Y-146832380D01*
X219421428Y-147213333D01*
X219278571Y-147213333D01*
X219183333Y-147260952D01*
X219135714Y-147308571D01*
X219088095Y-147403809D01*
X219088095Y-147641904D01*
X219135714Y-147737142D01*
X219183333Y-147784761D01*
X219278571Y-147832380D01*
X219564285Y-147832380D01*
X219659523Y-147784761D01*
X219707142Y-147737142D01*
X223564285Y-149707380D02*
X224135714Y-149707380D01*
X223850000Y-149707380D02*
X223850000Y-148707380D01*
X223945238Y-148850238D01*
X224040476Y-148945476D01*
X224135714Y-148993095D01*
%TO.C,D62*%
X180454285Y-147892380D02*
X180454285Y-146892380D01*
X180216190Y-146892380D01*
X180073333Y-146940000D01*
X179978095Y-147035238D01*
X179930476Y-147130476D01*
X179882857Y-147320952D01*
X179882857Y-147463809D01*
X179930476Y-147654285D01*
X179978095Y-147749523D01*
X180073333Y-147844761D01*
X180216190Y-147892380D01*
X180454285Y-147892380D01*
X179025714Y-146892380D02*
X179216190Y-146892380D01*
X179311428Y-146940000D01*
X179359047Y-146987619D01*
X179454285Y-147130476D01*
X179501904Y-147320952D01*
X179501904Y-147701904D01*
X179454285Y-147797142D01*
X179406666Y-147844761D01*
X179311428Y-147892380D01*
X179120952Y-147892380D01*
X179025714Y-147844761D01*
X178978095Y-147797142D01*
X178930476Y-147701904D01*
X178930476Y-147463809D01*
X178978095Y-147368571D01*
X179025714Y-147320952D01*
X179120952Y-147273333D01*
X179311428Y-147273333D01*
X179406666Y-147320952D01*
X179454285Y-147368571D01*
X179501904Y-147463809D01*
X178549523Y-146987619D02*
X178501904Y-146940000D01*
X178406666Y-146892380D01*
X178168571Y-146892380D01*
X178073333Y-146940000D01*
X178025714Y-146987619D01*
X177978095Y-147082857D01*
X177978095Y-147178095D01*
X178025714Y-147320952D01*
X178597142Y-147892380D01*
X177978095Y-147892380D01*
X182454285Y-149767380D02*
X183025714Y-149767380D01*
X182740000Y-149767380D02*
X182740000Y-148767380D01*
X182835238Y-148910238D01*
X182930476Y-149005476D01*
X183025714Y-149053095D01*
%TO.C,D61*%
X142784285Y-38532380D02*
X142784285Y-37532380D01*
X142546190Y-37532380D01*
X142403333Y-37580000D01*
X142308095Y-37675238D01*
X142260476Y-37770476D01*
X142212857Y-37960952D01*
X142212857Y-38103809D01*
X142260476Y-38294285D01*
X142308095Y-38389523D01*
X142403333Y-38484761D01*
X142546190Y-38532380D01*
X142784285Y-38532380D01*
X141355714Y-37532380D02*
X141546190Y-37532380D01*
X141641428Y-37580000D01*
X141689047Y-37627619D01*
X141784285Y-37770476D01*
X141831904Y-37960952D01*
X141831904Y-38341904D01*
X141784285Y-38437142D01*
X141736666Y-38484761D01*
X141641428Y-38532380D01*
X141450952Y-38532380D01*
X141355714Y-38484761D01*
X141308095Y-38437142D01*
X141260476Y-38341904D01*
X141260476Y-38103809D01*
X141308095Y-38008571D01*
X141355714Y-37960952D01*
X141450952Y-37913333D01*
X141641428Y-37913333D01*
X141736666Y-37960952D01*
X141784285Y-38008571D01*
X141831904Y-38103809D01*
X140308095Y-38532380D02*
X140879523Y-38532380D01*
X140593809Y-38532380D02*
X140593809Y-37532380D01*
X140689047Y-37675238D01*
X140784285Y-37770476D01*
X140879523Y-37818095D01*
X137784285Y-36657380D02*
X138355714Y-36657380D01*
X138070000Y-36657380D02*
X138070000Y-35657380D01*
X138165238Y-35800238D01*
X138260476Y-35895476D01*
X138355714Y-35943095D01*
%TO.C,D60*%
X137624285Y-147912380D02*
X137624285Y-146912380D01*
X137386190Y-146912380D01*
X137243333Y-146960000D01*
X137148095Y-147055238D01*
X137100476Y-147150476D01*
X137052857Y-147340952D01*
X137052857Y-147483809D01*
X137100476Y-147674285D01*
X137148095Y-147769523D01*
X137243333Y-147864761D01*
X137386190Y-147912380D01*
X137624285Y-147912380D01*
X136195714Y-146912380D02*
X136386190Y-146912380D01*
X136481428Y-146960000D01*
X136529047Y-147007619D01*
X136624285Y-147150476D01*
X136671904Y-147340952D01*
X136671904Y-147721904D01*
X136624285Y-147817142D01*
X136576666Y-147864761D01*
X136481428Y-147912380D01*
X136290952Y-147912380D01*
X136195714Y-147864761D01*
X136148095Y-147817142D01*
X136100476Y-147721904D01*
X136100476Y-147483809D01*
X136148095Y-147388571D01*
X136195714Y-147340952D01*
X136290952Y-147293333D01*
X136481428Y-147293333D01*
X136576666Y-147340952D01*
X136624285Y-147388571D01*
X136671904Y-147483809D01*
X135481428Y-146912380D02*
X135386190Y-146912380D01*
X135290952Y-146960000D01*
X135243333Y-147007619D01*
X135195714Y-147102857D01*
X135148095Y-147293333D01*
X135148095Y-147531428D01*
X135195714Y-147721904D01*
X135243333Y-147817142D01*
X135290952Y-147864761D01*
X135386190Y-147912380D01*
X135481428Y-147912380D01*
X135576666Y-147864761D01*
X135624285Y-147817142D01*
X135671904Y-147721904D01*
X135719523Y-147531428D01*
X135719523Y-147293333D01*
X135671904Y-147102857D01*
X135624285Y-147007619D01*
X135576666Y-146960000D01*
X135481428Y-146912380D01*
X139624285Y-149787380D02*
X140195714Y-149787380D01*
X139910000Y-149787380D02*
X139910000Y-148787380D01*
X140005238Y-148930238D01*
X140100476Y-149025476D01*
X140195714Y-149073095D01*
%TO.C,D59*%
X112064285Y-39242380D02*
X112064285Y-38242380D01*
X111826190Y-38242380D01*
X111683333Y-38290000D01*
X111588095Y-38385238D01*
X111540476Y-38480476D01*
X111492857Y-38670952D01*
X111492857Y-38813809D01*
X111540476Y-39004285D01*
X111588095Y-39099523D01*
X111683333Y-39194761D01*
X111826190Y-39242380D01*
X112064285Y-39242380D01*
X110588095Y-38242380D02*
X111064285Y-38242380D01*
X111111904Y-38718571D01*
X111064285Y-38670952D01*
X110969047Y-38623333D01*
X110730952Y-38623333D01*
X110635714Y-38670952D01*
X110588095Y-38718571D01*
X110540476Y-38813809D01*
X110540476Y-39051904D01*
X110588095Y-39147142D01*
X110635714Y-39194761D01*
X110730952Y-39242380D01*
X110969047Y-39242380D01*
X111064285Y-39194761D01*
X111111904Y-39147142D01*
X110064285Y-39242380D02*
X109873809Y-39242380D01*
X109778571Y-39194761D01*
X109730952Y-39147142D01*
X109635714Y-39004285D01*
X109588095Y-38813809D01*
X109588095Y-38432857D01*
X109635714Y-38337619D01*
X109683333Y-38290000D01*
X109778571Y-38242380D01*
X109969047Y-38242380D01*
X110064285Y-38290000D01*
X110111904Y-38337619D01*
X110159523Y-38432857D01*
X110159523Y-38670952D01*
X110111904Y-38766190D01*
X110064285Y-38813809D01*
X109969047Y-38861428D01*
X109778571Y-38861428D01*
X109683333Y-38813809D01*
X109635714Y-38766190D01*
X109588095Y-38670952D01*
X107064285Y-37367380D02*
X107635714Y-37367380D01*
X107350000Y-37367380D02*
X107350000Y-36367380D01*
X107445238Y-36510238D01*
X107540476Y-36605476D01*
X107635714Y-36653095D01*
%TO.C,D58*%
X105184285Y-147622380D02*
X105184285Y-146622380D01*
X104946190Y-146622380D01*
X104803333Y-146670000D01*
X104708095Y-146765238D01*
X104660476Y-146860476D01*
X104612857Y-147050952D01*
X104612857Y-147193809D01*
X104660476Y-147384285D01*
X104708095Y-147479523D01*
X104803333Y-147574761D01*
X104946190Y-147622380D01*
X105184285Y-147622380D01*
X103708095Y-146622380D02*
X104184285Y-146622380D01*
X104231904Y-147098571D01*
X104184285Y-147050952D01*
X104089047Y-147003333D01*
X103850952Y-147003333D01*
X103755714Y-147050952D01*
X103708095Y-147098571D01*
X103660476Y-147193809D01*
X103660476Y-147431904D01*
X103708095Y-147527142D01*
X103755714Y-147574761D01*
X103850952Y-147622380D01*
X104089047Y-147622380D01*
X104184285Y-147574761D01*
X104231904Y-147527142D01*
X103089047Y-147050952D02*
X103184285Y-147003333D01*
X103231904Y-146955714D01*
X103279523Y-146860476D01*
X103279523Y-146812857D01*
X103231904Y-146717619D01*
X103184285Y-146670000D01*
X103089047Y-146622380D01*
X102898571Y-146622380D01*
X102803333Y-146670000D01*
X102755714Y-146717619D01*
X102708095Y-146812857D01*
X102708095Y-146860476D01*
X102755714Y-146955714D01*
X102803333Y-147003333D01*
X102898571Y-147050952D01*
X103089047Y-147050952D01*
X103184285Y-147098571D01*
X103231904Y-147146190D01*
X103279523Y-147241428D01*
X103279523Y-147431904D01*
X103231904Y-147527142D01*
X103184285Y-147574761D01*
X103089047Y-147622380D01*
X102898571Y-147622380D01*
X102803333Y-147574761D01*
X102755714Y-147527142D01*
X102708095Y-147431904D01*
X102708095Y-147241428D01*
X102755714Y-147146190D01*
X102803333Y-147098571D01*
X102898571Y-147050952D01*
X107184285Y-149497380D02*
X107755714Y-149497380D01*
X107470000Y-149497380D02*
X107470000Y-148497380D01*
X107565238Y-148640238D01*
X107660476Y-148735476D01*
X107755714Y-148783095D01*
%TO.C,D57*%
X73084285Y-38952380D02*
X73084285Y-37952380D01*
X72846190Y-37952380D01*
X72703333Y-38000000D01*
X72608095Y-38095238D01*
X72560476Y-38190476D01*
X72512857Y-38380952D01*
X72512857Y-38523809D01*
X72560476Y-38714285D01*
X72608095Y-38809523D01*
X72703333Y-38904761D01*
X72846190Y-38952380D01*
X73084285Y-38952380D01*
X71608095Y-37952380D02*
X72084285Y-37952380D01*
X72131904Y-38428571D01*
X72084285Y-38380952D01*
X71989047Y-38333333D01*
X71750952Y-38333333D01*
X71655714Y-38380952D01*
X71608095Y-38428571D01*
X71560476Y-38523809D01*
X71560476Y-38761904D01*
X71608095Y-38857142D01*
X71655714Y-38904761D01*
X71750952Y-38952380D01*
X71989047Y-38952380D01*
X72084285Y-38904761D01*
X72131904Y-38857142D01*
X71227142Y-37952380D02*
X70560476Y-37952380D01*
X70989047Y-38952380D01*
X68084285Y-37077380D02*
X68655714Y-37077380D01*
X68370000Y-37077380D02*
X68370000Y-36077380D01*
X68465238Y-36220238D01*
X68560476Y-36315476D01*
X68655714Y-36363095D01*
%TO.C,D56*%
X76694285Y-148052380D02*
X76694285Y-147052380D01*
X76456190Y-147052380D01*
X76313333Y-147100000D01*
X76218095Y-147195238D01*
X76170476Y-147290476D01*
X76122857Y-147480952D01*
X76122857Y-147623809D01*
X76170476Y-147814285D01*
X76218095Y-147909523D01*
X76313333Y-148004761D01*
X76456190Y-148052380D01*
X76694285Y-148052380D01*
X75218095Y-147052380D02*
X75694285Y-147052380D01*
X75741904Y-147528571D01*
X75694285Y-147480952D01*
X75599047Y-147433333D01*
X75360952Y-147433333D01*
X75265714Y-147480952D01*
X75218095Y-147528571D01*
X75170476Y-147623809D01*
X75170476Y-147861904D01*
X75218095Y-147957142D01*
X75265714Y-148004761D01*
X75360952Y-148052380D01*
X75599047Y-148052380D01*
X75694285Y-148004761D01*
X75741904Y-147957142D01*
X74313333Y-147052380D02*
X74503809Y-147052380D01*
X74599047Y-147100000D01*
X74646666Y-147147619D01*
X74741904Y-147290476D01*
X74789523Y-147480952D01*
X74789523Y-147861904D01*
X74741904Y-147957142D01*
X74694285Y-148004761D01*
X74599047Y-148052380D01*
X74408571Y-148052380D01*
X74313333Y-148004761D01*
X74265714Y-147957142D01*
X74218095Y-147861904D01*
X74218095Y-147623809D01*
X74265714Y-147528571D01*
X74313333Y-147480952D01*
X74408571Y-147433333D01*
X74599047Y-147433333D01*
X74694285Y-147480952D01*
X74741904Y-147528571D01*
X74789523Y-147623809D01*
X78694285Y-149927380D02*
X79265714Y-149927380D01*
X78980000Y-149927380D02*
X78980000Y-148927380D01*
X79075238Y-149070238D01*
X79170476Y-149165476D01*
X79265714Y-149213095D01*
%TO.C,D55*%
X36654285Y-38672380D02*
X36654285Y-37672380D01*
X36416190Y-37672380D01*
X36273333Y-37720000D01*
X36178095Y-37815238D01*
X36130476Y-37910476D01*
X36082857Y-38100952D01*
X36082857Y-38243809D01*
X36130476Y-38434285D01*
X36178095Y-38529523D01*
X36273333Y-38624761D01*
X36416190Y-38672380D01*
X36654285Y-38672380D01*
X35178095Y-37672380D02*
X35654285Y-37672380D01*
X35701904Y-38148571D01*
X35654285Y-38100952D01*
X35559047Y-38053333D01*
X35320952Y-38053333D01*
X35225714Y-38100952D01*
X35178095Y-38148571D01*
X35130476Y-38243809D01*
X35130476Y-38481904D01*
X35178095Y-38577142D01*
X35225714Y-38624761D01*
X35320952Y-38672380D01*
X35559047Y-38672380D01*
X35654285Y-38624761D01*
X35701904Y-38577142D01*
X34225714Y-37672380D02*
X34701904Y-37672380D01*
X34749523Y-38148571D01*
X34701904Y-38100952D01*
X34606666Y-38053333D01*
X34368571Y-38053333D01*
X34273333Y-38100952D01*
X34225714Y-38148571D01*
X34178095Y-38243809D01*
X34178095Y-38481904D01*
X34225714Y-38577142D01*
X34273333Y-38624761D01*
X34368571Y-38672380D01*
X34606666Y-38672380D01*
X34701904Y-38624761D01*
X34749523Y-38577142D01*
X31654285Y-36797380D02*
X32225714Y-36797380D01*
X31940000Y-36797380D02*
X31940000Y-35797380D01*
X32035238Y-35940238D01*
X32130476Y-36035476D01*
X32225714Y-36083095D01*
%TO.C,D54*%
X47854285Y-147932380D02*
X47854285Y-146932380D01*
X47616190Y-146932380D01*
X47473333Y-146980000D01*
X47378095Y-147075238D01*
X47330476Y-147170476D01*
X47282857Y-147360952D01*
X47282857Y-147503809D01*
X47330476Y-147694285D01*
X47378095Y-147789523D01*
X47473333Y-147884761D01*
X47616190Y-147932380D01*
X47854285Y-147932380D01*
X46378095Y-146932380D02*
X46854285Y-146932380D01*
X46901904Y-147408571D01*
X46854285Y-147360952D01*
X46759047Y-147313333D01*
X46520952Y-147313333D01*
X46425714Y-147360952D01*
X46378095Y-147408571D01*
X46330476Y-147503809D01*
X46330476Y-147741904D01*
X46378095Y-147837142D01*
X46425714Y-147884761D01*
X46520952Y-147932380D01*
X46759047Y-147932380D01*
X46854285Y-147884761D01*
X46901904Y-147837142D01*
X45473333Y-147265714D02*
X45473333Y-147932380D01*
X45711428Y-146884761D02*
X45949523Y-147599047D01*
X45330476Y-147599047D01*
X49854285Y-149807380D02*
X50425714Y-149807380D01*
X50140000Y-149807380D02*
X50140000Y-148807380D01*
X50235238Y-148950238D01*
X50330476Y-149045476D01*
X50425714Y-149093095D01*
%TO.C,D53*%
X35112380Y-140395714D02*
X34112380Y-140395714D01*
X34112380Y-140633809D01*
X34160000Y-140776666D01*
X34255238Y-140871904D01*
X34350476Y-140919523D01*
X34540952Y-140967142D01*
X34683809Y-140967142D01*
X34874285Y-140919523D01*
X34969523Y-140871904D01*
X35064761Y-140776666D01*
X35112380Y-140633809D01*
X35112380Y-140395714D01*
X34112380Y-141871904D02*
X34112380Y-141395714D01*
X34588571Y-141348095D01*
X34540952Y-141395714D01*
X34493333Y-141490952D01*
X34493333Y-141729047D01*
X34540952Y-141824285D01*
X34588571Y-141871904D01*
X34683809Y-141919523D01*
X34921904Y-141919523D01*
X35017142Y-141871904D01*
X35064761Y-141824285D01*
X35112380Y-141729047D01*
X35112380Y-141490952D01*
X35064761Y-141395714D01*
X35017142Y-141348095D01*
X34112380Y-142252857D02*
X34112380Y-142871904D01*
X34493333Y-142538571D01*
X34493333Y-142681428D01*
X34540952Y-142776666D01*
X34588571Y-142824285D01*
X34683809Y-142871904D01*
X34921904Y-142871904D01*
X35017142Y-142824285D01*
X35064761Y-142776666D01*
X35112380Y-142681428D01*
X35112380Y-142395714D01*
X35064761Y-142300476D01*
X35017142Y-142252857D01*
X33237380Y-145395714D02*
X33237380Y-144824285D01*
X33237380Y-145110000D02*
X32237380Y-145110000D01*
X32380238Y-145014761D01*
X32475476Y-144919523D01*
X32523095Y-144824285D01*
%TO.C,D52*%
X34832380Y-114055714D02*
X33832380Y-114055714D01*
X33832380Y-114293809D01*
X33880000Y-114436666D01*
X33975238Y-114531904D01*
X34070476Y-114579523D01*
X34260952Y-114627142D01*
X34403809Y-114627142D01*
X34594285Y-114579523D01*
X34689523Y-114531904D01*
X34784761Y-114436666D01*
X34832380Y-114293809D01*
X34832380Y-114055714D01*
X33832380Y-115531904D02*
X33832380Y-115055714D01*
X34308571Y-115008095D01*
X34260952Y-115055714D01*
X34213333Y-115150952D01*
X34213333Y-115389047D01*
X34260952Y-115484285D01*
X34308571Y-115531904D01*
X34403809Y-115579523D01*
X34641904Y-115579523D01*
X34737142Y-115531904D01*
X34784761Y-115484285D01*
X34832380Y-115389047D01*
X34832380Y-115150952D01*
X34784761Y-115055714D01*
X34737142Y-115008095D01*
X33927619Y-115960476D02*
X33880000Y-116008095D01*
X33832380Y-116103333D01*
X33832380Y-116341428D01*
X33880000Y-116436666D01*
X33927619Y-116484285D01*
X34022857Y-116531904D01*
X34118095Y-116531904D01*
X34260952Y-116484285D01*
X34832380Y-115912857D01*
X34832380Y-116531904D01*
X32957380Y-119055714D02*
X32957380Y-118484285D01*
X32957380Y-118770000D02*
X31957380Y-118770000D01*
X32100238Y-118674761D01*
X32195476Y-118579523D01*
X32243095Y-118484285D01*
%TO.C,D51*%
X34742380Y-92935714D02*
X33742380Y-92935714D01*
X33742380Y-93173809D01*
X33790000Y-93316666D01*
X33885238Y-93411904D01*
X33980476Y-93459523D01*
X34170952Y-93507142D01*
X34313809Y-93507142D01*
X34504285Y-93459523D01*
X34599523Y-93411904D01*
X34694761Y-93316666D01*
X34742380Y-93173809D01*
X34742380Y-92935714D01*
X33742380Y-94411904D02*
X33742380Y-93935714D01*
X34218571Y-93888095D01*
X34170952Y-93935714D01*
X34123333Y-94030952D01*
X34123333Y-94269047D01*
X34170952Y-94364285D01*
X34218571Y-94411904D01*
X34313809Y-94459523D01*
X34551904Y-94459523D01*
X34647142Y-94411904D01*
X34694761Y-94364285D01*
X34742380Y-94269047D01*
X34742380Y-94030952D01*
X34694761Y-93935714D01*
X34647142Y-93888095D01*
X34742380Y-95411904D02*
X34742380Y-94840476D01*
X34742380Y-95126190D02*
X33742380Y-95126190D01*
X33885238Y-95030952D01*
X33980476Y-94935714D01*
X34028095Y-94840476D01*
X32867380Y-97935714D02*
X32867380Y-97364285D01*
X32867380Y-97650000D02*
X31867380Y-97650000D01*
X32010238Y-97554761D01*
X32105476Y-97459523D01*
X32153095Y-97364285D01*
%TO.C,D50*%
X34972380Y-70725714D02*
X33972380Y-70725714D01*
X33972380Y-70963809D01*
X34020000Y-71106666D01*
X34115238Y-71201904D01*
X34210476Y-71249523D01*
X34400952Y-71297142D01*
X34543809Y-71297142D01*
X34734285Y-71249523D01*
X34829523Y-71201904D01*
X34924761Y-71106666D01*
X34972380Y-70963809D01*
X34972380Y-70725714D01*
X33972380Y-72201904D02*
X33972380Y-71725714D01*
X34448571Y-71678095D01*
X34400952Y-71725714D01*
X34353333Y-71820952D01*
X34353333Y-72059047D01*
X34400952Y-72154285D01*
X34448571Y-72201904D01*
X34543809Y-72249523D01*
X34781904Y-72249523D01*
X34877142Y-72201904D01*
X34924761Y-72154285D01*
X34972380Y-72059047D01*
X34972380Y-71820952D01*
X34924761Y-71725714D01*
X34877142Y-71678095D01*
X33972380Y-72868571D02*
X33972380Y-72963809D01*
X34020000Y-73059047D01*
X34067619Y-73106666D01*
X34162857Y-73154285D01*
X34353333Y-73201904D01*
X34591428Y-73201904D01*
X34781904Y-73154285D01*
X34877142Y-73106666D01*
X34924761Y-73059047D01*
X34972380Y-72963809D01*
X34972380Y-72868571D01*
X34924761Y-72773333D01*
X34877142Y-72725714D01*
X34781904Y-72678095D01*
X34591428Y-72630476D01*
X34353333Y-72630476D01*
X34162857Y-72678095D01*
X34067619Y-72725714D01*
X34020000Y-72773333D01*
X33972380Y-72868571D01*
X33097380Y-75725714D02*
X33097380Y-75154285D01*
X33097380Y-75440000D02*
X32097380Y-75440000D01*
X32240238Y-75344761D01*
X32335476Y-75249523D01*
X32383095Y-75154285D01*
%TO.C,D49*%
X34802380Y-49105714D02*
X33802380Y-49105714D01*
X33802380Y-49343809D01*
X33850000Y-49486666D01*
X33945238Y-49581904D01*
X34040476Y-49629523D01*
X34230952Y-49677142D01*
X34373809Y-49677142D01*
X34564285Y-49629523D01*
X34659523Y-49581904D01*
X34754761Y-49486666D01*
X34802380Y-49343809D01*
X34802380Y-49105714D01*
X34135714Y-50534285D02*
X34802380Y-50534285D01*
X33754761Y-50296190D02*
X34469047Y-50058095D01*
X34469047Y-50677142D01*
X34802380Y-51105714D02*
X34802380Y-51296190D01*
X34754761Y-51391428D01*
X34707142Y-51439047D01*
X34564285Y-51534285D01*
X34373809Y-51581904D01*
X33992857Y-51581904D01*
X33897619Y-51534285D01*
X33850000Y-51486666D01*
X33802380Y-51391428D01*
X33802380Y-51200952D01*
X33850000Y-51105714D01*
X33897619Y-51058095D01*
X33992857Y-51010476D01*
X34230952Y-51010476D01*
X34326190Y-51058095D01*
X34373809Y-51105714D01*
X34421428Y-51200952D01*
X34421428Y-51391428D01*
X34373809Y-51486666D01*
X34326190Y-51534285D01*
X34230952Y-51581904D01*
X32927380Y-54105714D02*
X32927380Y-53534285D01*
X32927380Y-53820000D02*
X31927380Y-53820000D01*
X32070238Y-53724761D01*
X32165476Y-53629523D01*
X32213095Y-53534285D01*
%TO.C,R_DATA1*%
X317122380Y-101614285D02*
X316646190Y-101280952D01*
X317122380Y-101042857D02*
X316122380Y-101042857D01*
X316122380Y-101423809D01*
X316170000Y-101519047D01*
X316217619Y-101566666D01*
X316312857Y-101614285D01*
X316455714Y-101614285D01*
X316550952Y-101566666D01*
X316598571Y-101519047D01*
X316646190Y-101423809D01*
X316646190Y-101042857D01*
X317217619Y-101804761D02*
X317217619Y-102566666D01*
X317122380Y-102804761D02*
X316122380Y-102804761D01*
X316122380Y-103042857D01*
X316170000Y-103185714D01*
X316265238Y-103280952D01*
X316360476Y-103328571D01*
X316550952Y-103376190D01*
X316693809Y-103376190D01*
X316884285Y-103328571D01*
X316979523Y-103280952D01*
X317074761Y-103185714D01*
X317122380Y-103042857D01*
X317122380Y-102804761D01*
X316836666Y-103757142D02*
X316836666Y-104233333D01*
X317122380Y-103661904D02*
X316122380Y-103995238D01*
X317122380Y-104328571D01*
X316122380Y-104519047D02*
X316122380Y-105090476D01*
X317122380Y-104804761D02*
X316122380Y-104804761D01*
X316836666Y-105376190D02*
X316836666Y-105852380D01*
X317122380Y-105280952D02*
X316122380Y-105614285D01*
X317122380Y-105947619D01*
X317122380Y-106804761D02*
X317122380Y-106233333D01*
X317122380Y-106519047D02*
X316122380Y-106519047D01*
X316265238Y-106423809D01*
X316360476Y-106328571D01*
X316408095Y-106233333D01*
%TO.C,D29*%
X240939880Y-144041964D02*
X239939880Y-144041964D01*
X239939880Y-144280059D01*
X239987500Y-144422916D01*
X240082738Y-144518154D01*
X240177976Y-144565773D01*
X240368452Y-144613392D01*
X240511309Y-144613392D01*
X240701785Y-144565773D01*
X240797023Y-144518154D01*
X240892261Y-144422916D01*
X240939880Y-144280059D01*
X240939880Y-144041964D01*
X240035119Y-144994345D02*
X239987500Y-145041964D01*
X239939880Y-145137202D01*
X239939880Y-145375297D01*
X239987500Y-145470535D01*
X240035119Y-145518154D01*
X240130357Y-145565773D01*
X240225595Y-145565773D01*
X240368452Y-145518154D01*
X240939880Y-144946726D01*
X240939880Y-145565773D01*
X240939880Y-146041964D02*
X240939880Y-146232440D01*
X240892261Y-146327678D01*
X240844642Y-146375297D01*
X240701785Y-146470535D01*
X240511309Y-146518154D01*
X240130357Y-146518154D01*
X240035119Y-146470535D01*
X239987500Y-146422916D01*
X239939880Y-146327678D01*
X239939880Y-146137202D01*
X239987500Y-146041964D01*
X240035119Y-145994345D01*
X240130357Y-145946726D01*
X240368452Y-145946726D01*
X240463690Y-145994345D01*
X240511309Y-146041964D01*
X240558928Y-146137202D01*
X240558928Y-146327678D01*
X240511309Y-146422916D01*
X240463690Y-146470535D01*
X240368452Y-146518154D01*
%TO.C,R_INDICATOR3*%
X42480952Y-49288630D02*
X42814285Y-48812440D01*
X43052380Y-49288630D02*
X43052380Y-48288630D01*
X42671428Y-48288630D01*
X42576190Y-48336250D01*
X42528571Y-48383869D01*
X42480952Y-48479107D01*
X42480952Y-48621964D01*
X42528571Y-48717202D01*
X42576190Y-48764821D01*
X42671428Y-48812440D01*
X43052380Y-48812440D01*
X42290476Y-49383869D02*
X41528571Y-49383869D01*
X41290476Y-49288630D02*
X41290476Y-48288630D01*
X40814285Y-49288630D02*
X40814285Y-48288630D01*
X40242857Y-49288630D01*
X40242857Y-48288630D01*
X39766666Y-49288630D02*
X39766666Y-48288630D01*
X39528571Y-48288630D01*
X39385714Y-48336250D01*
X39290476Y-48431488D01*
X39242857Y-48526726D01*
X39195238Y-48717202D01*
X39195238Y-48860059D01*
X39242857Y-49050535D01*
X39290476Y-49145773D01*
X39385714Y-49241011D01*
X39528571Y-49288630D01*
X39766666Y-49288630D01*
X38766666Y-49288630D02*
X38766666Y-48288630D01*
X37719047Y-49193392D02*
X37766666Y-49241011D01*
X37909523Y-49288630D01*
X38004761Y-49288630D01*
X38147619Y-49241011D01*
X38242857Y-49145773D01*
X38290476Y-49050535D01*
X38338095Y-48860059D01*
X38338095Y-48717202D01*
X38290476Y-48526726D01*
X38242857Y-48431488D01*
X38147619Y-48336250D01*
X38004761Y-48288630D01*
X37909523Y-48288630D01*
X37766666Y-48336250D01*
X37719047Y-48383869D01*
X37338095Y-49002916D02*
X36861904Y-49002916D01*
X37433333Y-49288630D02*
X37100000Y-48288630D01*
X36766666Y-49288630D01*
X36576190Y-48288630D02*
X36004761Y-48288630D01*
X36290476Y-49288630D02*
X36290476Y-48288630D01*
X35480952Y-48288630D02*
X35290476Y-48288630D01*
X35195238Y-48336250D01*
X35100000Y-48431488D01*
X35052380Y-48621964D01*
X35052380Y-48955297D01*
X35100000Y-49145773D01*
X35195238Y-49241011D01*
X35290476Y-49288630D01*
X35480952Y-49288630D01*
X35576190Y-49241011D01*
X35671428Y-49145773D01*
X35719047Y-48955297D01*
X35719047Y-48621964D01*
X35671428Y-48431488D01*
X35576190Y-48336250D01*
X35480952Y-48288630D01*
X34052380Y-49288630D02*
X34385714Y-48812440D01*
X34623809Y-49288630D02*
X34623809Y-48288630D01*
X34242857Y-48288630D01*
X34147619Y-48336250D01*
X34100000Y-48383869D01*
X34052380Y-48479107D01*
X34052380Y-48621964D01*
X34100000Y-48717202D01*
X34147619Y-48764821D01*
X34242857Y-48812440D01*
X34623809Y-48812440D01*
X33719047Y-48288630D02*
X33100000Y-48288630D01*
X33433333Y-48669583D01*
X33290476Y-48669583D01*
X33195238Y-48717202D01*
X33147619Y-48764821D01*
X33100000Y-48860059D01*
X33100000Y-49098154D01*
X33147619Y-49193392D01*
X33195238Y-49241011D01*
X33290476Y-49288630D01*
X33576190Y-49288630D01*
X33671428Y-49241011D01*
X33719047Y-49193392D01*
%TO.C,R_INDICATOR2*%
X352043452Y-49288630D02*
X352376785Y-48812440D01*
X352614880Y-49288630D02*
X352614880Y-48288630D01*
X352233928Y-48288630D01*
X352138690Y-48336250D01*
X352091071Y-48383869D01*
X352043452Y-48479107D01*
X352043452Y-48621964D01*
X352091071Y-48717202D01*
X352138690Y-48764821D01*
X352233928Y-48812440D01*
X352614880Y-48812440D01*
X351852976Y-49383869D02*
X351091071Y-49383869D01*
X350852976Y-49288630D02*
X350852976Y-48288630D01*
X350376785Y-49288630D02*
X350376785Y-48288630D01*
X349805357Y-49288630D01*
X349805357Y-48288630D01*
X349329166Y-49288630D02*
X349329166Y-48288630D01*
X349091071Y-48288630D01*
X348948214Y-48336250D01*
X348852976Y-48431488D01*
X348805357Y-48526726D01*
X348757738Y-48717202D01*
X348757738Y-48860059D01*
X348805357Y-49050535D01*
X348852976Y-49145773D01*
X348948214Y-49241011D01*
X349091071Y-49288630D01*
X349329166Y-49288630D01*
X348329166Y-49288630D02*
X348329166Y-48288630D01*
X347281547Y-49193392D02*
X347329166Y-49241011D01*
X347472023Y-49288630D01*
X347567261Y-49288630D01*
X347710119Y-49241011D01*
X347805357Y-49145773D01*
X347852976Y-49050535D01*
X347900595Y-48860059D01*
X347900595Y-48717202D01*
X347852976Y-48526726D01*
X347805357Y-48431488D01*
X347710119Y-48336250D01*
X347567261Y-48288630D01*
X347472023Y-48288630D01*
X347329166Y-48336250D01*
X347281547Y-48383869D01*
X346900595Y-49002916D02*
X346424404Y-49002916D01*
X346995833Y-49288630D02*
X346662500Y-48288630D01*
X346329166Y-49288630D01*
X346138690Y-48288630D02*
X345567261Y-48288630D01*
X345852976Y-49288630D02*
X345852976Y-48288630D01*
X345043452Y-48288630D02*
X344852976Y-48288630D01*
X344757738Y-48336250D01*
X344662500Y-48431488D01*
X344614880Y-48621964D01*
X344614880Y-48955297D01*
X344662500Y-49145773D01*
X344757738Y-49241011D01*
X344852976Y-49288630D01*
X345043452Y-49288630D01*
X345138690Y-49241011D01*
X345233928Y-49145773D01*
X345281547Y-48955297D01*
X345281547Y-48621964D01*
X345233928Y-48431488D01*
X345138690Y-48336250D01*
X345043452Y-48288630D01*
X343614880Y-49288630D02*
X343948214Y-48812440D01*
X344186309Y-49288630D02*
X344186309Y-48288630D01*
X343805357Y-48288630D01*
X343710119Y-48336250D01*
X343662500Y-48383869D01*
X343614880Y-48479107D01*
X343614880Y-48621964D01*
X343662500Y-48717202D01*
X343710119Y-48764821D01*
X343805357Y-48812440D01*
X344186309Y-48812440D01*
X343233928Y-48383869D02*
X343186309Y-48336250D01*
X343091071Y-48288630D01*
X342852976Y-48288630D01*
X342757738Y-48336250D01*
X342710119Y-48383869D01*
X342662500Y-48479107D01*
X342662500Y-48574345D01*
X342710119Y-48717202D01*
X343281547Y-49288630D01*
X342662500Y-49288630D01*
%TO.C,D16*%
X136958630Y-105148214D02*
X135958630Y-105148214D01*
X135958630Y-105386309D01*
X136006250Y-105529166D01*
X136101488Y-105624404D01*
X136196726Y-105672023D01*
X136387202Y-105719642D01*
X136530059Y-105719642D01*
X136720535Y-105672023D01*
X136815773Y-105624404D01*
X136911011Y-105529166D01*
X136958630Y-105386309D01*
X136958630Y-105148214D01*
X136958630Y-106672023D02*
X136958630Y-106100595D01*
X136958630Y-106386309D02*
X135958630Y-106386309D01*
X136101488Y-106291071D01*
X136196726Y-106195833D01*
X136244345Y-106100595D01*
X135958630Y-107529166D02*
X135958630Y-107338690D01*
X136006250Y-107243452D01*
X136053869Y-107195833D01*
X136196726Y-107100595D01*
X136387202Y-107052976D01*
X136768154Y-107052976D01*
X136863392Y-107100595D01*
X136911011Y-107148214D01*
X136958630Y-107243452D01*
X136958630Y-107433928D01*
X136911011Y-107529166D01*
X136863392Y-107576785D01*
X136768154Y-107624404D01*
X136530059Y-107624404D01*
X136434821Y-107576785D01*
X136387202Y-107529166D01*
X136339583Y-107433928D01*
X136339583Y-107243452D01*
X136387202Y-107148214D01*
X136434821Y-107100595D01*
X136530059Y-107052976D01*
%TO.C,D35*%
X275071130Y-67048214D02*
X274071130Y-67048214D01*
X274071130Y-67286309D01*
X274118750Y-67429166D01*
X274213988Y-67524404D01*
X274309226Y-67572023D01*
X274499702Y-67619642D01*
X274642559Y-67619642D01*
X274833035Y-67572023D01*
X274928273Y-67524404D01*
X275023511Y-67429166D01*
X275071130Y-67286309D01*
X275071130Y-67048214D01*
X274071130Y-67952976D02*
X274071130Y-68572023D01*
X274452083Y-68238690D01*
X274452083Y-68381547D01*
X274499702Y-68476785D01*
X274547321Y-68524404D01*
X274642559Y-68572023D01*
X274880654Y-68572023D01*
X274975892Y-68524404D01*
X275023511Y-68476785D01*
X275071130Y-68381547D01*
X275071130Y-68095833D01*
X275023511Y-68000595D01*
X274975892Y-67952976D01*
X274071130Y-69476785D02*
X274071130Y-69000595D01*
X274547321Y-68952976D01*
X274499702Y-69000595D01*
X274452083Y-69095833D01*
X274452083Y-69333928D01*
X274499702Y-69429166D01*
X274547321Y-69476785D01*
X274642559Y-69524404D01*
X274880654Y-69524404D01*
X274975892Y-69476785D01*
X275023511Y-69429166D01*
X275071130Y-69333928D01*
X275071130Y-69095833D01*
X275023511Y-69000595D01*
X274975892Y-68952976D01*
%TO.C,D27*%
X222683630Y-124198214D02*
X221683630Y-124198214D01*
X221683630Y-124436309D01*
X221731250Y-124579166D01*
X221826488Y-124674404D01*
X221921726Y-124722023D01*
X222112202Y-124769642D01*
X222255059Y-124769642D01*
X222445535Y-124722023D01*
X222540773Y-124674404D01*
X222636011Y-124579166D01*
X222683630Y-124436309D01*
X222683630Y-124198214D01*
X221778869Y-125150595D02*
X221731250Y-125198214D01*
X221683630Y-125293452D01*
X221683630Y-125531547D01*
X221731250Y-125626785D01*
X221778869Y-125674404D01*
X221874107Y-125722023D01*
X221969345Y-125722023D01*
X222112202Y-125674404D01*
X222683630Y-125102976D01*
X222683630Y-125722023D01*
X221683630Y-126055357D02*
X221683630Y-126722023D01*
X222683630Y-126293452D01*
%TO.C,C_UCAP1*%
X322185015Y-103489450D02*
X322185015Y-103422107D01*
X322117671Y-103287420D01*
X322050328Y-103220076D01*
X321915641Y-103152733D01*
X321780954Y-103152733D01*
X321679938Y-103186405D01*
X321511580Y-103287420D01*
X321410564Y-103388435D01*
X321309549Y-103556794D01*
X321275877Y-103657809D01*
X321275877Y-103792496D01*
X321343221Y-103927183D01*
X321410564Y-103994527D01*
X321545251Y-104061870D01*
X321612595Y-104061870D01*
X322454389Y-103489450D02*
X322993137Y-104028198D01*
X322387045Y-104971007D02*
X322959465Y-104398588D01*
X323060480Y-104364916D01*
X323127824Y-104364916D01*
X323228839Y-104398588D01*
X323363526Y-104533275D01*
X323397198Y-104634290D01*
X323397198Y-104701633D01*
X323363526Y-104802649D01*
X322791106Y-105375068D01*
X324171648Y-105476084D02*
X324171648Y-105408740D01*
X324104305Y-105274053D01*
X324036961Y-105206710D01*
X323902274Y-105139366D01*
X323767587Y-105139366D01*
X323666572Y-105173038D01*
X323498213Y-105274053D01*
X323397198Y-105375068D01*
X323296182Y-105543427D01*
X323262511Y-105644443D01*
X323262511Y-105779130D01*
X323329854Y-105913817D01*
X323397198Y-105981160D01*
X323531885Y-106048504D01*
X323599228Y-106048504D01*
X324306335Y-105880145D02*
X324643053Y-106216862D01*
X324441022Y-105610771D02*
X323969618Y-106553580D01*
X324912427Y-106082175D01*
X325148129Y-106317878D02*
X324441022Y-107024984D01*
X324710396Y-107294358D01*
X324811411Y-107328030D01*
X324878755Y-107328030D01*
X324979770Y-107294358D01*
X325080785Y-107193343D01*
X325114457Y-107092328D01*
X325114457Y-107024984D01*
X325080785Y-106923969D01*
X324811411Y-106654595D01*
X326225625Y-107395374D02*
X325821564Y-106991313D01*
X326023594Y-107193343D02*
X325316488Y-107900450D01*
X325350159Y-107732091D01*
X325350159Y-107597404D01*
X325316488Y-107496389D01*
%TO.C,D1*%
X52821130Y-144518154D02*
X51821130Y-144518154D01*
X51821130Y-144756250D01*
X51868750Y-144899107D01*
X51963988Y-144994345D01*
X52059226Y-145041964D01*
X52249702Y-145089583D01*
X52392559Y-145089583D01*
X52583035Y-145041964D01*
X52678273Y-144994345D01*
X52773511Y-144899107D01*
X52821130Y-144756250D01*
X52821130Y-144518154D01*
X52821130Y-146041964D02*
X52821130Y-145470535D01*
X52821130Y-145756250D02*
X51821130Y-145756250D01*
X51963988Y-145661011D01*
X52059226Y-145565773D01*
X52106845Y-145470535D01*
%TO.C,D34*%
X251258630Y-43235714D02*
X250258630Y-43235714D01*
X250258630Y-43473809D01*
X250306250Y-43616666D01*
X250401488Y-43711904D01*
X250496726Y-43759523D01*
X250687202Y-43807142D01*
X250830059Y-43807142D01*
X251020535Y-43759523D01*
X251115773Y-43711904D01*
X251211011Y-43616666D01*
X251258630Y-43473809D01*
X251258630Y-43235714D01*
X250258630Y-44140476D02*
X250258630Y-44759523D01*
X250639583Y-44426190D01*
X250639583Y-44569047D01*
X250687202Y-44664285D01*
X250734821Y-44711904D01*
X250830059Y-44759523D01*
X251068154Y-44759523D01*
X251163392Y-44711904D01*
X251211011Y-44664285D01*
X251258630Y-44569047D01*
X251258630Y-44283333D01*
X251211011Y-44188095D01*
X251163392Y-44140476D01*
X250591964Y-45616666D02*
X251258630Y-45616666D01*
X250211011Y-45378571D02*
X250925297Y-45140476D01*
X250925297Y-45759523D01*
%TO.C,D3*%
X46471130Y-67524404D02*
X45471130Y-67524404D01*
X45471130Y-67762500D01*
X45518750Y-67905357D01*
X45613988Y-68000595D01*
X45709226Y-68048214D01*
X45899702Y-68095833D01*
X46042559Y-68095833D01*
X46233035Y-68048214D01*
X46328273Y-68000595D01*
X46423511Y-67905357D01*
X46471130Y-67762500D01*
X46471130Y-67524404D01*
X45471130Y-68429166D02*
X45471130Y-69048214D01*
X45852083Y-68714880D01*
X45852083Y-68857738D01*
X45899702Y-68952976D01*
X45947321Y-69000595D01*
X46042559Y-69048214D01*
X46280654Y-69048214D01*
X46375892Y-69000595D01*
X46423511Y-68952976D01*
X46471130Y-68857738D01*
X46471130Y-68572023D01*
X46423511Y-68476785D01*
X46375892Y-68429166D01*
%TO.C,R_HWB1*%
X329052857Y-117022380D02*
X329386190Y-116546190D01*
X329624285Y-117022380D02*
X329624285Y-116022380D01*
X329243333Y-116022380D01*
X329148095Y-116070000D01*
X329100476Y-116117619D01*
X329052857Y-116212857D01*
X329052857Y-116355714D01*
X329100476Y-116450952D01*
X329148095Y-116498571D01*
X329243333Y-116546190D01*
X329624285Y-116546190D01*
X328862380Y-117117619D02*
X328100476Y-117117619D01*
X327862380Y-117022380D02*
X327862380Y-116022380D01*
X327862380Y-116498571D02*
X327290952Y-116498571D01*
X327290952Y-117022380D02*
X327290952Y-116022380D01*
X326910000Y-116022380D02*
X326671904Y-117022380D01*
X326481428Y-116308095D01*
X326290952Y-117022380D01*
X326052857Y-116022380D01*
X325338571Y-116498571D02*
X325195714Y-116546190D01*
X325148095Y-116593809D01*
X325100476Y-116689047D01*
X325100476Y-116831904D01*
X325148095Y-116927142D01*
X325195714Y-116974761D01*
X325290952Y-117022380D01*
X325671904Y-117022380D01*
X325671904Y-116022380D01*
X325338571Y-116022380D01*
X325243333Y-116070000D01*
X325195714Y-116117619D01*
X325148095Y-116212857D01*
X325148095Y-116308095D01*
X325195714Y-116403333D01*
X325243333Y-116450952D01*
X325338571Y-116498571D01*
X325671904Y-116498571D01*
X324148095Y-117022380D02*
X324719523Y-117022380D01*
X324433809Y-117022380D02*
X324433809Y-116022380D01*
X324529047Y-116165238D01*
X324624285Y-116260476D01*
X324719523Y-116308095D01*
%TO.C,D2*%
X48852380Y-44505654D02*
X47852380Y-44505654D01*
X47852380Y-44743750D01*
X47900000Y-44886607D01*
X47995238Y-44981845D01*
X48090476Y-45029464D01*
X48280952Y-45077083D01*
X48423809Y-45077083D01*
X48614285Y-45029464D01*
X48709523Y-44981845D01*
X48804761Y-44886607D01*
X48852380Y-44743750D01*
X48852380Y-44505654D01*
X47947619Y-45458035D02*
X47900000Y-45505654D01*
X47852380Y-45600892D01*
X47852380Y-45838988D01*
X47900000Y-45934226D01*
X47947619Y-45981845D01*
X48042857Y-46029464D01*
X48138095Y-46029464D01*
X48280952Y-45981845D01*
X48852380Y-45410416D01*
X48852380Y-46029464D01*
%TO.C,J3*%
X317833333Y-66932380D02*
X317833333Y-67646666D01*
X317880952Y-67789523D01*
X317976190Y-67884761D01*
X318119047Y-67932380D01*
X318214285Y-67932380D01*
X317452380Y-66932380D02*
X316833333Y-66932380D01*
X317166666Y-67313333D01*
X317023809Y-67313333D01*
X316928571Y-67360952D01*
X316880952Y-67408571D01*
X316833333Y-67503809D01*
X316833333Y-67741904D01*
X316880952Y-67837142D01*
X316928571Y-67884761D01*
X317023809Y-67932380D01*
X317309523Y-67932380D01*
X317404761Y-67884761D01*
X317452380Y-67837142D01*
%TO.C,D47*%
X373092380Y-87595714D02*
X372092380Y-87595714D01*
X372092380Y-87833809D01*
X372140000Y-87976666D01*
X372235238Y-88071904D01*
X372330476Y-88119523D01*
X372520952Y-88167142D01*
X372663809Y-88167142D01*
X372854285Y-88119523D01*
X372949523Y-88071904D01*
X373044761Y-87976666D01*
X373092380Y-87833809D01*
X373092380Y-87595714D01*
X372425714Y-89024285D02*
X373092380Y-89024285D01*
X372044761Y-88786190D02*
X372759047Y-88548095D01*
X372759047Y-89167142D01*
X372092380Y-89452857D02*
X372092380Y-90119523D01*
X373092380Y-89690952D01*
%TO.C,D4*%
X52821130Y-86574404D02*
X51821130Y-86574404D01*
X51821130Y-86812500D01*
X51868750Y-86955357D01*
X51963988Y-87050595D01*
X52059226Y-87098214D01*
X52249702Y-87145833D01*
X52392559Y-87145833D01*
X52583035Y-87098214D01*
X52678273Y-87050595D01*
X52773511Y-86955357D01*
X52821130Y-86812500D01*
X52821130Y-86574404D01*
X52154464Y-88002976D02*
X52821130Y-88002976D01*
X51773511Y-87764880D02*
X52487797Y-87526785D01*
X52487797Y-88145833D01*
%TO.C,D42*%
X336983630Y-44029464D02*
X335983630Y-44029464D01*
X335983630Y-44267559D01*
X336031250Y-44410416D01*
X336126488Y-44505654D01*
X336221726Y-44553273D01*
X336412202Y-44600892D01*
X336555059Y-44600892D01*
X336745535Y-44553273D01*
X336840773Y-44505654D01*
X336936011Y-44410416D01*
X336983630Y-44267559D01*
X336983630Y-44029464D01*
X336316964Y-45458035D02*
X336983630Y-45458035D01*
X335936011Y-45219940D02*
X336650297Y-44981845D01*
X336650297Y-45600892D01*
X336078869Y-45934226D02*
X336031250Y-45981845D01*
X335983630Y-46077083D01*
X335983630Y-46315178D01*
X336031250Y-46410416D01*
X336078869Y-46458035D01*
X336174107Y-46505654D01*
X336269345Y-46505654D01*
X336412202Y-46458035D01*
X336983630Y-45886607D01*
X336983630Y-46505654D01*
%TO.C,D46*%
X373222380Y-44805714D02*
X372222380Y-44805714D01*
X372222380Y-45043809D01*
X372270000Y-45186666D01*
X372365238Y-45281904D01*
X372460476Y-45329523D01*
X372650952Y-45377142D01*
X372793809Y-45377142D01*
X372984285Y-45329523D01*
X373079523Y-45281904D01*
X373174761Y-45186666D01*
X373222380Y-45043809D01*
X373222380Y-44805714D01*
X372555714Y-46234285D02*
X373222380Y-46234285D01*
X372174761Y-45996190D02*
X372889047Y-45758095D01*
X372889047Y-46377142D01*
X372222380Y-47186666D02*
X372222380Y-46996190D01*
X372270000Y-46900952D01*
X372317619Y-46853333D01*
X372460476Y-46758095D01*
X372650952Y-46710476D01*
X373031904Y-46710476D01*
X373127142Y-46758095D01*
X373174761Y-46805714D01*
X373222380Y-46900952D01*
X373222380Y-47091428D01*
X373174761Y-47186666D01*
X373127142Y-47234285D01*
X373031904Y-47281904D01*
X372793809Y-47281904D01*
X372698571Y-47234285D01*
X372650952Y-47186666D01*
X372603333Y-47091428D01*
X372603333Y-46900952D01*
X372650952Y-46805714D01*
X372698571Y-46758095D01*
X372793809Y-46710476D01*
%TO.C,C_DECOUP4*%
X321054236Y-100958672D02*
X321054236Y-100891328D01*
X320986893Y-100756641D01*
X320919549Y-100689298D01*
X320784862Y-100621954D01*
X320650175Y-100621954D01*
X320549160Y-100655626D01*
X320380801Y-100756641D01*
X320279786Y-100857657D01*
X320178771Y-101026015D01*
X320145099Y-101127031D01*
X320145099Y-101261718D01*
X320212442Y-101396405D01*
X320279786Y-101463748D01*
X320414473Y-101531092D01*
X320481816Y-101531092D01*
X321323610Y-100958672D02*
X321862358Y-101497420D01*
X321963373Y-101733122D02*
X321256267Y-102440229D01*
X321424625Y-102608588D01*
X321559312Y-102675931D01*
X321693999Y-102675931D01*
X321795015Y-102642259D01*
X321963373Y-102541244D01*
X322064389Y-102440229D01*
X322165404Y-102271870D01*
X322199076Y-102170855D01*
X322199076Y-102036168D01*
X322131732Y-101901481D01*
X321963373Y-101733122D01*
X322300091Y-102810618D02*
X322535793Y-103046320D01*
X323007198Y-102776946D02*
X322670480Y-102440229D01*
X321963373Y-103147336D01*
X322300091Y-103484053D01*
X323646961Y-103551397D02*
X323646961Y-103484053D01*
X323579618Y-103349366D01*
X323512274Y-103282023D01*
X323377587Y-103214679D01*
X323242900Y-103214679D01*
X323141885Y-103248351D01*
X322973526Y-103349366D01*
X322872511Y-103450381D01*
X322771495Y-103618740D01*
X322737824Y-103719756D01*
X322737824Y-103854443D01*
X322805167Y-103989130D01*
X322872511Y-104056473D01*
X323007198Y-104123817D01*
X323074541Y-104123817D01*
X323444931Y-104628893D02*
X323579618Y-104763580D01*
X323680633Y-104797252D01*
X323815320Y-104797252D01*
X323983679Y-104696236D01*
X324219381Y-104460534D01*
X324320396Y-104292175D01*
X324320396Y-104157488D01*
X324286724Y-104056473D01*
X324152037Y-103921786D01*
X324051022Y-103888114D01*
X323916335Y-103888114D01*
X323747976Y-103989130D01*
X323512274Y-104224832D01*
X323411259Y-104393191D01*
X323411259Y-104527878D01*
X323444931Y-104628893D01*
X324051022Y-105234984D02*
X324623442Y-104662565D01*
X324724457Y-104628893D01*
X324791801Y-104628893D01*
X324892816Y-104662565D01*
X325027503Y-104797252D01*
X325061175Y-104898267D01*
X325061175Y-104965610D01*
X325027503Y-105066626D01*
X324455083Y-105639045D01*
X325498907Y-105268656D02*
X324791801Y-105975763D01*
X325061175Y-106245137D01*
X325162190Y-106278809D01*
X325229533Y-106278809D01*
X325330549Y-106245137D01*
X325431564Y-106144122D01*
X325465236Y-106043106D01*
X325465236Y-105975763D01*
X325431564Y-105874748D01*
X325162190Y-105605374D01*
X326037655Y-106750213D02*
X326509060Y-106278809D01*
X325599923Y-106851228D02*
X325936640Y-106177793D01*
X326374373Y-106615526D01*
%TO.C,D25*%
X208396130Y-86098214D02*
X207396130Y-86098214D01*
X207396130Y-86336309D01*
X207443750Y-86479166D01*
X207538988Y-86574404D01*
X207634226Y-86622023D01*
X207824702Y-86669642D01*
X207967559Y-86669642D01*
X208158035Y-86622023D01*
X208253273Y-86574404D01*
X208348511Y-86479166D01*
X208396130Y-86336309D01*
X208396130Y-86098214D01*
X207491369Y-87050595D02*
X207443750Y-87098214D01*
X207396130Y-87193452D01*
X207396130Y-87431547D01*
X207443750Y-87526785D01*
X207491369Y-87574404D01*
X207586607Y-87622023D01*
X207681845Y-87622023D01*
X207824702Y-87574404D01*
X208396130Y-87002976D01*
X208396130Y-87622023D01*
X207396130Y-88526785D02*
X207396130Y-88050595D01*
X207872321Y-88002976D01*
X207824702Y-88050595D01*
X207777083Y-88145833D01*
X207777083Y-88383928D01*
X207824702Y-88479166D01*
X207872321Y-88526785D01*
X207967559Y-88574404D01*
X208205654Y-88574404D01*
X208300892Y-88526785D01*
X208348511Y-88479166D01*
X208396130Y-88383928D01*
X208396130Y-88145833D01*
X208348511Y-88050595D01*
X208300892Y-88002976D01*
%TO.C,D6*%
X67108630Y-124674404D02*
X66108630Y-124674404D01*
X66108630Y-124912500D01*
X66156250Y-125055357D01*
X66251488Y-125150595D01*
X66346726Y-125198214D01*
X66537202Y-125245833D01*
X66680059Y-125245833D01*
X66870535Y-125198214D01*
X66965773Y-125150595D01*
X67061011Y-125055357D01*
X67108630Y-124912500D01*
X67108630Y-124674404D01*
X66108630Y-126102976D02*
X66108630Y-125912500D01*
X66156250Y-125817261D01*
X66203869Y-125769642D01*
X66346726Y-125674404D01*
X66537202Y-125626785D01*
X66918154Y-125626785D01*
X67013392Y-125674404D01*
X67061011Y-125722023D01*
X67108630Y-125817261D01*
X67108630Y-126007738D01*
X67061011Y-126102976D01*
X67013392Y-126150595D01*
X66918154Y-126198214D01*
X66680059Y-126198214D01*
X66584821Y-126150595D01*
X66537202Y-126102976D01*
X66489583Y-126007738D01*
X66489583Y-125817261D01*
X66537202Y-125722023D01*
X66584821Y-125674404D01*
X66680059Y-125626785D01*
%TO.C,D32*%
X251258630Y-105148214D02*
X250258630Y-105148214D01*
X250258630Y-105386309D01*
X250306250Y-105529166D01*
X250401488Y-105624404D01*
X250496726Y-105672023D01*
X250687202Y-105719642D01*
X250830059Y-105719642D01*
X251020535Y-105672023D01*
X251115773Y-105624404D01*
X251211011Y-105529166D01*
X251258630Y-105386309D01*
X251258630Y-105148214D01*
X250258630Y-106052976D02*
X250258630Y-106672023D01*
X250639583Y-106338690D01*
X250639583Y-106481547D01*
X250687202Y-106576785D01*
X250734821Y-106624404D01*
X250830059Y-106672023D01*
X251068154Y-106672023D01*
X251163392Y-106624404D01*
X251211011Y-106576785D01*
X251258630Y-106481547D01*
X251258630Y-106195833D01*
X251211011Y-106100595D01*
X251163392Y-106052976D01*
X250353869Y-107052976D02*
X250306250Y-107100595D01*
X250258630Y-107195833D01*
X250258630Y-107433928D01*
X250306250Y-107529166D01*
X250353869Y-107576785D01*
X250449107Y-107624404D01*
X250544345Y-107624404D01*
X250687202Y-107576785D01*
X251258630Y-107005357D01*
X251258630Y-107624404D01*
%TO.C,D41*%
X322696130Y-68635714D02*
X321696130Y-68635714D01*
X321696130Y-68873809D01*
X321743750Y-69016666D01*
X321838988Y-69111904D01*
X321934226Y-69159523D01*
X322124702Y-69207142D01*
X322267559Y-69207142D01*
X322458035Y-69159523D01*
X322553273Y-69111904D01*
X322648511Y-69016666D01*
X322696130Y-68873809D01*
X322696130Y-68635714D01*
X322029464Y-70064285D02*
X322696130Y-70064285D01*
X321648511Y-69826190D02*
X322362797Y-69588095D01*
X322362797Y-70207142D01*
X322696130Y-71111904D02*
X322696130Y-70540476D01*
X322696130Y-70826190D02*
X321696130Y-70826190D01*
X321838988Y-70730952D01*
X321934226Y-70635714D01*
X321981845Y-70540476D01*
%TO.C,R_RST1*%
X329599436Y-101085696D02*
X329498421Y-100513276D01*
X330003497Y-100681635D02*
X329296390Y-99974528D01*
X329027016Y-100243902D01*
X328993345Y-100344918D01*
X328993345Y-100412261D01*
X329027016Y-100513276D01*
X329128032Y-100614292D01*
X329229047Y-100647963D01*
X329296390Y-100647963D01*
X329397406Y-100614292D01*
X329666780Y-100344918D01*
X329532093Y-101287727D02*
X328993345Y-101826475D01*
X328353581Y-102331551D02*
X328252566Y-101759131D01*
X328757642Y-101927490D02*
X328050536Y-101220383D01*
X327781162Y-101489757D01*
X327747490Y-101590772D01*
X327747490Y-101658116D01*
X327781162Y-101759131D01*
X327882177Y-101860146D01*
X327983192Y-101893818D01*
X328050536Y-101893818D01*
X328151551Y-101860146D01*
X328420925Y-101590772D01*
X328050536Y-102567253D02*
X327983192Y-102701940D01*
X327814833Y-102870299D01*
X327713818Y-102903971D01*
X327646475Y-102903971D01*
X327545459Y-102870299D01*
X327478116Y-102802955D01*
X327444444Y-102701940D01*
X327444444Y-102634597D01*
X327478116Y-102533581D01*
X327579131Y-102365223D01*
X327612803Y-102264207D01*
X327612803Y-102196864D01*
X327579131Y-102095849D01*
X327511788Y-102028505D01*
X327410772Y-101994833D01*
X327343429Y-101994833D01*
X327242414Y-102028505D01*
X327074055Y-102196864D01*
X327006711Y-102331551D01*
X326771009Y-102499910D02*
X326366948Y-102903971D01*
X327276085Y-103409047D02*
X326568979Y-102701940D01*
X326467963Y-104217169D02*
X326872024Y-103813108D01*
X326669994Y-104015138D02*
X325962887Y-103308032D01*
X326131246Y-103341703D01*
X326265933Y-103341703D01*
X326366948Y-103308032D01*
%TO.C,D23*%
X184583630Y-124198214D02*
X183583630Y-124198214D01*
X183583630Y-124436309D01*
X183631250Y-124579166D01*
X183726488Y-124674404D01*
X183821726Y-124722023D01*
X184012202Y-124769642D01*
X184155059Y-124769642D01*
X184345535Y-124722023D01*
X184440773Y-124674404D01*
X184536011Y-124579166D01*
X184583630Y-124436309D01*
X184583630Y-124198214D01*
X183678869Y-125150595D02*
X183631250Y-125198214D01*
X183583630Y-125293452D01*
X183583630Y-125531547D01*
X183631250Y-125626785D01*
X183678869Y-125674404D01*
X183774107Y-125722023D01*
X183869345Y-125722023D01*
X184012202Y-125674404D01*
X184583630Y-125102976D01*
X184583630Y-125722023D01*
X183583630Y-126055357D02*
X183583630Y-126674404D01*
X183964583Y-126341071D01*
X183964583Y-126483928D01*
X184012202Y-126579166D01*
X184059821Y-126626785D01*
X184155059Y-126674404D01*
X184393154Y-126674404D01*
X184488392Y-126626785D01*
X184536011Y-126579166D01*
X184583630Y-126483928D01*
X184583630Y-126198214D01*
X184536011Y-126102976D01*
X184488392Y-126055357D01*
%TO.C,C_DECOUP1*%
X330447619Y-115847142D02*
X330495238Y-115894761D01*
X330638095Y-115942380D01*
X330733333Y-115942380D01*
X330876190Y-115894761D01*
X330971428Y-115799523D01*
X331019047Y-115704285D01*
X331066666Y-115513809D01*
X331066666Y-115370952D01*
X331019047Y-115180476D01*
X330971428Y-115085238D01*
X330876190Y-114990000D01*
X330733333Y-114942380D01*
X330638095Y-114942380D01*
X330495238Y-114990000D01*
X330447619Y-115037619D01*
X330257142Y-116037619D02*
X329495238Y-116037619D01*
X329257142Y-115942380D02*
X329257142Y-114942380D01*
X329019047Y-114942380D01*
X328876190Y-114990000D01*
X328780952Y-115085238D01*
X328733333Y-115180476D01*
X328685714Y-115370952D01*
X328685714Y-115513809D01*
X328733333Y-115704285D01*
X328780952Y-115799523D01*
X328876190Y-115894761D01*
X329019047Y-115942380D01*
X329257142Y-115942380D01*
X328257142Y-115418571D02*
X327923809Y-115418571D01*
X327780952Y-115942380D02*
X328257142Y-115942380D01*
X328257142Y-114942380D01*
X327780952Y-114942380D01*
X326780952Y-115847142D02*
X326828571Y-115894761D01*
X326971428Y-115942380D01*
X327066666Y-115942380D01*
X327209523Y-115894761D01*
X327304761Y-115799523D01*
X327352380Y-115704285D01*
X327400000Y-115513809D01*
X327400000Y-115370952D01*
X327352380Y-115180476D01*
X327304761Y-115085238D01*
X327209523Y-114990000D01*
X327066666Y-114942380D01*
X326971428Y-114942380D01*
X326828571Y-114990000D01*
X326780952Y-115037619D01*
X326161904Y-114942380D02*
X325971428Y-114942380D01*
X325876190Y-114990000D01*
X325780952Y-115085238D01*
X325733333Y-115275714D01*
X325733333Y-115609047D01*
X325780952Y-115799523D01*
X325876190Y-115894761D01*
X325971428Y-115942380D01*
X326161904Y-115942380D01*
X326257142Y-115894761D01*
X326352380Y-115799523D01*
X326400000Y-115609047D01*
X326400000Y-115275714D01*
X326352380Y-115085238D01*
X326257142Y-114990000D01*
X326161904Y-114942380D01*
X325304761Y-114942380D02*
X325304761Y-115751904D01*
X325257142Y-115847142D01*
X325209523Y-115894761D01*
X325114285Y-115942380D01*
X324923809Y-115942380D01*
X324828571Y-115894761D01*
X324780952Y-115847142D01*
X324733333Y-115751904D01*
X324733333Y-114942380D01*
X324257142Y-115942380D02*
X324257142Y-114942380D01*
X323876190Y-114942380D01*
X323780952Y-114990000D01*
X323733333Y-115037619D01*
X323685714Y-115132857D01*
X323685714Y-115275714D01*
X323733333Y-115370952D01*
X323780952Y-115418571D01*
X323876190Y-115466190D01*
X324257142Y-115466190D01*
X322733333Y-115942380D02*
X323304761Y-115942380D01*
X323019047Y-115942380D02*
X323019047Y-114942380D01*
X323114285Y-115085238D01*
X323209523Y-115180476D01*
X323304761Y-115228095D01*
%TO.C,D38*%
X286977380Y-86098214D02*
X285977380Y-86098214D01*
X285977380Y-86336309D01*
X286025000Y-86479166D01*
X286120238Y-86574404D01*
X286215476Y-86622023D01*
X286405952Y-86669642D01*
X286548809Y-86669642D01*
X286739285Y-86622023D01*
X286834523Y-86574404D01*
X286929761Y-86479166D01*
X286977380Y-86336309D01*
X286977380Y-86098214D01*
X285977380Y-87002976D02*
X285977380Y-87622023D01*
X286358333Y-87288690D01*
X286358333Y-87431547D01*
X286405952Y-87526785D01*
X286453571Y-87574404D01*
X286548809Y-87622023D01*
X286786904Y-87622023D01*
X286882142Y-87574404D01*
X286929761Y-87526785D01*
X286977380Y-87431547D01*
X286977380Y-87145833D01*
X286929761Y-87050595D01*
X286882142Y-87002976D01*
X286405952Y-88193452D02*
X286358333Y-88098214D01*
X286310714Y-88050595D01*
X286215476Y-88002976D01*
X286167857Y-88002976D01*
X286072619Y-88050595D01*
X286025000Y-88098214D01*
X285977380Y-88193452D01*
X285977380Y-88383928D01*
X286025000Y-88479166D01*
X286072619Y-88526785D01*
X286167857Y-88574404D01*
X286215476Y-88574404D01*
X286310714Y-88526785D01*
X286358333Y-88479166D01*
X286405952Y-88383928D01*
X286405952Y-88193452D01*
X286453571Y-88098214D01*
X286501190Y-88050595D01*
X286596428Y-88002976D01*
X286786904Y-88002976D01*
X286882142Y-88050595D01*
X286929761Y-88098214D01*
X286977380Y-88193452D01*
X286977380Y-88383928D01*
X286929761Y-88479166D01*
X286882142Y-88526785D01*
X286786904Y-88574404D01*
X286596428Y-88574404D01*
X286501190Y-88526785D01*
X286453571Y-88479166D01*
X286405952Y-88383928D01*
%TO.C,D11*%
X108383630Y-124198214D02*
X107383630Y-124198214D01*
X107383630Y-124436309D01*
X107431250Y-124579166D01*
X107526488Y-124674404D01*
X107621726Y-124722023D01*
X107812202Y-124769642D01*
X107955059Y-124769642D01*
X108145535Y-124722023D01*
X108240773Y-124674404D01*
X108336011Y-124579166D01*
X108383630Y-124436309D01*
X108383630Y-124198214D01*
X108383630Y-125722023D02*
X108383630Y-125150595D01*
X108383630Y-125436309D02*
X107383630Y-125436309D01*
X107526488Y-125341071D01*
X107621726Y-125245833D01*
X107669345Y-125150595D01*
X108383630Y-126674404D02*
X108383630Y-126102976D01*
X108383630Y-126388690D02*
X107383630Y-126388690D01*
X107526488Y-126293452D01*
X107621726Y-126198214D01*
X107669345Y-126102976D01*
%TO.C,D21*%
X170296130Y-86098214D02*
X169296130Y-86098214D01*
X169296130Y-86336309D01*
X169343750Y-86479166D01*
X169438988Y-86574404D01*
X169534226Y-86622023D01*
X169724702Y-86669642D01*
X169867559Y-86669642D01*
X170058035Y-86622023D01*
X170153273Y-86574404D01*
X170248511Y-86479166D01*
X170296130Y-86336309D01*
X170296130Y-86098214D01*
X169391369Y-87050595D02*
X169343750Y-87098214D01*
X169296130Y-87193452D01*
X169296130Y-87431547D01*
X169343750Y-87526785D01*
X169391369Y-87574404D01*
X169486607Y-87622023D01*
X169581845Y-87622023D01*
X169724702Y-87574404D01*
X170296130Y-87002976D01*
X170296130Y-87622023D01*
X170296130Y-88574404D02*
X170296130Y-88002976D01*
X170296130Y-88288690D02*
X169296130Y-88288690D01*
X169438988Y-88193452D01*
X169534226Y-88098214D01*
X169581845Y-88002976D01*
%TO.C,D10*%
X98858630Y-105148214D02*
X97858630Y-105148214D01*
X97858630Y-105386309D01*
X97906250Y-105529166D01*
X98001488Y-105624404D01*
X98096726Y-105672023D01*
X98287202Y-105719642D01*
X98430059Y-105719642D01*
X98620535Y-105672023D01*
X98715773Y-105624404D01*
X98811011Y-105529166D01*
X98858630Y-105386309D01*
X98858630Y-105148214D01*
X98858630Y-106672023D02*
X98858630Y-106100595D01*
X98858630Y-106386309D02*
X97858630Y-106386309D01*
X98001488Y-106291071D01*
X98096726Y-106195833D01*
X98144345Y-106100595D01*
X97858630Y-107291071D02*
X97858630Y-107386309D01*
X97906250Y-107481547D01*
X97953869Y-107529166D01*
X98049107Y-107576785D01*
X98239583Y-107624404D01*
X98477678Y-107624404D01*
X98668154Y-107576785D01*
X98763392Y-107529166D01*
X98811011Y-107481547D01*
X98858630Y-107386309D01*
X98858630Y-107291071D01*
X98811011Y-107195833D01*
X98763392Y-107148214D01*
X98668154Y-107100595D01*
X98477678Y-107052976D01*
X98239583Y-107052976D01*
X98049107Y-107100595D01*
X97953869Y-107148214D01*
X97906250Y-107195833D01*
X97858630Y-107291071D01*
%TO.C,D7*%
X89333630Y-43711904D02*
X88333630Y-43711904D01*
X88333630Y-43950000D01*
X88381250Y-44092857D01*
X88476488Y-44188095D01*
X88571726Y-44235714D01*
X88762202Y-44283333D01*
X88905059Y-44283333D01*
X89095535Y-44235714D01*
X89190773Y-44188095D01*
X89286011Y-44092857D01*
X89333630Y-43950000D01*
X89333630Y-43711904D01*
X88333630Y-44616666D02*
X88333630Y-45283333D01*
X89333630Y-44854761D01*
%TO.C,D33*%
X263958630Y-124198214D02*
X262958630Y-124198214D01*
X262958630Y-124436309D01*
X263006250Y-124579166D01*
X263101488Y-124674404D01*
X263196726Y-124722023D01*
X263387202Y-124769642D01*
X263530059Y-124769642D01*
X263720535Y-124722023D01*
X263815773Y-124674404D01*
X263911011Y-124579166D01*
X263958630Y-124436309D01*
X263958630Y-124198214D01*
X262958630Y-125102976D02*
X262958630Y-125722023D01*
X263339583Y-125388690D01*
X263339583Y-125531547D01*
X263387202Y-125626785D01*
X263434821Y-125674404D01*
X263530059Y-125722023D01*
X263768154Y-125722023D01*
X263863392Y-125674404D01*
X263911011Y-125626785D01*
X263958630Y-125531547D01*
X263958630Y-125245833D01*
X263911011Y-125150595D01*
X263863392Y-125102976D01*
X262958630Y-126055357D02*
X262958630Y-126674404D01*
X263339583Y-126341071D01*
X263339583Y-126483928D01*
X263387202Y-126579166D01*
X263434821Y-126626785D01*
X263530059Y-126674404D01*
X263768154Y-126674404D01*
X263863392Y-126626785D01*
X263911011Y-126579166D01*
X263958630Y-126483928D01*
X263958630Y-126198214D01*
X263911011Y-126102976D01*
X263863392Y-126055357D01*
%TO.C,D18*%
X318734285Y-44107380D02*
X318734285Y-43107380D01*
X318496190Y-43107380D01*
X318353333Y-43155000D01*
X318258095Y-43250238D01*
X318210476Y-43345476D01*
X318162857Y-43535952D01*
X318162857Y-43678809D01*
X318210476Y-43869285D01*
X318258095Y-43964523D01*
X318353333Y-44059761D01*
X318496190Y-44107380D01*
X318734285Y-44107380D01*
X317210476Y-44107380D02*
X317781904Y-44107380D01*
X317496190Y-44107380D02*
X317496190Y-43107380D01*
X317591428Y-43250238D01*
X317686666Y-43345476D01*
X317781904Y-43393095D01*
X316639047Y-43535952D02*
X316734285Y-43488333D01*
X316781904Y-43440714D01*
X316829523Y-43345476D01*
X316829523Y-43297857D01*
X316781904Y-43202619D01*
X316734285Y-43155000D01*
X316639047Y-43107380D01*
X316448571Y-43107380D01*
X316353333Y-43155000D01*
X316305714Y-43202619D01*
X316258095Y-43297857D01*
X316258095Y-43345476D01*
X316305714Y-43440714D01*
X316353333Y-43488333D01*
X316448571Y-43535952D01*
X316639047Y-43535952D01*
X316734285Y-43583571D01*
X316781904Y-43631190D01*
X316829523Y-43726428D01*
X316829523Y-43916904D01*
X316781904Y-44012142D01*
X316734285Y-44059761D01*
X316639047Y-44107380D01*
X316448571Y-44107380D01*
X316353333Y-44059761D01*
X316305714Y-44012142D01*
X316258095Y-43916904D01*
X316258095Y-43726428D01*
X316305714Y-43631190D01*
X316353333Y-43583571D01*
X316448571Y-43535952D01*
%TO.C,D31*%
X246496130Y-86098214D02*
X245496130Y-86098214D01*
X245496130Y-86336309D01*
X245543750Y-86479166D01*
X245638988Y-86574404D01*
X245734226Y-86622023D01*
X245924702Y-86669642D01*
X246067559Y-86669642D01*
X246258035Y-86622023D01*
X246353273Y-86574404D01*
X246448511Y-86479166D01*
X246496130Y-86336309D01*
X246496130Y-86098214D01*
X245496130Y-87002976D02*
X245496130Y-87622023D01*
X245877083Y-87288690D01*
X245877083Y-87431547D01*
X245924702Y-87526785D01*
X245972321Y-87574404D01*
X246067559Y-87622023D01*
X246305654Y-87622023D01*
X246400892Y-87574404D01*
X246448511Y-87526785D01*
X246496130Y-87431547D01*
X246496130Y-87145833D01*
X246448511Y-87050595D01*
X246400892Y-87002976D01*
X246496130Y-88574404D02*
X246496130Y-88002976D01*
X246496130Y-88288690D02*
X245496130Y-88288690D01*
X245638988Y-88193452D01*
X245734226Y-88098214D01*
X245781845Y-88002976D01*
%TO.C,D5*%
X55996130Y-105624404D02*
X54996130Y-105624404D01*
X54996130Y-105862500D01*
X55043750Y-106005357D01*
X55138988Y-106100595D01*
X55234226Y-106148214D01*
X55424702Y-106195833D01*
X55567559Y-106195833D01*
X55758035Y-106148214D01*
X55853273Y-106100595D01*
X55948511Y-106005357D01*
X55996130Y-105862500D01*
X55996130Y-105624404D01*
X54996130Y-107100595D02*
X54996130Y-106624404D01*
X55472321Y-106576785D01*
X55424702Y-106624404D01*
X55377083Y-106719642D01*
X55377083Y-106957738D01*
X55424702Y-107052976D01*
X55472321Y-107100595D01*
X55567559Y-107148214D01*
X55805654Y-107148214D01*
X55900892Y-107100595D01*
X55948511Y-107052976D01*
X55996130Y-106957738D01*
X55996130Y-106719642D01*
X55948511Y-106624404D01*
X55900892Y-106576785D01*
%TO.C,R_INDICATOR1*%
X49624702Y-111994880D02*
X49958035Y-111518690D01*
X50196130Y-111994880D02*
X50196130Y-110994880D01*
X49815178Y-110994880D01*
X49719940Y-111042500D01*
X49672321Y-111090119D01*
X49624702Y-111185357D01*
X49624702Y-111328214D01*
X49672321Y-111423452D01*
X49719940Y-111471071D01*
X49815178Y-111518690D01*
X50196130Y-111518690D01*
X49434226Y-112090119D02*
X48672321Y-112090119D01*
X48434226Y-111994880D02*
X48434226Y-110994880D01*
X47958035Y-111994880D02*
X47958035Y-110994880D01*
X47386607Y-111994880D01*
X47386607Y-110994880D01*
X46910416Y-111994880D02*
X46910416Y-110994880D01*
X46672321Y-110994880D01*
X46529464Y-111042500D01*
X46434226Y-111137738D01*
X46386607Y-111232976D01*
X46338988Y-111423452D01*
X46338988Y-111566309D01*
X46386607Y-111756785D01*
X46434226Y-111852023D01*
X46529464Y-111947261D01*
X46672321Y-111994880D01*
X46910416Y-111994880D01*
X45910416Y-111994880D02*
X45910416Y-110994880D01*
X44862797Y-111899642D02*
X44910416Y-111947261D01*
X45053273Y-111994880D01*
X45148511Y-111994880D01*
X45291369Y-111947261D01*
X45386607Y-111852023D01*
X45434226Y-111756785D01*
X45481845Y-111566309D01*
X45481845Y-111423452D01*
X45434226Y-111232976D01*
X45386607Y-111137738D01*
X45291369Y-111042500D01*
X45148511Y-110994880D01*
X45053273Y-110994880D01*
X44910416Y-111042500D01*
X44862797Y-111090119D01*
X44481845Y-111709166D02*
X44005654Y-111709166D01*
X44577083Y-111994880D02*
X44243750Y-110994880D01*
X43910416Y-111994880D01*
X43719940Y-110994880D02*
X43148511Y-110994880D01*
X43434226Y-111994880D02*
X43434226Y-110994880D01*
X42624702Y-110994880D02*
X42434226Y-110994880D01*
X42338988Y-111042500D01*
X42243750Y-111137738D01*
X42196130Y-111328214D01*
X42196130Y-111661547D01*
X42243750Y-111852023D01*
X42338988Y-111947261D01*
X42434226Y-111994880D01*
X42624702Y-111994880D01*
X42719940Y-111947261D01*
X42815178Y-111852023D01*
X42862797Y-111661547D01*
X42862797Y-111328214D01*
X42815178Y-111137738D01*
X42719940Y-111042500D01*
X42624702Y-110994880D01*
X41196130Y-111994880D02*
X41529464Y-111518690D01*
X41767559Y-111994880D02*
X41767559Y-110994880D01*
X41386607Y-110994880D01*
X41291369Y-111042500D01*
X41243750Y-111090119D01*
X41196130Y-111185357D01*
X41196130Y-111328214D01*
X41243750Y-111423452D01*
X41291369Y-111471071D01*
X41386607Y-111518690D01*
X41767559Y-111518690D01*
X40243750Y-111994880D02*
X40815178Y-111994880D01*
X40529464Y-111994880D02*
X40529464Y-110994880D01*
X40624702Y-111137738D01*
X40719940Y-111232976D01*
X40815178Y-111280595D01*
%TO.C,D48*%
X373132380Y-144715714D02*
X372132380Y-144715714D01*
X372132380Y-144953809D01*
X372180000Y-145096666D01*
X372275238Y-145191904D01*
X372370476Y-145239523D01*
X372560952Y-145287142D01*
X372703809Y-145287142D01*
X372894285Y-145239523D01*
X372989523Y-145191904D01*
X373084761Y-145096666D01*
X373132380Y-144953809D01*
X373132380Y-144715714D01*
X372465714Y-146144285D02*
X373132380Y-146144285D01*
X372084761Y-145906190D02*
X372799047Y-145668095D01*
X372799047Y-146287142D01*
X372560952Y-146810952D02*
X372513333Y-146715714D01*
X372465714Y-146668095D01*
X372370476Y-146620476D01*
X372322857Y-146620476D01*
X372227619Y-146668095D01*
X372180000Y-146715714D01*
X372132380Y-146810952D01*
X372132380Y-147001428D01*
X372180000Y-147096666D01*
X372227619Y-147144285D01*
X372322857Y-147191904D01*
X372370476Y-147191904D01*
X372465714Y-147144285D01*
X372513333Y-147096666D01*
X372560952Y-147001428D01*
X372560952Y-146810952D01*
X372608571Y-146715714D01*
X372656190Y-146668095D01*
X372751428Y-146620476D01*
X372941904Y-146620476D01*
X373037142Y-146668095D01*
X373084761Y-146715714D01*
X373132380Y-146810952D01*
X373132380Y-147001428D01*
X373084761Y-147096666D01*
X373037142Y-147144285D01*
X372941904Y-147191904D01*
X372751428Y-147191904D01*
X372656190Y-147144285D01*
X372608571Y-147096666D01*
X372560952Y-147001428D01*
%TO.C,D14*%
X122671130Y-67048214D02*
X121671130Y-67048214D01*
X121671130Y-67286309D01*
X121718750Y-67429166D01*
X121813988Y-67524404D01*
X121909226Y-67572023D01*
X122099702Y-67619642D01*
X122242559Y-67619642D01*
X122433035Y-67572023D01*
X122528273Y-67524404D01*
X122623511Y-67429166D01*
X122671130Y-67286309D01*
X122671130Y-67048214D01*
X122671130Y-68572023D02*
X122671130Y-68000595D01*
X122671130Y-68286309D02*
X121671130Y-68286309D01*
X121813988Y-68191071D01*
X121909226Y-68095833D01*
X121956845Y-68000595D01*
X122004464Y-69429166D02*
X122671130Y-69429166D01*
X121623511Y-69191071D02*
X122337797Y-68952976D01*
X122337797Y-69572023D01*
%TO.C,R_DATA2*%
X315988630Y-101614285D02*
X315512440Y-101280952D01*
X315988630Y-101042857D02*
X314988630Y-101042857D01*
X314988630Y-101423809D01*
X315036250Y-101519047D01*
X315083869Y-101566666D01*
X315179107Y-101614285D01*
X315321964Y-101614285D01*
X315417202Y-101566666D01*
X315464821Y-101519047D01*
X315512440Y-101423809D01*
X315512440Y-101042857D01*
X316083869Y-101804761D02*
X316083869Y-102566666D01*
X315988630Y-102804761D02*
X314988630Y-102804761D01*
X314988630Y-103042857D01*
X315036250Y-103185714D01*
X315131488Y-103280952D01*
X315226726Y-103328571D01*
X315417202Y-103376190D01*
X315560059Y-103376190D01*
X315750535Y-103328571D01*
X315845773Y-103280952D01*
X315941011Y-103185714D01*
X315988630Y-103042857D01*
X315988630Y-102804761D01*
X315702916Y-103757142D02*
X315702916Y-104233333D01*
X315988630Y-103661904D02*
X314988630Y-103995238D01*
X315988630Y-104328571D01*
X314988630Y-104519047D02*
X314988630Y-105090476D01*
X315988630Y-104804761D02*
X314988630Y-104804761D01*
X315702916Y-105376190D02*
X315702916Y-105852380D01*
X315988630Y-105280952D02*
X314988630Y-105614285D01*
X315988630Y-105947619D01*
X315083869Y-106233333D02*
X315036250Y-106280952D01*
X314988630Y-106376190D01*
X314988630Y-106614285D01*
X315036250Y-106709523D01*
X315083869Y-106757142D01*
X315179107Y-106804761D01*
X315274345Y-106804761D01*
X315417202Y-106757142D01*
X315988630Y-106185714D01*
X315988630Y-106804761D01*
%TO.C,C_DECOUP3*%
X334767142Y-106742380D02*
X334814761Y-106694761D01*
X334862380Y-106551904D01*
X334862380Y-106456666D01*
X334814761Y-106313809D01*
X334719523Y-106218571D01*
X334624285Y-106170952D01*
X334433809Y-106123333D01*
X334290952Y-106123333D01*
X334100476Y-106170952D01*
X334005238Y-106218571D01*
X333910000Y-106313809D01*
X333862380Y-106456666D01*
X333862380Y-106551904D01*
X333910000Y-106694761D01*
X333957619Y-106742380D01*
X334957619Y-106932857D02*
X334957619Y-107694761D01*
X334862380Y-107932857D02*
X333862380Y-107932857D01*
X333862380Y-108170952D01*
X333910000Y-108313809D01*
X334005238Y-108409047D01*
X334100476Y-108456666D01*
X334290952Y-108504285D01*
X334433809Y-108504285D01*
X334624285Y-108456666D01*
X334719523Y-108409047D01*
X334814761Y-108313809D01*
X334862380Y-108170952D01*
X334862380Y-107932857D01*
X334338571Y-108932857D02*
X334338571Y-109266190D01*
X334862380Y-109409047D02*
X334862380Y-108932857D01*
X333862380Y-108932857D01*
X333862380Y-109409047D01*
X334767142Y-110409047D02*
X334814761Y-110361428D01*
X334862380Y-110218571D01*
X334862380Y-110123333D01*
X334814761Y-109980476D01*
X334719523Y-109885238D01*
X334624285Y-109837619D01*
X334433809Y-109790000D01*
X334290952Y-109790000D01*
X334100476Y-109837619D01*
X334005238Y-109885238D01*
X333910000Y-109980476D01*
X333862380Y-110123333D01*
X333862380Y-110218571D01*
X333910000Y-110361428D01*
X333957619Y-110409047D01*
X333862380Y-111028095D02*
X333862380Y-111218571D01*
X333910000Y-111313809D01*
X334005238Y-111409047D01*
X334195714Y-111456666D01*
X334529047Y-111456666D01*
X334719523Y-111409047D01*
X334814761Y-111313809D01*
X334862380Y-111218571D01*
X334862380Y-111028095D01*
X334814761Y-110932857D01*
X334719523Y-110837619D01*
X334529047Y-110790000D01*
X334195714Y-110790000D01*
X334005238Y-110837619D01*
X333910000Y-110932857D01*
X333862380Y-111028095D01*
X333862380Y-111885238D02*
X334671904Y-111885238D01*
X334767142Y-111932857D01*
X334814761Y-111980476D01*
X334862380Y-112075714D01*
X334862380Y-112266190D01*
X334814761Y-112361428D01*
X334767142Y-112409047D01*
X334671904Y-112456666D01*
X333862380Y-112456666D01*
X334862380Y-112932857D02*
X333862380Y-112932857D01*
X333862380Y-113313809D01*
X333910000Y-113409047D01*
X333957619Y-113456666D01*
X334052857Y-113504285D01*
X334195714Y-113504285D01*
X334290952Y-113456666D01*
X334338571Y-113409047D01*
X334386190Y-113313809D01*
X334386190Y-112932857D01*
X333862380Y-113837619D02*
X333862380Y-114456666D01*
X334243333Y-114123333D01*
X334243333Y-114266190D01*
X334290952Y-114361428D01*
X334338571Y-114409047D01*
X334433809Y-114456666D01*
X334671904Y-114456666D01*
X334767142Y-114409047D01*
X334814761Y-114361428D01*
X334862380Y-114266190D01*
X334862380Y-113980476D01*
X334814761Y-113885238D01*
X334767142Y-113837619D01*
%TO.C,D40*%
X324283630Y-124198214D02*
X323283630Y-124198214D01*
X323283630Y-124436309D01*
X323331250Y-124579166D01*
X323426488Y-124674404D01*
X323521726Y-124722023D01*
X323712202Y-124769642D01*
X323855059Y-124769642D01*
X324045535Y-124722023D01*
X324140773Y-124674404D01*
X324236011Y-124579166D01*
X324283630Y-124436309D01*
X324283630Y-124198214D01*
X323616964Y-125626785D02*
X324283630Y-125626785D01*
X323236011Y-125388690D02*
X323950297Y-125150595D01*
X323950297Y-125769642D01*
X323283630Y-126341071D02*
X323283630Y-126436309D01*
X323331250Y-126531547D01*
X323378869Y-126579166D01*
X323474107Y-126626785D01*
X323664583Y-126674404D01*
X323902678Y-126674404D01*
X324093154Y-126626785D01*
X324188392Y-126579166D01*
X324236011Y-126531547D01*
X324283630Y-126436309D01*
X324283630Y-126341071D01*
X324236011Y-126245833D01*
X324188392Y-126198214D01*
X324093154Y-126150595D01*
X323902678Y-126102976D01*
X323664583Y-126102976D01*
X323474107Y-126150595D01*
X323378869Y-126198214D01*
X323331250Y-126245833D01*
X323283630Y-126341071D01*
%TO.C,D12*%
X125052380Y-144041964D02*
X124052380Y-144041964D01*
X124052380Y-144280059D01*
X124100000Y-144422916D01*
X124195238Y-144518154D01*
X124290476Y-144565773D01*
X124480952Y-144613392D01*
X124623809Y-144613392D01*
X124814285Y-144565773D01*
X124909523Y-144518154D01*
X125004761Y-144422916D01*
X125052380Y-144280059D01*
X125052380Y-144041964D01*
X125052380Y-145565773D02*
X125052380Y-144994345D01*
X125052380Y-145280059D02*
X124052380Y-145280059D01*
X124195238Y-145184821D01*
X124290476Y-145089583D01*
X124338095Y-144994345D01*
X124147619Y-145946726D02*
X124100000Y-145994345D01*
X124052380Y-146089583D01*
X124052380Y-146327678D01*
X124100000Y-146422916D01*
X124147619Y-146470535D01*
X124242857Y-146518154D01*
X124338095Y-146518154D01*
X124480952Y-146470535D01*
X125052380Y-145899107D01*
X125052380Y-146518154D01*
%TO.C,D30*%
X236971130Y-67048214D02*
X235971130Y-67048214D01*
X235971130Y-67286309D01*
X236018750Y-67429166D01*
X236113988Y-67524404D01*
X236209226Y-67572023D01*
X236399702Y-67619642D01*
X236542559Y-67619642D01*
X236733035Y-67572023D01*
X236828273Y-67524404D01*
X236923511Y-67429166D01*
X236971130Y-67286309D01*
X236971130Y-67048214D01*
X235971130Y-67952976D02*
X235971130Y-68572023D01*
X236352083Y-68238690D01*
X236352083Y-68381547D01*
X236399702Y-68476785D01*
X236447321Y-68524404D01*
X236542559Y-68572023D01*
X236780654Y-68572023D01*
X236875892Y-68524404D01*
X236923511Y-68476785D01*
X236971130Y-68381547D01*
X236971130Y-68095833D01*
X236923511Y-68000595D01*
X236875892Y-67952976D01*
X235971130Y-69191071D02*
X235971130Y-69286309D01*
X236018750Y-69381547D01*
X236066369Y-69429166D01*
X236161607Y-69476785D01*
X236352083Y-69524404D01*
X236590178Y-69524404D01*
X236780654Y-69476785D01*
X236875892Y-69429166D01*
X236923511Y-69381547D01*
X236971130Y-69286309D01*
X236971130Y-69191071D01*
X236923511Y-69095833D01*
X236875892Y-69048214D01*
X236780654Y-69000595D01*
X236590178Y-68952976D01*
X236352083Y-68952976D01*
X236161607Y-69000595D01*
X236066369Y-69048214D01*
X236018750Y-69095833D01*
X235971130Y-69191071D01*
%TO.C,D45*%
X356033630Y-67048214D02*
X355033630Y-67048214D01*
X355033630Y-67286309D01*
X355081250Y-67429166D01*
X355176488Y-67524404D01*
X355271726Y-67572023D01*
X355462202Y-67619642D01*
X355605059Y-67619642D01*
X355795535Y-67572023D01*
X355890773Y-67524404D01*
X355986011Y-67429166D01*
X356033630Y-67286309D01*
X356033630Y-67048214D01*
X355366964Y-68476785D02*
X356033630Y-68476785D01*
X354986011Y-68238690D02*
X355700297Y-68000595D01*
X355700297Y-68619642D01*
X355033630Y-69476785D02*
X355033630Y-69000595D01*
X355509821Y-68952976D01*
X355462202Y-69000595D01*
X355414583Y-69095833D01*
X355414583Y-69333928D01*
X355462202Y-69429166D01*
X355509821Y-69476785D01*
X355605059Y-69524404D01*
X355843154Y-69524404D01*
X355938392Y-69476785D01*
X355986011Y-69429166D01*
X356033630Y-69333928D01*
X356033630Y-69095833D01*
X355986011Y-69000595D01*
X355938392Y-68952976D01*
%TO.C,D26*%
X213158630Y-105148214D02*
X212158630Y-105148214D01*
X212158630Y-105386309D01*
X212206250Y-105529166D01*
X212301488Y-105624404D01*
X212396726Y-105672023D01*
X212587202Y-105719642D01*
X212730059Y-105719642D01*
X212920535Y-105672023D01*
X213015773Y-105624404D01*
X213111011Y-105529166D01*
X213158630Y-105386309D01*
X213158630Y-105148214D01*
X212253869Y-106100595D02*
X212206250Y-106148214D01*
X212158630Y-106243452D01*
X212158630Y-106481547D01*
X212206250Y-106576785D01*
X212253869Y-106624404D01*
X212349107Y-106672023D01*
X212444345Y-106672023D01*
X212587202Y-106624404D01*
X213158630Y-106052976D01*
X213158630Y-106672023D01*
X212158630Y-107529166D02*
X212158630Y-107338690D01*
X212206250Y-107243452D01*
X212253869Y-107195833D01*
X212396726Y-107100595D01*
X212587202Y-107052976D01*
X212968154Y-107052976D01*
X213063392Y-107100595D01*
X213111011Y-107148214D01*
X213158630Y-107243452D01*
X213158630Y-107433928D01*
X213111011Y-107529166D01*
X213063392Y-107576785D01*
X212968154Y-107624404D01*
X212730059Y-107624404D01*
X212634821Y-107576785D01*
X212587202Y-107529166D01*
X212539583Y-107433928D01*
X212539583Y-107243452D01*
X212587202Y-107148214D01*
X212634821Y-107100595D01*
X212730059Y-107052976D01*
%TO.C,F1*%
X319578571Y-42916666D02*
X319578571Y-42583333D01*
X320102380Y-42583333D02*
X319102380Y-42583333D01*
X319102380Y-43059523D01*
X320102380Y-43964285D02*
X320102380Y-43392857D01*
X320102380Y-43678571D02*
X319102380Y-43678571D01*
X319245238Y-43583333D01*
X319340476Y-43488095D01*
X319388095Y-43392857D01*
%TO.C,D15*%
X132196130Y-86098214D02*
X131196130Y-86098214D01*
X131196130Y-86336309D01*
X131243750Y-86479166D01*
X131338988Y-86574404D01*
X131434226Y-86622023D01*
X131624702Y-86669642D01*
X131767559Y-86669642D01*
X131958035Y-86622023D01*
X132053273Y-86574404D01*
X132148511Y-86479166D01*
X132196130Y-86336309D01*
X132196130Y-86098214D01*
X132196130Y-87622023D02*
X132196130Y-87050595D01*
X132196130Y-87336309D02*
X131196130Y-87336309D01*
X131338988Y-87241071D01*
X131434226Y-87145833D01*
X131481845Y-87050595D01*
X131196130Y-88526785D02*
X131196130Y-88050595D01*
X131672321Y-88002976D01*
X131624702Y-88050595D01*
X131577083Y-88145833D01*
X131577083Y-88383928D01*
X131624702Y-88479166D01*
X131672321Y-88526785D01*
X131767559Y-88574404D01*
X132005654Y-88574404D01*
X132100892Y-88526785D01*
X132148511Y-88479166D01*
X132196130Y-88383928D01*
X132196130Y-88145833D01*
X132148511Y-88050595D01*
X132100892Y-88002976D01*
%TO.C,C_DECOUP2*%
X319737142Y-106752380D02*
X319784761Y-106704761D01*
X319832380Y-106561904D01*
X319832380Y-106466666D01*
X319784761Y-106323809D01*
X319689523Y-106228571D01*
X319594285Y-106180952D01*
X319403809Y-106133333D01*
X319260952Y-106133333D01*
X319070476Y-106180952D01*
X318975238Y-106228571D01*
X318880000Y-106323809D01*
X318832380Y-106466666D01*
X318832380Y-106561904D01*
X318880000Y-106704761D01*
X318927619Y-106752380D01*
X319927619Y-106942857D02*
X319927619Y-107704761D01*
X319832380Y-107942857D02*
X318832380Y-107942857D01*
X318832380Y-108180952D01*
X318880000Y-108323809D01*
X318975238Y-108419047D01*
X319070476Y-108466666D01*
X319260952Y-108514285D01*
X319403809Y-108514285D01*
X319594285Y-108466666D01*
X319689523Y-108419047D01*
X319784761Y-108323809D01*
X319832380Y-108180952D01*
X319832380Y-107942857D01*
X319308571Y-108942857D02*
X319308571Y-109276190D01*
X319832380Y-109419047D02*
X319832380Y-108942857D01*
X318832380Y-108942857D01*
X318832380Y-109419047D01*
X319737142Y-110419047D02*
X319784761Y-110371428D01*
X319832380Y-110228571D01*
X319832380Y-110133333D01*
X319784761Y-109990476D01*
X319689523Y-109895238D01*
X319594285Y-109847619D01*
X319403809Y-109800000D01*
X319260952Y-109800000D01*
X319070476Y-109847619D01*
X318975238Y-109895238D01*
X318880000Y-109990476D01*
X318832380Y-110133333D01*
X318832380Y-110228571D01*
X318880000Y-110371428D01*
X318927619Y-110419047D01*
X318832380Y-111038095D02*
X318832380Y-111228571D01*
X318880000Y-111323809D01*
X318975238Y-111419047D01*
X319165714Y-111466666D01*
X319499047Y-111466666D01*
X319689523Y-111419047D01*
X319784761Y-111323809D01*
X319832380Y-111228571D01*
X319832380Y-111038095D01*
X319784761Y-110942857D01*
X319689523Y-110847619D01*
X319499047Y-110800000D01*
X319165714Y-110800000D01*
X318975238Y-110847619D01*
X318880000Y-110942857D01*
X318832380Y-111038095D01*
X318832380Y-111895238D02*
X319641904Y-111895238D01*
X319737142Y-111942857D01*
X319784761Y-111990476D01*
X319832380Y-112085714D01*
X319832380Y-112276190D01*
X319784761Y-112371428D01*
X319737142Y-112419047D01*
X319641904Y-112466666D01*
X318832380Y-112466666D01*
X319832380Y-112942857D02*
X318832380Y-112942857D01*
X318832380Y-113323809D01*
X318880000Y-113419047D01*
X318927619Y-113466666D01*
X319022857Y-113514285D01*
X319165714Y-113514285D01*
X319260952Y-113466666D01*
X319308571Y-113419047D01*
X319356190Y-113323809D01*
X319356190Y-112942857D01*
X318927619Y-113895238D02*
X318880000Y-113942857D01*
X318832380Y-114038095D01*
X318832380Y-114276190D01*
X318880000Y-114371428D01*
X318927619Y-114419047D01*
X319022857Y-114466666D01*
X319118095Y-114466666D01*
X319260952Y-114419047D01*
X319832380Y-113847619D01*
X319832380Y-114466666D01*
%TO.C,D44*%
X336952380Y-142775714D02*
X335952380Y-142775714D01*
X335952380Y-143013809D01*
X336000000Y-143156666D01*
X336095238Y-143251904D01*
X336190476Y-143299523D01*
X336380952Y-143347142D01*
X336523809Y-143347142D01*
X336714285Y-143299523D01*
X336809523Y-143251904D01*
X336904761Y-143156666D01*
X336952380Y-143013809D01*
X336952380Y-142775714D01*
X336285714Y-144204285D02*
X336952380Y-144204285D01*
X335904761Y-143966190D02*
X336619047Y-143728095D01*
X336619047Y-144347142D01*
X336285714Y-145156666D02*
X336952380Y-145156666D01*
X335904761Y-144918571D02*
X336619047Y-144680476D01*
X336619047Y-145299523D01*
%TO.C,D37*%
X288564880Y-144041964D02*
X287564880Y-144041964D01*
X287564880Y-144280059D01*
X287612500Y-144422916D01*
X287707738Y-144518154D01*
X287802976Y-144565773D01*
X287993452Y-144613392D01*
X288136309Y-144613392D01*
X288326785Y-144565773D01*
X288422023Y-144518154D01*
X288517261Y-144422916D01*
X288564880Y-144280059D01*
X288564880Y-144041964D01*
X287564880Y-144946726D02*
X287564880Y-145565773D01*
X287945833Y-145232440D01*
X287945833Y-145375297D01*
X287993452Y-145470535D01*
X288041071Y-145518154D01*
X288136309Y-145565773D01*
X288374404Y-145565773D01*
X288469642Y-145518154D01*
X288517261Y-145470535D01*
X288564880Y-145375297D01*
X288564880Y-145089583D01*
X288517261Y-144994345D01*
X288469642Y-144946726D01*
X287564880Y-145899107D02*
X287564880Y-146565773D01*
X288564880Y-146137202D01*
%TO.C,Y1*%
X332632132Y-103117376D02*
X332968850Y-102780658D01*
X332026041Y-103252063D02*
X332632132Y-103117376D01*
X332497445Y-103723467D01*
X333810643Y-103622452D02*
X333406582Y-103218391D01*
X333608613Y-103420422D02*
X332901506Y-104127528D01*
X332935178Y-103959170D01*
X332935178Y-103824483D01*
X332901506Y-103723467D01*
%TO.C,U1*%
X322565771Y-113556732D02*
X323138191Y-112984312D01*
X323239206Y-112950640D01*
X323306550Y-112950640D01*
X323407565Y-112984312D01*
X323542252Y-113118999D01*
X323575924Y-113220014D01*
X323575924Y-113287358D01*
X323542252Y-113388373D01*
X322969832Y-113960793D01*
X324384046Y-113960793D02*
X323979985Y-113556732D01*
X324182015Y-113758762D02*
X323474909Y-114465869D01*
X323508580Y-114297510D01*
X323508580Y-114162823D01*
X323474909Y-114061808D01*
%TO.C,D8*%
X84571130Y-67524404D02*
X83571130Y-67524404D01*
X83571130Y-67762500D01*
X83618750Y-67905357D01*
X83713988Y-68000595D01*
X83809226Y-68048214D01*
X83999702Y-68095833D01*
X84142559Y-68095833D01*
X84333035Y-68048214D01*
X84428273Y-68000595D01*
X84523511Y-67905357D01*
X84571130Y-67762500D01*
X84571130Y-67524404D01*
X83999702Y-68667261D02*
X83952083Y-68572023D01*
X83904464Y-68524404D01*
X83809226Y-68476785D01*
X83761607Y-68476785D01*
X83666369Y-68524404D01*
X83618750Y-68572023D01*
X83571130Y-68667261D01*
X83571130Y-68857738D01*
X83618750Y-68952976D01*
X83666369Y-69000595D01*
X83761607Y-69048214D01*
X83809226Y-69048214D01*
X83904464Y-69000595D01*
X83952083Y-68952976D01*
X83999702Y-68857738D01*
X83999702Y-68667261D01*
X84047321Y-68572023D01*
X84094940Y-68524404D01*
X84190178Y-68476785D01*
X84380654Y-68476785D01*
X84475892Y-68524404D01*
X84523511Y-68572023D01*
X84571130Y-68667261D01*
X84571130Y-68857738D01*
X84523511Y-68952976D01*
X84475892Y-69000595D01*
X84380654Y-69048214D01*
X84190178Y-69048214D01*
X84094940Y-69000595D01*
X84047321Y-68952976D01*
X83999702Y-68857738D01*
%TO.C,D36*%
X285389880Y-106735714D02*
X284389880Y-106735714D01*
X284389880Y-106973809D01*
X284437500Y-107116666D01*
X284532738Y-107211904D01*
X284627976Y-107259523D01*
X284818452Y-107307142D01*
X284961309Y-107307142D01*
X285151785Y-107259523D01*
X285247023Y-107211904D01*
X285342261Y-107116666D01*
X285389880Y-106973809D01*
X285389880Y-106735714D01*
X284389880Y-107640476D02*
X284389880Y-108259523D01*
X284770833Y-107926190D01*
X284770833Y-108069047D01*
X284818452Y-108164285D01*
X284866071Y-108211904D01*
X284961309Y-108259523D01*
X285199404Y-108259523D01*
X285294642Y-108211904D01*
X285342261Y-108164285D01*
X285389880Y-108069047D01*
X285389880Y-107783333D01*
X285342261Y-107688095D01*
X285294642Y-107640476D01*
X284389880Y-109116666D02*
X284389880Y-108926190D01*
X284437500Y-108830952D01*
X284485119Y-108783333D01*
X284627976Y-108688095D01*
X284818452Y-108640476D01*
X285199404Y-108640476D01*
X285294642Y-108688095D01*
X285342261Y-108735714D01*
X285389880Y-108830952D01*
X285389880Y-109021428D01*
X285342261Y-109116666D01*
X285294642Y-109164285D01*
X285199404Y-109211904D01*
X284961309Y-109211904D01*
X284866071Y-109164285D01*
X284818452Y-109116666D01*
X284770833Y-109021428D01*
X284770833Y-108830952D01*
X284818452Y-108735714D01*
X284866071Y-108688095D01*
X284961309Y-108640476D01*
%TO.C,D28*%
X210777380Y-44029464D02*
X209777380Y-44029464D01*
X209777380Y-44267559D01*
X209825000Y-44410416D01*
X209920238Y-44505654D01*
X210015476Y-44553273D01*
X210205952Y-44600892D01*
X210348809Y-44600892D01*
X210539285Y-44553273D01*
X210634523Y-44505654D01*
X210729761Y-44410416D01*
X210777380Y-44267559D01*
X210777380Y-44029464D01*
X209872619Y-44981845D02*
X209825000Y-45029464D01*
X209777380Y-45124702D01*
X209777380Y-45362797D01*
X209825000Y-45458035D01*
X209872619Y-45505654D01*
X209967857Y-45553273D01*
X210063095Y-45553273D01*
X210205952Y-45505654D01*
X210777380Y-44934226D01*
X210777380Y-45553273D01*
X210205952Y-46124702D02*
X210158333Y-46029464D01*
X210110714Y-45981845D01*
X210015476Y-45934226D01*
X209967857Y-45934226D01*
X209872619Y-45981845D01*
X209825000Y-46029464D01*
X209777380Y-46124702D01*
X209777380Y-46315178D01*
X209825000Y-46410416D01*
X209872619Y-46458035D01*
X209967857Y-46505654D01*
X210015476Y-46505654D01*
X210110714Y-46458035D01*
X210158333Y-46410416D01*
X210205952Y-46315178D01*
X210205952Y-46124702D01*
X210253571Y-46029464D01*
X210301190Y-45981845D01*
X210396428Y-45934226D01*
X210586904Y-45934226D01*
X210682142Y-45981845D01*
X210729761Y-46029464D01*
X210777380Y-46124702D01*
X210777380Y-46315178D01*
X210729761Y-46410416D01*
X210682142Y-46458035D01*
X210586904Y-46505654D01*
X210396428Y-46505654D01*
X210301190Y-46458035D01*
X210253571Y-46410416D01*
X210205952Y-46315178D01*
%TO.C,D17*%
X146483630Y-124198214D02*
X145483630Y-124198214D01*
X145483630Y-124436309D01*
X145531250Y-124579166D01*
X145626488Y-124674404D01*
X145721726Y-124722023D01*
X145912202Y-124769642D01*
X146055059Y-124769642D01*
X146245535Y-124722023D01*
X146340773Y-124674404D01*
X146436011Y-124579166D01*
X146483630Y-124436309D01*
X146483630Y-124198214D01*
X146483630Y-125722023D02*
X146483630Y-125150595D01*
X146483630Y-125436309D02*
X145483630Y-125436309D01*
X145626488Y-125341071D01*
X145721726Y-125245833D01*
X145769345Y-125150595D01*
X145483630Y-126055357D02*
X145483630Y-126722023D01*
X146483630Y-126293452D01*
%TO.C,D20*%
X160771130Y-67048214D02*
X159771130Y-67048214D01*
X159771130Y-67286309D01*
X159818750Y-67429166D01*
X159913988Y-67524404D01*
X160009226Y-67572023D01*
X160199702Y-67619642D01*
X160342559Y-67619642D01*
X160533035Y-67572023D01*
X160628273Y-67524404D01*
X160723511Y-67429166D01*
X160771130Y-67286309D01*
X160771130Y-67048214D01*
X159866369Y-68000595D02*
X159818750Y-68048214D01*
X159771130Y-68143452D01*
X159771130Y-68381547D01*
X159818750Y-68476785D01*
X159866369Y-68524404D01*
X159961607Y-68572023D01*
X160056845Y-68572023D01*
X160199702Y-68524404D01*
X160771130Y-67952976D01*
X160771130Y-68572023D01*
X159771130Y-69191071D02*
X159771130Y-69286309D01*
X159818750Y-69381547D01*
X159866369Y-69429166D01*
X159961607Y-69476785D01*
X160152083Y-69524404D01*
X160390178Y-69524404D01*
X160580654Y-69476785D01*
X160675892Y-69429166D01*
X160723511Y-69381547D01*
X160771130Y-69286309D01*
X160771130Y-69191071D01*
X160723511Y-69095833D01*
X160675892Y-69048214D01*
X160580654Y-69000595D01*
X160390178Y-68952976D01*
X160152083Y-68952976D01*
X159961607Y-69000595D01*
X159866369Y-69048214D01*
X159818750Y-69095833D01*
X159771130Y-69191071D01*
%TO.C,D19*%
X170296130Y-43235714D02*
X169296130Y-43235714D01*
X169296130Y-43473809D01*
X169343750Y-43616666D01*
X169438988Y-43711904D01*
X169534226Y-43759523D01*
X169724702Y-43807142D01*
X169867559Y-43807142D01*
X170058035Y-43759523D01*
X170153273Y-43711904D01*
X170248511Y-43616666D01*
X170296130Y-43473809D01*
X170296130Y-43235714D01*
X170296130Y-44759523D02*
X170296130Y-44188095D01*
X170296130Y-44473809D02*
X169296130Y-44473809D01*
X169438988Y-44378571D01*
X169534226Y-44283333D01*
X169581845Y-44188095D01*
X170296130Y-45235714D02*
X170296130Y-45426190D01*
X170248511Y-45521428D01*
X170200892Y-45569047D01*
X170058035Y-45664285D01*
X169867559Y-45711904D01*
X169486607Y-45711904D01*
X169391369Y-45664285D01*
X169343750Y-45616666D01*
X169296130Y-45521428D01*
X169296130Y-45330952D01*
X169343750Y-45235714D01*
X169391369Y-45188095D01*
X169486607Y-45140476D01*
X169724702Y-45140476D01*
X169819940Y-45188095D01*
X169867559Y-45235714D01*
X169915178Y-45330952D01*
X169915178Y-45521428D01*
X169867559Y-45616666D01*
X169819940Y-45664285D01*
X169724702Y-45711904D01*
%TO.C,D43*%
X336983630Y-86098214D02*
X335983630Y-86098214D01*
X335983630Y-86336309D01*
X336031250Y-86479166D01*
X336126488Y-86574404D01*
X336221726Y-86622023D01*
X336412202Y-86669642D01*
X336555059Y-86669642D01*
X336745535Y-86622023D01*
X336840773Y-86574404D01*
X336936011Y-86479166D01*
X336983630Y-86336309D01*
X336983630Y-86098214D01*
X336316964Y-87526785D02*
X336983630Y-87526785D01*
X335936011Y-87288690D02*
X336650297Y-87050595D01*
X336650297Y-87669642D01*
X335983630Y-87955357D02*
X335983630Y-88574404D01*
X336364583Y-88241071D01*
X336364583Y-88383928D01*
X336412202Y-88479166D01*
X336459821Y-88526785D01*
X336555059Y-88574404D01*
X336793154Y-88574404D01*
X336888392Y-88526785D01*
X336936011Y-88479166D01*
X336983630Y-88383928D01*
X336983630Y-88098214D01*
X336936011Y-88002976D01*
X336888392Y-87955357D01*
%TO.C,D22*%
X175058630Y-105148214D02*
X174058630Y-105148214D01*
X174058630Y-105386309D01*
X174106250Y-105529166D01*
X174201488Y-105624404D01*
X174296726Y-105672023D01*
X174487202Y-105719642D01*
X174630059Y-105719642D01*
X174820535Y-105672023D01*
X174915773Y-105624404D01*
X175011011Y-105529166D01*
X175058630Y-105386309D01*
X175058630Y-105148214D01*
X174153869Y-106100595D02*
X174106250Y-106148214D01*
X174058630Y-106243452D01*
X174058630Y-106481547D01*
X174106250Y-106576785D01*
X174153869Y-106624404D01*
X174249107Y-106672023D01*
X174344345Y-106672023D01*
X174487202Y-106624404D01*
X175058630Y-106052976D01*
X175058630Y-106672023D01*
X174153869Y-107052976D02*
X174106250Y-107100595D01*
X174058630Y-107195833D01*
X174058630Y-107433928D01*
X174106250Y-107529166D01*
X174153869Y-107576785D01*
X174249107Y-107624404D01*
X174344345Y-107624404D01*
X174487202Y-107576785D01*
X175058630Y-107005357D01*
X175058630Y-107624404D01*
%TO.C,D39*%
X291739880Y-44029464D02*
X290739880Y-44029464D01*
X290739880Y-44267559D01*
X290787500Y-44410416D01*
X290882738Y-44505654D01*
X290977976Y-44553273D01*
X291168452Y-44600892D01*
X291311309Y-44600892D01*
X291501785Y-44553273D01*
X291597023Y-44505654D01*
X291692261Y-44410416D01*
X291739880Y-44267559D01*
X291739880Y-44029464D01*
X290739880Y-44934226D02*
X290739880Y-45553273D01*
X291120833Y-45219940D01*
X291120833Y-45362797D01*
X291168452Y-45458035D01*
X291216071Y-45505654D01*
X291311309Y-45553273D01*
X291549404Y-45553273D01*
X291644642Y-45505654D01*
X291692261Y-45458035D01*
X291739880Y-45362797D01*
X291739880Y-45077083D01*
X291692261Y-44981845D01*
X291644642Y-44934226D01*
X291739880Y-46029464D02*
X291739880Y-46219940D01*
X291692261Y-46315178D01*
X291644642Y-46362797D01*
X291501785Y-46458035D01*
X291311309Y-46505654D01*
X290930357Y-46505654D01*
X290835119Y-46458035D01*
X290787500Y-46410416D01*
X290739880Y-46315178D01*
X290739880Y-46124702D01*
X290787500Y-46029464D01*
X290835119Y-45981845D01*
X290930357Y-45934226D01*
X291168452Y-45934226D01*
X291263690Y-45981845D01*
X291311309Y-46029464D01*
X291358928Y-46124702D01*
X291358928Y-46315178D01*
X291311309Y-46410416D01*
X291263690Y-46458035D01*
X291168452Y-46505654D01*
%TO.C,D13*%
X129814880Y-44029464D02*
X128814880Y-44029464D01*
X128814880Y-44267559D01*
X128862500Y-44410416D01*
X128957738Y-44505654D01*
X129052976Y-44553273D01*
X129243452Y-44600892D01*
X129386309Y-44600892D01*
X129576785Y-44553273D01*
X129672023Y-44505654D01*
X129767261Y-44410416D01*
X129814880Y-44267559D01*
X129814880Y-44029464D01*
X129814880Y-45553273D02*
X129814880Y-44981845D01*
X129814880Y-45267559D02*
X128814880Y-45267559D01*
X128957738Y-45172321D01*
X129052976Y-45077083D01*
X129100595Y-44981845D01*
X128814880Y-45886607D02*
X128814880Y-46505654D01*
X129195833Y-46172321D01*
X129195833Y-46315178D01*
X129243452Y-46410416D01*
X129291071Y-46458035D01*
X129386309Y-46505654D01*
X129624404Y-46505654D01*
X129719642Y-46458035D01*
X129767261Y-46410416D01*
X129814880Y-46315178D01*
X129814880Y-46029464D01*
X129767261Y-45934226D01*
X129719642Y-45886607D01*
%TO.C,D9*%
X94096130Y-86574404D02*
X93096130Y-86574404D01*
X93096130Y-86812500D01*
X93143750Y-86955357D01*
X93238988Y-87050595D01*
X93334226Y-87098214D01*
X93524702Y-87145833D01*
X93667559Y-87145833D01*
X93858035Y-87098214D01*
X93953273Y-87050595D01*
X94048511Y-86955357D01*
X94096130Y-86812500D01*
X94096130Y-86574404D01*
X94096130Y-87622023D02*
X94096130Y-87812500D01*
X94048511Y-87907738D01*
X94000892Y-87955357D01*
X93858035Y-88050595D01*
X93667559Y-88098214D01*
X93286607Y-88098214D01*
X93191369Y-88050595D01*
X93143750Y-88002976D01*
X93096130Y-87907738D01*
X93096130Y-87717261D01*
X93143750Y-87622023D01*
X93191369Y-87574404D01*
X93286607Y-87526785D01*
X93524702Y-87526785D01*
X93619940Y-87574404D01*
X93667559Y-87622023D01*
X93715178Y-87717261D01*
X93715178Y-87907738D01*
X93667559Y-88002976D01*
X93619940Y-88050595D01*
X93524702Y-88098214D01*
%TO.C,D24*%
X198871130Y-67048214D02*
X197871130Y-67048214D01*
X197871130Y-67286309D01*
X197918750Y-67429166D01*
X198013988Y-67524404D01*
X198109226Y-67572023D01*
X198299702Y-67619642D01*
X198442559Y-67619642D01*
X198633035Y-67572023D01*
X198728273Y-67524404D01*
X198823511Y-67429166D01*
X198871130Y-67286309D01*
X198871130Y-67048214D01*
X197966369Y-68000595D02*
X197918750Y-68048214D01*
X197871130Y-68143452D01*
X197871130Y-68381547D01*
X197918750Y-68476785D01*
X197966369Y-68524404D01*
X198061607Y-68572023D01*
X198156845Y-68572023D01*
X198299702Y-68524404D01*
X198871130Y-67952976D01*
X198871130Y-68572023D01*
X198204464Y-69429166D02*
X198871130Y-69429166D01*
X197823511Y-69191071D02*
X198537797Y-68952976D01*
X198537797Y-69572023D01*
D11*
%TO.C,D78*%
X372880000Y-135570000D02*
X372880000Y-141470000D01*
X376780000Y-135570000D02*
X376780000Y-141470000D01*
X376780000Y-141470000D02*
X375705000Y-141470000D01*
%TO.C,D77*%
X372400000Y-112200000D02*
X372400000Y-118100000D01*
X376300000Y-112200000D02*
X376300000Y-118100000D01*
X376300000Y-118100000D02*
X375225000Y-118100000D01*
%TO.C,D76*%
X372350000Y-90930000D02*
X372350000Y-96830000D01*
X376250000Y-90930000D02*
X376250000Y-96830000D01*
X376250000Y-96830000D02*
X375175000Y-96830000D01*
%TO.C,D75*%
X372380000Y-68440000D02*
X372380000Y-74340000D01*
X376280000Y-68440000D02*
X376280000Y-74340000D01*
X376280000Y-74340000D02*
X375205000Y-74340000D01*
%TO.C,D74*%
X372690000Y-47450000D02*
X372690000Y-53350000D01*
X376590000Y-47450000D02*
X376590000Y-53350000D01*
X376590000Y-53350000D02*
X375515000Y-53350000D01*
%TO.C,D73*%
X362480000Y-37500000D02*
X368380000Y-37500000D01*
X362480000Y-33600000D02*
X368380000Y-33600000D01*
X368380000Y-33600000D02*
X368380000Y-34675000D01*
%TO.C,D72*%
X334530000Y-37450000D02*
X340430000Y-37450000D01*
X334530000Y-33550000D02*
X340430000Y-33550000D01*
X340430000Y-33550000D02*
X340430000Y-34625000D01*
%TO.C,D71*%
X298990000Y-37210000D02*
X304890000Y-37210000D01*
X298990000Y-33310000D02*
X304890000Y-33310000D01*
X304890000Y-33310000D02*
X304890000Y-34385000D01*
%TO.C,D70*%
X363050000Y-148190000D02*
X357150000Y-148190000D01*
X363050000Y-152090000D02*
X357150000Y-152090000D01*
X357150000Y-152090000D02*
X357150000Y-151015000D01*
%TO.C,D69*%
X334120000Y-148100000D02*
X328220000Y-148100000D01*
X334120000Y-152000000D02*
X328220000Y-152000000D01*
X328220000Y-152000000D02*
X328220000Y-150925000D01*
%TO.C,D68*%
X251220000Y-37440000D02*
X257120000Y-37440000D01*
X251220000Y-33540000D02*
X257120000Y-33540000D01*
X257120000Y-33540000D02*
X257120000Y-34615000D01*
%TO.C,D67*%
X301790000Y-148140000D02*
X295890000Y-148140000D01*
X301790000Y-152040000D02*
X295890000Y-152040000D01*
X295890000Y-152040000D02*
X295890000Y-150965000D01*
%TO.C,D66*%
X218910000Y-37250000D02*
X224810000Y-37250000D01*
X218910000Y-33350000D02*
X224810000Y-33350000D01*
X224810000Y-33350000D02*
X224810000Y-34425000D01*
%TO.C,D65*%
X256570000Y-148360000D02*
X250670000Y-148360000D01*
X256570000Y-152260000D02*
X250670000Y-152260000D01*
X250670000Y-152260000D02*
X250670000Y-151185000D01*
%TO.C,D64*%
X188630000Y-37890000D02*
X194530000Y-37890000D01*
X188630000Y-33990000D02*
X194530000Y-33990000D01*
X194530000Y-33990000D02*
X194530000Y-35065000D01*
%TO.C,D63*%
X223300000Y-148180000D02*
X217400000Y-148180000D01*
X223300000Y-152080000D02*
X217400000Y-152080000D01*
X217400000Y-152080000D02*
X217400000Y-151005000D01*
%TO.C,D62*%
X182190000Y-148240000D02*
X176290000Y-148240000D01*
X182190000Y-152140000D02*
X176290000Y-152140000D01*
X176290000Y-152140000D02*
X176290000Y-151065000D01*
%TO.C,D61*%
X138620000Y-37280000D02*
X144520000Y-37280000D01*
X138620000Y-33380000D02*
X144520000Y-33380000D01*
X144520000Y-33380000D02*
X144520000Y-34455000D01*
%TO.C,D60*%
X139360000Y-148260000D02*
X133460000Y-148260000D01*
X139360000Y-152160000D02*
X133460000Y-152160000D01*
X133460000Y-152160000D02*
X133460000Y-151085000D01*
%TO.C,D59*%
X107900000Y-37990000D02*
X113800000Y-37990000D01*
X107900000Y-34090000D02*
X113800000Y-34090000D01*
X113800000Y-34090000D02*
X113800000Y-35165000D01*
%TO.C,D58*%
X106920000Y-147970000D02*
X101020000Y-147970000D01*
X106920000Y-151870000D02*
X101020000Y-151870000D01*
X101020000Y-151870000D02*
X101020000Y-150795000D01*
%TO.C,D57*%
X68920000Y-37700000D02*
X74820000Y-37700000D01*
X68920000Y-33800000D02*
X74820000Y-33800000D01*
X74820000Y-33800000D02*
X74820000Y-34875000D01*
%TO.C,D56*%
X78430000Y-148400000D02*
X72530000Y-148400000D01*
X78430000Y-152300000D02*
X72530000Y-152300000D01*
X72530000Y-152300000D02*
X72530000Y-151225000D01*
%TO.C,D55*%
X32490000Y-37420000D02*
X38390000Y-37420000D01*
X32490000Y-33520000D02*
X38390000Y-33520000D01*
X38390000Y-33520000D02*
X38390000Y-34595000D01*
%TO.C,D54*%
X49590000Y-148280000D02*
X43690000Y-148280000D01*
X49590000Y-152180000D02*
X43690000Y-152180000D01*
X43690000Y-152180000D02*
X43690000Y-151105000D01*
%TO.C,D53*%
X33860000Y-144560000D02*
X33860000Y-138660000D01*
X29960000Y-144560000D02*
X29960000Y-138660000D01*
X29960000Y-138660000D02*
X31035000Y-138660000D01*
%TO.C,D52*%
X33580000Y-118220000D02*
X33580000Y-112320000D01*
X29680000Y-118220000D02*
X29680000Y-112320000D01*
X29680000Y-112320000D02*
X30755000Y-112320000D01*
%TO.C,D51*%
X33490000Y-97100000D02*
X33490000Y-91200000D01*
X29590000Y-97100000D02*
X29590000Y-91200000D01*
X29590000Y-91200000D02*
X30665000Y-91200000D01*
%TO.C,D50*%
X33720000Y-74890000D02*
X33720000Y-68990000D01*
X29820000Y-74890000D02*
X29820000Y-68990000D01*
X29820000Y-68990000D02*
X30895000Y-68990000D01*
%TO.C,D49*%
X33550000Y-53270000D02*
X33550000Y-47370000D01*
X29650000Y-53270000D02*
X29650000Y-47370000D01*
X29650000Y-47370000D02*
X30725000Y-47370000D01*
%TO.C,R_DATA1*%
X317460000Y-103746359D02*
X317460000Y-104053641D01*
X318220000Y-103746359D02*
X318220000Y-104053641D01*
%TO.C,D29*%
X241327500Y-145256250D02*
X241327500Y-143581250D01*
X244447500Y-145256250D02*
X244447500Y-144606250D01*
X244447500Y-145256250D02*
X244447500Y-145906250D01*
X241327500Y-145256250D02*
X241327500Y-145906250D01*
%TO.C,R_INDICATOR3*%
X38253641Y-50386250D02*
X37946359Y-50386250D01*
X38253641Y-49626250D02*
X37946359Y-49626250D01*
%TO.C,R_INDICATOR2*%
X347816141Y-50386250D02*
X347508859Y-50386250D01*
X347816141Y-49626250D02*
X347508859Y-49626250D01*
%TO.C,D16*%
X140466250Y-106362500D02*
X140466250Y-105712500D01*
X140466250Y-106362500D02*
X140466250Y-107012500D01*
X137346250Y-106362500D02*
X137346250Y-107012500D01*
X137346250Y-106362500D02*
X137346250Y-104687500D01*
%TO.C,D35*%
X278578750Y-68262500D02*
X278578750Y-67612500D01*
X278578750Y-68262500D02*
X278578750Y-68912500D01*
X275458750Y-68262500D02*
X275458750Y-68912500D01*
X275458750Y-68262500D02*
X275458750Y-66587500D01*
%TO.C,D27*%
X226191250Y-125412500D02*
X226191250Y-126062500D01*
X223071250Y-125412500D02*
X223071250Y-126062500D01*
X223071250Y-125412500D02*
X223071250Y-123737500D01*
X226191250Y-125412500D02*
X226191250Y-124762500D01*
%TO.C,C_UCAP1*%
X322701693Y-106660810D02*
X322549190Y-106508307D01*
X323210810Y-106151693D02*
X323058307Y-105999190D01*
%TO.C,D1*%
X53208750Y-145256250D02*
X53208750Y-143581250D01*
X56328750Y-145256250D02*
X56328750Y-144606250D01*
X53208750Y-145256250D02*
X53208750Y-145906250D01*
X56328750Y-145256250D02*
X56328750Y-145906250D01*
%TO.C,D34*%
X251646250Y-44450000D02*
X251646250Y-42775000D01*
X251646250Y-44450000D02*
X251646250Y-45100000D01*
X254766250Y-44450000D02*
X254766250Y-43800000D01*
X254766250Y-44450000D02*
X254766250Y-45100000D01*
%TO.C,D3*%
X46858750Y-68262500D02*
X46858750Y-68912500D01*
X49978750Y-68262500D02*
X49978750Y-68912500D01*
X46858750Y-68262500D02*
X46858750Y-66587500D01*
X49978750Y-68262500D02*
X49978750Y-67612500D01*
%TO.C,R_HWB1*%
X327063641Y-118120000D02*
X326756359Y-118120000D01*
X327063641Y-117360000D02*
X326756359Y-117360000D01*
%TO.C,D2*%
X52360000Y-45243750D02*
X52360000Y-45893750D01*
X49240000Y-45243750D02*
X49240000Y-45893750D01*
X52360000Y-45243750D02*
X52360000Y-44593750D01*
X49240000Y-45243750D02*
X49240000Y-43568750D01*
%TO.C,J3*%
X314390000Y-62785000D02*
X314390000Y-65285000D01*
X320610000Y-65285000D02*
X319560000Y-65285000D01*
X315560000Y-60815000D02*
X319440000Y-60815000D01*
X314390000Y-65285000D02*
X315440000Y-65285000D01*
X315440000Y-65285000D02*
X315440000Y-66275000D01*
X320610000Y-62785000D02*
X320610000Y-65285000D01*
%TO.C,D47*%
X369640000Y-91060000D02*
X369640000Y-87160000D01*
X371640000Y-91060000D02*
X369640000Y-91060000D01*
X371640000Y-91060000D02*
X371640000Y-87160000D01*
%TO.C,D4*%
X56328750Y-87312500D02*
X56328750Y-87962500D01*
X56328750Y-87312500D02*
X56328750Y-86662500D01*
X53208750Y-87312500D02*
X53208750Y-87962500D01*
X53208750Y-87312500D02*
X53208750Y-85637500D01*
%TO.C,D42*%
X340491250Y-45243750D02*
X340491250Y-44593750D01*
X340491250Y-45243750D02*
X340491250Y-45893750D01*
X337371250Y-45243750D02*
X337371250Y-45893750D01*
X337371250Y-45243750D02*
X337371250Y-43568750D01*
%TO.C,D46*%
X371770000Y-48270000D02*
X371770000Y-44370000D01*
X371770000Y-48270000D02*
X369770000Y-48270000D01*
X369770000Y-48270000D02*
X369770000Y-44370000D01*
%TO.C,C_DECOUP4*%
X322820810Y-104361693D02*
X322668307Y-104209190D01*
X322311693Y-104870810D02*
X322159190Y-104718307D01*
%TO.C,D25*%
X211903750Y-87312500D02*
X211903750Y-87962500D01*
X208783750Y-87312500D02*
X208783750Y-87962500D01*
X211903750Y-87312500D02*
X211903750Y-86662500D01*
X208783750Y-87312500D02*
X208783750Y-85637500D01*
%TO.C,D6*%
X70616250Y-125412500D02*
X70616250Y-124762500D01*
X70616250Y-125412500D02*
X70616250Y-126062500D01*
X67496250Y-125412500D02*
X67496250Y-126062500D01*
X67496250Y-125412500D02*
X67496250Y-123737500D01*
%TO.C,D32*%
X251646250Y-106362500D02*
X251646250Y-107012500D01*
X254766250Y-106362500D02*
X254766250Y-107012500D01*
X251646250Y-106362500D02*
X251646250Y-104687500D01*
X254766250Y-106362500D02*
X254766250Y-105712500D01*
%TO.C,D41*%
X326203750Y-69850000D02*
X326203750Y-70500000D01*
X323083750Y-69850000D02*
X323083750Y-68175000D01*
X323083750Y-69850000D02*
X323083750Y-70500000D01*
X326203750Y-69850000D02*
X326203750Y-69200000D01*
%TO.C,R_RST1*%
X328599940Y-102562659D02*
X328382659Y-102779940D01*
X329137341Y-103100060D02*
X328920060Y-103317341D01*
%TO.C,D23*%
X188091250Y-125412500D02*
X188091250Y-126062500D01*
X184971250Y-125412500D02*
X184971250Y-123737500D01*
X184971250Y-125412500D02*
X184971250Y-126062500D01*
X188091250Y-125412500D02*
X188091250Y-124762500D01*
%TO.C,C_DECOUP1*%
X327007836Y-117010000D02*
X326792164Y-117010000D01*
X327007836Y-116290000D02*
X326792164Y-116290000D01*
%TO.C,D38*%
X290485000Y-87312500D02*
X290485000Y-86662500D01*
X287365000Y-87312500D02*
X287365000Y-85637500D01*
X290485000Y-87312500D02*
X290485000Y-87962500D01*
X287365000Y-87312500D02*
X287365000Y-87962500D01*
%TO.C,D11*%
X108771250Y-125412500D02*
X108771250Y-126062500D01*
X111891250Y-125412500D02*
X111891250Y-124762500D01*
X111891250Y-125412500D02*
X111891250Y-126062500D01*
X108771250Y-125412500D02*
X108771250Y-123737500D01*
%TO.C,D21*%
X173803750Y-87312500D02*
X173803750Y-87962500D01*
X173803750Y-87312500D02*
X173803750Y-86662500D01*
X170683750Y-87312500D02*
X170683750Y-85637500D01*
X170683750Y-87312500D02*
X170683750Y-87962500D01*
%TO.C,D10*%
X99246250Y-106362500D02*
X99246250Y-104687500D01*
X102366250Y-106362500D02*
X102366250Y-105712500D01*
X102366250Y-106362500D02*
X102366250Y-107012500D01*
X99246250Y-106362500D02*
X99246250Y-107012500D01*
%TO.C,D7*%
X89721250Y-44450000D02*
X89721250Y-42775000D01*
X92841250Y-44450000D02*
X92841250Y-43800000D01*
X92841250Y-44450000D02*
X92841250Y-45100000D01*
X89721250Y-44450000D02*
X89721250Y-45100000D01*
%TO.C,D33*%
X267466250Y-125412500D02*
X267466250Y-126062500D01*
X264346250Y-125412500D02*
X264346250Y-126062500D01*
X267466250Y-125412500D02*
X267466250Y-124762500D01*
X264346250Y-125412500D02*
X264346250Y-123737500D01*
%TO.C,D18*%
X316300000Y-39725000D02*
X318700000Y-39725000D01*
X318700000Y-42825000D02*
X315750000Y-42825000D01*
%TO.C,D31*%
X250003750Y-87312500D02*
X250003750Y-86662500D01*
X246883750Y-87312500D02*
X246883750Y-85637500D01*
X246883750Y-87312500D02*
X246883750Y-87962500D01*
X250003750Y-87312500D02*
X250003750Y-87962500D01*
%TO.C,D5*%
X56383750Y-106362500D02*
X56383750Y-104687500D01*
X59503750Y-106362500D02*
X59503750Y-107012500D01*
X56383750Y-106362500D02*
X56383750Y-107012500D01*
X59503750Y-106362500D02*
X59503750Y-105712500D01*
%TO.C,R_INDICATOR1*%
X45397391Y-112332500D02*
X45090109Y-112332500D01*
X45397391Y-113092500D02*
X45090109Y-113092500D01*
%TO.C,D48*%
X371680000Y-148180000D02*
X371680000Y-144280000D01*
X369680000Y-148180000D02*
X369680000Y-144280000D01*
X371680000Y-148180000D02*
X369680000Y-148180000D01*
%TO.C,D14*%
X123058750Y-68262500D02*
X123058750Y-68912500D01*
X126178750Y-68262500D02*
X126178750Y-67612500D01*
X123058750Y-68262500D02*
X123058750Y-66587500D01*
X126178750Y-68262500D02*
X126178750Y-68912500D01*
%TO.C,R_DATA2*%
X316326250Y-103746359D02*
X316326250Y-104053641D01*
X317086250Y-103746359D02*
X317086250Y-104053641D01*
%TO.C,C_DECOUP3*%
X333610000Y-110397836D02*
X333610000Y-110182164D01*
X332890000Y-110397836D02*
X332890000Y-110182164D01*
%TO.C,D40*%
X327791250Y-125412500D02*
X327791250Y-124762500D01*
X324671250Y-125412500D02*
X324671250Y-123737500D01*
X327791250Y-125412500D02*
X327791250Y-126062500D01*
X324671250Y-125412500D02*
X324671250Y-126062500D01*
%TO.C,D12*%
X125440000Y-145256250D02*
X125440000Y-145906250D01*
X128560000Y-145256250D02*
X128560000Y-145906250D01*
X128560000Y-145256250D02*
X128560000Y-144606250D01*
X125440000Y-145256250D02*
X125440000Y-143581250D01*
%TO.C,D30*%
X237358750Y-68262500D02*
X237358750Y-68912500D01*
X237358750Y-68262500D02*
X237358750Y-66587500D01*
X240478750Y-68262500D02*
X240478750Y-67612500D01*
X240478750Y-68262500D02*
X240478750Y-68912500D01*
%TO.C,D45*%
X359541250Y-68262500D02*
X359541250Y-67612500D01*
X356421250Y-68262500D02*
X356421250Y-66587500D01*
X359541250Y-68262500D02*
X359541250Y-68912500D01*
X356421250Y-68262500D02*
X356421250Y-68912500D01*
%TO.C,D26*%
X216666250Y-106362500D02*
X216666250Y-107012500D01*
X213546250Y-106362500D02*
X213546250Y-107012500D01*
X216666250Y-106362500D02*
X216666250Y-105712500D01*
X213546250Y-106362500D02*
X213546250Y-104687500D01*
%TO.C,F1*%
X322010000Y-42991422D02*
X322010000Y-43508578D01*
X320590000Y-42991422D02*
X320590000Y-43508578D01*
%TO.C,D15*%
X132583750Y-87312500D02*
X132583750Y-87962500D01*
X135703750Y-87312500D02*
X135703750Y-87962500D01*
X135703750Y-87312500D02*
X135703750Y-86662500D01*
X132583750Y-87312500D02*
X132583750Y-85637500D01*
%TO.C,C_DECOUP2*%
X320180000Y-110192164D02*
X320180000Y-110407836D01*
X320900000Y-110192164D02*
X320900000Y-110407836D01*
%TO.C,D44*%
X340460000Y-143990000D02*
X340460000Y-143340000D01*
X340460000Y-143990000D02*
X340460000Y-144640000D01*
X337340000Y-143990000D02*
X337340000Y-142315000D01*
X337340000Y-143990000D02*
X337340000Y-144640000D01*
%TO.C,D37*%
X292072500Y-145256250D02*
X292072500Y-145906250D01*
X288952500Y-145256250D02*
X288952500Y-145906250D01*
X292072500Y-145256250D02*
X292072500Y-144606250D01*
X288952500Y-145256250D02*
X288952500Y-143581250D01*
%TO.C,Y1*%
X332278579Y-106689950D02*
X331995736Y-106972792D01*
X332420000Y-106831371D02*
X332137157Y-107114214D01*
X331712893Y-103295837D02*
X331147208Y-102730152D01*
X333692792Y-105275736D02*
X332985686Y-104568629D01*
X333834214Y-105417157D02*
X332420000Y-106831371D01*
X331147208Y-102730152D02*
X329732994Y-104144365D01*
X329450152Y-104427208D02*
X330015837Y-104992893D01*
X331288629Y-106265686D02*
X331005787Y-106548528D01*
X331288629Y-106265686D02*
X331995736Y-106972792D01*
X332278579Y-106689950D02*
X333692792Y-105275736D01*
X329732994Y-104144365D02*
X329450152Y-104427208D01*
%TO.C,U1*%
X326900000Y-115405311D02*
X327412652Y-114892659D01*
X326387348Y-114892659D02*
X326900000Y-115405311D01*
X331492659Y-109787348D02*
X332005311Y-110300000D01*
X326900000Y-105194689D02*
X326387348Y-105707341D01*
X322307341Y-110812652D02*
X321794689Y-110300000D01*
X327412652Y-105707341D02*
X326900000Y-105194689D01*
X332005311Y-110300000D02*
X331492659Y-110812652D01*
%TO.C,D8*%
X84958750Y-68262500D02*
X84958750Y-66587500D01*
X88078750Y-68262500D02*
X88078750Y-67612500D01*
X84958750Y-68262500D02*
X84958750Y-68912500D01*
X88078750Y-68262500D02*
X88078750Y-68912500D01*
%TO.C,D36*%
X285777500Y-107950000D02*
X285777500Y-106275000D01*
X285777500Y-107950000D02*
X285777500Y-108600000D01*
X288897500Y-107950000D02*
X288897500Y-107300000D01*
X288897500Y-107950000D02*
X288897500Y-108600000D01*
%TO.C,D28*%
X214285000Y-45243750D02*
X214285000Y-44593750D01*
X211165000Y-45243750D02*
X211165000Y-43568750D01*
X214285000Y-45243750D02*
X214285000Y-45893750D01*
X211165000Y-45243750D02*
X211165000Y-45893750D01*
%TO.C,D17*%
X149991250Y-125412500D02*
X149991250Y-126062500D01*
X146871250Y-125412500D02*
X146871250Y-126062500D01*
X146871250Y-125412500D02*
X146871250Y-123737500D01*
X149991250Y-125412500D02*
X149991250Y-124762500D01*
%TO.C,D20*%
X161158750Y-68262500D02*
X161158750Y-66587500D01*
X164278750Y-68262500D02*
X164278750Y-67612500D01*
X164278750Y-68262500D02*
X164278750Y-68912500D01*
X161158750Y-68262500D02*
X161158750Y-68912500D01*
%TO.C,D19*%
X173803750Y-44450000D02*
X173803750Y-43800000D01*
X173803750Y-44450000D02*
X173803750Y-45100000D01*
X170683750Y-44450000D02*
X170683750Y-45100000D01*
X170683750Y-44450000D02*
X170683750Y-42775000D01*
%TO.C,D43*%
X337371250Y-87312500D02*
X337371250Y-85637500D01*
X340491250Y-87312500D02*
X340491250Y-86662500D01*
X340491250Y-87312500D02*
X340491250Y-87962500D01*
X337371250Y-87312500D02*
X337371250Y-87962500D01*
%TO.C,D22*%
X178566250Y-106362500D02*
X178566250Y-107012500D01*
X175446250Y-106362500D02*
X175446250Y-104687500D01*
X178566250Y-106362500D02*
X178566250Y-105712500D01*
X175446250Y-106362500D02*
X175446250Y-107012500D01*
%TO.C,D39*%
X292127500Y-45243750D02*
X292127500Y-45893750D01*
X295247500Y-45243750D02*
X295247500Y-44593750D01*
X292127500Y-45243750D02*
X292127500Y-43568750D01*
X295247500Y-45243750D02*
X295247500Y-45893750D01*
%TO.C,D13*%
X133322500Y-45243750D02*
X133322500Y-45893750D01*
X133322500Y-45243750D02*
X133322500Y-44593750D01*
X130202500Y-45243750D02*
X130202500Y-43568750D01*
X130202500Y-45243750D02*
X130202500Y-45893750D01*
%TO.C,D9*%
X97603750Y-87312500D02*
X97603750Y-87962500D01*
X97603750Y-87312500D02*
X97603750Y-86662500D01*
X94483750Y-87312500D02*
X94483750Y-85637500D01*
X94483750Y-87312500D02*
X94483750Y-87962500D01*
%TO.C,D24*%
X202378750Y-68262500D02*
X202378750Y-68912500D01*
X199258750Y-68262500D02*
X199258750Y-66587500D01*
X202378750Y-68262500D02*
X202378750Y-67612500D01*
X199258750Y-68262500D02*
X199258750Y-68912500D01*
%TD*%
%LPC*%
D12*
%TO.C,MX78*%
X284480000Y-123825000D03*
X274320000Y-123825000D03*
D13*
X279400000Y-123825000D03*
D14*
X276900000Y-119825000D03*
D15*
X276245001Y-120555000D03*
D16*
X281920000Y-119035000D03*
D14*
X281940000Y-118745000D03*
%TD*%
D12*
%TO.C,MX86*%
X295751250Y-142875000D03*
D13*
X300831250Y-142875000D03*
D12*
X305911250Y-142875000D03*
D17*
X297681250Y-139625000D03*
D18*
X303381250Y-138075000D03*
%TD*%
D12*
%TO.C,MX67*%
X248126250Y-142875000D03*
X258286250Y-142875000D03*
D13*
X253206250Y-142875000D03*
D17*
X250056250Y-139625000D03*
D18*
X255756250Y-138075000D03*
%TD*%
D12*
%TO.C,MX23*%
X96361250Y-142875000D03*
D13*
X91281250Y-142875000D03*
D12*
X86201250Y-142875000D03*
D17*
X88131250Y-139625000D03*
D18*
X93831250Y-138075000D03*
%TD*%
D13*
%TO.C,MX9*%
X43656250Y-142875000D03*
D12*
X48736250Y-142875000D03*
X38576250Y-142875000D03*
D17*
X40506250Y-139625000D03*
D18*
X46206250Y-138075000D03*
%TD*%
D12*
%TO.C,MX90*%
X305911250Y-85725000D03*
D13*
X300831250Y-85725000D03*
D12*
X295751250Y-85725000D03*
D17*
X297681250Y-82475000D03*
D18*
X303381250Y-80925000D03*
%TD*%
D12*
%TO.C,MX6*%
X38576250Y-85725000D03*
X48736250Y-85725000D03*
D13*
X43656250Y-85725000D03*
D17*
X40506250Y-82475000D03*
D18*
X46206250Y-80925000D03*
%TD*%
D19*
%TO.C,D78*%
X375705000Y-140270000D03*
X373955000Y-140270000D03*
X375705000Y-136770000D03*
X373955000Y-136770000D03*
%TD*%
%TO.C,D77*%
X375225000Y-116900000D03*
X373475000Y-116900000D03*
X375225000Y-113400000D03*
X373475000Y-113400000D03*
%TD*%
%TO.C,D76*%
X375175000Y-95630000D03*
X373425000Y-95630000D03*
X375175000Y-92130000D03*
X373425000Y-92130000D03*
%TD*%
%TO.C,D75*%
X375205000Y-73140000D03*
X373455000Y-73140000D03*
X375205000Y-69640000D03*
X373455000Y-69640000D03*
%TD*%
%TO.C,D74*%
X375515000Y-52150000D03*
X373765000Y-52150000D03*
X375515000Y-48650000D03*
X373765000Y-48650000D03*
%TD*%
D20*
%TO.C,D73*%
X367180000Y-34675000D03*
X367180000Y-36425000D03*
X363680000Y-34675000D03*
X363680000Y-36425000D03*
%TD*%
%TO.C,D72*%
X339230000Y-34625000D03*
X339230000Y-36375000D03*
X335730000Y-34625000D03*
X335730000Y-36375000D03*
%TD*%
%TO.C,D71*%
X303690000Y-34385000D03*
X303690000Y-36135000D03*
X300190000Y-34385000D03*
X300190000Y-36135000D03*
%TD*%
%TO.C,D70*%
X358350000Y-151015000D03*
X358350000Y-149265000D03*
X361850000Y-151015000D03*
X361850000Y-149265000D03*
%TD*%
%TO.C,D69*%
X329420000Y-150925000D03*
X329420000Y-149175000D03*
X332920000Y-150925000D03*
X332920000Y-149175000D03*
%TD*%
%TO.C,D68*%
X255920000Y-34615000D03*
X255920000Y-36365000D03*
X252420000Y-34615000D03*
X252420000Y-36365000D03*
%TD*%
%TO.C,D67*%
X297090000Y-150965000D03*
X297090000Y-149215000D03*
X300590000Y-150965000D03*
X300590000Y-149215000D03*
%TD*%
%TO.C,D66*%
X223610000Y-34425000D03*
X223610000Y-36175000D03*
X220110000Y-34425000D03*
X220110000Y-36175000D03*
%TD*%
%TO.C,D65*%
X251870000Y-151185000D03*
X251870000Y-149435000D03*
X255370000Y-151185000D03*
X255370000Y-149435000D03*
%TD*%
%TO.C,D64*%
X193330000Y-35065000D03*
X193330000Y-36815000D03*
X189830000Y-35065000D03*
X189830000Y-36815000D03*
%TD*%
%TO.C,D63*%
X218600000Y-151005000D03*
X218600000Y-149255000D03*
X222100000Y-151005000D03*
X222100000Y-149255000D03*
%TD*%
%TO.C,D62*%
X177490000Y-151065000D03*
X177490000Y-149315000D03*
X180990000Y-151065000D03*
X180990000Y-149315000D03*
%TD*%
%TO.C,D61*%
X143320000Y-34455000D03*
X143320000Y-36205000D03*
X139820000Y-34455000D03*
X139820000Y-36205000D03*
%TD*%
%TO.C,D60*%
X134660000Y-151085000D03*
X134660000Y-149335000D03*
X138160000Y-151085000D03*
X138160000Y-149335000D03*
%TD*%
%TO.C,D59*%
X112600000Y-35165000D03*
X112600000Y-36915000D03*
X109100000Y-35165000D03*
X109100000Y-36915000D03*
%TD*%
%TO.C,D58*%
X102220000Y-150795000D03*
X102220000Y-149045000D03*
X105720000Y-150795000D03*
X105720000Y-149045000D03*
%TD*%
%TO.C,D57*%
X73620000Y-34875000D03*
X73620000Y-36625000D03*
X70120000Y-34875000D03*
X70120000Y-36625000D03*
%TD*%
%TO.C,D56*%
X73730000Y-151225000D03*
X73730000Y-149475000D03*
X77230000Y-151225000D03*
X77230000Y-149475000D03*
%TD*%
%TO.C,D55*%
X37190000Y-34595000D03*
X37190000Y-36345000D03*
X33690000Y-34595000D03*
X33690000Y-36345000D03*
%TD*%
%TO.C,D54*%
X44890000Y-151105000D03*
X44890000Y-149355000D03*
X48390000Y-151105000D03*
X48390000Y-149355000D03*
%TD*%
D19*
%TO.C,D53*%
X31035000Y-139860000D03*
X32785000Y-139860000D03*
X31035000Y-143360000D03*
X32785000Y-143360000D03*
%TD*%
%TO.C,D52*%
X30755000Y-113520000D03*
X32505000Y-113520000D03*
X30755000Y-117020000D03*
X32505000Y-117020000D03*
%TD*%
%TO.C,D51*%
X30665000Y-92400000D03*
X32415000Y-92400000D03*
X30665000Y-95900000D03*
X32415000Y-95900000D03*
%TD*%
%TO.C,D50*%
X30895000Y-70190000D03*
X32645000Y-70190000D03*
X30895000Y-73690000D03*
X32645000Y-73690000D03*
%TD*%
%TO.C,D49*%
X30725000Y-48570000D03*
X32475000Y-48570000D03*
X30725000Y-52070000D03*
X32475000Y-52070000D03*
%TD*%
D13*
%TO.C,MX14*%
X72231250Y-104775000D03*
D12*
X77311250Y-104775000D03*
X67151250Y-104775000D03*
D21*
X69031250Y-101525000D03*
D22*
X74781250Y-99975000D03*
%TD*%
D13*
%TO.C,MX62*%
X224631250Y-42862500D03*
D12*
X229711250Y-42862500D03*
X219551250Y-42862500D03*
D21*
X221431250Y-39612500D03*
D22*
X227181250Y-38062500D03*
%TD*%
D12*
%TO.C,MX60*%
X236855000Y-142875000D03*
X226695000Y-142875000D03*
D13*
X231775000Y-142875000D03*
D23*
X228625000Y-139625000D03*
D18*
X234325000Y-138025000D03*
%TD*%
D13*
%TO.C,MX94*%
X329406250Y-142875000D03*
D12*
X334486250Y-142875000D03*
X324326250Y-142875000D03*
D21*
X326206250Y-139625000D03*
D22*
X331956250Y-138075000D03*
%TD*%
D13*
%TO.C,MX75*%
X267493750Y-66675000D03*
D12*
X272573750Y-66675000D03*
X262413750Y-66675000D03*
D21*
X264293750Y-63425000D03*
D22*
X270043750Y-61875000D03*
%TD*%
D13*
%TO.C,MX85*%
X305593750Y-123825000D03*
D12*
X300513750Y-123825000D03*
X310673750Y-123825000D03*
D21*
X302393750Y-120575000D03*
D22*
X308143750Y-119025000D03*
%TD*%
D13*
%TO.C,MX49*%
X186531250Y-104775000D03*
D12*
X181451250Y-104775000D03*
X191611250Y-104775000D03*
D21*
X183331250Y-101525000D03*
D22*
X189081250Y-99975000D03*
%TD*%
D12*
%TO.C,MX27*%
X105251250Y-104775000D03*
D13*
X110331250Y-104775000D03*
D12*
X115411250Y-104775000D03*
D21*
X107131250Y-101525000D03*
D22*
X112881250Y-99975000D03*
%TD*%
D12*
%TO.C,MX15*%
X86836250Y-123825000D03*
D13*
X81756250Y-123825000D03*
D12*
X76676250Y-123825000D03*
D21*
X78556250Y-120575000D03*
D22*
X84306250Y-119025000D03*
%TD*%
D13*
%TO.C,MX74*%
X262731250Y-42862500D03*
D12*
X267811250Y-42862500D03*
X257651250Y-42862500D03*
D21*
X259531250Y-39612500D03*
D22*
X265281250Y-38062500D03*
%TD*%
D12*
%TO.C,MX16*%
X72548750Y-142875000D03*
X62388750Y-142875000D03*
D13*
X67468750Y-142875000D03*
D21*
X64268750Y-139625000D03*
D22*
X70018750Y-138075000D03*
%TD*%
D12*
%TO.C,MX2*%
X36195000Y-123825000D03*
D13*
X41275000Y-123825000D03*
D12*
X46355000Y-123825000D03*
D23*
X38125000Y-120575000D03*
D18*
X43825000Y-118975000D03*
%TD*%
D13*
%TO.C,MX72*%
X288925000Y-123825000D03*
X276987000Y-132080000D03*
D24*
X276987000Y-116840000D03*
D13*
X300863000Y-132080000D03*
D12*
X294005000Y-123825000D03*
D24*
X300863000Y-116840000D03*
D12*
X283845000Y-123825000D03*
D23*
X285775000Y-120525000D03*
D18*
X291425000Y-119025000D03*
%TD*%
D12*
%TO.C,MX20*%
X81438750Y-85725000D03*
X91598750Y-85725000D03*
D13*
X86518750Y-85725000D03*
D21*
X83318750Y-82475000D03*
D22*
X89068750Y-80925000D03*
%TD*%
D12*
%TO.C,MX33*%
X133826250Y-123825000D03*
X143986250Y-123825000D03*
D13*
X138906250Y-123825000D03*
D21*
X135706250Y-120575000D03*
D22*
X141456250Y-119025000D03*
%TD*%
D13*
%TO.C,MX48*%
X181768750Y-85725000D03*
D12*
X176688750Y-85725000D03*
X186848750Y-85725000D03*
D21*
X178568750Y-82475000D03*
D22*
X184318750Y-80925000D03*
%TD*%
D12*
%TO.C,MX31*%
X119538750Y-85725000D03*
X129698750Y-85725000D03*
D13*
X124618750Y-85725000D03*
D21*
X121418750Y-82475000D03*
D22*
X127168750Y-80925000D03*
%TD*%
D24*
%TO.C,MX45*%
X229393750Y-149860000D03*
D13*
X229393750Y-134620000D03*
X115093750Y-134620000D03*
X172243750Y-142875000D03*
D12*
X167163750Y-142875000D03*
D24*
X115093750Y-149860000D03*
D12*
X177323750Y-142875000D03*
D23*
X169093750Y-139625000D03*
D18*
X174743750Y-138075000D03*
%TD*%
D25*
%TO.C,USB1*%
X320390000Y-30662500D03*
X314610000Y-30662500D03*
D26*
X321820000Y-31192500D03*
D27*
X321820000Y-27012500D03*
X313180000Y-27012500D03*
D26*
X313180000Y-31192500D03*
%TD*%
D12*
%TO.C,MX73*%
X274320000Y-142875000D03*
X284480000Y-142875000D03*
D13*
X279400000Y-142875000D03*
D23*
X276250000Y-139625000D03*
D18*
X281950000Y-138025000D03*
%TD*%
D12*
%TO.C,MX84*%
X298767500Y-104775000D03*
D24*
X305625500Y-111760000D03*
X281749500Y-111760000D03*
D13*
X293687500Y-104775000D03*
D12*
X288607500Y-104775000D03*
D13*
X281749500Y-96520000D03*
X305625500Y-96520000D03*
D23*
X290537500Y-101525000D03*
D18*
X296237500Y-99975000D03*
%TD*%
D12*
%TO.C,MX91*%
X324326250Y-42862500D03*
X334486250Y-42862500D03*
D13*
X329406250Y-42862500D03*
D21*
X326206250Y-39612500D03*
D22*
X331956250Y-38062500D03*
%TD*%
D13*
%TO.C,MX11*%
X62706250Y-42862500D03*
D12*
X57626250Y-42862500D03*
X67786250Y-42862500D03*
D21*
X59506250Y-39612500D03*
D22*
X65256250Y-38062500D03*
%TD*%
D12*
%TO.C,MX22*%
X105886250Y-123825000D03*
D13*
X100806250Y-123825000D03*
D12*
X95726250Y-123825000D03*
D21*
X97606250Y-120575000D03*
D22*
X103356250Y-119025000D03*
%TD*%
D12*
%TO.C,MX51*%
X205898750Y-42862500D03*
X195738750Y-42862500D03*
D13*
X200818750Y-42862500D03*
D21*
X197618750Y-39612500D03*
D22*
X203368750Y-38062500D03*
%TD*%
D12*
%TO.C,MX3*%
X36195000Y-142875000D03*
X46355000Y-142875000D03*
D13*
X41275000Y-142875000D03*
D23*
X38125000Y-139625000D03*
D18*
X43825000Y-138025000D03*
%TD*%
D12*
%TO.C,MX54*%
X200501250Y-104775000D03*
D13*
X205581250Y-104775000D03*
D12*
X210661250Y-104775000D03*
D21*
X202381250Y-101525000D03*
D22*
X208131250Y-99975000D03*
%TD*%
D13*
%TO.C,MX43*%
X167481250Y-104775000D03*
D12*
X162401250Y-104775000D03*
X172561250Y-104775000D03*
D21*
X164281250Y-101525000D03*
D22*
X170031250Y-99975000D03*
%TD*%
D12*
%TO.C,MX30*%
X120173750Y-66675000D03*
X110013750Y-66675000D03*
D13*
X115093750Y-66675000D03*
D21*
X111893750Y-63425000D03*
D22*
X117643750Y-61875000D03*
%TD*%
D12*
%TO.C,MX65*%
X248761250Y-104775000D03*
X238601250Y-104775000D03*
D13*
X243681250Y-104775000D03*
D21*
X240481250Y-101525000D03*
D22*
X246231250Y-99975000D03*
%TD*%
D12*
%TO.C,MX35*%
X129063750Y-66675000D03*
D13*
X134143750Y-66675000D03*
D12*
X139223750Y-66675000D03*
D21*
X130943750Y-63425000D03*
D22*
X136693750Y-61875000D03*
%TD*%
D13*
%TO.C,MX79*%
X277018750Y-142875000D03*
D12*
X271938750Y-142875000D03*
X282098750Y-142875000D03*
D21*
X273818750Y-139625000D03*
D22*
X279568750Y-138075000D03*
%TD*%
D13*
%TO.C,MX102*%
X367506250Y-85725000D03*
D12*
X372586250Y-85725000D03*
X362426250Y-85725000D03*
D21*
X364306250Y-82475000D03*
D22*
X370056250Y-80925000D03*
%TD*%
D12*
%TO.C,MX10*%
X70167500Y-142875000D03*
X60007500Y-142875000D03*
D13*
X65087500Y-142875000D03*
D23*
X61937500Y-139625000D03*
D18*
X67637500Y-138025000D03*
%TD*%
D12*
%TO.C,MX95*%
X353536250Y-42862500D03*
D13*
X348456250Y-42862500D03*
D12*
X343376250Y-42862500D03*
D17*
X345306250Y-39612500D03*
D18*
X350956250Y-38062500D03*
D28*
X347186250Y-47942500D03*
D29*
X349726250Y-47942500D03*
%TD*%
D13*
%TO.C,MX89*%
X308006750Y-74930000D03*
D24*
X284130750Y-59690000D03*
X308006750Y-59690000D03*
D12*
X301148750Y-66675000D03*
D13*
X296068750Y-66675000D03*
D12*
X290988750Y-66675000D03*
D13*
X284130750Y-74930000D03*
D23*
X292918750Y-63425000D03*
D18*
X298568750Y-61875000D03*
%TD*%
D13*
%TO.C,MX25*%
X96043750Y-66675000D03*
D12*
X101123750Y-66675000D03*
X90963750Y-66675000D03*
D21*
X92843750Y-63425000D03*
D22*
X98593750Y-61875000D03*
%TD*%
D12*
%TO.C,MX82*%
X276701250Y-42862500D03*
X286861250Y-42862500D03*
D13*
X281781250Y-42862500D03*
D21*
X278581250Y-39612500D03*
D22*
X284331250Y-38062500D03*
%TD*%
D13*
%TO.C,MX18*%
X81756250Y-42862500D03*
D12*
X86836250Y-42862500D03*
X76676250Y-42862500D03*
D21*
X78556250Y-39612500D03*
D22*
X84306250Y-38062500D03*
%TD*%
D12*
%TO.C,MX68*%
X248761250Y-42862500D03*
D13*
X243681250Y-42862500D03*
D12*
X238601250Y-42862500D03*
D21*
X240481250Y-39612500D03*
D22*
X246231250Y-38062500D03*
%TD*%
D13*
%TO.C,MX77*%
X281781250Y-104775000D03*
D12*
X276701250Y-104775000D03*
X286861250Y-104775000D03*
D21*
X278581250Y-101525000D03*
D22*
X284331250Y-99975000D03*
%TD*%
D12*
%TO.C,MX46*%
X176688750Y-42862500D03*
D13*
X181768750Y-42862500D03*
D12*
X186848750Y-42862500D03*
D21*
X178568750Y-39612500D03*
D22*
X184318750Y-38062500D03*
%TD*%
D13*
%TO.C,MX26*%
X105568750Y-85725000D03*
D12*
X100488750Y-85725000D03*
X110648750Y-85725000D03*
D21*
X102368750Y-82475000D03*
D22*
X108118750Y-80925000D03*
%TD*%
D13*
%TO.C,MX19*%
X76993750Y-66675000D03*
D12*
X71913750Y-66675000D03*
X82073750Y-66675000D03*
D21*
X73793750Y-63425000D03*
D22*
X79543750Y-61875000D03*
%TD*%
D12*
%TO.C,MX8*%
X55880000Y-123825000D03*
D13*
X50800000Y-123825000D03*
D24*
X38862000Y-116840000D03*
D13*
X38862000Y-132080000D03*
D24*
X62738000Y-116840000D03*
D12*
X45720000Y-123825000D03*
D13*
X62738000Y-132080000D03*
D23*
X47650000Y-120575000D03*
D18*
X53300000Y-119025000D03*
%TD*%
D12*
%TO.C,MX36*%
X148748750Y-85725000D03*
X138588750Y-85725000D03*
D13*
X143668750Y-85725000D03*
D21*
X140468750Y-82475000D03*
D22*
X146218750Y-80925000D03*
%TD*%
D12*
%TO.C,MX42*%
X157638750Y-85725000D03*
X167798750Y-85725000D03*
D13*
X162718750Y-85725000D03*
D21*
X159518750Y-82475000D03*
D22*
X165268750Y-80925000D03*
%TD*%
D12*
%TO.C,MX83*%
X281463750Y-66675000D03*
X291623750Y-66675000D03*
D13*
X286543750Y-66675000D03*
D21*
X283343750Y-63425000D03*
D22*
X289093750Y-61875000D03*
%TD*%
D12*
%TO.C,MX38*%
X152876250Y-123825000D03*
X163036250Y-123825000D03*
D13*
X157956250Y-123825000D03*
D21*
X154756250Y-120575000D03*
D22*
X160506250Y-119025000D03*
%TD*%
D13*
%TO.C,MX1*%
X41275000Y-104775000D03*
D12*
X46355000Y-104775000D03*
X36195000Y-104775000D03*
D17*
X38125000Y-101525000D03*
D18*
X43775000Y-99975000D03*
D28*
X40005000Y-109855000D03*
D29*
X42545000Y-109855000D03*
%TD*%
D12*
%TO.C,MX29*%
X124936250Y-42862500D03*
X114776250Y-42862500D03*
D13*
X119856250Y-42862500D03*
D21*
X116656250Y-39612500D03*
D22*
X122406250Y-38062500D03*
%TD*%
D13*
%TO.C,MX34*%
X143668750Y-42862500D03*
D12*
X138588750Y-42862500D03*
X148748750Y-42862500D03*
D21*
X140468750Y-39612500D03*
D22*
X146218750Y-38062500D03*
%TD*%
D12*
%TO.C,MX100*%
X372586250Y-42862500D03*
D13*
X367506250Y-42862500D03*
D12*
X362426250Y-42862500D03*
D21*
X364306250Y-39612500D03*
D22*
X370056250Y-38062500D03*
%TD*%
D12*
%TO.C,MX64*%
X243998750Y-85725000D03*
D13*
X238918750Y-85725000D03*
D12*
X233838750Y-85725000D03*
D21*
X235718750Y-82475000D03*
D22*
X241468750Y-80925000D03*
%TD*%
D12*
%TO.C,MX7*%
X40957500Y-104775000D03*
X51117500Y-104775000D03*
D13*
X46037500Y-104775000D03*
D17*
X42887500Y-101525000D03*
D18*
X48537500Y-99975000D03*
D28*
X44767500Y-109855000D03*
D29*
X47307500Y-109855000D03*
%TD*%
D13*
%TO.C,MX28*%
X119856250Y-123825000D03*
D12*
X114776250Y-123825000D03*
X124936250Y-123825000D03*
D21*
X116656250Y-120575000D03*
D22*
X122406250Y-119025000D03*
%TD*%
D12*
%TO.C,MX57*%
X224948750Y-85725000D03*
D13*
X219868750Y-85725000D03*
D12*
X214788750Y-85725000D03*
D21*
X216668750Y-82475000D03*
D22*
X222418750Y-80925000D03*
%TD*%
D12*
%TO.C,MX61*%
X260667500Y-142875000D03*
D13*
X255587500Y-142875000D03*
D12*
X250507500Y-142875000D03*
D23*
X252437500Y-139625000D03*
D18*
X258137500Y-138025000D03*
%TD*%
D13*
%TO.C,MX32*%
X129381250Y-104775000D03*
D12*
X134461250Y-104775000D03*
X124301250Y-104775000D03*
D21*
X126181250Y-101525000D03*
D22*
X131931250Y-99975000D03*
%TD*%
D30*
%TO.C,J2*%
X373960000Y-102265000D03*
D31*
X373960000Y-104805000D03*
X373960000Y-107345000D03*
%TD*%
D13*
%TO.C,MX5*%
X38893750Y-66675000D03*
D12*
X43973750Y-66675000D03*
X33813750Y-66675000D03*
D21*
X35693750Y-63425000D03*
D22*
X41443750Y-61875000D03*
%TD*%
D12*
%TO.C,MX12*%
X52863750Y-66675000D03*
D13*
X57943750Y-66675000D03*
D12*
X63023750Y-66675000D03*
D21*
X54743750Y-63425000D03*
D22*
X60493750Y-61875000D03*
%TD*%
D24*
%TO.C,MX39*%
X210337400Y-149860000D03*
D13*
X160337500Y-142875000D03*
D12*
X155257500Y-142875000D03*
D24*
X110337600Y-149860000D03*
D12*
X165417500Y-142875000D03*
D13*
X210337400Y-134620000D03*
X110337600Y-134620000D03*
D23*
X157187500Y-139625000D03*
D18*
X162887500Y-138075000D03*
%TD*%
D12*
%TO.C,MX50*%
X201136250Y-123825000D03*
D13*
X196056250Y-123825000D03*
D12*
X190976250Y-123825000D03*
D21*
X192856250Y-120575000D03*
D22*
X198606250Y-119025000D03*
%TD*%
D12*
%TO.C,MX17*%
X83820000Y-142875000D03*
X93980000Y-142875000D03*
D13*
X88900000Y-142875000D03*
D23*
X85750000Y-139625000D03*
D18*
X91450000Y-138025000D03*
%TD*%
D12*
%TO.C,MX81*%
X298132500Y-142875000D03*
X308292500Y-142875000D03*
D13*
X303212500Y-142875000D03*
D23*
X300062500Y-139625000D03*
D18*
X305762500Y-138025000D03*
%TD*%
D12*
%TO.C,MX97*%
X343376250Y-85725000D03*
D13*
X348456250Y-85725000D03*
D12*
X353536250Y-85725000D03*
D21*
X345256250Y-82475000D03*
D22*
X351006250Y-80925000D03*
%TD*%
D12*
%TO.C,MX21*%
X86201250Y-104775000D03*
D13*
X91281250Y-104775000D03*
D12*
X96361250Y-104775000D03*
D21*
X88081250Y-101525000D03*
D22*
X93831250Y-99975000D03*
%TD*%
D13*
%TO.C,MX53*%
X200818750Y-85725000D03*
D12*
X205898750Y-85725000D03*
X195738750Y-85725000D03*
D21*
X197618750Y-82475000D03*
D22*
X203368750Y-80925000D03*
%TD*%
D12*
%TO.C,MX44*%
X182086250Y-123825000D03*
D13*
X177006250Y-123825000D03*
D12*
X171926250Y-123825000D03*
D21*
X173806250Y-120575000D03*
D22*
X179556250Y-119025000D03*
%TD*%
D12*
%TO.C,MX24*%
X105886250Y-42862500D03*
D13*
X100806250Y-42862500D03*
D12*
X95726250Y-42862500D03*
D21*
X97606250Y-39612500D03*
D22*
X103356250Y-38062500D03*
%TD*%
D13*
%TO.C,MX66*%
X253206250Y-123825000D03*
D12*
X258286250Y-123825000D03*
X248126250Y-123825000D03*
D21*
X250006250Y-120575000D03*
D22*
X255756250Y-119025000D03*
%TD*%
D12*
%TO.C,MX37*%
X143351250Y-104775000D03*
X153511250Y-104775000D03*
D13*
X148431250Y-104775000D03*
D21*
X145231250Y-101525000D03*
D22*
X150981250Y-99975000D03*
%TD*%
D13*
%TO.C,MX52*%
X191293750Y-66675000D03*
D12*
X186213750Y-66675000D03*
X196373750Y-66675000D03*
D21*
X188093750Y-63425000D03*
D22*
X193843750Y-61875000D03*
%TD*%
D12*
%TO.C,MX4*%
X33813750Y-42862500D03*
D13*
X38893750Y-42862500D03*
D12*
X43973750Y-42862500D03*
D17*
X35743750Y-39612500D03*
D18*
X41393750Y-38062500D03*
D28*
X37623750Y-47942500D03*
D29*
X40163750Y-47942500D03*
%TD*%
D12*
%TO.C,MX93*%
X324326250Y-85725000D03*
D13*
X329406250Y-85725000D03*
D12*
X334486250Y-85725000D03*
D21*
X326206250Y-82475000D03*
D22*
X331956250Y-80925000D03*
%TD*%
D12*
%TO.C,MX96*%
X343376250Y-66675000D03*
D13*
X348456250Y-66675000D03*
D12*
X353536250Y-66675000D03*
D21*
X345256250Y-63425000D03*
D22*
X351006250Y-61875000D03*
%TD*%
D24*
%TO.C,MX80*%
X310197500Y-83312000D03*
D32*
X303212500Y-100330000D03*
X303212500Y-90170000D03*
D13*
X294957500Y-107188000D03*
X303212500Y-95250000D03*
D24*
X310197500Y-107188000D03*
D13*
X294957500Y-83312000D03*
D33*
X308012500Y-97750000D03*
D34*
X306462500Y-92100000D03*
%TD*%
D12*
%TO.C,MX92*%
X324326250Y-66675000D03*
D13*
X329406250Y-66675000D03*
D12*
X334486250Y-66675000D03*
D21*
X326206250Y-63425000D03*
D22*
X331956250Y-61875000D03*
%TD*%
D13*
%TO.C,MX71*%
X262731250Y-104775000D03*
D12*
X267811250Y-104775000D03*
X257651250Y-104775000D03*
D21*
X259531250Y-101525000D03*
D22*
X265281250Y-99975000D03*
%TD*%
D12*
%TO.C,MX70*%
X263048750Y-85725000D03*
X252888750Y-85725000D03*
D13*
X257968750Y-85725000D03*
D21*
X254768750Y-82475000D03*
D22*
X260518750Y-80925000D03*
%TD*%
D13*
%TO.C,MX103*%
X367506250Y-142875000D03*
D12*
X372586250Y-142875000D03*
X362426250Y-142875000D03*
D21*
X364306250Y-139625000D03*
D22*
X370056250Y-138075000D03*
%TD*%
D12*
%TO.C,MX56*%
X215423750Y-66675000D03*
D13*
X210343750Y-66675000D03*
D12*
X205263750Y-66675000D03*
D21*
X207143750Y-63425000D03*
D22*
X212893750Y-61875000D03*
%TD*%
D12*
%TO.C,MX88*%
X300513750Y-42862500D03*
X310673750Y-42862500D03*
D13*
X305593750Y-42862500D03*
D21*
X302393750Y-39612500D03*
D22*
X308143750Y-38062500D03*
%TD*%
D12*
%TO.C,MX40*%
X167798750Y-42862500D03*
D13*
X162718750Y-42862500D03*
D12*
X157638750Y-42862500D03*
D21*
X159518750Y-39612500D03*
D22*
X165268750Y-38062500D03*
%TD*%
D13*
%TO.C,MX99*%
X348456250Y-142875000D03*
D12*
X343376250Y-142875000D03*
X353536250Y-142875000D03*
D21*
X345256250Y-139625000D03*
D22*
X351006250Y-138075000D03*
%TD*%
D12*
%TO.C,MX87*%
X310673750Y-66675000D03*
D13*
X305593750Y-66675000D03*
D12*
X300513750Y-66675000D03*
D21*
X302393750Y-63425000D03*
D22*
X308143750Y-61875000D03*
%TD*%
D12*
%TO.C,MX59*%
X229076250Y-123825000D03*
D13*
X234156250Y-123825000D03*
D12*
X239236250Y-123825000D03*
D21*
X230956250Y-120575000D03*
D22*
X236706250Y-119025000D03*
%TD*%
D13*
%TO.C,MX58*%
X224631250Y-104775000D03*
D12*
X219551250Y-104775000D03*
X229711250Y-104775000D03*
D21*
X221431250Y-101525000D03*
D22*
X227181250Y-99975000D03*
%TD*%
D13*
%TO.C,MX13*%
X67468750Y-85725000D03*
D12*
X62388750Y-85725000D03*
X72548750Y-85725000D03*
D21*
X64268750Y-82475000D03*
D22*
X70018750Y-80925000D03*
%TD*%
D12*
%TO.C,MX98*%
X343376250Y-123825000D03*
X353536250Y-123825000D03*
D13*
X348456250Y-123825000D03*
D21*
X345256250Y-120575000D03*
D22*
X351006250Y-119025000D03*
%TD*%
D12*
%TO.C,MX63*%
X234473750Y-66675000D03*
X224313750Y-66675000D03*
D13*
X229393750Y-66675000D03*
D21*
X226193750Y-63425000D03*
D22*
X231943750Y-61875000D03*
%TD*%
D13*
%TO.C,MX76*%
X277018750Y-85725000D03*
D12*
X282098750Y-85725000D03*
X271938750Y-85725000D03*
D21*
X273818750Y-82475000D03*
D22*
X279568750Y-80925000D03*
%TD*%
D12*
%TO.C,MX47*%
X167163750Y-66675000D03*
D13*
X172243750Y-66675000D03*
D12*
X177323750Y-66675000D03*
D21*
X169043750Y-63425000D03*
D22*
X174793750Y-61875000D03*
%TD*%
D13*
%TO.C,MX101*%
X367506250Y-66675000D03*
D12*
X362426250Y-66675000D03*
X372586250Y-66675000D03*
D21*
X364306250Y-63425000D03*
D22*
X370056250Y-61875000D03*
%TD*%
D12*
%TO.C,MX55*%
X220186250Y-123825000D03*
X210026250Y-123825000D03*
D13*
X215106250Y-123825000D03*
D21*
X211906250Y-120575000D03*
D22*
X217656250Y-119025000D03*
%TD*%
D12*
%TO.C,MX41*%
X158273750Y-66675000D03*
X148113750Y-66675000D03*
D13*
X153193750Y-66675000D03*
D21*
X149993750Y-63425000D03*
D22*
X155743750Y-61875000D03*
%TD*%
D12*
%TO.C,MX69*%
X243363750Y-66675000D03*
D13*
X248443750Y-66675000D03*
D12*
X253523750Y-66675000D03*
D21*
X245243750Y-63425000D03*
D22*
X250993750Y-61875000D03*
%TD*%
D35*
%TO.C,R_DATA1*%
X317840000Y-103390000D03*
X317840000Y-104410000D03*
%TD*%
D36*
%TO.C,D29*%
X241937500Y-144318750D03*
X243837500Y-144318750D03*
X242887500Y-146193750D03*
%TD*%
D37*
%TO.C,R_INDICATOR3*%
X38610000Y-50006250D03*
X37590000Y-50006250D03*
%TD*%
%TO.C,R_INDICATOR2*%
X348172500Y-50006250D03*
X347152500Y-50006250D03*
%TD*%
D36*
%TO.C,D16*%
X137956250Y-105425000D03*
X139856250Y-105425000D03*
X138906250Y-107300000D03*
%TD*%
%TO.C,D35*%
X276068750Y-67325000D03*
X277968750Y-67325000D03*
X277018750Y-69200000D03*
%TD*%
%TO.C,D27*%
X223681250Y-124475000D03*
X225581250Y-124475000D03*
X224631250Y-126350000D03*
%TD*%
D38*
%TO.C,C_UCAP1*%
X323219411Y-106669411D03*
X322540589Y-105990589D03*
%TD*%
D36*
%TO.C,D1*%
X53818750Y-144318750D03*
X55718750Y-144318750D03*
X54768750Y-146193750D03*
%TD*%
%TO.C,D34*%
X252256250Y-43512500D03*
X254156250Y-43512500D03*
X253206250Y-45387500D03*
%TD*%
%TO.C,D3*%
X47468750Y-67325000D03*
X49368750Y-67325000D03*
X48418750Y-69200000D03*
%TD*%
D37*
%TO.C,R_HWB1*%
X327420000Y-117740000D03*
X326400000Y-117740000D03*
%TD*%
D36*
%TO.C,D2*%
X49850000Y-44306250D03*
X51750000Y-44306250D03*
X50800000Y-46181250D03*
%TD*%
D39*
%TO.C,J3*%
X316000000Y-65500000D03*
X317000000Y-65500000D03*
X318000000Y-65500000D03*
X319000000Y-65500000D03*
D40*
X320300000Y-61625000D03*
X314700000Y-61625000D03*
%TD*%
D41*
%TO.C,D47*%
X370640000Y-90460000D03*
X370640000Y-87160000D03*
%TD*%
D36*
%TO.C,D4*%
X53818750Y-86375000D03*
X55718750Y-86375000D03*
X54768750Y-88250000D03*
%TD*%
%TO.C,D42*%
X337981250Y-44306250D03*
X339881250Y-44306250D03*
X338931250Y-46181250D03*
%TD*%
D41*
%TO.C,D46*%
X370770000Y-47670000D03*
X370770000Y-44370000D03*
%TD*%
D38*
%TO.C,C_DECOUP4*%
X322829411Y-104879411D03*
X322150589Y-104200589D03*
%TD*%
D36*
%TO.C,D25*%
X209393750Y-86375000D03*
X211293750Y-86375000D03*
X210343750Y-88250000D03*
%TD*%
%TO.C,D6*%
X68106250Y-124475000D03*
X70006250Y-124475000D03*
X69056250Y-126350000D03*
%TD*%
%TO.C,D32*%
X252256250Y-105425000D03*
X254156250Y-105425000D03*
X253206250Y-107300000D03*
%TD*%
%TO.C,D41*%
X323693750Y-68912500D03*
X325593750Y-68912500D03*
X324643750Y-70787500D03*
%TD*%
D42*
%TO.C,R_RST1*%
X329120624Y-102579376D03*
X328399376Y-103300624D03*
%TD*%
D36*
%TO.C,D23*%
X185581250Y-124475000D03*
X187481250Y-124475000D03*
X186531250Y-126350000D03*
%TD*%
D43*
%TO.C,C_DECOUP1*%
X327380000Y-116650000D03*
X326420000Y-116650000D03*
%TD*%
D36*
%TO.C,D38*%
X287975000Y-86375000D03*
X289875000Y-86375000D03*
X288925000Y-88250000D03*
%TD*%
%TO.C,D11*%
X109381250Y-124475000D03*
X111281250Y-124475000D03*
X110331250Y-126350000D03*
%TD*%
%TO.C,D21*%
X171293750Y-86375000D03*
X173193750Y-86375000D03*
X172243750Y-88250000D03*
%TD*%
%TO.C,D10*%
X99856250Y-105425000D03*
X101756250Y-105425000D03*
X100806250Y-107300000D03*
%TD*%
%TO.C,D7*%
X90331250Y-43512500D03*
X92231250Y-43512500D03*
X91281250Y-45387500D03*
%TD*%
%TO.C,D33*%
X264956250Y-124475000D03*
X266856250Y-124475000D03*
X265906250Y-126350000D03*
%TD*%
D44*
%TO.C,D18*%
X316400000Y-42045000D03*
D45*
X316400000Y-40325000D03*
X318600000Y-40325000D03*
X318600000Y-42225000D03*
%TD*%
D36*
%TO.C,D31*%
X247493750Y-86375000D03*
X249393750Y-86375000D03*
X248443750Y-88250000D03*
%TD*%
%TO.C,D5*%
X56993750Y-105425000D03*
X58893750Y-105425000D03*
X57943750Y-107300000D03*
%TD*%
D37*
%TO.C,R_INDICATOR1*%
X45753750Y-112712500D03*
X44733750Y-112712500D03*
%TD*%
D41*
%TO.C,D48*%
X370680000Y-147580000D03*
X370680000Y-144280000D03*
%TD*%
D36*
%TO.C,D14*%
X123668750Y-67325000D03*
X125568750Y-67325000D03*
X124618750Y-69200000D03*
%TD*%
D35*
%TO.C,R_DATA2*%
X316706250Y-103390000D03*
X316706250Y-104410000D03*
%TD*%
D46*
%TO.C,C_DECOUP3*%
X333250000Y-110770000D03*
X333250000Y-109810000D03*
%TD*%
D36*
%TO.C,D40*%
X325281250Y-124475000D03*
X327181250Y-124475000D03*
X326231250Y-126350000D03*
%TD*%
%TO.C,D12*%
X126050000Y-144318750D03*
X127950000Y-144318750D03*
X127000000Y-146193750D03*
%TD*%
%TO.C,D30*%
X237968750Y-67325000D03*
X239868750Y-67325000D03*
X238918750Y-69200000D03*
%TD*%
%TO.C,D45*%
X357031250Y-67325000D03*
X358931250Y-67325000D03*
X357981250Y-69200000D03*
%TD*%
%TO.C,D26*%
X214156250Y-105425000D03*
X216056250Y-105425000D03*
X215106250Y-107300000D03*
%TD*%
D47*
%TO.C,F1*%
X321300000Y-42312500D03*
X321300000Y-44187500D03*
%TD*%
D36*
%TO.C,D15*%
X133193750Y-86375000D03*
X135093750Y-86375000D03*
X134143750Y-88250000D03*
%TD*%
D48*
%TO.C,C_DECOUP2*%
X320540000Y-109820000D03*
X320540000Y-110780000D03*
%TD*%
D36*
%TO.C,D44*%
X337950000Y-143052500D03*
X339850000Y-143052500D03*
X338900000Y-144927500D03*
%TD*%
%TO.C,D37*%
X289562500Y-144318750D03*
X291462500Y-144318750D03*
X290512500Y-146193750D03*
%TD*%
D49*
%TO.C,Y1*%
X332420000Y-105700000D03*
X331571472Y-104851472D03*
X330722944Y-104002944D03*
%TD*%
D50*
%TO.C,U1*%
X322772264Y-109707798D03*
X323125818Y-109354245D03*
X323479371Y-109000691D03*
X323832924Y-108647138D03*
X324186478Y-108293585D03*
X324540031Y-107940031D03*
X324893585Y-107586478D03*
X325247138Y-107232924D03*
X325600691Y-106879371D03*
X325954245Y-106525818D03*
X326307798Y-106172264D03*
D51*
X327492202Y-106172264D03*
X327845755Y-106525818D03*
X328199309Y-106879371D03*
X328552862Y-107232924D03*
X328906415Y-107586478D03*
X329259969Y-107940031D03*
X329613522Y-108293585D03*
X329967076Y-108647138D03*
X330320629Y-109000691D03*
X330674182Y-109354245D03*
X331027736Y-109707798D03*
D50*
X331027736Y-110892202D03*
X330674182Y-111245755D03*
X330320629Y-111599309D03*
X329967076Y-111952862D03*
X329613522Y-112306415D03*
X329259969Y-112659969D03*
X328906415Y-113013522D03*
X328552862Y-113367076D03*
X328199309Y-113720629D03*
X327845755Y-114074182D03*
X327492202Y-114427736D03*
D51*
X326307798Y-114427736D03*
X325954245Y-114074182D03*
X325600691Y-113720629D03*
X325247138Y-113367076D03*
X324893585Y-113013522D03*
X324540031Y-112659969D03*
X324186478Y-112306415D03*
X323832924Y-111952862D03*
X323479371Y-111599309D03*
X323125818Y-111245755D03*
X322772264Y-110892202D03*
D52*
X326900000Y-110300000D03*
%TD*%
D36*
%TO.C,D8*%
X85568750Y-67325000D03*
X87468750Y-67325000D03*
X86518750Y-69200000D03*
%TD*%
%TO.C,D36*%
X286387500Y-107012500D03*
X288287500Y-107012500D03*
X287337500Y-108887500D03*
%TD*%
%TO.C,D28*%
X211775000Y-44306250D03*
X213675000Y-44306250D03*
X212725000Y-46181250D03*
%TD*%
%TO.C,D17*%
X147481250Y-124475000D03*
X149381250Y-124475000D03*
X148431250Y-126350000D03*
%TD*%
%TO.C,D20*%
X161768750Y-67325000D03*
X163668750Y-67325000D03*
X162718750Y-69200000D03*
%TD*%
%TO.C,D19*%
X171293750Y-43512500D03*
X173193750Y-43512500D03*
X172243750Y-45387500D03*
%TD*%
%TO.C,D43*%
X337981250Y-86375000D03*
X339881250Y-86375000D03*
X338931250Y-88250000D03*
%TD*%
%TO.C,D22*%
X176056250Y-105425000D03*
X177956250Y-105425000D03*
X177006250Y-107300000D03*
%TD*%
%TO.C,D39*%
X292737500Y-44306250D03*
X294637500Y-44306250D03*
X293687500Y-46181250D03*
%TD*%
%TO.C,D13*%
X130812500Y-44306250D03*
X132712500Y-44306250D03*
X131762500Y-46181250D03*
%TD*%
%TO.C,D9*%
X95093750Y-86375000D03*
X96993750Y-86375000D03*
X96043750Y-88250000D03*
%TD*%
%TO.C,D24*%
X199868750Y-67325000D03*
X201768750Y-67325000D03*
X200818750Y-69200000D03*
%TD*%
M02*
