M48
; DRILL file {KiCad 5.99.0-1.20210419gite0f69ad.fc33} date Tue Apr 20 05:27:30 2021
; FORMAT={-:-/ absolute / inch / decimal}
; #@! TF.CreationDate,2021-04-20T05:27:30+03:00
; #@! TF.GenerationSoftware,Kicad,Pcbnew,5.99.0-1.20210419gite0f69ad.fc33
; #@! TF.FileFunction,Plated,1,2,PTH
FMAT,2
INCH
; #@! TA.AperFunction,Plated,PTH,ViaDrill
T1C0.0157
; #@! TA.AperFunction,Plated,PTH,ComponentDrill
T2C0.0236
; #@! TA.AperFunction,Plated,PTH,ComponentDrill
T3C0.0394
; #@! TA.AperFunction,Plated,PTH,ComponentDrill
T4C0.0409
; #@! TA.AperFunction,Plated,PTH,ComponentDrill
T5C0.0551
; #@! TA.AperFunction,Plated,PTH,ComponentDrill
T6C0.0579
; #@! TA.AperFunction,Plated,PTH,ComponentDrill
T7C0.0591
; #@! TA.AperFunction,Plated,PTH,ComponentDrill
T8C0.0630
; #@! TA.AperFunction,Plated,PTH,ComponentDrill
T9C0.0669
%
G90
G05
T1
X2.3071Y-2.2433
X2.8232Y-1.6768
X3.4457Y-5.8575
X3.4929Y-2.7394
X3.5831Y-2.8142
X3.6516Y-1.8482
X3.7067Y-1.9053
X3.7992Y-2.2094
X3.8307Y-5.7996
X3.8728Y-3.5195
X3.9264Y-3.5766
X4.0748Y-4.2963
X4.1327Y-4.3533
X4.328Y-5.5933
X4.3626Y-1.5909
X4.4913Y-5.0577
X4.548Y-5.1147
X4.6776Y-5.8693
X5.1173Y-5.8902
X5.426Y-2.1807
X6.024Y-1.6583
X6.2169Y-2.8145
X6.3157Y-2.7386
X6.5043Y-2.7358
X6.5764Y-2.8145
X6.6173Y-3.5801
X6.6484Y-1.9057
X6.6772Y-3.5231
X6.7126Y-1.8465
X6.8008Y-5.8839
X6.8012Y-4.3545
X6.8433Y-1.8486
X6.8567Y-4.2975
X6.876Y-3.5231
X6.8972Y-1.9057
X6.9374Y-3.5801
X6.9563Y-2.1528
X7.0921Y-4.2975
X7.1378Y-5.1183
X7.1488Y-4.3545
X7.1933Y-5.0612
X7.4047Y-5.9268
X7.5075Y-5.0612
X7.5535Y-1.7008
X7.5665Y-5.1183
X7.737Y-2.1248
X7.9063Y-5.7909
X8.4866Y-5.8087
X8.6539Y-5.3445
X8.739Y-5.2602
X8.8909Y-5.9063
X8.9929Y-1.7929
X9.2366Y-2.8169
X9.2417Y-5.8701
X9.3161Y-2.735
X9.4114Y-5.715
X9.4366Y-2.0949
X9.4969Y-2.7358
X9.5724Y-2.8169
X9.6165Y-4.6232
X9.6402Y-3.5801
X9.6512Y-5.7169
X9.6909Y-3.5231
X9.6933Y-5.548
X9.7906Y-5.8717
X9.8209Y-5.7768
X9.8276Y-4.3573
X9.8417Y-4.4531
X9.863Y-1.9057
X9.8744Y-3.5231
X9.8811Y-4.3002
X9.9154Y-1.8486
X9.9315Y-3.5801
X10.0303Y-1.8486
X10.0846Y-1.9057
X10.6469Y-4.4154
X10.678Y-1.7559
X10.9067Y-4.4535
X10.9327Y-2.0657
X11.3008Y-5.5295
X11.4654Y-2.7295
X11.4673Y-4.4845
X11.4783Y-5.8799
X11.5693Y-5.5496
X11.6029Y-4.4958
X11.6302Y-4.4673
X11.7083Y-1.7213
X12.0437Y-1.4264
X12.1031Y-4.0358
X12.2965Y-1.9961
X12.3323Y-2.4661
X12.3339Y-2.5772
X12.3728Y-3.5457
X12.3874Y-1.4551
X12.3925Y-1.5839
X12.3957Y-2.8252
X12.411Y-2.2203
X12.4123Y-2.162
X12.413Y-1.9067
X12.4142Y-2.105
X12.4256Y-3.5147
X12.4327Y-2.2531
X12.4335Y-2.7976
X12.439Y-2.1909
X12.4413Y-2.1335
X12.4425Y-2.0764
X12.4457Y-1.8768
X12.4528Y-2.6531
X12.4528Y-3.4862
X12.4575Y-1.728
X12.4992Y-1.1295
X12.5144Y-1.3955
X12.5146Y-1.4398
X12.5248Y-4.589
X12.5354Y-5.852
X12.5382Y-4.4539
X12.5382Y-4.4961
X12.5472Y-2.4642
X12.5535Y-4.6159
X12.565Y-1.3555
X12.5654Y-5.787
X12.5728Y-4.1976
X12.5909Y-1.7189
X12.602Y-1.5043
X12.6092Y-4.6005
X12.6279Y-1.3571
X12.6339Y-2.6449
X12.6445Y-4.6295
X12.6445Y-5.1559
X12.6463Y-4.1146
X12.6634Y-4.335
X12.6653Y-2.7976
X12.6653Y-3.4843
X12.6689Y-3.9256
X12.674Y-4.1587
X12.685Y-2.5154
X12.6858Y-1.8768
X12.698Y-5.0421
X12.7Y-2.1918
X12.7008Y-2.2539
X12.7018Y-2.1335
X12.7035Y-2.0764
X12.7057Y-2.799
X12.7169Y-3.8791
X12.7169Y-3.9866
X12.7228Y-4.0728
X12.7232Y-1.9053
X12.724Y-3.7256
X12.7279Y-2.2254
X12.731Y-2.1675
X12.7311Y-2.105
X12.7455Y-3.9594
X12.748Y-1.3453
X12.7577Y-3.8787
X12.774Y-3.9882
X12.7843Y-1.3921
X12.7902Y-5.1063
X12.7971Y-3.8798
X12.8035Y-3.9621
X12.8035Y-5.8677
X12.8094Y-3.6492
X12.8162Y-4.6307
X12.8169Y-4.7134
X12.839Y-3.8862
X12.8429Y-3.5469
X12.8606Y-3.9961
X12.8665Y-4.0598
X12.898Y-3.9681
X12.9134Y-5.1059
X12.9311Y-4.5925
X12.9661Y-4.9756
X12.9961Y-4.028
X12.9984Y-3.7016
X13.0236Y-4.62
X13.0491Y-2.1675
X13.0512Y-2.2254
X13.0518Y-2.105
X13.0606Y-4.6063
X13.0653Y-4.0868
X13.0776Y-2.1962
X13.0779Y-2.139
X13.0784Y-2.0759
X13.0803Y-2.2539
X13.1142Y-1.8031
X13.1181Y-3.9134
X13.1232Y-4.0524
X13.163Y-4.3508
X13.1807Y-3.5146
X13.1976Y-4.3181
X13.2146Y-5.7559
X13.2299Y-3.7252
X13.2622Y-1.9053
X13.2691Y-3.7288
X13.3035Y-1.8482
X13.3084Y-3.7303
X13.3477Y-3.7319
X13.3871Y-3.7314
X13.4264Y-3.7315
X13.4295Y-1.4705
X13.435Y-5.7547
X13.4658Y-3.7315
X13.5323Y-2.9657
X13.5425Y-3.8421
X13.5925Y-3.9947
X13.5925Y-4.2577
X13.5949Y-1.7715
X13.5949Y-1.8287
X13.7138Y-2.9697
X13.7445Y-3.6933
X13.9067Y-5.8354
X13.9441Y-2.7894
X13.9472Y-2.0051
X13.9622Y-3.915
X13.9961Y-2.3539
X13.9976Y-3.9322
X14.0354Y-2.3526
X14.0362Y-3.9154
X14.074Y-3.9319
X14.0937Y-2.8012
X14.1043Y-3.5161
X14.1052Y-3.9078
X14.1329Y-3.5866
X14.1382Y-3.9291
X14.1756Y-3.5944
X14.3429Y-3.9947
X14.3429Y-4.2577
T3
X14.7228Y-4.0262
X14.7228Y-4.1262
X14.7228Y-4.2262
T4
X1.4812Y-1.8875
X1.575Y-4.325
X1.5813Y-1.8875
X1.675Y-4.325
X1.7625Y-4.325
X1.8625Y-4.325
X13.6687Y-1.8875
X13.7687Y-1.8875
T6
X10.85Y-4.775
X10.9016Y-4.7175
X11.0984Y-4.6978
X11.1Y-4.675
T2
G00X12.3299Y-1.0753
M15
G01X12.3299Y-1.0517
M16
G05
G00X12.3299Y-1.2497
M15
G01X12.3299Y-1.2064
M16
G05
G00X12.6701Y-1.0753
M15
G01X12.6701Y-1.0517
M16
G05
G00X12.6701Y-1.2497
M15
G01X12.6701Y-1.2064
M16
G05
T5
G00X1.3817Y-1.5869
M15
G01X1.4327Y-1.5322
M16
G05
G00X1.4755Y-4.0244
M15
G01X1.5265Y-3.9697
M16
G05
G00X1.5692Y-3.2744
M15
G01X1.6202Y-3.2197
M16
G05
G00X1.5692Y-5.5244
M15
G01X1.6202Y-5.4697
M16
G05
G00X1.663Y-4.0244
M15
G01X1.714Y-3.9697
M16
G05
G00X3.4442Y-5.5244
M15
G01X3.4952Y-5.4697
M16
G05
G00X9.8192Y-5.5244
M15
G01X9.8702Y-5.4697
M16
G05
G00X11.6942Y-3.2744
M15
G01X11.7452Y-3.2197
M16
G05
G00X11.6942Y-5.5244
M15
G01X11.7452Y-5.4697
M16
G05
G00X13.5692Y-1.5869
M15
G01X13.6202Y-1.5322
M16
G05
T7
G00X1.3784Y-2.5258
M15
G01X1.4321Y-2.4683
M16
G05
G00X1.4768Y-4.773
M15
G01X1.5251Y-4.7211
M16
G05
G00X1.4768Y-5.523
M15
G01X1.5251Y-5.4711
M16
G05
G00X2.1284Y-2.5258
M15
G01X2.1821Y-2.4683
M16
G05
G00X2.3159Y-1.5883
M15
G01X2.3696Y-1.5308
M16
G05
G00X2.4143Y-5.523
M15
G01X2.4626Y-5.4711
M16
G05
G00X2.5034Y-3.2758
M15
G01X2.5571Y-3.2183
M16
G05
G00X2.5034Y-5.5258
M15
G01X2.5571Y-5.4683
M16
G05
G00X2.6909Y-4.0258
M15
G01X2.7446Y-3.9683
M16
G05
G00X2.8784Y-2.5258
M15
G01X2.9321Y-2.4683
M16
G05
G00X3.0659Y-1.5883
M15
G01X3.1196Y-1.5308
M16
G05
G00X3.0659Y-4.7758
M15
G01X3.1196Y-4.7183
M16
G05
G00X3.2534Y-3.2758
M15
G01X3.3071Y-3.2183
M16
G05
G00X3.3518Y-5.523
M15
G01X3.4001Y-5.4711
M16
G05
G00X3.4409Y-4.0258
M15
G01X3.4946Y-3.9683
M16
G05
G00X3.6284Y-2.5258
M15
G01X3.6821Y-2.4683
M16
G05
G00X3.8159Y-1.5883
M15
G01X3.8696Y-1.5308
M16
G05
G00X3.8159Y-4.7758
M15
G01X3.8696Y-4.7183
M16
G05
G00X4.0034Y-3.2758
M15
G01X4.0571Y-3.2183
M16
G05
G00X4.1909Y-4.0258
M15
G01X4.2446Y-3.9683
M16
G05
G00X4.3784Y-2.5258
M15
G01X4.4321Y-2.4683
M16
G05
G00X4.5659Y-1.5883
M15
G01X4.6196Y-1.5308
M16
G05
G00X4.5659Y-4.7758
M15
G01X4.6196Y-4.7183
M16
G05
G00X4.7534Y-3.2758
M15
G01X4.8071Y-3.2183
M16
G05
G00X4.9409Y-4.0258
M15
G01X4.9946Y-3.9683
M16
G05
G00X5.1284Y-2.5258
M15
G01X5.1821Y-2.4683
M16
G05
G00X5.3159Y-4.7758
M15
G01X5.3696Y-4.7183
M16
G05
G00X5.5034Y-1.5883
M15
G01X5.5571Y-1.5308
M16
G05
G00X5.5034Y-3.2758
M15
G01X5.5571Y-3.2183
M16
G05
G00X5.6909Y-4.0258
M15
G01X5.7446Y-3.9683
M16
G05
G00X5.8784Y-2.5258
M15
G01X5.9321Y-2.4683
M16
G05
G00X6.0659Y-4.7758
M15
G01X6.1196Y-4.7183
M16
G05
G00X6.2534Y-1.5883
M15
G01X6.3071Y-1.5308
M16
G05
G00X6.2534Y-3.2758
M15
G01X6.3071Y-3.2183
M16
G05
G00X6.4409Y-4.0258
M15
G01X6.4946Y-3.9683
M16
G05
G00X6.6284Y-2.5258
M15
G01X6.6821Y-2.4683
M16
G05
G00X6.8159Y-4.7758
M15
G01X6.8696Y-4.7183
M16
G05
G00X7.0034Y-1.5883
M15
G01X7.0571Y-1.5308
M16
G05
G00X7.0034Y-3.2758
M15
G01X7.0571Y-3.2183
M16
G05
G00X7.1909Y-4.0258
M15
G01X7.2446Y-3.9683
M16
G05
G00X7.3784Y-2.5258
M15
G01X7.4321Y-2.4683
M16
G05
G00X7.5659Y-4.7758
M15
G01X7.6196Y-4.7183
M16
G05
G00X7.7534Y-1.5883
M15
G01X7.8071Y-1.5308
M16
G05
G00X7.7534Y-3.2758
M15
G01X7.8071Y-3.2183
M16
G05
G00X7.9409Y-4.0258
M15
G01X7.9946Y-3.9683
M16
G05
G00X8.1284Y-2.5258
M15
G01X8.1821Y-2.4683
M16
G05
G00X8.3159Y-4.7758
M15
G01X8.3696Y-4.7183
M16
G05
G00X8.5034Y-3.2758
M15
G01X8.5571Y-3.2183
M16
G05
G00X8.6909Y-1.5883
M15
G01X8.7446Y-1.5308
M16
G05
G00X8.6909Y-4.0258
M15
G01X8.7446Y-3.9683
M16
G05
G00X8.8784Y-2.5258
M15
G01X8.9321Y-2.4683
M16
G05
G00X8.9768Y-5.523
M15
G01X9.0251Y-5.4711
M16
G05
G00X9.0659Y-4.7758
M15
G01X9.1196Y-4.7183
M16
G05
G00X9.2534Y-3.2758
M15
G01X9.3071Y-3.2183
M16
G05
G00X9.4409Y-1.5883
M15
G01X9.4946Y-1.5308
M16
G05
G00X9.4409Y-4.0258
M15
G01X9.4946Y-3.9683
M16
G05
G00X9.6284Y-2.5258
M15
G01X9.6821Y-2.4683
M16
G05
G00X9.8159Y-4.7758
M15
G01X9.8696Y-4.7183
M16
G05
G00X9.9143Y-5.523
M15
G01X9.9626Y-5.4711
M16
G05
G00X10.0034Y-3.2758
M15
G01X10.0571Y-3.2183
M16
G05
G00X10.1909Y-1.5883
M15
G01X10.2446Y-1.5308
M16
G05
G00X10.1909Y-4.0258
M15
G01X10.2446Y-3.9683
M16
G05
G00X10.3784Y-2.5258
M15
G01X10.4321Y-2.4683
M16
G05
G00X10.7534Y-3.2758
M15
G01X10.8071Y-3.2183
M16
G05
G00X10.7534Y-5.5258
M15
G01X10.8071Y-5.4683
M16
G05
G00X10.8518Y-5.523
M15
G01X10.9001Y-5.4711
M16
G05
G00X10.9409Y-1.5883
M15
G01X10.9946Y-1.5308
M16
G05
G00X10.9409Y-4.0258
M15
G01X10.9946Y-3.9683
M16
G05
G00X11.1284Y-2.5258
M15
G01X11.1821Y-2.4683
M16
G05
G00X11.7893Y-5.523
M15
G01X11.8376Y-5.4711
M16
G05
G00X11.8784Y-1.5883
M15
G01X11.9321Y-1.5308
M16
G05
G00X11.8784Y-2.5258
M15
G01X11.9321Y-2.4683
M16
G05
G00X11.8784Y-4.7758
M15
G01X11.9321Y-4.7183
M16
G05
G00X12.8159Y-1.5883
M15
G01X12.8696Y-1.5308
M16
G05
G00X12.8159Y-2.5258
M15
G01X12.8696Y-2.4683
M16
G05
G00X12.8159Y-3.2758
M15
G01X12.8696Y-3.2183
M16
G05
G00X12.8159Y-5.5258
M15
G01X12.8696Y-5.4683
M16
G05
G00X13.5659Y-2.5258
M15
G01X13.6196Y-2.4683
M16
G05
G00X13.5659Y-3.2758
M15
G01X13.6196Y-3.2183
M16
G05
G00X13.5659Y-4.7758
M15
G01X13.6196Y-4.7183
M16
G05
G00X13.5659Y-5.5258
M15
G01X13.6196Y-5.4683
M16
G05
G00X14.3159Y-1.5883
M15
G01X14.3696Y-1.5308
M16
G05
G00X14.3159Y-2.5258
M15
G01X14.3696Y-2.4683
M16
G05
G00X14.3159Y-3.2758
M15
G01X14.3696Y-3.2183
M16
G05
G00X14.3159Y-5.5258
M15
G01X14.3696Y-5.4683
M16
G05
T8
G00X1.6313Y-2.4459
M15
G01X1.632Y-2.4262
M16
G05
G00X1.723Y-3.9439
M15
G01X1.7238Y-3.9282
M16
G05
G00X1.725Y-4.6919
M15
G01X1.7258Y-4.6762
M16
G05
G00X1.725Y-5.4419
M15
G01X1.7258Y-5.4262
M16
G05
G00X1.8532Y-4.7715
M15
G01X1.8988Y-4.7226
M16
G05
G00X1.9105Y-3.9439
M15
G01X1.9113Y-3.9282
M16
G05
G00X2.098Y-4.6939
M15
G01X2.0988Y-4.6782
M16
G05
G00X2.3813Y-2.4459
M15
G01X2.382Y-2.4262
M16
G05
G00X2.5688Y-1.5084
M15
G01X2.5695Y-1.4887
M16
G05
G00X2.6625Y-5.4419
M15
G01X2.6633Y-5.4262
M16
G05
G00X2.7563Y-3.1959
M15
G01X2.757Y-3.1762
M16
G05
G00X2.7563Y-5.4459
M15
G01X2.757Y-5.4262
M16
G05
G00X2.9438Y-3.9459
M15
G01X2.9445Y-3.9262
M16
G05
G00X3.1313Y-2.4459
M15
G01X3.132Y-2.4262
M16
G05
G00X3.3188Y-1.5084
M15
G01X3.3195Y-1.4887
M16
G05
G00X3.3188Y-4.6959
M15
G01X3.3195Y-4.6762
M16
G05
G00X3.5063Y-3.1959
M15
G01X3.507Y-3.1762
M16
G05
G00X3.6Y-5.4419
M15
G01X3.6008Y-5.4262
M16
G05
G00X3.6938Y-3.9459
M15
G01X3.6945Y-3.9262
M16
G05
G00X3.8813Y-2.4459
M15
G01X3.882Y-2.4262
M16
G05
G00X4.0688Y-1.5084
M15
G01X4.0695Y-1.4887
M16
G05
G00X4.0688Y-4.6959
M15
G01X4.0695Y-4.6762
M16
G05
G00X4.2563Y-3.1959
M15
G01X4.257Y-3.1762
M16
G05
G00X4.4438Y-3.9459
M15
G01X4.4445Y-3.9262
M16
G05
G00X4.6313Y-2.4459
M15
G01X4.632Y-2.4262
M16
G05
G00X4.8188Y-1.5084
M15
G01X4.8195Y-1.4887
M16
G05
G00X4.8188Y-4.6959
M15
G01X4.8195Y-4.6762
M16
G05
G00X5.0063Y-3.1959
M15
G01X5.007Y-3.1762
M16
G05
G00X5.1938Y-3.9459
M15
G01X5.1945Y-3.9262
M16
G05
G00X5.3813Y-2.4459
M15
G01X5.382Y-2.4262
M16
G05
G00X5.5688Y-4.6959
M15
G01X5.5695Y-4.6762
M16
G05
G00X5.7563Y-1.5084
M15
G01X5.757Y-1.4887
M16
G05
G00X5.7563Y-3.1959
M15
G01X5.757Y-3.1762
M16
G05
G00X5.9438Y-3.9459
M15
G01X5.9445Y-3.9262
M16
G05
G00X6.1313Y-2.4459
M15
G01X6.132Y-2.4262
M16
G05
G00X6.1657Y-5.5215
M15
G01X6.2113Y-5.4726
M16
G05
G00X6.3188Y-4.6959
M15
G01X6.3195Y-4.6762
M16
G05
G00X6.4125Y-5.4439
M15
G01X6.4133Y-5.4282
M16
G05
G00X6.5063Y-1.5084
M15
G01X6.507Y-1.4887
M16
G05
G00X6.5063Y-3.1959
M15
G01X6.507Y-3.1762
M16
G05
G00X6.6344Y-5.5215
M15
G01X6.6801Y-5.4726
M16
G05
G00X6.6938Y-3.9459
M15
G01X6.6945Y-3.9262
M16
G05
G00X6.8793Y-5.4439
M15
G01X6.8801Y-5.4282
M16
G05
G00X6.8813Y-2.4459
M15
G01X6.882Y-2.4262
M16
G05
G00X7.0688Y-4.6959
M15
G01X7.0695Y-4.6762
M16
G05
G00X7.2563Y-1.5084
M15
G01X7.257Y-1.4887
M16
G05
G00X7.2563Y-3.1959
M15
G01X7.257Y-3.1762
M16
G05
G00X7.4438Y-3.9459
M15
G01X7.4445Y-3.9262
M16
G05
G00X7.6313Y-2.4459
M15
G01X7.632Y-2.4262
M16
G05
G00X7.8188Y-4.6959
M15
G01X7.8195Y-4.6762
M16
G05
G00X8.0063Y-1.5084
M15
G01X8.007Y-1.4887
M16
G05
G00X8.0063Y-3.1959
M15
G01X8.007Y-3.1762
M16
G05
G00X8.1938Y-3.9459
M15
G01X8.1945Y-3.9262
M16
G05
G00X8.3813Y-2.4459
M15
G01X8.382Y-2.4262
M16
G05
G00X8.5688Y-4.6959
M15
G01X8.5695Y-4.6762
M16
G05
G00X8.7563Y-3.1959
M15
G01X8.757Y-3.1762
M16
G05
G00X8.9438Y-1.5084
M15
G01X8.9445Y-1.4887
M16
G05
G00X8.9438Y-3.9459
M15
G01X8.9445Y-3.9262
M16
G05
G00X9.1313Y-2.4459
M15
G01X9.132Y-2.4262
M16
G05
G00X9.225Y-5.4419
M15
G01X9.2258Y-5.4262
M16
G05
G00X9.3188Y-4.6959
M15
G01X9.3195Y-4.6762
M16
G05
G00X9.5063Y-3.1959
M15
G01X9.507Y-3.1762
M16
G05
G00X9.6938Y-1.5084
M15
G01X9.6945Y-1.4887
M16
G05
G00X9.6938Y-3.9459
M15
G01X9.6945Y-3.9262
M16
G05
G00X9.8813Y-2.4459
M15
G01X9.882Y-2.4262
M16
G05
G00X10.0688Y-4.6959
M15
G01X10.0695Y-4.6762
M16
G05
G00X10.1625Y-5.4419
M15
G01X10.1633Y-5.4262
M16
G05
G00X10.2563Y-3.1959
M15
G01X10.257Y-3.1762
M16
G05
G00X10.4438Y-1.5084
M15
G01X10.4445Y-1.4887
M16
G05
G00X10.4438Y-3.9459
M15
G01X10.4445Y-3.9262
M16
G05
G00X10.6313Y-2.4459
M15
G01X10.632Y-2.4262
M16
G05
G00X11.0063Y-3.1959
M15
G01X11.007Y-3.1762
M16
G05
G00X11.0063Y-5.4459
M15
G01X11.007Y-5.4262
M16
G05
G00X11.1Y-5.4419
M15
G01X11.1008Y-5.4262
M16
G05
G00X11.1938Y-1.5084
M15
G01X11.1945Y-1.4887
M16
G05
G00X11.1938Y-3.9459
M15
G01X11.1945Y-3.9262
M16
G05
G00X11.2282Y-4.7696
M15
G01X11.2738Y-4.7206
M16
G05
G00X11.3813Y-2.4459
M15
G01X11.382Y-2.4262
M16
G05
G00X11.4157Y-4.0215
M15
G01X11.4613Y-3.9726
M16
G05
G00X11.473Y-4.6939
M15
G01X11.4738Y-4.6782
M16
G05
G00X11.5094Y-2.5215
M15
G01X11.5551Y-2.4726
M16
G05
G00X11.6625Y-3.9439
M15
G01X11.6633Y-3.9282
M16
G05
G00X11.7543Y-2.4439
M15
G01X11.7551Y-2.4282
M16
G05
G00X12.0375Y-5.4419
M15
G01X12.0383Y-5.4262
M16
G05
G00X12.0406Y-3.6036
M15
G01X12.0903Y-3.6484
M16
G05
G00X12.1186Y-3.848
M15
G01X12.1343Y-3.8488
M16
G05
G00X12.1313Y-1.5084
M15
G01X12.132Y-1.4887
M16
G05
G00X12.1313Y-2.4459
M15
G01X12.132Y-2.4262
M16
G05
G00X12.1313Y-4.6959
M15
G01X12.132Y-4.6762
M16
G05
G00X13.0688Y-1.5084
M15
G01X13.0695Y-1.4887
M16
G05
G00X13.0688Y-2.4459
M15
G01X13.0695Y-2.4262
M16
G05
G00X13.0688Y-3.1959
M15
G01X13.0695Y-3.1762
M16
G05
G00X13.0688Y-5.4459
M15
G01X13.0695Y-5.4262
M16
G05
G00X13.8188Y-2.4459
M15
G01X13.8195Y-2.4262
M16
G05
G00X13.8188Y-3.1959
M15
G01X13.8195Y-3.1762
M16
G05
G00X13.8188Y-4.6959
M15
G01X13.8195Y-4.6762
M16
G05
G00X13.8188Y-5.4459
M15
G01X13.8195Y-5.4262
M16
G05
G00X14.5688Y-1.5084
M15
G01X14.5695Y-1.4887
M16
G05
G00X14.5688Y-2.4459
M15
G01X14.5695Y-2.4262
M16
G05
G00X14.5688Y-3.1959
M15
G01X14.5695Y-3.1762
M16
G05
G00X14.5688Y-5.4459
M15
G01X14.5695Y-5.4262
M16
G05
T9
G00X1.6292Y-1.5084
M15
G01X1.6302Y-1.4887
M16
G05
G00X1.8186Y-3.1959
M15
G01X1.8197Y-3.1762
M16
G05
G00X1.8186Y-5.4459
M15
G01X1.8197Y-5.4262
M16
G05
G00X3.6936Y-5.4459
M15
G01X3.6947Y-5.4262
M16
G05
G00X10.0686Y-5.4459
M15
G01X10.0697Y-5.4262
M16
G05
G00X11.9436Y-3.1959
M15
G01X11.9447Y-3.1762
M16
G05
G00X11.9436Y-5.4459
M15
G01X11.9447Y-5.4262
M16
G05
G00X13.8167Y-1.5084
M15
G01X13.8177Y-1.4887
M16
G05
T0
M30
