%TF.GenerationSoftware,KiCad,Pcbnew,5.99.0-1.20210419gite0f69ad.fc33*%
%TF.CreationDate,2021-04-20T05:27:24+03:00*%
%TF.ProjectId,UniversalTKL,556e6976-6572-4736-916c-544b4c2e6b69,rev?*%
%TF.SameCoordinates,Original*%
%TF.FileFunction,Paste,Bot*%
%TF.FilePolarity,Positive*%
%FSLAX46Y46*%
G04 Gerber Fmt 4.6, Leading zero omitted, Abs format (unit mm)*
G04 Created by KiCad (PCBNEW 5.99.0-1.20210419gite0f69ad.fc33) date 2021-04-20 05:27:24*
%MOMM*%
%LPD*%
G01*
G04 APERTURE LIST*
G04 Aperture macros list*
%AMRoundRect*
0 Rectangle with rounded corners*
0 $1 Rounding radius*
0 $2 $3 $4 $5 $6 $7 $8 $9 X,Y pos of 4 corners*
0 Add a 4 corners polygon primitive as box body*
4,1,4,$2,$3,$4,$5,$6,$7,$8,$9,$2,$3,0*
0 Add four circle primitives for the rounded corners*
1,1,$1+$1,$2,$3*
1,1,$1+$1,$4,$5*
1,1,$1+$1,$6,$7*
1,1,$1+$1,$8,$9*
0 Add four rect primitives between the rounded corners*
20,1,$1+$1,$2,$3,$4,$5,0*
20,1,$1+$1,$4,$5,$6,$7,0*
20,1,$1+$1,$6,$7,$8,$9,0*
20,1,$1+$1,$8,$9,$2,$3,0*%
%AMRotRect*
0 Rectangle, with rotation*
0 The origin of the aperture is its center*
0 $1 length*
0 $2 width*
0 $3 Rotation angle, in degrees counterclockwise*
0 Add horizontal line*
21,1,$1,$2,0,0,$3*%
G04 Aperture macros list end*
%ADD10R,0.850000X1.600000*%
%ADD11R,1.600000X0.850000*%
%ADD12RoundRect,0.135000X-0.185000X0.135000X-0.185000X-0.135000X0.185000X-0.135000X0.185000X0.135000X0*%
%ADD13RoundRect,0.150000X-0.150000X0.587500X-0.150000X-0.587500X0.150000X-0.587500X0.150000X0.587500X0*%
%ADD14RoundRect,0.135000X0.135000X0.185000X-0.135000X0.185000X-0.135000X-0.185000X0.135000X-0.185000X0*%
%ADD15RoundRect,0.140000X0.219203X0.021213X0.021213X0.219203X-0.219203X-0.021213X-0.021213X-0.219203X0*%
%ADD16RoundRect,0.150000X-0.150000X-0.625000X0.150000X-0.625000X0.150000X0.625000X-0.150000X0.625000X0*%
%ADD17RoundRect,0.250000X-0.350000X-0.650000X0.350000X-0.650000X0.350000X0.650000X-0.350000X0.650000X0*%
%ADD18R,1.200000X0.900000*%
%ADD19RoundRect,0.135000X-0.035355X0.226274X-0.226274X0.035355X0.035355X-0.226274X0.226274X-0.035355X0*%
%ADD20RoundRect,0.140000X0.140000X0.170000X-0.140000X0.170000X-0.140000X-0.170000X0.140000X-0.170000X0*%
%ADD21R,1.400000X1.200000*%
%ADD22R,1.400000X1.000000*%
%ADD23RoundRect,0.140000X0.170000X-0.140000X0.170000X0.140000X-0.170000X0.140000X-0.170000X-0.140000X0*%
%ADD24RoundRect,0.243750X-0.456250X0.243750X-0.456250X-0.243750X0.456250X-0.243750X0.456250X0.243750X0*%
%ADD25RoundRect,0.140000X-0.170000X0.140000X-0.170000X-0.140000X0.170000X-0.140000X0.170000X0.140000X0*%
%ADD26RotRect,0.400000X1.900000X135.000000*%
%ADD27RoundRect,0.250000X-0.388909X0.000000X0.000000X-0.388909X0.388909X0.000000X0.000000X0.388909X0*%
%ADD28RoundRect,0.062500X-0.380070X0.291682X0.291682X-0.380070X0.380070X-0.291682X-0.291682X0.380070X0*%
%ADD29RoundRect,0.062500X-0.380070X-0.291682X-0.291682X-0.380070X0.380070X0.291682X0.291682X0.380070X0*%
G04 APERTURE END LIST*
D10*
%TO.C,D78*%
X375705000Y-140270000D03*
X373955000Y-140270000D03*
X375705000Y-136770000D03*
X373955000Y-136770000D03*
%TD*%
%TO.C,D77*%
X375225000Y-116900000D03*
X373475000Y-116900000D03*
X375225000Y-113400000D03*
X373475000Y-113400000D03*
%TD*%
%TO.C,D76*%
X375175000Y-95630000D03*
X373425000Y-95630000D03*
X375175000Y-92130000D03*
X373425000Y-92130000D03*
%TD*%
%TO.C,D75*%
X375205000Y-73140000D03*
X373455000Y-73140000D03*
X375205000Y-69640000D03*
X373455000Y-69640000D03*
%TD*%
%TO.C,D74*%
X375515000Y-52150000D03*
X373765000Y-52150000D03*
X375515000Y-48650000D03*
X373765000Y-48650000D03*
%TD*%
D11*
%TO.C,D73*%
X367180000Y-34675000D03*
X367180000Y-36425000D03*
X363680000Y-34675000D03*
X363680000Y-36425000D03*
%TD*%
%TO.C,D72*%
X339230000Y-34625000D03*
X339230000Y-36375000D03*
X335730000Y-34625000D03*
X335730000Y-36375000D03*
%TD*%
%TO.C,D71*%
X303690000Y-34385000D03*
X303690000Y-36135000D03*
X300190000Y-34385000D03*
X300190000Y-36135000D03*
%TD*%
%TO.C,D70*%
X358350000Y-151015000D03*
X358350000Y-149265000D03*
X361850000Y-151015000D03*
X361850000Y-149265000D03*
%TD*%
%TO.C,D69*%
X329420000Y-150925000D03*
X329420000Y-149175000D03*
X332920000Y-150925000D03*
X332920000Y-149175000D03*
%TD*%
%TO.C,D68*%
X255920000Y-34615000D03*
X255920000Y-36365000D03*
X252420000Y-34615000D03*
X252420000Y-36365000D03*
%TD*%
%TO.C,D67*%
X297090000Y-150965000D03*
X297090000Y-149215000D03*
X300590000Y-150965000D03*
X300590000Y-149215000D03*
%TD*%
%TO.C,D66*%
X223610000Y-34425000D03*
X223610000Y-36175000D03*
X220110000Y-34425000D03*
X220110000Y-36175000D03*
%TD*%
%TO.C,D65*%
X251870000Y-151185000D03*
X251870000Y-149435000D03*
X255370000Y-151185000D03*
X255370000Y-149435000D03*
%TD*%
%TO.C,D64*%
X193330000Y-35065000D03*
X193330000Y-36815000D03*
X189830000Y-35065000D03*
X189830000Y-36815000D03*
%TD*%
%TO.C,D63*%
X218600000Y-151005000D03*
X218600000Y-149255000D03*
X222100000Y-151005000D03*
X222100000Y-149255000D03*
%TD*%
%TO.C,D62*%
X177490000Y-151065000D03*
X177490000Y-149315000D03*
X180990000Y-151065000D03*
X180990000Y-149315000D03*
%TD*%
%TO.C,D61*%
X143320000Y-34455000D03*
X143320000Y-36205000D03*
X139820000Y-34455000D03*
X139820000Y-36205000D03*
%TD*%
%TO.C,D60*%
X134660000Y-151085000D03*
X134660000Y-149335000D03*
X138160000Y-151085000D03*
X138160000Y-149335000D03*
%TD*%
%TO.C,D59*%
X112600000Y-35165000D03*
X112600000Y-36915000D03*
X109100000Y-35165000D03*
X109100000Y-36915000D03*
%TD*%
%TO.C,D58*%
X102220000Y-150795000D03*
X102220000Y-149045000D03*
X105720000Y-150795000D03*
X105720000Y-149045000D03*
%TD*%
%TO.C,D57*%
X73620000Y-34875000D03*
X73620000Y-36625000D03*
X70120000Y-34875000D03*
X70120000Y-36625000D03*
%TD*%
%TO.C,D56*%
X73730000Y-151225000D03*
X73730000Y-149475000D03*
X77230000Y-151225000D03*
X77230000Y-149475000D03*
%TD*%
%TO.C,D55*%
X37190000Y-34595000D03*
X37190000Y-36345000D03*
X33690000Y-34595000D03*
X33690000Y-36345000D03*
%TD*%
%TO.C,D54*%
X44890000Y-151105000D03*
X44890000Y-149355000D03*
X48390000Y-151105000D03*
X48390000Y-149355000D03*
%TD*%
D10*
%TO.C,D53*%
X31035000Y-139860000D03*
X32785000Y-139860000D03*
X31035000Y-143360000D03*
X32785000Y-143360000D03*
%TD*%
%TO.C,D52*%
X30755000Y-113520000D03*
X32505000Y-113520000D03*
X30755000Y-117020000D03*
X32505000Y-117020000D03*
%TD*%
%TO.C,D51*%
X30665000Y-92400000D03*
X32415000Y-92400000D03*
X30665000Y-95900000D03*
X32415000Y-95900000D03*
%TD*%
%TO.C,D50*%
X30895000Y-70190000D03*
X32645000Y-70190000D03*
X30895000Y-73690000D03*
X32645000Y-73690000D03*
%TD*%
%TO.C,D49*%
X30725000Y-48570000D03*
X32475000Y-48570000D03*
X30725000Y-52070000D03*
X32475000Y-52070000D03*
%TD*%
D12*
%TO.C,R_DATA1*%
X317840000Y-103390000D03*
X317840000Y-104410000D03*
%TD*%
D13*
%TO.C,D29*%
X241937500Y-144318750D03*
X243837500Y-144318750D03*
X242887500Y-146193750D03*
%TD*%
D14*
%TO.C,R_INDICATOR3*%
X38610000Y-50006250D03*
X37590000Y-50006250D03*
%TD*%
%TO.C,R_INDICATOR2*%
X348172500Y-50006250D03*
X347152500Y-50006250D03*
%TD*%
D13*
%TO.C,D16*%
X137956250Y-105425000D03*
X139856250Y-105425000D03*
X138906250Y-107300000D03*
%TD*%
%TO.C,D35*%
X276068750Y-67325000D03*
X277968750Y-67325000D03*
X277018750Y-69200000D03*
%TD*%
%TO.C,D27*%
X223681250Y-124475000D03*
X225581250Y-124475000D03*
X224631250Y-126350000D03*
%TD*%
D15*
%TO.C,C_UCAP1*%
X323219411Y-106669411D03*
X322540589Y-105990589D03*
%TD*%
D13*
%TO.C,D1*%
X53818750Y-144318750D03*
X55718750Y-144318750D03*
X54768750Y-146193750D03*
%TD*%
%TO.C,D34*%
X252256250Y-43512500D03*
X254156250Y-43512500D03*
X253206250Y-45387500D03*
%TD*%
%TO.C,D3*%
X47468750Y-67325000D03*
X49368750Y-67325000D03*
X48418750Y-69200000D03*
%TD*%
D14*
%TO.C,R_HWB1*%
X327420000Y-117740000D03*
X326400000Y-117740000D03*
%TD*%
D13*
%TO.C,D2*%
X49850000Y-44306250D03*
X51750000Y-44306250D03*
X50800000Y-46181250D03*
%TD*%
D16*
%TO.C,J3*%
X316000000Y-65500000D03*
X317000000Y-65500000D03*
X318000000Y-65500000D03*
X319000000Y-65500000D03*
D17*
X320300000Y-61625000D03*
X314700000Y-61625000D03*
%TD*%
D18*
%TO.C,D47*%
X370640000Y-90460000D03*
X370640000Y-87160000D03*
%TD*%
D13*
%TO.C,D4*%
X53818750Y-86375000D03*
X55718750Y-86375000D03*
X54768750Y-88250000D03*
%TD*%
%TO.C,D42*%
X337981250Y-44306250D03*
X339881250Y-44306250D03*
X338931250Y-46181250D03*
%TD*%
D18*
%TO.C,D46*%
X370770000Y-47670000D03*
X370770000Y-44370000D03*
%TD*%
D15*
%TO.C,C_DECOUP4*%
X322829411Y-104879411D03*
X322150589Y-104200589D03*
%TD*%
D13*
%TO.C,D25*%
X209393750Y-86375000D03*
X211293750Y-86375000D03*
X210343750Y-88250000D03*
%TD*%
%TO.C,D6*%
X68106250Y-124475000D03*
X70006250Y-124475000D03*
X69056250Y-126350000D03*
%TD*%
%TO.C,D32*%
X252256250Y-105425000D03*
X254156250Y-105425000D03*
X253206250Y-107300000D03*
%TD*%
%TO.C,D41*%
X323693750Y-68912500D03*
X325593750Y-68912500D03*
X324643750Y-70787500D03*
%TD*%
D19*
%TO.C,R_RST1*%
X329120624Y-102579376D03*
X328399376Y-103300624D03*
%TD*%
D13*
%TO.C,D23*%
X185581250Y-124475000D03*
X187481250Y-124475000D03*
X186531250Y-126350000D03*
%TD*%
D20*
%TO.C,C_DECOUP1*%
X327380000Y-116650000D03*
X326420000Y-116650000D03*
%TD*%
D13*
%TO.C,D38*%
X287975000Y-86375000D03*
X289875000Y-86375000D03*
X288925000Y-88250000D03*
%TD*%
%TO.C,D11*%
X109381250Y-124475000D03*
X111281250Y-124475000D03*
X110331250Y-126350000D03*
%TD*%
%TO.C,D21*%
X171293750Y-86375000D03*
X173193750Y-86375000D03*
X172243750Y-88250000D03*
%TD*%
%TO.C,D10*%
X99856250Y-105425000D03*
X101756250Y-105425000D03*
X100806250Y-107300000D03*
%TD*%
%TO.C,D7*%
X90331250Y-43512500D03*
X92231250Y-43512500D03*
X91281250Y-45387500D03*
%TD*%
%TO.C,D33*%
X264956250Y-124475000D03*
X266856250Y-124475000D03*
X265906250Y-126350000D03*
%TD*%
D21*
%TO.C,D18*%
X316400000Y-42045000D03*
D22*
X316400000Y-40325000D03*
X318600000Y-40325000D03*
X318600000Y-42225000D03*
%TD*%
D13*
%TO.C,D31*%
X247493750Y-86375000D03*
X249393750Y-86375000D03*
X248443750Y-88250000D03*
%TD*%
%TO.C,D5*%
X56993750Y-105425000D03*
X58893750Y-105425000D03*
X57943750Y-107300000D03*
%TD*%
D14*
%TO.C,R_INDICATOR1*%
X45753750Y-112712500D03*
X44733750Y-112712500D03*
%TD*%
D18*
%TO.C,D48*%
X370680000Y-147580000D03*
X370680000Y-144280000D03*
%TD*%
D13*
%TO.C,D14*%
X123668750Y-67325000D03*
X125568750Y-67325000D03*
X124618750Y-69200000D03*
%TD*%
D12*
%TO.C,R_DATA2*%
X316706250Y-103390000D03*
X316706250Y-104410000D03*
%TD*%
D23*
%TO.C,C_DECOUP3*%
X333250000Y-110770000D03*
X333250000Y-109810000D03*
%TD*%
D13*
%TO.C,D40*%
X325281250Y-124475000D03*
X327181250Y-124475000D03*
X326231250Y-126350000D03*
%TD*%
%TO.C,D12*%
X126050000Y-144318750D03*
X127950000Y-144318750D03*
X127000000Y-146193750D03*
%TD*%
%TO.C,D30*%
X237968750Y-67325000D03*
X239868750Y-67325000D03*
X238918750Y-69200000D03*
%TD*%
%TO.C,D45*%
X357031250Y-67325000D03*
X358931250Y-67325000D03*
X357981250Y-69200000D03*
%TD*%
%TO.C,D26*%
X214156250Y-105425000D03*
X216056250Y-105425000D03*
X215106250Y-107300000D03*
%TD*%
D24*
%TO.C,F1*%
X321300000Y-42312500D03*
X321300000Y-44187500D03*
%TD*%
D13*
%TO.C,D15*%
X133193750Y-86375000D03*
X135093750Y-86375000D03*
X134143750Y-88250000D03*
%TD*%
D25*
%TO.C,C_DECOUP2*%
X320540000Y-109820000D03*
X320540000Y-110780000D03*
%TD*%
D13*
%TO.C,D44*%
X337950000Y-143052500D03*
X339850000Y-143052500D03*
X338900000Y-144927500D03*
%TD*%
%TO.C,D37*%
X289562500Y-144318750D03*
X291462500Y-144318750D03*
X290512500Y-146193750D03*
%TD*%
D26*
%TO.C,Y1*%
X332420000Y-105700000D03*
X331571472Y-104851472D03*
X330722944Y-104002944D03*
%TD*%
D27*
%TO.C,U1*%
X327819239Y-112138478D03*
X325980761Y-112138478D03*
X325061522Y-111219239D03*
X326900000Y-113057716D03*
X328738478Y-109380761D03*
X326900000Y-107542284D03*
X325061522Y-109380761D03*
X324142284Y-110300000D03*
X329657716Y-110300000D03*
X326900000Y-111219239D03*
X325980761Y-110300000D03*
X327819239Y-108461522D03*
X325980761Y-108461522D03*
X328738478Y-111219239D03*
X326900000Y-109380761D03*
X327819239Y-110300000D03*
D28*
X322772264Y-109707798D03*
X323125818Y-109354245D03*
X323479371Y-109000691D03*
X323832924Y-108647138D03*
X324186478Y-108293585D03*
X324540031Y-107940031D03*
X324893585Y-107586478D03*
X325247138Y-107232924D03*
X325600691Y-106879371D03*
X325954245Y-106525818D03*
X326307798Y-106172264D03*
D29*
X327492202Y-106172264D03*
X327845755Y-106525818D03*
X328199309Y-106879371D03*
X328552862Y-107232924D03*
X328906415Y-107586478D03*
X329259969Y-107940031D03*
X329613522Y-108293585D03*
X329967076Y-108647138D03*
X330320629Y-109000691D03*
X330674182Y-109354245D03*
X331027736Y-109707798D03*
D28*
X331027736Y-110892202D03*
X330674182Y-111245755D03*
X330320629Y-111599309D03*
X329967076Y-111952862D03*
X329613522Y-112306415D03*
X329259969Y-112659969D03*
X328906415Y-113013522D03*
X328552862Y-113367076D03*
X328199309Y-113720629D03*
X327845755Y-114074182D03*
X327492202Y-114427736D03*
D29*
X326307798Y-114427736D03*
X325954245Y-114074182D03*
X325600691Y-113720629D03*
X325247138Y-113367076D03*
X324893585Y-113013522D03*
X324540031Y-112659969D03*
X324186478Y-112306415D03*
X323832924Y-111952862D03*
X323479371Y-111599309D03*
X323125818Y-111245755D03*
X322772264Y-110892202D03*
%TD*%
D13*
%TO.C,D8*%
X85568750Y-67325000D03*
X87468750Y-67325000D03*
X86518750Y-69200000D03*
%TD*%
%TO.C,D36*%
X286387500Y-107012500D03*
X288287500Y-107012500D03*
X287337500Y-108887500D03*
%TD*%
%TO.C,D28*%
X211775000Y-44306250D03*
X213675000Y-44306250D03*
X212725000Y-46181250D03*
%TD*%
%TO.C,D17*%
X147481250Y-124475000D03*
X149381250Y-124475000D03*
X148431250Y-126350000D03*
%TD*%
%TO.C,D20*%
X161768750Y-67325000D03*
X163668750Y-67325000D03*
X162718750Y-69200000D03*
%TD*%
%TO.C,D19*%
X171293750Y-43512500D03*
X173193750Y-43512500D03*
X172243750Y-45387500D03*
%TD*%
%TO.C,D43*%
X337981250Y-86375000D03*
X339881250Y-86375000D03*
X338931250Y-88250000D03*
%TD*%
%TO.C,D22*%
X176056250Y-105425000D03*
X177956250Y-105425000D03*
X177006250Y-107300000D03*
%TD*%
%TO.C,D39*%
X292737500Y-44306250D03*
X294637500Y-44306250D03*
X293687500Y-46181250D03*
%TD*%
%TO.C,D13*%
X130812500Y-44306250D03*
X132712500Y-44306250D03*
X131762500Y-46181250D03*
%TD*%
%TO.C,D9*%
X95093750Y-86375000D03*
X96993750Y-86375000D03*
X96043750Y-88250000D03*
%TD*%
%TO.C,D24*%
X199868750Y-67325000D03*
X201768750Y-67325000D03*
X200818750Y-69200000D03*
%TD*%
M02*
