%TF.GenerationSoftware,KiCad,Pcbnew,5.99.0-1.20210419gite0f69ad.fc33*%
%TF.CreationDate,2021-04-20T05:27:25+03:00*%
%TF.ProjectId,UniversalTKL,556e6976-6572-4736-916c-544b4c2e6b69,rev?*%
%TF.SameCoordinates,Original*%
%TF.FileFunction,Soldermask,Bot*%
%TF.FilePolarity,Negative*%
%FSLAX46Y46*%
G04 Gerber Fmt 4.6, Leading zero omitted, Abs format (unit mm)*
G04 Created by KiCad (PCBNEW 5.99.0-1.20210419gite0f69ad.fc33) date 2021-04-20 05:27:25*
%MOMM*%
%LPD*%
G01*
G04 APERTURE LIST*
G04 Aperture macros list*
%AMRoundRect*
0 Rectangle with rounded corners*
0 $1 Rounding radius*
0 $2 $3 $4 $5 $6 $7 $8 $9 X,Y pos of 4 corners*
0 Add a 4 corners polygon primitive as box body*
4,1,4,$2,$3,$4,$5,$6,$7,$8,$9,$2,$3,0*
0 Add four circle primitives for the rounded corners*
1,1,$1+$1,$2,$3*
1,1,$1+$1,$4,$5*
1,1,$1+$1,$6,$7*
1,1,$1+$1,$8,$9*
0 Add four rect primitives between the rounded corners*
20,1,$1+$1,$2,$3,$4,$5,0*
20,1,$1+$1,$4,$5,$6,$7,0*
20,1,$1+$1,$6,$7,$8,$9,0*
20,1,$1+$1,$8,$9,$2,$3,0*%
%AMHorizOval*
0 Thick line with rounded ends*
0 $1 width*
0 $2 $3 position (X,Y) of the first rounded end (center of the circle)*
0 $4 $5 position (X,Y) of the second rounded end (center of the circle)*
0 Add line between two ends*
20,1,$1,$2,$3,$4,$5,0*
0 Add two circle primitives to create the rounded ends*
1,1,$1,$2,$3*
1,1,$1,$4,$5*%
%AMRotRect*
0 Rectangle, with rotation*
0 The origin of the aperture is its center*
0 $1 length*
0 $2 width*
0 $3 Rotation angle, in degrees counterclockwise*
0 Add horizontal line*
21,1,$1,$2,0,0,$3*%
G04 Aperture macros list end*
%ADD10C,1.750000*%
%ADD11C,3.987800*%
%ADD12C,2.250000*%
%ADD13HorizOval,2.250000X0.655001X0.730000X-0.655001X-0.730000X0*%
%ADD14HorizOval,2.250000X0.020000X0.290000X-0.020000X-0.290000X0*%
%ADD15HorizOval,2.200000X0.681998X0.731354X-0.681998X-0.731354X0*%
%ADD16HorizOval,2.300000X0.015701X0.299589X-0.015701X-0.299589X0*%
%ADD17R,0.850000X1.600000*%
%ADD18R,1.600000X0.850000*%
%ADD19HorizOval,2.300000X0.681998X0.731354X-0.681998X-0.731354X0*%
%ADD20HorizOval,2.300000X0.008725X0.249848X-0.008725X-0.249848X0*%
%ADD21HorizOval,2.300000X0.647898X0.694786X-0.647898X-0.694786X0*%
%ADD22C,3.048000*%
%ADD23C,0.750000*%
%ADD24O,1.100000X2.200000*%
%ADD25O,1.100000X1.700000*%
%ADD26C,1.905000*%
%ADD27R,1.905000X1.905000*%
%ADD28R,1.700000X1.700000*%
%ADD29O,1.700000X1.700000*%
%ADD30C,1.701800*%
%ADD31HorizOval,2.300000X0.299589X-0.015701X-0.299589X0.015701X0*%
%ADD32HorizOval,2.300000X0.705988X-0.635674X-0.705988X0.635674X0*%
%ADD33RoundRect,0.135000X-0.185000X0.135000X-0.185000X-0.135000X0.185000X-0.135000X0.185000X0.135000X0*%
%ADD34RoundRect,0.150000X-0.150000X0.587500X-0.150000X-0.587500X0.150000X-0.587500X0.150000X0.587500X0*%
%ADD35RoundRect,0.135000X0.135000X0.185000X-0.135000X0.185000X-0.135000X-0.185000X0.135000X-0.185000X0*%
%ADD36RoundRect,0.140000X0.219203X0.021213X0.021213X0.219203X-0.219203X-0.021213X-0.021213X-0.219203X0*%
%ADD37RoundRect,0.150000X-0.150000X-0.625000X0.150000X-0.625000X0.150000X0.625000X-0.150000X0.625000X0*%
%ADD38RoundRect,0.250000X-0.350000X-0.650000X0.350000X-0.650000X0.350000X0.650000X-0.350000X0.650000X0*%
%ADD39R,1.200000X0.900000*%
%ADD40RoundRect,0.135000X-0.035355X0.226274X-0.226274X0.035355X0.035355X-0.226274X0.226274X-0.035355X0*%
%ADD41RoundRect,0.140000X0.140000X0.170000X-0.140000X0.170000X-0.140000X-0.170000X0.140000X-0.170000X0*%
%ADD42R,1.400000X1.200000*%
%ADD43R,1.400000X1.000000*%
%ADD44RoundRect,0.140000X0.170000X-0.140000X0.170000X0.140000X-0.170000X0.140000X-0.170000X-0.140000X0*%
%ADD45RoundRect,0.243750X-0.456250X0.243750X-0.456250X-0.243750X0.456250X-0.243750X0.456250X0.243750X0*%
%ADD46RoundRect,0.140000X-0.170000X0.140000X-0.170000X-0.140000X0.170000X-0.140000X0.170000X0.140000X0*%
%ADD47RotRect,0.400000X1.900000X135.000000*%
%ADD48RoundRect,0.062500X-0.380070X0.291682X0.291682X-0.380070X0.380070X-0.291682X-0.291682X0.380070X0*%
%ADD49RoundRect,0.062500X-0.380070X-0.291682X-0.291682X-0.380070X0.380070X0.291682X0.291682X0.380070X0*%
%ADD50RotRect,5.200000X5.200000X315.000000*%
G04 APERTURE END LIST*
D10*
%TO.C,MX78*%
X284480000Y-123825000D03*
X274320000Y-123825000D03*
D11*
X279400000Y-123825000D03*
D12*
X276900000Y-119825000D03*
D13*
X276245001Y-120555000D03*
D14*
X281920000Y-119035000D03*
D12*
X281940000Y-118745000D03*
%TD*%
D10*
%TO.C,MX86*%
X295751250Y-142875000D03*
D11*
X300831250Y-142875000D03*
D10*
X305911250Y-142875000D03*
D15*
X297681250Y-139625000D03*
D16*
X303381250Y-138075000D03*
%TD*%
D10*
%TO.C,MX67*%
X248126250Y-142875000D03*
X258286250Y-142875000D03*
D11*
X253206250Y-142875000D03*
D15*
X250056250Y-139625000D03*
D16*
X255756250Y-138075000D03*
%TD*%
D10*
%TO.C,MX23*%
X96361250Y-142875000D03*
D11*
X91281250Y-142875000D03*
D10*
X86201250Y-142875000D03*
D15*
X88131250Y-139625000D03*
D16*
X93831250Y-138075000D03*
%TD*%
D11*
%TO.C,MX9*%
X43656250Y-142875000D03*
D10*
X48736250Y-142875000D03*
X38576250Y-142875000D03*
D15*
X40506250Y-139625000D03*
D16*
X46206250Y-138075000D03*
%TD*%
D10*
%TO.C,MX90*%
X305911250Y-85725000D03*
D11*
X300831250Y-85725000D03*
D10*
X295751250Y-85725000D03*
D15*
X297681250Y-82475000D03*
D16*
X303381250Y-80925000D03*
%TD*%
D10*
%TO.C,MX6*%
X38576250Y-85725000D03*
X48736250Y-85725000D03*
D11*
X43656250Y-85725000D03*
D15*
X40506250Y-82475000D03*
D16*
X46206250Y-80925000D03*
%TD*%
D17*
%TO.C,D78*%
X375705000Y-140270000D03*
X373955000Y-140270000D03*
X375705000Y-136770000D03*
X373955000Y-136770000D03*
%TD*%
%TO.C,D77*%
X375225000Y-116900000D03*
X373475000Y-116900000D03*
X375225000Y-113400000D03*
X373475000Y-113400000D03*
%TD*%
%TO.C,D76*%
X375175000Y-95630000D03*
X373425000Y-95630000D03*
X375175000Y-92130000D03*
X373425000Y-92130000D03*
%TD*%
%TO.C,D75*%
X375205000Y-73140000D03*
X373455000Y-73140000D03*
X375205000Y-69640000D03*
X373455000Y-69640000D03*
%TD*%
%TO.C,D74*%
X375515000Y-52150000D03*
X373765000Y-52150000D03*
X375515000Y-48650000D03*
X373765000Y-48650000D03*
%TD*%
D18*
%TO.C,D73*%
X367180000Y-34675000D03*
X367180000Y-36425000D03*
X363680000Y-34675000D03*
X363680000Y-36425000D03*
%TD*%
%TO.C,D72*%
X339230000Y-34625000D03*
X339230000Y-36375000D03*
X335730000Y-34625000D03*
X335730000Y-36375000D03*
%TD*%
%TO.C,D71*%
X303690000Y-34385000D03*
X303690000Y-36135000D03*
X300190000Y-34385000D03*
X300190000Y-36135000D03*
%TD*%
%TO.C,D70*%
X358350000Y-151015000D03*
X358350000Y-149265000D03*
X361850000Y-151015000D03*
X361850000Y-149265000D03*
%TD*%
%TO.C,D69*%
X329420000Y-150925000D03*
X329420000Y-149175000D03*
X332920000Y-150925000D03*
X332920000Y-149175000D03*
%TD*%
%TO.C,D68*%
X255920000Y-34615000D03*
X255920000Y-36365000D03*
X252420000Y-34615000D03*
X252420000Y-36365000D03*
%TD*%
%TO.C,D67*%
X297090000Y-150965000D03*
X297090000Y-149215000D03*
X300590000Y-150965000D03*
X300590000Y-149215000D03*
%TD*%
%TO.C,D66*%
X223610000Y-34425000D03*
X223610000Y-36175000D03*
X220110000Y-34425000D03*
X220110000Y-36175000D03*
%TD*%
%TO.C,D65*%
X251870000Y-151185000D03*
X251870000Y-149435000D03*
X255370000Y-151185000D03*
X255370000Y-149435000D03*
%TD*%
%TO.C,D64*%
X193330000Y-35065000D03*
X193330000Y-36815000D03*
X189830000Y-35065000D03*
X189830000Y-36815000D03*
%TD*%
%TO.C,D63*%
X218600000Y-151005000D03*
X218600000Y-149255000D03*
X222100000Y-151005000D03*
X222100000Y-149255000D03*
%TD*%
%TO.C,D62*%
X177490000Y-151065000D03*
X177490000Y-149315000D03*
X180990000Y-151065000D03*
X180990000Y-149315000D03*
%TD*%
%TO.C,D61*%
X143320000Y-34455000D03*
X143320000Y-36205000D03*
X139820000Y-34455000D03*
X139820000Y-36205000D03*
%TD*%
%TO.C,D60*%
X134660000Y-151085000D03*
X134660000Y-149335000D03*
X138160000Y-151085000D03*
X138160000Y-149335000D03*
%TD*%
%TO.C,D59*%
X112600000Y-35165000D03*
X112600000Y-36915000D03*
X109100000Y-35165000D03*
X109100000Y-36915000D03*
%TD*%
%TO.C,D58*%
X102220000Y-150795000D03*
X102220000Y-149045000D03*
X105720000Y-150795000D03*
X105720000Y-149045000D03*
%TD*%
%TO.C,D57*%
X73620000Y-34875000D03*
X73620000Y-36625000D03*
X70120000Y-34875000D03*
X70120000Y-36625000D03*
%TD*%
%TO.C,D56*%
X73730000Y-151225000D03*
X73730000Y-149475000D03*
X77230000Y-151225000D03*
X77230000Y-149475000D03*
%TD*%
%TO.C,D55*%
X37190000Y-34595000D03*
X37190000Y-36345000D03*
X33690000Y-34595000D03*
X33690000Y-36345000D03*
%TD*%
%TO.C,D54*%
X44890000Y-151105000D03*
X44890000Y-149355000D03*
X48390000Y-151105000D03*
X48390000Y-149355000D03*
%TD*%
D17*
%TO.C,D53*%
X31035000Y-139860000D03*
X32785000Y-139860000D03*
X31035000Y-143360000D03*
X32785000Y-143360000D03*
%TD*%
%TO.C,D52*%
X30755000Y-113520000D03*
X32505000Y-113520000D03*
X30755000Y-117020000D03*
X32505000Y-117020000D03*
%TD*%
%TO.C,D51*%
X30665000Y-92400000D03*
X32415000Y-92400000D03*
X30665000Y-95900000D03*
X32415000Y-95900000D03*
%TD*%
%TO.C,D50*%
X30895000Y-70190000D03*
X32645000Y-70190000D03*
X30895000Y-73690000D03*
X32645000Y-73690000D03*
%TD*%
%TO.C,D49*%
X30725000Y-48570000D03*
X32475000Y-48570000D03*
X30725000Y-52070000D03*
X32475000Y-52070000D03*
%TD*%
D11*
%TO.C,MX14*%
X72231250Y-104775000D03*
D10*
X77311250Y-104775000D03*
X67151250Y-104775000D03*
D19*
X69031250Y-101525000D03*
D20*
X74781250Y-99975000D03*
%TD*%
D11*
%TO.C,MX62*%
X224631250Y-42862500D03*
D10*
X229711250Y-42862500D03*
X219551250Y-42862500D03*
D19*
X221431250Y-39612500D03*
D20*
X227181250Y-38062500D03*
%TD*%
D10*
%TO.C,MX60*%
X236855000Y-142875000D03*
X226695000Y-142875000D03*
D11*
X231775000Y-142875000D03*
D21*
X228625000Y-139625000D03*
D16*
X234325000Y-138025000D03*
%TD*%
D11*
%TO.C,MX94*%
X329406250Y-142875000D03*
D10*
X334486250Y-142875000D03*
X324326250Y-142875000D03*
D19*
X326206250Y-139625000D03*
D20*
X331956250Y-138075000D03*
%TD*%
D11*
%TO.C,MX75*%
X267493750Y-66675000D03*
D10*
X272573750Y-66675000D03*
X262413750Y-66675000D03*
D19*
X264293750Y-63425000D03*
D20*
X270043750Y-61875000D03*
%TD*%
D11*
%TO.C,MX85*%
X305593750Y-123825000D03*
D10*
X300513750Y-123825000D03*
X310673750Y-123825000D03*
D19*
X302393750Y-120575000D03*
D20*
X308143750Y-119025000D03*
%TD*%
D11*
%TO.C,MX49*%
X186531250Y-104775000D03*
D10*
X181451250Y-104775000D03*
X191611250Y-104775000D03*
D19*
X183331250Y-101525000D03*
D20*
X189081250Y-99975000D03*
%TD*%
D10*
%TO.C,MX27*%
X105251250Y-104775000D03*
D11*
X110331250Y-104775000D03*
D10*
X115411250Y-104775000D03*
D19*
X107131250Y-101525000D03*
D20*
X112881250Y-99975000D03*
%TD*%
D10*
%TO.C,MX15*%
X86836250Y-123825000D03*
D11*
X81756250Y-123825000D03*
D10*
X76676250Y-123825000D03*
D19*
X78556250Y-120575000D03*
D20*
X84306250Y-119025000D03*
%TD*%
D11*
%TO.C,MX74*%
X262731250Y-42862500D03*
D10*
X267811250Y-42862500D03*
X257651250Y-42862500D03*
D19*
X259531250Y-39612500D03*
D20*
X265281250Y-38062500D03*
%TD*%
D10*
%TO.C,MX16*%
X72548750Y-142875000D03*
X62388750Y-142875000D03*
D11*
X67468750Y-142875000D03*
D19*
X64268750Y-139625000D03*
D20*
X70018750Y-138075000D03*
%TD*%
D10*
%TO.C,MX2*%
X36195000Y-123825000D03*
D11*
X41275000Y-123825000D03*
D10*
X46355000Y-123825000D03*
D21*
X38125000Y-120575000D03*
D16*
X43825000Y-118975000D03*
%TD*%
D11*
%TO.C,MX72*%
X288925000Y-123825000D03*
X276987000Y-132080000D03*
D22*
X276987000Y-116840000D03*
D11*
X300863000Y-132080000D03*
D10*
X294005000Y-123825000D03*
D22*
X300863000Y-116840000D03*
D10*
X283845000Y-123825000D03*
D21*
X285775000Y-120525000D03*
D16*
X291425000Y-119025000D03*
%TD*%
D10*
%TO.C,MX20*%
X81438750Y-85725000D03*
X91598750Y-85725000D03*
D11*
X86518750Y-85725000D03*
D19*
X83318750Y-82475000D03*
D20*
X89068750Y-80925000D03*
%TD*%
D10*
%TO.C,MX33*%
X133826250Y-123825000D03*
X143986250Y-123825000D03*
D11*
X138906250Y-123825000D03*
D19*
X135706250Y-120575000D03*
D20*
X141456250Y-119025000D03*
%TD*%
D11*
%TO.C,MX48*%
X181768750Y-85725000D03*
D10*
X176688750Y-85725000D03*
X186848750Y-85725000D03*
D19*
X178568750Y-82475000D03*
D20*
X184318750Y-80925000D03*
%TD*%
D10*
%TO.C,MX31*%
X119538750Y-85725000D03*
X129698750Y-85725000D03*
D11*
X124618750Y-85725000D03*
D19*
X121418750Y-82475000D03*
D20*
X127168750Y-80925000D03*
%TD*%
D22*
%TO.C,MX45*%
X229393750Y-149860000D03*
D11*
X229393750Y-134620000D03*
X115093750Y-134620000D03*
X172243750Y-142875000D03*
D10*
X167163750Y-142875000D03*
D22*
X115093750Y-149860000D03*
D10*
X177323750Y-142875000D03*
D21*
X169093750Y-139625000D03*
D16*
X174743750Y-138075000D03*
%TD*%
D23*
%TO.C,USB1*%
X320390000Y-30662500D03*
X314610000Y-30662500D03*
D24*
X321820000Y-31192500D03*
D25*
X321820000Y-27012500D03*
X313180000Y-27012500D03*
D24*
X313180000Y-31192500D03*
%TD*%
D10*
%TO.C,MX73*%
X274320000Y-142875000D03*
X284480000Y-142875000D03*
D11*
X279400000Y-142875000D03*
D21*
X276250000Y-139625000D03*
D16*
X281950000Y-138025000D03*
%TD*%
D10*
%TO.C,MX84*%
X298767500Y-104775000D03*
D22*
X305625500Y-111760000D03*
X281749500Y-111760000D03*
D11*
X293687500Y-104775000D03*
D10*
X288607500Y-104775000D03*
D11*
X281749500Y-96520000D03*
X305625500Y-96520000D03*
D21*
X290537500Y-101525000D03*
D16*
X296237500Y-99975000D03*
%TD*%
D10*
%TO.C,MX91*%
X324326250Y-42862500D03*
X334486250Y-42862500D03*
D11*
X329406250Y-42862500D03*
D19*
X326206250Y-39612500D03*
D20*
X331956250Y-38062500D03*
%TD*%
D11*
%TO.C,MX11*%
X62706250Y-42862500D03*
D10*
X57626250Y-42862500D03*
X67786250Y-42862500D03*
D19*
X59506250Y-39612500D03*
D20*
X65256250Y-38062500D03*
%TD*%
D10*
%TO.C,MX22*%
X105886250Y-123825000D03*
D11*
X100806250Y-123825000D03*
D10*
X95726250Y-123825000D03*
D19*
X97606250Y-120575000D03*
D20*
X103356250Y-119025000D03*
%TD*%
D10*
%TO.C,MX51*%
X205898750Y-42862500D03*
X195738750Y-42862500D03*
D11*
X200818750Y-42862500D03*
D19*
X197618750Y-39612500D03*
D20*
X203368750Y-38062500D03*
%TD*%
D10*
%TO.C,MX3*%
X36195000Y-142875000D03*
X46355000Y-142875000D03*
D11*
X41275000Y-142875000D03*
D21*
X38125000Y-139625000D03*
D16*
X43825000Y-138025000D03*
%TD*%
D10*
%TO.C,MX54*%
X200501250Y-104775000D03*
D11*
X205581250Y-104775000D03*
D10*
X210661250Y-104775000D03*
D19*
X202381250Y-101525000D03*
D20*
X208131250Y-99975000D03*
%TD*%
D11*
%TO.C,MX43*%
X167481250Y-104775000D03*
D10*
X162401250Y-104775000D03*
X172561250Y-104775000D03*
D19*
X164281250Y-101525000D03*
D20*
X170031250Y-99975000D03*
%TD*%
D10*
%TO.C,MX30*%
X120173750Y-66675000D03*
X110013750Y-66675000D03*
D11*
X115093750Y-66675000D03*
D19*
X111893750Y-63425000D03*
D20*
X117643750Y-61875000D03*
%TD*%
D10*
%TO.C,MX65*%
X248761250Y-104775000D03*
X238601250Y-104775000D03*
D11*
X243681250Y-104775000D03*
D19*
X240481250Y-101525000D03*
D20*
X246231250Y-99975000D03*
%TD*%
D10*
%TO.C,MX35*%
X129063750Y-66675000D03*
D11*
X134143750Y-66675000D03*
D10*
X139223750Y-66675000D03*
D19*
X130943750Y-63425000D03*
D20*
X136693750Y-61875000D03*
%TD*%
D11*
%TO.C,MX79*%
X277018750Y-142875000D03*
D10*
X271938750Y-142875000D03*
X282098750Y-142875000D03*
D19*
X273818750Y-139625000D03*
D20*
X279568750Y-138075000D03*
%TD*%
D11*
%TO.C,MX102*%
X367506250Y-85725000D03*
D10*
X372586250Y-85725000D03*
X362426250Y-85725000D03*
D19*
X364306250Y-82475000D03*
D20*
X370056250Y-80925000D03*
%TD*%
D10*
%TO.C,MX10*%
X70167500Y-142875000D03*
X60007500Y-142875000D03*
D11*
X65087500Y-142875000D03*
D21*
X61937500Y-139625000D03*
D16*
X67637500Y-138025000D03*
%TD*%
D10*
%TO.C,MX95*%
X353536250Y-42862500D03*
D11*
X348456250Y-42862500D03*
D10*
X343376250Y-42862500D03*
D15*
X345306250Y-39612500D03*
D16*
X350956250Y-38062500D03*
D26*
X347186250Y-47942500D03*
D27*
X349726250Y-47942500D03*
%TD*%
D11*
%TO.C,MX89*%
X308006750Y-74930000D03*
D22*
X284130750Y-59690000D03*
X308006750Y-59690000D03*
D10*
X301148750Y-66675000D03*
D11*
X296068750Y-66675000D03*
D10*
X290988750Y-66675000D03*
D11*
X284130750Y-74930000D03*
D21*
X292918750Y-63425000D03*
D16*
X298568750Y-61875000D03*
%TD*%
D11*
%TO.C,MX25*%
X96043750Y-66675000D03*
D10*
X101123750Y-66675000D03*
X90963750Y-66675000D03*
D19*
X92843750Y-63425000D03*
D20*
X98593750Y-61875000D03*
%TD*%
D10*
%TO.C,MX82*%
X276701250Y-42862500D03*
X286861250Y-42862500D03*
D11*
X281781250Y-42862500D03*
D19*
X278581250Y-39612500D03*
D20*
X284331250Y-38062500D03*
%TD*%
D11*
%TO.C,MX18*%
X81756250Y-42862500D03*
D10*
X86836250Y-42862500D03*
X76676250Y-42862500D03*
D19*
X78556250Y-39612500D03*
D20*
X84306250Y-38062500D03*
%TD*%
D10*
%TO.C,MX68*%
X248761250Y-42862500D03*
D11*
X243681250Y-42862500D03*
D10*
X238601250Y-42862500D03*
D19*
X240481250Y-39612500D03*
D20*
X246231250Y-38062500D03*
%TD*%
D11*
%TO.C,MX77*%
X281781250Y-104775000D03*
D10*
X276701250Y-104775000D03*
X286861250Y-104775000D03*
D19*
X278581250Y-101525000D03*
D20*
X284331250Y-99975000D03*
%TD*%
D10*
%TO.C,MX46*%
X176688750Y-42862500D03*
D11*
X181768750Y-42862500D03*
D10*
X186848750Y-42862500D03*
D19*
X178568750Y-39612500D03*
D20*
X184318750Y-38062500D03*
%TD*%
D11*
%TO.C,MX26*%
X105568750Y-85725000D03*
D10*
X100488750Y-85725000D03*
X110648750Y-85725000D03*
D19*
X102368750Y-82475000D03*
D20*
X108118750Y-80925000D03*
%TD*%
D11*
%TO.C,MX19*%
X76993750Y-66675000D03*
D10*
X71913750Y-66675000D03*
X82073750Y-66675000D03*
D19*
X73793750Y-63425000D03*
D20*
X79543750Y-61875000D03*
%TD*%
D10*
%TO.C,MX8*%
X55880000Y-123825000D03*
D11*
X50800000Y-123825000D03*
D22*
X38862000Y-116840000D03*
D11*
X38862000Y-132080000D03*
D22*
X62738000Y-116840000D03*
D10*
X45720000Y-123825000D03*
D11*
X62738000Y-132080000D03*
D21*
X47650000Y-120575000D03*
D16*
X53300000Y-119025000D03*
%TD*%
D10*
%TO.C,MX36*%
X148748750Y-85725000D03*
X138588750Y-85725000D03*
D11*
X143668750Y-85725000D03*
D19*
X140468750Y-82475000D03*
D20*
X146218750Y-80925000D03*
%TD*%
D10*
%TO.C,MX42*%
X157638750Y-85725000D03*
X167798750Y-85725000D03*
D11*
X162718750Y-85725000D03*
D19*
X159518750Y-82475000D03*
D20*
X165268750Y-80925000D03*
%TD*%
D10*
%TO.C,MX83*%
X281463750Y-66675000D03*
X291623750Y-66675000D03*
D11*
X286543750Y-66675000D03*
D19*
X283343750Y-63425000D03*
D20*
X289093750Y-61875000D03*
%TD*%
D10*
%TO.C,MX38*%
X152876250Y-123825000D03*
X163036250Y-123825000D03*
D11*
X157956250Y-123825000D03*
D19*
X154756250Y-120575000D03*
D20*
X160506250Y-119025000D03*
%TD*%
D11*
%TO.C,MX1*%
X41275000Y-104775000D03*
D10*
X46355000Y-104775000D03*
X36195000Y-104775000D03*
D15*
X38125000Y-101525000D03*
D16*
X43775000Y-99975000D03*
D26*
X40005000Y-109855000D03*
D27*
X42545000Y-109855000D03*
%TD*%
D10*
%TO.C,MX29*%
X124936250Y-42862500D03*
X114776250Y-42862500D03*
D11*
X119856250Y-42862500D03*
D19*
X116656250Y-39612500D03*
D20*
X122406250Y-38062500D03*
%TD*%
D11*
%TO.C,MX34*%
X143668750Y-42862500D03*
D10*
X138588750Y-42862500D03*
X148748750Y-42862500D03*
D19*
X140468750Y-39612500D03*
D20*
X146218750Y-38062500D03*
%TD*%
D10*
%TO.C,MX100*%
X372586250Y-42862500D03*
D11*
X367506250Y-42862500D03*
D10*
X362426250Y-42862500D03*
D19*
X364306250Y-39612500D03*
D20*
X370056250Y-38062500D03*
%TD*%
D10*
%TO.C,MX64*%
X243998750Y-85725000D03*
D11*
X238918750Y-85725000D03*
D10*
X233838750Y-85725000D03*
D19*
X235718750Y-82475000D03*
D20*
X241468750Y-80925000D03*
%TD*%
D10*
%TO.C,MX7*%
X40957500Y-104775000D03*
X51117500Y-104775000D03*
D11*
X46037500Y-104775000D03*
D15*
X42887500Y-101525000D03*
D16*
X48537500Y-99975000D03*
D26*
X44767500Y-109855000D03*
D27*
X47307500Y-109855000D03*
%TD*%
D11*
%TO.C,MX28*%
X119856250Y-123825000D03*
D10*
X114776250Y-123825000D03*
X124936250Y-123825000D03*
D19*
X116656250Y-120575000D03*
D20*
X122406250Y-119025000D03*
%TD*%
D10*
%TO.C,MX57*%
X224948750Y-85725000D03*
D11*
X219868750Y-85725000D03*
D10*
X214788750Y-85725000D03*
D19*
X216668750Y-82475000D03*
D20*
X222418750Y-80925000D03*
%TD*%
D10*
%TO.C,MX61*%
X260667500Y-142875000D03*
D11*
X255587500Y-142875000D03*
D10*
X250507500Y-142875000D03*
D21*
X252437500Y-139625000D03*
D16*
X258137500Y-138025000D03*
%TD*%
D11*
%TO.C,MX32*%
X129381250Y-104775000D03*
D10*
X134461250Y-104775000D03*
X124301250Y-104775000D03*
D19*
X126181250Y-101525000D03*
D20*
X131931250Y-99975000D03*
%TD*%
D28*
%TO.C,J2*%
X373960000Y-102265000D03*
D29*
X373960000Y-104805000D03*
X373960000Y-107345000D03*
%TD*%
D11*
%TO.C,MX5*%
X38893750Y-66675000D03*
D10*
X43973750Y-66675000D03*
X33813750Y-66675000D03*
D19*
X35693750Y-63425000D03*
D20*
X41443750Y-61875000D03*
%TD*%
D10*
%TO.C,MX12*%
X52863750Y-66675000D03*
D11*
X57943750Y-66675000D03*
D10*
X63023750Y-66675000D03*
D19*
X54743750Y-63425000D03*
D20*
X60493750Y-61875000D03*
%TD*%
D22*
%TO.C,MX39*%
X210337400Y-149860000D03*
D11*
X160337500Y-142875000D03*
D10*
X155257500Y-142875000D03*
D22*
X110337600Y-149860000D03*
D10*
X165417500Y-142875000D03*
D11*
X210337400Y-134620000D03*
X110337600Y-134620000D03*
D21*
X157187500Y-139625000D03*
D16*
X162887500Y-138075000D03*
%TD*%
D10*
%TO.C,MX50*%
X201136250Y-123825000D03*
D11*
X196056250Y-123825000D03*
D10*
X190976250Y-123825000D03*
D19*
X192856250Y-120575000D03*
D20*
X198606250Y-119025000D03*
%TD*%
D10*
%TO.C,MX17*%
X83820000Y-142875000D03*
X93980000Y-142875000D03*
D11*
X88900000Y-142875000D03*
D21*
X85750000Y-139625000D03*
D16*
X91450000Y-138025000D03*
%TD*%
D10*
%TO.C,MX81*%
X298132500Y-142875000D03*
X308292500Y-142875000D03*
D11*
X303212500Y-142875000D03*
D21*
X300062500Y-139625000D03*
D16*
X305762500Y-138025000D03*
%TD*%
D10*
%TO.C,MX97*%
X343376250Y-85725000D03*
D11*
X348456250Y-85725000D03*
D10*
X353536250Y-85725000D03*
D19*
X345256250Y-82475000D03*
D20*
X351006250Y-80925000D03*
%TD*%
D10*
%TO.C,MX21*%
X86201250Y-104775000D03*
D11*
X91281250Y-104775000D03*
D10*
X96361250Y-104775000D03*
D19*
X88081250Y-101525000D03*
D20*
X93831250Y-99975000D03*
%TD*%
D11*
%TO.C,MX53*%
X200818750Y-85725000D03*
D10*
X205898750Y-85725000D03*
X195738750Y-85725000D03*
D19*
X197618750Y-82475000D03*
D20*
X203368750Y-80925000D03*
%TD*%
D10*
%TO.C,MX44*%
X182086250Y-123825000D03*
D11*
X177006250Y-123825000D03*
D10*
X171926250Y-123825000D03*
D19*
X173806250Y-120575000D03*
D20*
X179556250Y-119025000D03*
%TD*%
D10*
%TO.C,MX24*%
X105886250Y-42862500D03*
D11*
X100806250Y-42862500D03*
D10*
X95726250Y-42862500D03*
D19*
X97606250Y-39612500D03*
D20*
X103356250Y-38062500D03*
%TD*%
D11*
%TO.C,MX66*%
X253206250Y-123825000D03*
D10*
X258286250Y-123825000D03*
X248126250Y-123825000D03*
D19*
X250006250Y-120575000D03*
D20*
X255756250Y-119025000D03*
%TD*%
D10*
%TO.C,MX37*%
X143351250Y-104775000D03*
X153511250Y-104775000D03*
D11*
X148431250Y-104775000D03*
D19*
X145231250Y-101525000D03*
D20*
X150981250Y-99975000D03*
%TD*%
D11*
%TO.C,MX52*%
X191293750Y-66675000D03*
D10*
X186213750Y-66675000D03*
X196373750Y-66675000D03*
D19*
X188093750Y-63425000D03*
D20*
X193843750Y-61875000D03*
%TD*%
D10*
%TO.C,MX4*%
X33813750Y-42862500D03*
D11*
X38893750Y-42862500D03*
D10*
X43973750Y-42862500D03*
D15*
X35743750Y-39612500D03*
D16*
X41393750Y-38062500D03*
D26*
X37623750Y-47942500D03*
D27*
X40163750Y-47942500D03*
%TD*%
D10*
%TO.C,MX93*%
X324326250Y-85725000D03*
D11*
X329406250Y-85725000D03*
D10*
X334486250Y-85725000D03*
D19*
X326206250Y-82475000D03*
D20*
X331956250Y-80925000D03*
%TD*%
D10*
%TO.C,MX96*%
X343376250Y-66675000D03*
D11*
X348456250Y-66675000D03*
D10*
X353536250Y-66675000D03*
D19*
X345256250Y-63425000D03*
D20*
X351006250Y-61875000D03*
%TD*%
D22*
%TO.C,MX80*%
X310197500Y-83312000D03*
D30*
X303212500Y-100330000D03*
X303212500Y-90170000D03*
D11*
X294957500Y-107188000D03*
X303212500Y-95250000D03*
D22*
X310197500Y-107188000D03*
D11*
X294957500Y-83312000D03*
D31*
X308012500Y-97750000D03*
D32*
X306462500Y-92100000D03*
%TD*%
D10*
%TO.C,MX92*%
X324326250Y-66675000D03*
D11*
X329406250Y-66675000D03*
D10*
X334486250Y-66675000D03*
D19*
X326206250Y-63425000D03*
D20*
X331956250Y-61875000D03*
%TD*%
D11*
%TO.C,MX71*%
X262731250Y-104775000D03*
D10*
X267811250Y-104775000D03*
X257651250Y-104775000D03*
D19*
X259531250Y-101525000D03*
D20*
X265281250Y-99975000D03*
%TD*%
D10*
%TO.C,MX70*%
X263048750Y-85725000D03*
X252888750Y-85725000D03*
D11*
X257968750Y-85725000D03*
D19*
X254768750Y-82475000D03*
D20*
X260518750Y-80925000D03*
%TD*%
D11*
%TO.C,MX103*%
X367506250Y-142875000D03*
D10*
X372586250Y-142875000D03*
X362426250Y-142875000D03*
D19*
X364306250Y-139625000D03*
D20*
X370056250Y-138075000D03*
%TD*%
D10*
%TO.C,MX56*%
X215423750Y-66675000D03*
D11*
X210343750Y-66675000D03*
D10*
X205263750Y-66675000D03*
D19*
X207143750Y-63425000D03*
D20*
X212893750Y-61875000D03*
%TD*%
D10*
%TO.C,MX88*%
X300513750Y-42862500D03*
X310673750Y-42862500D03*
D11*
X305593750Y-42862500D03*
D19*
X302393750Y-39612500D03*
D20*
X308143750Y-38062500D03*
%TD*%
D10*
%TO.C,MX40*%
X167798750Y-42862500D03*
D11*
X162718750Y-42862500D03*
D10*
X157638750Y-42862500D03*
D19*
X159518750Y-39612500D03*
D20*
X165268750Y-38062500D03*
%TD*%
D11*
%TO.C,MX99*%
X348456250Y-142875000D03*
D10*
X343376250Y-142875000D03*
X353536250Y-142875000D03*
D19*
X345256250Y-139625000D03*
D20*
X351006250Y-138075000D03*
%TD*%
D10*
%TO.C,MX87*%
X310673750Y-66675000D03*
D11*
X305593750Y-66675000D03*
D10*
X300513750Y-66675000D03*
D19*
X302393750Y-63425000D03*
D20*
X308143750Y-61875000D03*
%TD*%
D10*
%TO.C,MX59*%
X229076250Y-123825000D03*
D11*
X234156250Y-123825000D03*
D10*
X239236250Y-123825000D03*
D19*
X230956250Y-120575000D03*
D20*
X236706250Y-119025000D03*
%TD*%
D11*
%TO.C,MX58*%
X224631250Y-104775000D03*
D10*
X219551250Y-104775000D03*
X229711250Y-104775000D03*
D19*
X221431250Y-101525000D03*
D20*
X227181250Y-99975000D03*
%TD*%
D11*
%TO.C,MX13*%
X67468750Y-85725000D03*
D10*
X62388750Y-85725000D03*
X72548750Y-85725000D03*
D19*
X64268750Y-82475000D03*
D20*
X70018750Y-80925000D03*
%TD*%
D10*
%TO.C,MX98*%
X343376250Y-123825000D03*
X353536250Y-123825000D03*
D11*
X348456250Y-123825000D03*
D19*
X345256250Y-120575000D03*
D20*
X351006250Y-119025000D03*
%TD*%
D10*
%TO.C,MX63*%
X234473750Y-66675000D03*
X224313750Y-66675000D03*
D11*
X229393750Y-66675000D03*
D19*
X226193750Y-63425000D03*
D20*
X231943750Y-61875000D03*
%TD*%
D11*
%TO.C,MX76*%
X277018750Y-85725000D03*
D10*
X282098750Y-85725000D03*
X271938750Y-85725000D03*
D19*
X273818750Y-82475000D03*
D20*
X279568750Y-80925000D03*
%TD*%
D10*
%TO.C,MX47*%
X167163750Y-66675000D03*
D11*
X172243750Y-66675000D03*
D10*
X177323750Y-66675000D03*
D19*
X169043750Y-63425000D03*
D20*
X174793750Y-61875000D03*
%TD*%
D11*
%TO.C,MX101*%
X367506250Y-66675000D03*
D10*
X362426250Y-66675000D03*
X372586250Y-66675000D03*
D19*
X364306250Y-63425000D03*
D20*
X370056250Y-61875000D03*
%TD*%
D10*
%TO.C,MX55*%
X220186250Y-123825000D03*
X210026250Y-123825000D03*
D11*
X215106250Y-123825000D03*
D19*
X211906250Y-120575000D03*
D20*
X217656250Y-119025000D03*
%TD*%
D10*
%TO.C,MX41*%
X158273750Y-66675000D03*
X148113750Y-66675000D03*
D11*
X153193750Y-66675000D03*
D19*
X149993750Y-63425000D03*
D20*
X155743750Y-61875000D03*
%TD*%
D10*
%TO.C,MX69*%
X243363750Y-66675000D03*
D11*
X248443750Y-66675000D03*
D10*
X253523750Y-66675000D03*
D19*
X245243750Y-63425000D03*
D20*
X250993750Y-61875000D03*
%TD*%
D33*
%TO.C,R_DATA1*%
X317840000Y-103390000D03*
X317840000Y-104410000D03*
%TD*%
D34*
%TO.C,D29*%
X241937500Y-144318750D03*
X243837500Y-144318750D03*
X242887500Y-146193750D03*
%TD*%
D35*
%TO.C,R_INDICATOR3*%
X38610000Y-50006250D03*
X37590000Y-50006250D03*
%TD*%
%TO.C,R_INDICATOR2*%
X348172500Y-50006250D03*
X347152500Y-50006250D03*
%TD*%
D34*
%TO.C,D16*%
X137956250Y-105425000D03*
X139856250Y-105425000D03*
X138906250Y-107300000D03*
%TD*%
%TO.C,D35*%
X276068750Y-67325000D03*
X277968750Y-67325000D03*
X277018750Y-69200000D03*
%TD*%
%TO.C,D27*%
X223681250Y-124475000D03*
X225581250Y-124475000D03*
X224631250Y-126350000D03*
%TD*%
D36*
%TO.C,C_UCAP1*%
X323219411Y-106669411D03*
X322540589Y-105990589D03*
%TD*%
D34*
%TO.C,D1*%
X53818750Y-144318750D03*
X55718750Y-144318750D03*
X54768750Y-146193750D03*
%TD*%
%TO.C,D34*%
X252256250Y-43512500D03*
X254156250Y-43512500D03*
X253206250Y-45387500D03*
%TD*%
%TO.C,D3*%
X47468750Y-67325000D03*
X49368750Y-67325000D03*
X48418750Y-69200000D03*
%TD*%
D35*
%TO.C,R_HWB1*%
X327420000Y-117740000D03*
X326400000Y-117740000D03*
%TD*%
D34*
%TO.C,D2*%
X49850000Y-44306250D03*
X51750000Y-44306250D03*
X50800000Y-46181250D03*
%TD*%
D37*
%TO.C,J3*%
X316000000Y-65500000D03*
X317000000Y-65500000D03*
X318000000Y-65500000D03*
X319000000Y-65500000D03*
D38*
X320300000Y-61625000D03*
X314700000Y-61625000D03*
%TD*%
D39*
%TO.C,D47*%
X370640000Y-90460000D03*
X370640000Y-87160000D03*
%TD*%
D34*
%TO.C,D4*%
X53818750Y-86375000D03*
X55718750Y-86375000D03*
X54768750Y-88250000D03*
%TD*%
%TO.C,D42*%
X337981250Y-44306250D03*
X339881250Y-44306250D03*
X338931250Y-46181250D03*
%TD*%
D39*
%TO.C,D46*%
X370770000Y-47670000D03*
X370770000Y-44370000D03*
%TD*%
D36*
%TO.C,C_DECOUP4*%
X322829411Y-104879411D03*
X322150589Y-104200589D03*
%TD*%
D34*
%TO.C,D25*%
X209393750Y-86375000D03*
X211293750Y-86375000D03*
X210343750Y-88250000D03*
%TD*%
%TO.C,D6*%
X68106250Y-124475000D03*
X70006250Y-124475000D03*
X69056250Y-126350000D03*
%TD*%
%TO.C,D32*%
X252256250Y-105425000D03*
X254156250Y-105425000D03*
X253206250Y-107300000D03*
%TD*%
%TO.C,D41*%
X323693750Y-68912500D03*
X325593750Y-68912500D03*
X324643750Y-70787500D03*
%TD*%
D40*
%TO.C,R_RST1*%
X329120624Y-102579376D03*
X328399376Y-103300624D03*
%TD*%
D34*
%TO.C,D23*%
X185581250Y-124475000D03*
X187481250Y-124475000D03*
X186531250Y-126350000D03*
%TD*%
D41*
%TO.C,C_DECOUP1*%
X327380000Y-116650000D03*
X326420000Y-116650000D03*
%TD*%
D34*
%TO.C,D38*%
X287975000Y-86375000D03*
X289875000Y-86375000D03*
X288925000Y-88250000D03*
%TD*%
%TO.C,D11*%
X109381250Y-124475000D03*
X111281250Y-124475000D03*
X110331250Y-126350000D03*
%TD*%
%TO.C,D21*%
X171293750Y-86375000D03*
X173193750Y-86375000D03*
X172243750Y-88250000D03*
%TD*%
%TO.C,D10*%
X99856250Y-105425000D03*
X101756250Y-105425000D03*
X100806250Y-107300000D03*
%TD*%
%TO.C,D7*%
X90331250Y-43512500D03*
X92231250Y-43512500D03*
X91281250Y-45387500D03*
%TD*%
%TO.C,D33*%
X264956250Y-124475000D03*
X266856250Y-124475000D03*
X265906250Y-126350000D03*
%TD*%
D42*
%TO.C,D18*%
X316400000Y-42045000D03*
D43*
X316400000Y-40325000D03*
X318600000Y-40325000D03*
X318600000Y-42225000D03*
%TD*%
D34*
%TO.C,D31*%
X247493750Y-86375000D03*
X249393750Y-86375000D03*
X248443750Y-88250000D03*
%TD*%
%TO.C,D5*%
X56993750Y-105425000D03*
X58893750Y-105425000D03*
X57943750Y-107300000D03*
%TD*%
D35*
%TO.C,R_INDICATOR1*%
X45753750Y-112712500D03*
X44733750Y-112712500D03*
%TD*%
D39*
%TO.C,D48*%
X370680000Y-147580000D03*
X370680000Y-144280000D03*
%TD*%
D34*
%TO.C,D14*%
X123668750Y-67325000D03*
X125568750Y-67325000D03*
X124618750Y-69200000D03*
%TD*%
D33*
%TO.C,R_DATA2*%
X316706250Y-103390000D03*
X316706250Y-104410000D03*
%TD*%
D44*
%TO.C,C_DECOUP3*%
X333250000Y-110770000D03*
X333250000Y-109810000D03*
%TD*%
D34*
%TO.C,D40*%
X325281250Y-124475000D03*
X327181250Y-124475000D03*
X326231250Y-126350000D03*
%TD*%
%TO.C,D12*%
X126050000Y-144318750D03*
X127950000Y-144318750D03*
X127000000Y-146193750D03*
%TD*%
%TO.C,D30*%
X237968750Y-67325000D03*
X239868750Y-67325000D03*
X238918750Y-69200000D03*
%TD*%
%TO.C,D45*%
X357031250Y-67325000D03*
X358931250Y-67325000D03*
X357981250Y-69200000D03*
%TD*%
%TO.C,D26*%
X214156250Y-105425000D03*
X216056250Y-105425000D03*
X215106250Y-107300000D03*
%TD*%
D45*
%TO.C,F1*%
X321300000Y-42312500D03*
X321300000Y-44187500D03*
%TD*%
D34*
%TO.C,D15*%
X133193750Y-86375000D03*
X135093750Y-86375000D03*
X134143750Y-88250000D03*
%TD*%
D46*
%TO.C,C_DECOUP2*%
X320540000Y-109820000D03*
X320540000Y-110780000D03*
%TD*%
D34*
%TO.C,D44*%
X337950000Y-143052500D03*
X339850000Y-143052500D03*
X338900000Y-144927500D03*
%TD*%
%TO.C,D37*%
X289562500Y-144318750D03*
X291462500Y-144318750D03*
X290512500Y-146193750D03*
%TD*%
D47*
%TO.C,Y1*%
X332420000Y-105700000D03*
X331571472Y-104851472D03*
X330722944Y-104002944D03*
%TD*%
D48*
%TO.C,U1*%
X322772264Y-109707798D03*
X323125818Y-109354245D03*
X323479371Y-109000691D03*
X323832924Y-108647138D03*
X324186478Y-108293585D03*
X324540031Y-107940031D03*
X324893585Y-107586478D03*
X325247138Y-107232924D03*
X325600691Y-106879371D03*
X325954245Y-106525818D03*
X326307798Y-106172264D03*
D49*
X327492202Y-106172264D03*
X327845755Y-106525818D03*
X328199309Y-106879371D03*
X328552862Y-107232924D03*
X328906415Y-107586478D03*
X329259969Y-107940031D03*
X329613522Y-108293585D03*
X329967076Y-108647138D03*
X330320629Y-109000691D03*
X330674182Y-109354245D03*
X331027736Y-109707798D03*
D48*
X331027736Y-110892202D03*
X330674182Y-111245755D03*
X330320629Y-111599309D03*
X329967076Y-111952862D03*
X329613522Y-112306415D03*
X329259969Y-112659969D03*
X328906415Y-113013522D03*
X328552862Y-113367076D03*
X328199309Y-113720629D03*
X327845755Y-114074182D03*
X327492202Y-114427736D03*
D49*
X326307798Y-114427736D03*
X325954245Y-114074182D03*
X325600691Y-113720629D03*
X325247138Y-113367076D03*
X324893585Y-113013522D03*
X324540031Y-112659969D03*
X324186478Y-112306415D03*
X323832924Y-111952862D03*
X323479371Y-111599309D03*
X323125818Y-111245755D03*
X322772264Y-110892202D03*
D50*
X326900000Y-110300000D03*
%TD*%
D34*
%TO.C,D8*%
X85568750Y-67325000D03*
X87468750Y-67325000D03*
X86518750Y-69200000D03*
%TD*%
%TO.C,D36*%
X286387500Y-107012500D03*
X288287500Y-107012500D03*
X287337500Y-108887500D03*
%TD*%
%TO.C,D28*%
X211775000Y-44306250D03*
X213675000Y-44306250D03*
X212725000Y-46181250D03*
%TD*%
%TO.C,D17*%
X147481250Y-124475000D03*
X149381250Y-124475000D03*
X148431250Y-126350000D03*
%TD*%
%TO.C,D20*%
X161768750Y-67325000D03*
X163668750Y-67325000D03*
X162718750Y-69200000D03*
%TD*%
%TO.C,D19*%
X171293750Y-43512500D03*
X173193750Y-43512500D03*
X172243750Y-45387500D03*
%TD*%
%TO.C,D43*%
X337981250Y-86375000D03*
X339881250Y-86375000D03*
X338931250Y-88250000D03*
%TD*%
%TO.C,D22*%
X176056250Y-105425000D03*
X177956250Y-105425000D03*
X177006250Y-107300000D03*
%TD*%
%TO.C,D39*%
X292737500Y-44306250D03*
X294637500Y-44306250D03*
X293687500Y-46181250D03*
%TD*%
%TO.C,D13*%
X130812500Y-44306250D03*
X132712500Y-44306250D03*
X131762500Y-46181250D03*
%TD*%
%TO.C,D9*%
X95093750Y-86375000D03*
X96993750Y-86375000D03*
X96043750Y-88250000D03*
%TD*%
%TO.C,D24*%
X199868750Y-67325000D03*
X201768750Y-67325000D03*
X200818750Y-69200000D03*
%TD*%
M02*
