M48
; DRILL file {KiCad 5.99.0-1.20210419gite0f69ad.fc33} date Tue Apr 20 05:27:30 2021
; FORMAT={-:-/ absolute / inch / decimal}
; #@! TF.CreationDate,2021-04-20T05:27:30+03:00
; #@! TF.GenerationSoftware,Kicad,Pcbnew,5.99.0-1.20210419gite0f69ad.fc33
; #@! TF.FileFunction,NonPlated,1,2,NPTH
FMAT,2
INCH
; #@! TA.AperFunction,NonPlated,NPTH,ComponentDrill
T1C0.0256
; #@! TA.AperFunction,NonPlated,NPTH,ComponentDrill
T2C0.0670
; #@! TA.AperFunction,NonPlated,NPTH,ComponentDrill
T3C0.0689
; #@! TA.AperFunction,NonPlated,NPTH,ComponentDrill
T4C0.1200
; #@! TA.AperFunction,NonPlated,NPTH,ComponentDrill
T5C0.1570
%
G90
G05
T1
X12.3862Y-1.2072
X12.6138Y-1.2072
T2
X11.9375Y-3.55
X11.9375Y-3.95
T3
X1.3313Y-1.6875
X1.3313Y-2.625
X1.425Y-4.125
X1.425Y-4.875
X1.425Y-5.625
X1.5188Y-3.375
X1.5188Y-5.625
X1.6125Y-4.125
X1.7312Y-1.6875
X1.7312Y-2.625
X1.8Y-4.875
X1.825Y-4.125
X1.825Y-4.875
X1.825Y-5.625
X1.9187Y-3.375
X1.9187Y-5.625
X2.0125Y-4.125
X2.0812Y-2.625
X2.2Y-4.875
X2.2687Y-1.6875
X2.3625Y-5.625
X2.4562Y-3.375
X2.4562Y-5.625
X2.4812Y-2.625
X2.6437Y-4.125
X2.6687Y-1.6875
X2.7625Y-5.625
X2.8312Y-2.625
X2.8562Y-3.375
X2.8562Y-5.625
X3.0187Y-1.6875
X3.0187Y-4.875
X3.0437Y-4.125
X3.2062Y-3.375
X3.2312Y-2.625
X3.3Y-5.625
X3.3937Y-4.125
X3.3937Y-5.625
X3.4187Y-1.6875
X3.4187Y-4.875
X3.5812Y-2.625
X3.6062Y-3.375
X3.7Y-5.625
X3.7687Y-1.6875
X3.7687Y-4.875
X3.7937Y-4.125
X3.7937Y-5.625
X3.9562Y-3.375
X3.9812Y-2.625
X4.1437Y-4.125
X4.1688Y-1.6875
X4.1688Y-4.875
X4.3312Y-2.625
X4.3563Y-3.375
X4.5187Y-1.6875
X4.5187Y-4.875
X4.5438Y-4.125
X4.7062Y-3.375
X4.7313Y-2.625
X4.8937Y-4.125
X4.9188Y-1.6875
X4.9188Y-4.875
X5.0812Y-2.625
X5.1063Y-3.375
X5.2687Y-4.875
X5.2938Y-4.125
X5.4562Y-1.6875
X5.4562Y-3.375
X5.4813Y-2.625
X5.6437Y-4.125
X5.6688Y-4.875
X5.8312Y-2.625
X5.8563Y-1.6875
X5.8563Y-3.375
X6.0187Y-4.875
X6.0438Y-4.125
X6.1125Y-5.625
X6.2062Y-1.6875
X6.2062Y-3.375
X6.2313Y-2.625
X6.3937Y-4.125
X6.4188Y-4.875
X6.5125Y-5.625
X6.5812Y-2.625
X6.5812Y-5.625
X6.6063Y-1.6875
X6.6063Y-3.375
X6.7687Y-4.875
X6.7938Y-4.125
X6.9562Y-1.6875
X6.9562Y-3.375
X6.9813Y-2.625
X6.9813Y-5.625
X7.1437Y-4.125
X7.1688Y-4.875
X7.3312Y-2.625
X7.3563Y-1.6875
X7.3563Y-3.375
X7.5187Y-4.875
X7.5438Y-4.125
X7.7062Y-1.6875
X7.7062Y-3.375
X7.7313Y-2.625
X7.8937Y-4.125
X7.9188Y-4.875
X8.0812Y-2.625
X8.1062Y-1.6875
X8.1062Y-3.375
X8.2687Y-4.875
X8.2937Y-4.125
X8.4562Y-3.375
X8.4812Y-2.625
X8.6437Y-1.6875
X8.6437Y-4.125
X8.6687Y-4.875
X8.8312Y-2.625
X8.8562Y-3.375
X8.925Y-5.625
X9.0187Y-4.875
X9.0437Y-1.6875
X9.0437Y-4.125
X9.2062Y-3.375
X9.2312Y-2.625
X9.325Y-5.625
X9.3937Y-1.6875
X9.3937Y-4.125
X9.4187Y-4.875
X9.5812Y-2.625
X9.6062Y-3.375
X9.7687Y-4.875
X9.7687Y-5.625
X9.7937Y-1.6875
X9.7937Y-4.125
X9.8625Y-5.625
X9.9562Y-3.375
X9.9812Y-2.625
X10.1437Y-1.6875
X10.1437Y-4.125
X10.1687Y-4.875
X10.1687Y-5.625
X10.2625Y-5.625
X10.3312Y-2.625
X10.3562Y-3.375
X10.5437Y-1.6875
X10.5437Y-4.125
X10.7062Y-3.375
X10.7062Y-5.625
X10.7312Y-2.625
X10.8Y-4.875
X10.8Y-5.625
X10.8937Y-1.6875
X10.8937Y-4.125
X11.0812Y-2.625
X11.1062Y-3.375
X11.1062Y-5.625
X11.175Y-4.875
X11.2Y-4.875
X11.2Y-5.625
X11.2937Y-1.6875
X11.2937Y-4.125
X11.3625Y-4.125
X11.4562Y-2.625
X11.4812Y-2.625
X11.575Y-4.875
X11.6437Y-3.375
X11.6437Y-5.625
X11.7375Y-5.625
X11.7625Y-4.125
X11.8312Y-1.6875
X11.8312Y-2.625
X11.8312Y-4.875
X11.8562Y-2.625
X12.0437Y-3.375
X12.0437Y-5.625
X12.1375Y-5.625
X12.2312Y-1.6875
X12.2312Y-2.625
X12.2312Y-4.875
X12.7687Y-1.6875
X12.7687Y-2.625
X12.7687Y-3.375
X12.7687Y-5.625
X13.1687Y-1.6875
X13.1687Y-2.625
X13.1687Y-3.375
X13.1687Y-5.625
X13.5187Y-1.6875
X13.5187Y-2.625
X13.5187Y-3.375
X13.5187Y-4.875
X13.5187Y-5.625
X13.9187Y-1.6875
X13.9187Y-2.625
X13.9187Y-3.375
X13.9187Y-4.875
X13.9187Y-5.625
X14.2687Y-1.6875
X14.2687Y-2.625
X14.2687Y-3.375
X14.2687Y-5.625
X14.6687Y-1.6875
X14.6687Y-2.625
X14.6687Y-3.375
X14.6687Y-5.625
T4
X1.53Y-4.6
X2.47Y-4.6
X4.344Y-5.9
X4.5312Y-5.9
X8.281Y-5.9
X9.0312Y-5.9
X10.905Y-4.6
X11.0925Y-4.4
X11.1862Y-2.35
X11.845Y-4.6
X12.0325Y-4.4
X12.1262Y-2.35
X12.2125Y-3.28
X12.2125Y-4.22
T5
X1.53Y-5.2
X1.5312Y-1.6875
X1.5312Y-2.625
X1.625Y-4.125
X1.625Y-4.875
X1.625Y-5.625
X1.7188Y-3.375
X1.7188Y-5.625
X1.8125Y-4.125
X2.0Y-4.875
X2.2812Y-2.625
X2.4688Y-1.6875
X2.47Y-5.2
X2.5625Y-5.625
X2.6562Y-3.375
X2.6562Y-5.625
X2.8438Y-4.125
X3.0312Y-2.625
X3.2188Y-1.6875
X3.2188Y-4.875
X3.4062Y-3.375
X3.5Y-5.625
X3.5938Y-4.125
X3.5938Y-5.625
X3.7812Y-2.625
X3.9688Y-1.6875
X3.9688Y-4.875
X4.1562Y-3.375
X4.3438Y-4.125
X4.344Y-5.3
X4.5312Y-2.625
X4.5312Y-5.3
X4.7188Y-1.6875
X4.7188Y-4.875
X4.9062Y-3.375
X5.0938Y-4.125
X5.2812Y-2.625
X5.4688Y-4.875
X5.6562Y-1.6875
X5.6562Y-3.375
X5.8438Y-4.125
X6.0312Y-2.625
X6.2188Y-4.875
X6.3125Y-5.625
X6.4062Y-1.6875
X6.4062Y-3.375
X6.5938Y-4.125
X6.7812Y-2.625
X6.7812Y-5.625
X6.9688Y-4.875
X7.1562Y-1.6875
X7.1562Y-3.375
X7.3438Y-4.125
X7.5312Y-2.625
X7.7188Y-4.875
X7.9062Y-1.6875
X7.9062Y-3.375
X8.0938Y-4.125
X8.281Y-5.3
X8.2812Y-2.625
X8.4688Y-4.875
X8.6562Y-3.375
X8.8438Y-1.6875
X8.8438Y-4.125
X9.0312Y-2.625
X9.0312Y-5.3
X9.125Y-5.625
X9.2188Y-4.875
X9.4062Y-3.375
X9.5938Y-1.6875
X9.5938Y-4.125
X9.7812Y-2.625
X9.9688Y-4.875
X9.9688Y-5.625
X10.0625Y-5.625
X10.1562Y-3.375
X10.3438Y-1.6875
X10.3438Y-4.125
X10.5312Y-2.625
X10.905Y-5.2
X10.9062Y-3.375
X10.9062Y-5.625
X11.0Y-4.875
X11.0Y-5.625
X11.0925Y-3.8
X11.0938Y-1.6875
X11.0938Y-4.125
X11.1862Y-2.95
X11.2812Y-2.625
X11.375Y-4.875
X11.5625Y-4.125
X11.6125Y-3.28
X11.6125Y-4.22
X11.6562Y-2.625
X11.8438Y-3.375
X11.8438Y-5.625
X11.845Y-5.2
X11.9375Y-3.75
X11.9375Y-5.625
X12.0312Y-1.6875
X12.0312Y-2.625
X12.0312Y-4.875
X12.0325Y-3.8
X12.1262Y-2.95
X12.9688Y-1.6875
X12.9688Y-2.625
X12.9688Y-3.375
X12.9688Y-5.625
X13.7188Y-1.6875
X13.7188Y-2.625
X13.7188Y-3.375
X13.7188Y-4.875
X13.7188Y-5.625
X14.4688Y-1.6875
X14.4688Y-2.625
X14.4688Y-3.375
X14.4688Y-5.625
T0
M30
