0
SECTION
2
HEADER
9
$INSUNITS
70
4
9
$ACADVER
1
AC1014
9
$HANDSEED
5
FFFF
0
ENDSEC
0
SECTION
2
TABLES
0
TABLE
2
VPORT
5
8
100
AcDbSymbolTable
0
ENDTAB
0
TABLE
2
LTYPE
5
5
100
AcDbSymbolTable
0
LTYPE
5
14
100
AcDbSymbolTableRecord
100
AcDbLinetypeTableRecord
2
BYBLOCK
70
0
0
LTYPE
5
15
100
AcDbSymbolTableRecord
100
AcDbLinetypeTableRecord
2
BYLAYER
70
0
0
ENDTAB
0
TABLE
2
LAYER
5
2
100
AcDbSymbolTable
70
2
0
LAYER
5
50
100
AcDbSymbolTableRecord
100
AcDbLayerTableRecord
2
0
70
0
6
CONTINUOUS
0
ENDTAB
0
TABLE
2
STYLE
5
3
100
AcDbSymbolTable
70
1
0
STYLE
5
11
100
AcDbSymbolTableRecord
100
AcDbTextStyleTableRecord
2
STANDARD
70
0
0
ENDTAB
0
TABLE
2
VIEW
5
6
100
AcDbSymbolTable
70
0
0
ENDTAB
0
TABLE
2
UCS
5
7
100
AcDbSymbolTable
70
0
0
ENDTAB
0
TABLE
2
APPID
5
9
100
AcDbSymbolTable
70
2
0
APPID
5
12
100
AcDbSymbolTableRecord
100
AcDbRegAppTableRecord
2
ACAD
70
0
0
ENDTAB
0
TABLE
2
DIMSTYLE
5
A
100
AcDbSymbolTable
70
1
0
ENDTAB
0
TABLE
2
BLOCK_RECORD
5
1
100
AcDbSymbolTable
70
1
0
BLOCK_RECORD
5
1F
100
AcDbSymbolTableRecord
100
AcDbBlockTableRecord
2
*MODEL_SPACE
0
BLOCK_RECORD
5
1B
100
AcDbSymbolTableRecord
100
AcDbBlockTableRecord
2
*PAPER_SPACE
0
ENDTAB
0
ENDSEC
0
SECTION
2
BLOCKS
0
BLOCK
5
20
100
AcDbEntity
100
AcDbBlockBegin
2
*MODEL_SPACE
0
ENDBLK
5
21
100
AcDbEntity
100
AcDbBlockEnd
0
BLOCK
5
1C
100
AcDbEntity
100
AcDbBlockBegin
2
*PAPER_SPACE
0
ENDBLK
5
1D
100
AcDbEntity
100
AcDbBlockEnd
0
ENDSEC
0
SECTION
2
ENTITIES
0
LWPOLYLINE
5
100
100
AcDbEntity
8
0
100
AcDbPolyline
90
8
70
1
43
0.0
10
374.51245154674547
20
-49.524158854352677
10
374.51245154674552
20
-37.524158854762526
42
0.41421356249322705
10
373.51245154674552
20
-36.524158854352279
10
361.51245154674552
20
-36.524158854352692
42
0.41421356237304952
10
360.51245154674564
20
-37.524158854352699
10
360.51245154674569
20
-49.524158854352656
42
0.4142135623730222
10
361.51245154674552
20
-50.524158854352677
10
373.51245154674552
20
-50.524158854352549
42
0.41421356237308721
0
LWPOLYLINE
5
101
100
AcDbEntity
8
0
100
AcDbPolyline
90
8
70
1
43
0.0
10
50.662518491747122
20
-149.55575603935256
42
-0.41421368655981733
10
49.66251806774715
20
-150.5557560393525
10
35.281253002747206
20
-150.55574383235259
42
-0.41421343802171023
10
34.281253426747554
20
-149.55574383291446
10
34.281253426747242
20
-137.55574383235259
42
-0.41421368685267546
10
35.281253851747465
20
-136.55574383235262
10
49.662518916747267
20
-136.55575603935256
42
-0.414213437825042
10
50.662518491747115
20
-137.55575603911893
0
LWPOLYLINE
5
102
100
AcDbEntity
8
0
100
AcDbPolyline
90
8
70
1
43
0.0
10
74.474951546747121
20
-92.386658854352603
42
-0.41421356237314966
10
73.474951546747064
20
-93.386658854352788
10
61.47495154674715
20
-93.386658854352987
42
-0.41421356237295454
10
60.474951546747597
20
-92.386658854352987
10
60.474951546747221
20
-80.386658854352618
42
-0.41421356237309764
10
61.474951546747228
20
-79.386658854352575
10
73.474951546747121
20
-79.386658854352561
42
-0.41421356249324393
10
74.474951546747121
20
-80.386658854762771
0
LWPOLYLINE
5
103
100
AcDbEntity
8
0
100
AcDbPolyline
90
8
70
1
43
0.0
10
140.14995154674676
20
-60.355762143352614
42
-0.4142135624932804
10
141.14995154674682
20
-61.355762143762874
10
141.14995154674671
20
-73.355762143352635
42
-0.41421356237293633
10
140.14995154674673
20
-74.355762143352194
10
128.14995154674688
20
-74.35576214335218
42
-0.41421356237297796
10
127.14995154674708
20
-73.355762143352223
10
127.14995154674685
20
-61.355762143352578
42
-0.41421356237307161
10
128.14995154674688
20
-60.355762143352592
0
LWPOLYLINE
5
104
100
AcDbEntity
8
0
100
AcDbPolyline
90
45
70
1
43
0.0
10
296.18745154674576
20
-98.436658832352634
10
285.22012605674581
20
-98.43665883235262
10
285.22012605574582
20
-97.437595632508845
42
0.41421800005101039
10
284.22011090474592
20
-96.437595628352639
10
281.75570135374596
20
-96.436658854352629
10
279.25570105774585
20
-96.436658854352657
42
0.4142135623730846
10
278.25570105774585
20
-97.436658854352629
10
278.25570105774591
20
-98.43665883235262
10
275.78745154674596
20
-98.436658832352606
42
0.41421356237309503
10
274.7874515467459
20
-99.43665883235262
10
274.78745154674596
20
-111.43665885453196
42
0.41421356232049444
10
275.78745154674596
20
-112.43665885435263
10
299.69368933954075
20
-112.43665885435286
42
0.41421356243321372
10
300.69368933974573
20
-111.43665885435263
10
300.69368933974573
20
-111.34963798035264
10
302.09607248774574
20
-111.34963798035265
10
302.09607248774614
20
-111.43760784072862
42
0.40150926381467866
10
303.05251710074577
20
-112.43665885435264
10
308.13167762054064
20
-112.43665885435254
42
0.41421356243313567
10
309.13167762074573
20
-111.43665885435266
10
309.13167762074573
20
-111.34963798035265
10
309.18745154674576
20
-111.34963798035264
42
0.414213562373069
10
310.18745154674571
20
-110.34963798035265
10
310.18745154672888
20
-105.3446969394553
42
0.41276709847902116
10
309.1874637537457
20
-104.34963798035264
10
309.13167762074568
20
-104.34963798035267
10
309.13167762074568
20
-102.91164967735264
10
309.18745154674576
20
-102.91164967735257
42
0.4142135623730846
10
310.18745154674576
20
-101.91164967735264
10
310.1874515467461
20
-89.911649677763023
42
0.41421356249334279
10
309.18745154674576
20
-88.911649677352642
10
307.83745764974577
20
-88.911649677352656
10
307.83745764974589
20
-87.473691527352656
10
309.18746375544947
20
-87.473691528352191
42
0.41276674859284601
10
310.18745154674582
20
-86.478633763352661
10
310.18745154674536
20
-81.473661396762481
42
0.41421356249308788
10
309.18745154674576
20
-80.473661396352696
10
307.83745764974577
20
-80.473661396352696
10
307.83745764974606
20
-80.386640500909891
42
0.41421355609268246
10
306.83745764974583
20
-79.386640522352664
10
294.83745760574629
20
-79.386640522352621
42
0.41421354948580802
10
293.83745764974594
20
-80.38664052235265
10
293.83745764974549
20
-92.386640522532389
42
0.41421356232063489
10
294.83745764974594
20
-93.386640522352621
10
296.18745154674582
20
-93.386640522352664
0
LWPOLYLINE
5
105
100
AcDbEntity
8
0
100
AcDbPolyline
90
8
70
1
43
0.0
10
254.44995154674612
20
-60.3366588543524
42
-0.4142135624931555
10
255.44995154674581
20
-61.336658854762646
10
255.44995154674612
20
-73.336658854352649
42
-0.41421356237314966
10
254.44995154674612
20
-74.336658854352834
10
242.44995154674621
20
-74.33665885435299
42
-0.41421356232045803
10
241.44995154674638
20
-73.336658854532544
10
241.44995154674618
20
-61.336658854352635
42
-0.41421356237307161
10
242.44995154674615
20
-60.336658854352649
0
LWPOLYLINE
5
106
100
AcDbEntity
8
0
100
AcDbPolyline
90
14
70
1
43
0.0
10
280.49320410974593
20
-132.48665275035262
42
-0.41421356237297535
10
279.49320410974593
20
-133.48665275035214
10
274.49320410974593
20
-133.48665275035259
42
-0.41421356232037476
10
273.49320410974639
20
-132.48665275053182
10
273.49320410974588
20
-131.4866283363526
10
273.40625037474587
20
-131.4866283363526
42
-0.41421356232036438
10
272.40625037474626
20
-130.48662833653208
10
272.40625037474592
20
-118.48662833635261
42
-0.41421372844354759
10
273.4062509417459
20
-117.48662833635279
10
294.93119295774579
20
-117.48665275035265
42
-0.41421339636814997
10
295.93119239074582
20
-118.48665275057658
10
295.93119239074582
20
-130.48665275035265
42
-0.41421385145887513
10
294.93119140374603
20
-131.48665275035262
10
280.49320410974582
20
-131.48662424235263
0
LWPOLYLINE
5
107
100
AcDbEntity
8
0
100
AcDbPolyline
90
8
70
1
43
0.0
10
161.4874515467466
20
-112.43665885435236
10
173.48745154674651
20
-112.43665885435271
42
0.41421356237315748
10
174.4874515467464
20
-111.4366588543526
10
174.487451546746
20
-99.436658854762754
42
0.4142135624931087
10
173.48745154674651
20
-98.436658854352544
10
161.4874515467466
20
-98.436658854352629
42
0.41421356237311063
10
160.48745154674666
20
-99.436658854352643
10
160.48745154674685
20
-111.43665885453194
42
0.4142135623204008
0
LWPOLYLINE
5
108
100
AcDbEntity
8
0
100
AcDbPolyline
90
8
70
1
43
0.0
10
73.4750189157471
20
-136.5557560393525
42
-0.41421343825754531
10
74.475018491746994
20
-137.55575603959539
10
74.475018491747008
20
-149.55575603935256
42
-0.41421368655979912
10
73.475018067747072
20
-150.5557560393525
10
59.093753002747192
20
-150.55574383235256
42
-0.41421343807432515
10
58.09375342674744
20
-149.55574383273438
10
58.093753426747135
20
-137.55574383235253
42
-0.41421368685272358
10
59.093753851747131
20
-136.55574383235262
0
LWPOLYLINE
5
109
100
AcDbEntity
8
0
100
AcDbPolyline
90
8
70
1
43
0.0
10
246.21251849174604
20
-137.55575603935262
42
-0.41421343818637585
10
247.21251806774632
20
-136.5557560393527
10
261.59375295874599
20
-136.55574383235262
42
-0.41421369319212642
10
262.59375342674599
20
-137.5557438109968
10
262.59375342674593
20
-149.55574383235259
42
-0.41421343789349824
10
261.59375385174604
20
-150.55574383235248
10
247.21251891574605
20
-150.55575603935262
42
-0.41421368645538353
10
246.21251849174652
20
-149.55575603970919
0
LWPOLYLINE
5
110
100
AcDbEntity
8
0
100
AcDbPolyline
90
15
70
1
43
0.0
10
304.36918067274587
20
-131.48662833635268
10
311.60000037474583
20
-131.4866283363526
42
0.41421356237311585
10
312.60000037474572
20
-130.48662833635265
10
312.60000037474595
20
-118.4866283367632
42
0.41421356249324914
10
311.60000037474583
20
-117.48662833635264
10
299.60000037374579
20
-117.48662833635265
10
299.59301270474589
20
-117.48665275035263
10
298.36420840674788
20
-117.48665275078625
42
0.41276677805937795
10
297.36915054074592
20
-118.48664054235259
10
297.36915054074592
20
-131.48664054335259
10
297.36918067274587
20
-131.49440345435261
10
297.36918067174599
20
-132.48665275053176
42
0.41421356232044237
10
298.36918067274576
20
-133.48665275135264
10
303.3691806727457
20
-133.48665275135249
42
0.414213562373069
10
304.3691806727457
20
-132.48665275135264
0
LWPOLYLINE
5
111
100
AcDbEntity
8
0
100
AcDbPolyline
90
8
70
1
43
0.0
10
45.89995154674731
20
-49.524158854352606
42
-0.41421356237310281
10
44.899951546747296
20
-50.524158854352876
10
32.899951546747367
20
-50.524158854352528
42
-0.41421356237296364
10
31.8999515467479
20
-49.524158854352521
10
31.899951546747371
20
-37.524158854352621
42
-0.41421356237311585
10
32.899951546747346
20
-36.524158854352649
10
44.899951546747374
20
-36.524158854352599
42
-0.41421356249316854
10
45.899951546747275
20
-37.524158854762867
0
LWPOLYLINE
5
112
100
AcDbEntity
8
0
100
AcDbPolyline
90
8
70
1
43
0.0
10
53.043701546747243
20
-111.4366588543526
42
-0.41421356237318346
10
52.043701546747194
20
-112.43665885435288
10
35.281201546747319
20
-112.43665885435232
42
-0.41421356232039686
10
34.281201546747617
20
-111.4366588545319
10
34.281201546747305
20
-99.436658854352601
42
-0.41421356237307422
10
35.281201546747269
20
-98.436658854352601
10
52.043701546747187
20
-98.436658854352572
42
-0.41421356249329078
10
53.043701546747229
20
-99.436658854762783
0
LWPOLYLINE
5
113
100
AcDbEntity
8
0
100
AcDbPolyline
90
8
70
1
43
0.0
10
107.8124515467469
20
-130.48665885435258
10
107.8124515467468
20
-118.48665885476277
42
0.41421356249323876
10
106.81245154674691
20
-117.48665885435256
10
94.81245154674707
20
-117.48665885435256
42
0.41421356237311063
10
93.812451546746942
20
-118.48665885435258
10
93.812451546746786
20
-130.48665885453192
42
0.41421356232057249
10
94.812451546747042
20
-131.4866588543523
10
106.8124515467469
20
-131.48665885435267
42
0.41421356237315227
0
LWPOLYLINE
5
114
100
AcDbEntity
8
0
100
AcDbPolyline
90
8
70
1
43
0.0
10
122.09995154674684
20
-73.355762143352635
42
-0.41421356237297796
10
121.09995154674678
20
-74.355762143352422
10
109.09995154674682
20
-74.355762143352209
42
-0.41421356237304818
10
108.09995154674698
20
-73.355762143352209
10
108.09995154674698
20
-61.355762143352585
42
-0.41421356237312101
10
109.09995154674704
20
-60.355762143352585
10
121.09995154674689
20
-60.355762143352635
42
-0.41421356249322572
10
122.09995154674695
20
-61.355762143762888
0
LWPOLYLINE
5
115
100
AcDbEntity
8
0
100
AcDbPolyline
90
8
70
1
43
0.0
10
155.43745154674664
20
-111.43665885435261
42
-0.41421356237302737
10
154.43745154674667
20
-112.43665885435234
10
142.43745154674667
20
-112.4366588543524
42
-0.41421356232043199
10
141.4374515467469
20
-111.43665885453196
10
141.43745154674673
20
-99.436658854352629
42
-0.4142135623730846
10
142.4374515467467
20
-98.436658854352572
10
154.43745154674667
20
-98.436658854352501
42
-0.41421356249320751
10
155.43745154674662
20
-99.436658854762726
0
LWPOLYLINE
5
116
100
AcDbEntity
8
0
100
AcDbPolyline
90
8
70
1
43
0.0
10
179.24995154674656
20
-73.336658854352635
42
-0.41421356237312884
10
178.24995154674656
20
-74.336658854352734
10
166.24995154674673
20
-74.336658854352663
42
-0.41421356232037476
10
165.24995154674707
20
-73.33665885453226
10
165.24995154674659
20
-61.336658854352628
42
-0.4142135623730534
10
166.24995154674656
20
-60.336658854352635
10
178.24995154674653
20
-60.336658854352649
42
-0.41421356249325436
10
179.2499515467465
20
-61.336658854762874
0
LWPOLYLINE
5
117
100
AcDbEntity
8
0
100
AcDbPolyline
90
8
70
1
43
0.0
10
198.29995154674648
20
-73.336658854352606
42
-0.41421356237295714
10
197.29995154674651
20
-74.336658854352123
10
185.29995154674651
20
-74.336658854352606
42
-0.41421356232044498
10
184.29995154674671
20
-73.336658854532203
10
184.29995154674643
20
-61.336658854352635
42
-0.41421356237311063
10
185.29995154674646
20
-60.336658854352656
10
197.29995154674643
20
-60.3366588543524
42
-0.41421356249337665
10
198.29995154674685
20
-61.336658854762618
0
LWPOLYLINE
5
118
100
AcDbEntity
8
0
100
AcDbPolyline
90
8
70
1
43
0.0
10
231.63745154674621
20
-111.43665885435263
42
-0.41421356237304818
10
230.63745154674621
20
-112.43665885435249
10
218.63745154674626
20
-112.43665885435242
42
-0.41421356232045803
10
217.63745154674632
20
-111.43665885453197
10
217.63745154674632
20
-99.436658854352657
42
-0.41421356237310542
10
218.63745154674618
20
-98.436658854352586
10
230.63745154674618
20
-98.436658854352487
42
-0.41421356249331159
10
231.63745154674641
20
-99.436658854762726
0
LWPOLYLINE
5
119
100
AcDbEntity
8
0
100
AcDbPolyline
90
8
70
1
43
0.0
10
146.1999515467468
20
-61.336658854352621
42
-0.4142135623730534
10
147.19995154674677
20
-60.336658854352628
10
159.19995154674666
20
-60.336658854352649
42
-0.41421356249324393
10
160.19995154674672
20
-61.336658854762909
10
160.19995154674666
20
-73.336658854352635
42
-0.41421356237302737
10
159.19995154674672
20
-74.336658854352379
10
147.19995154674675
20
-74.33665885435299
42
-0.41421356232051526
10
146.19995154674677
20
-73.336658854532587
0
LWPOLYLINE
5
120
100
AcDbEntity
8
0
100
AcDbPolyline
90
8
70
1
43
0.0
10
336.41245154674561
20
-73.336658854352692
42
-0.41421356237312884
10
335.41245154674573
20
-74.336658854353004
10
323.41245154674561
20
-74.33665885435272
42
-0.41421356237297796
10
322.41245154674607
20
-73.336658854352748
10
322.41245154674561
20
-61.336658854352663
42
-0.41421356237307683
10
323.41245154674561
20
-60.336658854352677
10
335.41245154674561
20
-60.336658854352486
42
-0.41421356249319974
10
336.4124515467455
20
-61.336658854762703
0
LWPOLYLINE
5
121
100
AcDbEntity
8
0
100
AcDbPolyline
90
8
70
1
43
0.0
10
236.39995154674622
20
-73.336658854352635
42
-0.41421356237307683
10
235.39995154674619
20
-74.336658854352564
10
223.39995154674631
20
-74.336658854352592
42
-0.41421356232064532
10
222.39995154674588
20
-73.336658854532189
10
222.39995154674625
20
-61.336658854352635
42
-0.41421356237310802
10
223.39995154674625
20
-60.336658854352649
10
235.39995154674619
20
-60.33665885435304
42
-0.41421356249328817
10
236.39995154674637
20
-61.336658854763201
0
LWPOLYLINE
5
122
100
AcDbEntity
8
0
100
AcDbPolyline
90
8
70
1
43
0.0
10
88.762451546746988
20
-130.48665885435258
10
88.762451546747045
20
-118.48665885476277
42
0.41421356249321795
10
87.762451546746988
20
-117.48665885435251
10
75.762451546747101
20
-117.48665885435258
42
0.41421356237311846
10
74.762451546747101
20
-118.4866588543526
10
74.762451546747158
20
-130.48665885453173
42
0.41421356232041379
10
75.762451546747002
20
-131.48665885435213
10
87.762451546746917
20
-131.48665885435238
42
0.4142135623730534
0
LWPOLYLINE
5
123
100
AcDbEntity
8
0
100
AcDbPolyline
90
8
70
1
43
0.0
10
355.46245154674568
20
-49.524158854352706
42
-0.4142135623729884
10
354.46245154674557
20
-50.524158854352294
10
342.46245154674563
20
-50.524158854352663
42
-0.41421356237295714
10
341.46245154674602
20
-49.524158854352692
10
341.46245154674568
20
-37.524158854352699
42
-0.41421356237304952
10
342.46245154674568
20
-36.524158854352692
10
354.46245154674563
20
-36.524158854352301
42
-0.41421356249319713
10
355.46245154674551
20
-37.524158854762511
0
LWPOLYLINE
5
124
100
AcDbEntity
8
0
100
AcDbPolyline
90
8
70
1
43
0.0
10
217.34995154674633
20
-73.336658854352621
42
-0.41421356237300661
10
216.3499515467463
20
-74.336658854352251
10
204.34995154674647
20
-74.336658854352592
42
-0.41421356232053863
10
203.34995154674633
20
-73.336658854532189
10
203.34995154674635
20
-61.336658854352621
42
-0.41421356237311585
10
204.34995154674641
20
-60.336658854352628
10
216.34995154674624
20
-60.336658854352407
42
-0.4142135624931243
10
217.34995154674581
20
-61.336658854762653
0
LWPOLYLINE
5
125
100
AcDbEntity
8
0
100
AcDbPolyline
90
8
70
1
43
0.0
10
250.68745154674613
20
-111.43665885435257
10
250.6874515467459
20
-99.436658854762669
42
0.41421356249316593
10
249.6874515467461
20
-98.436658854352501
10
237.68745154674622
20
-98.436658854352643
42
0.41421356237312101
10
236.68745154674622
20
-99.436658854352657
10
236.68745154674622
20
-111.436658854532
42
0.41421356232049444
10
237.68745154674622
20
-112.43665885435237
10
249.68745154674619
20
-112.43665885435274
42
0.41421356237313667
0
LWPOLYLINE
5
126
100
AcDbEntity
8
0
100
AcDbPolyline
90
8
70
1
43
0.0
10
269.737451546746
20
-111.43665885435257
10
269.7374515467464
20
-99.436658854762669
42
0.41421356249333241
10
268.737451546746
20
-98.436658854352487
10
256.73745154674612
20
-98.436658854352629
42
0.41421356237312623
10
255.73745154674614
20
-99.436658854352657
10
255.73745154674612
20
-111.43665885453201
42
0.41421356232050482
10
256.73745154674612
20
-112.43665885435243
10
268.73745154674612
20
-112.43665885435303
42
0.41421356237325113
0
ARC
5
127
100
AcDbEntity
8
0
100
AcDbCircle
10
107.83749732274703
20
-148.55202064435227
30
5.7777898331617076e-31
40
0.99999994599997422
210
1.2051501954422808e-20
220
1.3877784229399402e-17
230
1
100
AcDbArc
50
180
51
269.97822066928904
0
LINE
5
128
100
AcDbEntity
8
0
100
AcDbLine
10
106.83749737674705
20
-148.55202064435224
30
1.205150130372613e-20
11
106.83749732274686
21
-135.55202064435258
31
-2.7755575615628914e-16
0
ARC
5
129
100
AcDbEntity
8
0
100
AcDbCircle
10
107.83749732274654
20
-135.55202064435258
30
8.8817841970012523e-15
40
0.999999972622998
210
7.6988748600325925e-31
220
-1.3877787807814703e-17
230
1
100
AcDbArc
50
89.978220669276965
51
180
0
LINE
5
130
100
AcDbEntity
8
0
100
AcDbLine
10
107.83787744375698
20
-134.55202074397556
30
8.8956619834265202e-15
11
117.60039861274669
21
-134.555731726598
31
0
0
ARC
5
131
100
AcDbEntity
8
0
100
AcDbCircle
10
117.60001849274653
20
-135.55573158235237
30
8.8592777441812849e-32
40
0.99999992799997273
210
1.0550450166973709e-20
220
2.7755573610410171e-17
230
1
100
AcDbArc
50
0
51
89.97822072618979
0
LINE
5
132
100
AcDbEntity
8
0
100
AcDbLine
10
118.60001842074651
20
-135.55573158272705
30
-1.0550439007601247e-20
11
118.60001849274674
21
-148.55573158235254
31
4.4408920985006262e-15
0
ARC
5
133
100
AcDbEntity
8
0
100
AcDbCircle
10
117.60001849274667
20
-148.55573158235245
30
4.4408920985006262e-15
40
1.000000000000034
210
-2.6685311914895015e-30
220
1.0143648738112824e-33
230
1
100
AcDbArc
50
269.97822066928046
51
360
0
LINE
5
134
100
AcDbEntity
8
0
100
AcDbLine
10
117.59963837172589
20
-149.55573151010648
30
4.4408920985006262e-15
11
107.83711720174692
21
-149.55202051810625
31
1.3877787058413933e-17
0
LWPOLYLINE
5
135
100
AcDbEntity
8
0
100
AcDbPolyline
90
11
70
1
43
0.0
10
224.78125342674628
20
-135.55573158235262
10
224.78125342674576
20
-149.5557437890599
42
0.41421354957182116
10
225.7812533827462
20
-150.55574378935316
10
237.78125342665632
20
-150.55574378935256
42
0.41421356239942136
10
238.7812534267461
20
-149.55574378935259
10
238.78125342674616
20
-137.55574378935259
42
0.41421356237311063
10
237.78125342674613
20
-136.55574378935259
10
232.90001849174615
20
-136.55574378935259
10
232.90001849174615
20
-135.55573158235259
42
0.41421356237315227
10
231.90001849174621
20
-134.55573158235259
10
225.78125342674622
20
-134.55573158235262
42
0.41421356237310542
0
LWPOLYLINE
5
136
100
AcDbEntity
8
0
100
AcDbPolyline
90
8
70
1
43
0.0
10
260.21245154674597
20
-130.48665885435258
10
260.21245154674614
20
-118.48665885476322
42
0.4142135624932804
10
259.21245154674602
20
-117.48665885435304
10
247.21245154674608
20
-117.48665885435265
42
0.41421356237307944
10
246.21245154674611
20
-118.48665885435267
10
246.21245154674568
20
-130.48665885453278
42
0.41421356232061929
10
247.21245154674605
20
-131.4866588543531
10
259.21245154674602
20
-131.48665885435281
42
0.41421356237317308
0
LWPOLYLINE
5
137
100
AcDbEntity
8
0
100
AcDbPolyline
90
8
70
1
43
0.0
10
212.85000952974627
20
-134.55202064435258
42
-0.41421356237310025
10
213.85000952974627
20
-135.55202064435261
10
213.85000952974627
20
-148.55202064435258
42
-0.41421356239938495
10
212.85000952965646
20
-149.55202064435252
10
207.85000948574631
20
-149.55202064435258
42
-0.41421354949017319
10
206.85000952974607
20
-148.55202064433837
10
206.85000952974627
20
-135.55202064435261
42
-0.414213562373069
10
207.85000952974627
20
-134.55202064435261
0
LWPOLYLINE
5
138
100
AcDbEntity
8
0
100
AcDbPolyline
90
8
70
1
43
0.0
10
310.21875342674565
20
-149.55574383235262
42
-0.41421343789348264
10
309.21875385174582
20
-150.5557438323525
10
294.83751891574576
20
-150.55575603935262
42
-0.41421368645553441
10
293.83751849174564
20
-149.55575603970902
10
293.83751849174587
20
-137.55575603935259
42
-0.41421343818634981
10
294.83751806774569
20
-136.5557560393527
10
309.21875295874571
20
-136.55574383235268
42
-0.4142136931921056
10
310.21875342674565
20
-137.555743810997
0
LWPOLYLINE
5
139
100
AcDbEntity
8
0
100
AcDbPolyline
90
21
70
1
43
0.0
10
66.244188301747087
20
-132.48664662535259
42
-0.41421356237294937
10
65.244188301746988
20
-133.48664662535208
10
60.244188301747101
20
-133.48664662535256
42
-0.41421356232062972
10
59.244188301746703
20
-132.48664662553185
10
59.244188301747165
20
-131.48664662535253
10
42.368241847747157
20
-131.48664356835252
10
42.368211739747188
20
-131.49439732835253
10
42.368211739747181
20
-132.48664663635256
42
-0.4142135591513188
10
41.368211739747267
20
-133.48664662535276
10
36.368211739747231
20
-133.48664662535259
42
-0.41421356232036438
10
35.368211739747537
20
-132.48664662553185
10
35.368211739747252
20
-131.48664662535253
10
35.282445442747303
20
-131.48664662535256
42
-0.41421356232037737
10
34.282445442747758
20
-130.48664662553193
10
34.282445442747303
20
-118.48664664735256
42
-0.41421356237307555
10
35.282445442747324
20
-117.48664664735259
10
68.712445442747196
20
-117.48664664735256
42
-0.41421356249320235
10
69.712445442747168
20
-118.4866466477628
10
69.712445442747097
20
-130.48664664735259
42
-0.41421356237293633
10
68.712445442747068
20
-131.48664664735216
10
66.244188301747101
20
-131.48664664735256
0
LWPOLYLINE
5
140
100
AcDbEntity
8
0
100
AcDbPolyline
90
8
70
1
43
0.0
10
83.99995154674707
20
-73.355762143352607
42
-0.41421356237316009
10
82.999951546747027
20
-74.355762143352763
10
70.99995154674717
20
-74.355762143352223
42
-0.41421356237319651
10
69.999951546746715
20
-73.355762143352223
10
69.999951546747226
20
-61.35576214335255
42
-0.41421356237309764
10
70.999951546747241
20
-60.355762143352592
10
82.999951546747155
20
-60.355762143352592
42
-0.4142135624931893
10
83.99995154674707
20
-61.355762143762853
0
LWPOLYLINE
5
141
100
AcDbEntity
8
0
100
AcDbPolyline
90
8
70
1
43
0.0
10
180.53745154674652
20
-112.43665885435236
42
-0.41421356232048401
10
179.53745154674667
20
-111.43665885453194
10
179.5374515467465
20
-99.436658854352629
42
-0.41421356237309503
10
180.53745154674647
20
-98.436658854352586
10
192.53745154674641
20
-98.436658854352501
42
-0.41421356249326474
10
193.53745154674652
20
-99.436658854762726
10
193.53745154674638
20
-111.4366588543526
42
-0.41421356237323032
10
192.53745154674641
20
-112.43665885435304
0
LWPOLYLINE
5
142
100
AcDbEntity
8
0
100
AcDbPolyline
90
8
70
1
43
0.0
10
150.67687034274681
20
-49.524158854352635
10
150.67687034274678
20
-37.524158854352656
42
0.41421356237310414
10
149.67687034274681
20
-36.524158854352649
10
137.67687034274681
20
-36.524158854352635
42
0.41421356237308593
10
136.67687034274678
20
-37.524158854352635
10
136.67687034274624
20
-49.52415885476249
42
0.4142135622530736
10
137.67687034274681
20
-50.524158854352635
10
149.67687034274681
20
-50.524158854352351
42
0.414213562373004
0
LWPOLYLINE
5
143
100
AcDbEntity
8
0
100
AcDbPolyline
90
10
70
1
43
0.0
10
168.73138621875194
20
-150.53665077520674
42
-0.0015925197356436614
10
168.72501618828198
20
-150.53667106135271
10
154.34375112274654
20
-150.53665885435254
42
-0.41421344458542281
10
153.34375154674632
20
-149.53665883250488
10
153.34375154674657
20
-137.53665885435259
42
-0.41421356237304302
10
154.3437515467466
20
-136.53665885435254
10
178.2500032337465
20
-136.53665885435257
42
-0.41421356237309503
10
179.25000323374647
20
-137.53665885435257
10
179.25000323374638
20
-149.53665885435259
42
-0.41421356237310025
10
178.25000323374641
20
-150.53665885435262
0
LWPOLYLINE
5
144
100
AcDbEntity
8
0
100
AcDbPolyline
90
8
70
1
43
0.0
10
194.82495154674643
20
-93.38665885435303
42
-0.41421356237301699
10
193.82495154674672
20
-92.386658854353072
10
193.82495154674649
20
-80.38665885435266
42
-0.41421356237310025
10
194.82495154674643
20
-79.386658854352632
10
206.82495154674641
20
-79.38665885435222
42
-0.41421356249322833
10
207.82495154674626
20
-80.386658854762473
10
207.82495154674635
20
-92.386658854352589
42
-0.41421356237321988
10
206.82495154674638
20
-93.386658854353044
0
LWPOLYLINE
5
145
100
AcDbEntity
8
0
100
AcDbPolyline
90
8
70
1
43
0.0
10
231.64032974074627
20
-49.524158854352649
42
-0.41421356237306384
10
230.64032974074624
20
-50.524158854352486
10
218.64032974074632
20
-50.524158854352599
42
-0.41421356237302737
10
217.64032974074644
20
-49.524158854352606
10
217.64032974074632
20
-37.524158854352656
42
-0.41421356237310025
10
218.6403297407463
20
-36.524158854352656
10
230.64032974074621
20
-36.524158854352621
42
-0.41421356237312101
10
231.6403297407463
20
-37.524158854352613
0
LWPOLYLINE
5
146
100
AcDbEntity
8
0
100
AcDbPolyline
90
8
70
1
43
0.0
10
354.46245154674563
20
-60.336658854352464
10
342.46245154674563
20
-60.336658854352692
42
0.41421356237307683
10
341.46245154674568
20
-61.33665885435267
10
341.46245154674597
20
-73.336658854352748
42
0.41421356237293633
10
342.46245154674557
20
-74.336658854352763
10
354.46245154674551
20
-74.336658854352237
42
0.41421356237291812
10
355.46245154674551
20
-73.336658854352692
10
355.46245154674546
20
-61.336658854762703
42
0.41421356249317892
0
LWPOLYLINE
5
147
100
AcDbEntity
8
0
100
AcDbPolyline
90
8
70
1
43
0.0
10
103.049951546747
20
-73.355762143352621
10
103.04995154674705
20
-61.355762143762874
42
0.41421356249322316
10
102.049951546747
20
-60.355762143352614
10
90.049951546747081
20
-60.355762143352585
42
0.41421356237308982
10
89.049951546747067
20
-61.355762143352557
10
89.049951546746826
20
-73.355762143352209
42
0.41421356237310802
10
90.049951546747053
20
-74.355762143352194
10
102.04995154674698
20
-74.355762143352635
42
0.41421356237307422
0
LWPOLYLINE
5
148
100
AcDbEntity
8
0
100
AcDbPolyline
90
8
70
1
43
0.0
10
94.813410944747034
20
-50.524158854352223
10
106.81341094474701
20
-50.524158854352692
42
0.41421356237311324
10
107.81341094474703
20
-49.524158854352613
10
107.81341094474701
20
-37.524158854352599
42
0.41421356237309892
10
106.81341094474698
20
-36.524158854352592
10
94.813410944747019
20
-36.524158854352621
42
0.41421356237307294
10
93.813410944747005
20
-37.524158854352635
10
93.813410944747403
20
-49.524158854762412
42
0.41421356225279005
0
LWPOLYLINE
5
149
100
AcDbEntity
8
0
100
AcDbPolyline
90
8
70
1
43
0.0
10
88.763410944747051
20
-49.524158854352613
10
88.763410944747037
20
-37.524158854352677
42
0.41421356237306639
10
87.763410944747093
20
-36.524158854352649
10
75.763410944747207
20
-36.524158854352606
42
0.41421356237307422
10
74.763410944747207
20
-37.524158854352628
10
74.763410944747349
20
-49.524158854762291
42
0.41421356225287848
10
75.763410944747108
20
-50.524158854352173
10
87.763410944747051
20
-50.524158854352414
42
0.41421356237306384
0
LWPOLYLINE
5
150
100
AcDbEntity
8
0
100
AcDbPolyline
90
21
70
1
43
0.0
10
280.54993323574593
20
-74.336652750352684
42
-0.41421356232038775
10
279.54993323574627
20
-73.336652750532338
10
279.54993323574593
20
-61.336652750352634
42
-0.41421356237311585
10
280.54993323574593
20
-60.336652750352648
10
311.59993323574577
20
-60.336652750352641
42
-0.41421355597239307
10
312.59993323574554
20
-61.336652728499715
10
312.59993323574577
20
-73.33665275035267
42
-0.41421356237309503
10
311.59993323574577
20
-74.336652750352641
10
311.51293372374579
20
-74.336652750352656
10
311.51293372374585
20
-75.33665275035267
42
-0.41421356237306384
10
310.51293372374579
20
-76.336652750352641
10
305.51293372374579
20
-76.336652750352656
42
-0.41421356232055684
10
304.51293372374556
20
-75.336652750532366
10
304.51293372374573
20
-74.336652750352656
10
287.6369872457459
20
-74.336652750352656
10
287.6369571617459
20
-74.344403454352658
10
287.6369571617459
20
-75.336652750352656
42
-0.41421356237298318
10
286.63695716174584
20
-76.3366527503523
10
281.6369571617459
20
-76.336652750352684
42
-0.41421356232051265
10
280.63695716174584
20
-75.336652750532366
10
280.6369571617459
20
-74.336652750352656
0
LWPOLYLINE
5
151
100
AcDbEntity
8
0
100
AcDbPolyline
90
8
70
1
43
0.0
10
56.713410944747302
20
-50.524158854352599
10
68.713410944747181
20
-50.524158854352109
42
0.41421356237293372
10
69.713410944747224
20
-49.524158854352606
10
69.713410944747224
20
-37.524158854352649
42
0.41421356237308071
10
68.71341094474721
20
-36.524158854352613
10
56.713410944747295
20
-36.524158854352606
42
0.41421356237309503
10
55.713410944747281
20
-37.524158854352613
10
55.713410944747501
20
-49.524158854762433
42
0.41421356225286288
0
LWPOLYLINE
5
152
100
AcDbEntity
8
0
100
AcDbPolyline
90
8
70
1
43
0.0
10
250.97495154674613
20
-80.386658854352618
42
-0.41421356237311585
10
251.97495154674613
20
-79.386658854352618
10
263.97495154674601
20
-79.386658854352632
42
-0.41421356237309503
10
264.97495154674607
20
-80.386658854352646
10
264.97495154674601
20
-92.386658854352603
42
-0.41421356237318868
10
263.97495154674601
20
-93.386658854352987
10
251.97495154674607
20
-93.386658854352689
42
-0.41421356232057249
10
250.9749515467459
20
-92.386658854532286
0
LWPOLYLINE
5
153
100
AcDbEntity
8
0
100
AcDbPolyline
90
8
70
1
43
0.0
10
268.74032974074612
20
-36.524158854352642
10
256.74032974074618
20
-36.52415885435267
42
0.41421356237310675
10
255.74032974074618
20
-37.52415885435267
10
255.74032974074598
20
-49.524158854762547
42
0.41421356225303196
10
256.74032974074618
20
-50.524158854352315
10
268.74032974074612
20
-50.524158854353033
42
0.41421356237321472
10
269.74032974074612
20
-49.524158854352649
10
269.74032974074612
20
-37.524158854352621
42
0.41421356237311452
0
LWPOLYLINE
5
154
100
AcDbEntity
8
0
100
AcDbPolyline
90
8
70
1
43
0.0
10
336.41245154674561
20
-149.53665885435262
10
336.41245154674516
20
-137.53665885476246
42
0.41421356249316593
10
335.4124515467455
20
-136.53665885435225
10
323.41245154674561
20
-136.53665885435262
42
0.41421356237307944
10
322.41245154674561
20
-137.53665885435265
10
322.4124515467451
20
-149.53665885435231
42
0.41421356237327195
10
323.4124515467455
20
-150.53665885435228
10
335.41245154674561
20
-150.53665885435265
42
0.41421356237308982
0
LWPOLYLINE
5
155
100
AcDbEntity
8
0
100
AcDbPolyline
90
8
70
1
43
0.0
10
341.46245154674568
20
-137.53665885435265
42
-0.41421356237314705
10
342.46245154674563
20
-136.53665885435265
10
354.46245154674551
20
-136.53665885435217
42
-0.41421356249313468
10
355.46245154674489
20
-137.53665885476238
10
355.46245154674551
20
-149.53665885435262
42
-0.41421356237311063
10
354.46245154674557
20
-150.53665885435259
10
342.46245154674557
20
-150.53665885435237
42
-0.41421356237295975
10
341.46245154674591
20
-149.53665885435231
0
LWPOLYLINE
5
156
100
AcDbEntity
8
0
100
AcDbPolyline
90
8
70
1
43
0.0
10
226.87495154674625
20
-92.386658854352618
42
-0.41421356237301177
10
225.8749515467463
20
-93.386658854352419
10
213.87495154674633
20
-93.386658854353044
42
-0.41421356237324591
10
212.87495154674576
20
-92.386658854353044
10
212.87495154674639
20
-80.386658854352632
42
-0.41421356237307422
10
213.87495154674636
20
-79.386658854352589
10
225.87495154674627
20
-79.386658854352106
42
-0.41421356249316071
10
226.87495154674588
20
-80.386658854762288
0
LWPOLYLINE
5
157
100
AcDbEntity
8
0
100
AcDbPolyline
90
8
70
1
43
0.0
10
155.72495154674664
20
-80.386658854352589
42
-0.4142135623730846
10
156.72495154674667
20
-79.386658854352618
10
168.72495154674658
20
-79.386658854352646
42
-0.41421356249326996
10
169.72495154674669
20
-80.386658854762899
10
169.72495154674661
20
-92.386658854352603
42
-0.41421356237313667
10
168.72495154674658
20
-93.386658854352746
10
156.72495154674667
20
-93.386658854353058
42
-0.41421356237315227
10
155.7249515467463
20
-92.386658854353101
0
LWPOLYLINE
5
158
100
AcDbEntity
8
0
100
AcDbPolyline
90
8
70
1
43
0.0
10
355.46245154674568
20
-92.386658854352675
42
-0.41421356237307422
10
354.46245154674551
20
-93.386658854352461
10
342.46245154674557
20
-93.386658854353016
42
-0.41421356237298057
10
341.46245154674591
20
-92.38665885435303
10
341.46245154674557
20
-80.386658854352675
42
-0.41421356237308982
10
342.46245154674563
20
-79.386658854352646
10
354.46245154674557
20
-79.386658854352291
42
-0.41421356249320751
10
355.46245154674551
20
-80.386658854762544
0
LWPOLYLINE
5
159
100
AcDbEntity
8
0
100
AcDbPolyline
90
8
70
1
43
0.0
10
373.51245154674552
20
-136.5366588543522
42
-0.41421356249329599
10
374.51245154674564
20
-137.53665885476246
10
374.51245154674547
20
-149.53665885435265
42
-0.41421356237310025
10
373.51245154674552
20
-150.53665885435262
10
361.51245154674541
20
-150.5366588543524
42
-0.41421356237309503
10
360.51245154674564
20
-149.53665885435231
10
360.51245154674541
20
-137.53665885435268
42
-0.4142135623730534
10
361.51245154674541
20
-136.53665885435268
0
LWPOLYLINE
5
160
100
AcDbEntity
8
0
100
AcDbPolyline
90
8
70
1
43
0.0
10
190.06245154674642
20
-131.48665885435213
42
-0.41421356232046319
10
189.0624515467465
20
-130.48665885453178
10
189.06245154674644
20
-118.4866588543526
42
-0.41421356237310542
10
190.06245154674642
20
-117.4866588543526
10
202.06245154674636
20
-117.48665885435295
42
-0.41421356249336361
10
203.0624515467467
20
-118.48665885476314
10
203.06245154674642
20
-130.48665885435258
42
-0.41421356237323553
10
202.06245154674636
20
-131.48665885435304
0
LWPOLYLINE
5
161
100
AcDbEntity
8
0
100
AcDbPolyline
90
8
70
1
43
0.0
10
342.46245154674557
20
-131.48665885435315
10
354.46245154674551
20
-131.48665885435221
42
0.41421356237293372
10
355.46245154674534
20
-130.48665885435264
10
355.46245154674529
20
-118.48665885476331
42
0.41421356249323354
10
354.46245154674551
20
-117.48665885435308
10
342.46245154674557
20
-117.48665885435265
42
0.41421356237307944
10
341.46245154674557
20
-118.48665885435265
10
341.46245154674591
20
-130.48665885435315
42
0.4142135623730534
0
LWPOLYLINE
5
162
100
AcDbEntity
8
0
100
AcDbPolyline
90
8
70
1
43
0.0
10
111.57495154674683
20
-79.386658854352589
42
-0.41421356249322833
10
112.57495154674689
20
-80.386658854762786
10
112.57495154674685
20
-92.386658854352561
42
-0.4142135623732095
10
111.57495154674679
20
-93.386658854353044
10
99.574951546746874
20
-93.38665885435303
42
-0.41421356237314705
10
98.57495154674686
20
-92.386658854353016
10
98.574951546747016
20
-80.386658854352632
42
-0.41421356237309503
10
99.574951546746973
20
-79.386658854352589
0
LWPOLYLINE
5
163
100
AcDbEntity
8
0
100
AcDbPolyline
90
8
70
1
43
0.0
10
187.77495154674648
20
-79.386658854352248
42
-0.41421356249321273
10
188.77495154674634
20
-80.386658854762501
10
188.77495154674645
20
-92.386658854352603
42
-0.41421356237315227
10
187.77495154674648
20
-93.386658854352916
10
175.77495154674654
20
-93.38665885435303
42
-0.41421356237311585
10
174.77495154674645
20
-92.386658854353087
10
174.77495154674656
20
-80.38665885435266
42
-0.4142135623730846
10
175.77495154674651
20
-79.386658854352618
0
LWPOLYLINE
5
164
100
AcDbEntity
8
0
100
AcDbPolyline
90
8
70
1
43
0.0
10
270.02495154674602
20
-80.386658854352632
42
-0.41421356237310025
10
271.02495154674602
20
-79.386658854352632
10
283.02495154674597
20
-79.386658854352675
42
-0.41421356237313667
10
284.02495154674597
20
-80.386658854352675
10
284.02495154674591
20
-92.386658854352646
42
-0.41421356237298057
10
283.02495154674591
20
-93.386658854352277
10
271.02495154674602
20
-93.386658854352731
42
-0.41421356232052042
10
270.02495154674608
20
-92.386658854532314
0
LWPOLYLINE
5
165
100
AcDbEntity
8
0
100
AcDbPolyline
90
8
70
1
43
0.0
10
240.16245154674613
20
-117.48665885435302
42
-0.41421356249312946
10
241.16245154674567
20
-118.48665885476322
10
241.16245154674607
20
-130.48665885435258
42
-0.41421356237310025
10
240.1624515467461
20
-131.48665885435258
10
228.16245154674615
20
-131.48665885435312
42
-0.41421356232045281
10
227.1624515467463
20
-130.48665885453272
10
227.16245154674627
20
-118.48665885435265
42
-0.41421356237313145
10
228.16245154674618
20
-117.48665885435261
0
LWPOLYLINE
5
166
100
AcDbEntity
8
0
100
AcDbPolyline
90
8
70
1
43
0.0
10
163.96245154674654
20
-117.48665885435294
10
151.96245154674659
20
-117.4866588543526
42
0.41421356237304302
10
150.96245154674659
20
-118.4866588543526
10
150.96245154674631
20
-130.48665885453192
42
0.41421356232054124
10
151.96245154674656
20
-131.48665885435233
10
163.96245154674654
20
-131.4866588543525
42
0.41421356237309503
10
164.96245154674651
20
-130.48665885435258
10
164.96245154674679
20
-118.48665885476319
42
0.41421356249333763
0
LWPOLYLINE
5
167
100
AcDbEntity
8
0
100
AcDbPolyline
90
8
70
1
43
0.0
10
209.11245154674629
20
-131.48665885435204
10
221.11245154674629
20
-131.4866588543523
42
0.41421356237301699
10
222.11245154674626
20
-130.48665885435261
10
222.11245154674614
20
-118.48665885476316
42
0.41421356249323876
10
221.11245154674629
20
-117.48665885435295
10
209.11245154674623
20
-117.48665885435258
42
0.41421356237313667
10
208.11245154674626
20
-118.48665885435264
10
208.11245154674592
20
-130.48665885453173
42
0.41421356232060369
0
LWPOLYLINE
5
168
100
AcDbEntity
8
0
100
AcDbPolyline
90
8
70
1
43
0.0
10
274.49995154674593
20
-73.336658854352649
42
-0.4142135623732407
10
273.49995154674599
20
-74.336658854353118
10
261.49995154674605
20
-74.336658854352976
42
-0.41421356232036954
10
260.49995154674639
20
-73.336658854532558
10
260.49995154674605
20
-61.336658854352649
42
-0.41421356237311324
10
261.49995154674605
20
-60.336658854352656
10
273.49995154674593
20
-60.336658854352422
42
-0.41421356249320235
10
274.49995154674576
20
-61.336658854762653
0
LWPOLYLINE
5
169
100
AcDbEntity
8
0
100
AcDbPolyline
90
8
70
1
43
0.0
10
245.92495154674617
20
-92.386658854352618
10
245.92495154674634
20
-80.386658854762288
42
0.41421356249325436
10
244.92495154674617
20
-79.386658854352078
10
232.92495154674629
20
-79.386658854352589
42
0.41421356237311585
10
231.92495154674631
20
-80.386658854352646
10
231.92495154674589
20
-92.386658854353072
42
0.41421356237315227
10
232.92495154674617
20
-93.38665885435303
10
244.92495154674614
20
-93.386658854352817
42
0.41421356237313145
0
LWPOLYLINE
5
170
100
AcDbEntity
8
0
100
AcDbPolyline
90
8
70
1
43
0.0
10
188.77687034274655
20
-49.524158854352649
10
188.77687034274655
20
-37.524158854352521
42
0.41421356237314055
10
187.77687034274646
20
-36.524158854352521
10
175.77687034274658
20
-36.524158854352656
42
0.4142135623730781
10
174.77687034274655
20
-37.524158854352663
10
174.77687034274612
20
-49.524158854762533
42
0.41421356225303974
10
175.77687034274661
20
-50.524158854352322
10
187.77687034274652
20
-50.524158854352933
42
0.41421356237319129
0
LWPOLYLINE
5
171
100
AcDbEntity
8
0
100
AcDbPolyline
90
8
70
1
43
0.0
10
78.237451546747096
20
-98.436658854352572
42
-0.41421356249325175
10
79.237451546747138
20
-99.436658854762811
10
79.237451546747138
20
-111.43665885435254
42
-0.41421356237299356
10
78.237451546747124
20
-112.43665885435226
10
66.23745154674711
20
-112.43665885435234
42
-0.41421356232041379
10
65.237451546747465
20
-111.4366588545319
10
65.237451546747153
20
-99.436658854352586
42
-0.41421356237307683
10
66.237451546747138
20
-98.436658854352558
0
LWPOLYLINE
5
172
100
AcDbEntity
8
0
100
AcDbPolyline
90
8
70
1
43
0.0
10
237.69032974074628
20
-50.524158854352322
42
-0.41421356225284728
10
236.69032974074656
20
-49.524158854762547
10
236.69032974074625
20
-37.524158854352663
42
-0.41421356237311846
10
237.69032974074628
20
-36.524158854352649
10
249.69032974074619
20
-36.524158854352628
42
-0.41421356237311974
10
250.69032974074622
20
-37.524158854352621
10
250.69032974074619
20
-49.524158854352649
42
-0.41421356237316265
10
249.69032974074619
20
-50.524158854352763
0
LWPOLYLINE
5
173
100
AcDbEntity
8
0
100
AcDbPolyline
90
8
70
1
43
0.0
10
193.8268703427465
20
-37.524158854352677
10
193.82687034274659
20
-49.524158854762554
42
0.41421356225293049
10
194.8268703427465
20
-50.524158854352308
10
206.82687034274642
20
-50.524158854352123
42
0.41421356237293894
10
207.82687034274645
20
-49.524158854352635
10
207.82687034274642
20
-37.524158854352592
42
0.41421356237311713
10
206.82687034274642
20
-36.524158854352599
10
194.8268703427465
20
-36.524158854352663
42
0.41421356237309115
0
LWPOLYLINE
5
174
100
AcDbEntity
8
0
100
AcDbPolyline
90
8
70
1
43
0.0
10
212.58745154674637
20
-111.43665885435256
10
212.587451546746
20
-99.436658854762669
42
0.41421356249316593
10
211.58745154674625
20
-98.436658854352501
10
199.58745154674642
20
-98.436658854352586
42
0.41421356237307944
10
198.58745154674642
20
-99.436658854352629
10
198.58745154674651
20
-111.4366588545319
42
0.41421356232045281
10
199.58745154674637
20
-112.43665885435234
10
211.58745154674634
20
-112.43665885435219
42
0.41421356237299617
0
LWPOLYLINE
5
175
100
AcDbEntity
8
0
100
AcDbPolyline
90
8
70
1
43
0.0
10
168.72687034274665
20
-36.524158854352628
10
156.72687034274668
20
-36.524158854352635
42
0.41421356237308071
10
155.72687034274668
20
-37.524158854352663
10
155.72687034274668
20
-49.524158854762412
42
0.41421356225296174
10
156.72687034274668
20
-50.524158854352244
10
168.72687034274665
20
-50.524158854352528
42
0.41421356237308721
10
169.72687034274662
20
-49.524158854352635
10
169.72687034274657
20
-37.524158854352628
42
0.41421356237303908
0
LWPOLYLINE
5
176
100
AcDbEntity
8
0
100
AcDbPolyline
90
8
70
1
43
0.0
10
274.79032974074602
20
-37.524158854352677
10
274.79032974074642
20
-49.524158854762518
42
0.41421356225280825
10
275.79032974074596
20
-50.524158854352301
10
287.7903297407459
20
-50.524158854352343
42
0.41421356237302481
10
288.7903297407459
20
-49.524158854352656
10
288.7903297407459
20
-37.52415885435267
42
0.41421356237309892
10
287.7903297407459
20
-36.524158854352685
10
275.79032974074602
20
-36.52415885435267
42
0.41421356237313145
0
LWPOLYLINE
5
177
100
AcDbEntity
8
0
100
AcDbPolyline
90
8
70
1
43
0.0
10
285.40625295874588
20
-136.55574383235265
10
271.02501806774598
20
-136.55575603935267
42
0.41421343818634981
10
270.02501849174598
20
-137.55575603935259
10
270.02501849174615
20
-149.55575603970908
42
0.41421368645544598
10
271.02501891574593
20
-150.55575603935256
10
285.40625385174587
20
-150.5557438323525
42
0.41421343789348264
10
286.40625342674571
20
-149.55574383235262
10
286.40625342674531
20
-137.55574381099643
42
0.41421369319199114
0
LWPOLYLINE
5
178
100
AcDbEntity
8
0
100
AcDbPolyline
90
8
70
1
43
0.0
10
31.899951546747335
20
-61.355762143352585
42
-0.41421356237310936
10
32.899951546747374
20
-60.355762143352621
10
44.899951546747303
20
-60.355762143352614
42
-0.41421356249326219
10
45.89995154674731
20
-61.35576214376286
10
45.899951546747211
20
-73.355762143352607
42
-0.41421356237319129
10
44.899951546747204
20
-74.355762143352962
10
32.899951546747317
20
-74.355762143352209
42
-0.41421356237308332
10
31.8999515467473
20
-73.355762143352237
0
LWPOLYLINE
5
179
100
AcDbEntity
8
0
100
AcDbPolyline
90
8
70
1
43
0.0
10
80.524951546747047
20
-93.386658854352973
10
92.524951546746934
20
-93.38665885435249
42
0.41421356237311063
10
93.524951546747047
20
-92.386658854352589
10
93.524951546747047
20
-80.386658854762828
42
0.41421356249324393
10
92.524951546746991
20
-79.386658854352618
10
80.524951546747033
20
-79.386658854352575
42
0.41421356237306384
10
79.52495154674709
20
-80.386658854352632
10
79.524951546746706
20
-92.386658854353016
42
0.41421356237316265
0
LWPOLYLINE
5
180
100
AcDbEntity
8
0
100
AcDbPolyline
90
8
70
1
43
0.0
10
112.86245154674683
20
-118.48665885435258
10
112.8624515467466
20
-130.48665885453192
42
0.41421356232051004
10
113.86245154674675
20
-131.48665885435233
10
125.86245154674678
20
-131.48665885435301
42
0.41421356237314183
10
126.86245154674674
20
-130.48665885435258
10
126.86245154674678
20
-118.48665885476277
42
0.41421356249322833
10
125.86245154674671
20
-117.48665885435258
10
113.86245154674685
20
-117.48665885435256
42
0.41421356237307944
0
LWPOLYLINE
5
181
100
AcDbEntity
8
0
100
AcDbPolyline
90
8
70
1
43
0.0
10
36.662451546747306
20
-80.386658854352561
42
-0.41421356237312623
10
37.662451546747285
20
-79.386658854352575
10
49.66245154674727
20
-79.386658854352561
42
-0.41421356249318153
10
50.662451546747263
20
-80.386658854762771
10
50.662451546747263
20
-92.386658854352547
42
-0.41421356237297535
10
49.662451546747164
20
-93.386658854352106
10
37.662451546747192
20
-93.386658854352959
42
-0.4142135623730287
10
36.662451546747313
20
-92.386658854352959
0
LWPOLYLINE
5
182
100
AcDbEntity
8
0
100
AcDbPolyline
90
8
70
1
43
0.0
10
64.949951546747201
20
-73.355762143352607
42
-0.414213562373069
10
63.949951546747137
20
-74.355762143352507
10
51.949951546747215
20
-74.355762143352194
42
-0.41421356237301959
10
50.949951546747521
20
-73.355762143352223
10
50.949951546747286
20
-61.355762143352557
42
-0.41421356237308204
10
51.9499515467473
20
-60.355762143352585
10
63.949951546747158
20
-60.355762143352656
42
-0.41421356249323354
10
64.949951546747272
20
-61.355762143762853
0
LWPOLYLINE
5
183
100
AcDbEntity
8
0
100
AcDbPolyline
90
8
70
1
43
0.0
10
136.38745154674677
20
-111.43665885435261
42
-0.41421356237317308
10
135.38745154674672
20
-112.436658854353
10
123.3874515467468
20
-112.43665885435234
42
-0.41421356232040596
10
122.387451546747
20
-111.4366588545319
10
122.38745154674682
20
-99.436658854352601
42
-0.41421356237308982
10
123.38745154674683
20
-98.436658854352572
10
135.38745154674672
20
-98.436658854352501
42
-0.41421356249322316
10
136.38745154674675
20
-99.436658854762712
0
LWPOLYLINE
5
184
100
AcDbEntity
8
0
100
AcDbPolyline
90
8
70
1
43
0.0
10
126.86341094474696
20
-49.524158854352621
42
-0.41421356237316265
10
125.86341094474692
20
-50.524158854352947
10
113.86341094474686
20
-50.524158854352223
42
-0.41421356225289407
10
112.8634109447468
20
-49.524158854762383
10
112.86341094474695
20
-37.524158854352642
42
-0.41421356237309892
10
113.86341094474696
20
-36.524158854352621
10
125.86341094474682
20
-36.524158854352628
42
-0.41421356237313534
10
126.86341094474697
20
-37.524158854352635
0
LWPOLYLINE
5
185
100
AcDbEntity
8
0
100
AcDbPolyline
90
8
70
1
43
0.0
10
97.287518915746944
20
-136.55575603935256
42
-0.41421343825748291
10
98.287518491746852
20
-137.55575603959539
10
98.287518491746866
20
-149.55575603935259
42
-0.4142136865598251
10
97.287518067746902
20
-150.55575603935242
10
82.906253002746894
20
-150.55574383235262
42
-0.41421343807424449
10
81.906253426747483
20
-149.55574383273526
10
81.906253426746915
20
-137.55574383235256
42
-0.4142136868527132
10
82.906253851747223
20
-136.55574383235265
0
LWPOLYLINE
5
186
100
AcDbEntity
8
0
100
AcDbPolyline
90
8
70
1
43
0.0
10
85.287451546746937
20
-112.43665885435233
42
-0.41421356232039036
10
84.287451546747363
20
-111.43665885453188
10
84.287451546747036
20
-99.436658854352586
42
-0.41421356237308982
10
85.287451546747064
20
-98.436658854352586
10
97.287451546747008
20
-98.436658854352643
42
-0.41421356249319191
10
98.287451546746894
20
-99.43665885476284
10
98.287451546747036
20
-111.43665885435257
42
-0.41421356237305862
10
97.287451546746922
20
-112.43665885435249
0
LWPOLYLINE
5
187
100
AcDbEntity
8
0
100
AcDbPolyline
90
8
70
1
43
0.0
10
149.67495154674671
20
-79.386658854352618
10
137.67495154674674
20
-79.386658854352603
42
0.41421356237305862
10
136.67495154674671
20
-80.386658854352646
10
136.67495154674717
20
-92.386658854353016
42
0.41421356237294416
10
137.67495154674674
20
-93.386658854352959
10
149.67495154674663
20
-93.386658854352703
42
0.41421356237313145
10
150.67495154674671
20
-92.386658854352603
10
150.67495154674677
20
-80.386658854762899
42
0.41421356249327518
0
LWPOLYLINE
5
188
100
AcDbEntity
8
0
100
AcDbPolyline
90
8
70
1
43
0.0
10
374.51245154674547
20
-73.336658854352677
42
-0.41421356237304563
10
373.51245154674541
20
-74.336658854352521
10
361.51245154674547
20
-74.336658854352777
42
-0.41421356237303519
10
360.51245154674569
20
-73.336658854352763
10
360.51245154674547
20
-61.336658854352663
42
-0.41421356237307683
10
361.51245154674547
20
-60.336658854352677
10
373.51245154674552
20
-60.336658854352493
42
-0.41421356249321795
10
374.51245154674558
20
-61.336658854762703
0
LWPOLYLINE
5
189
100
AcDbEntity
8
0
100
AcDbPolyline
90
8
70
1
43
0.0
10
374.51245154674541
20
-92.386658854352675
42
-0.41421356237305862
10
373.51245154674541
20
-93.386658854352532
10
361.51245154674552
20
-93.38665885435303
42
-0.41421356237323032
10
360.51245154674496
20
-92.386658854353044
10
360.51245154674547
20
-80.386658854352675
42
-0.41421356237313145
10
361.51245154674552
20
-79.386658854352646
10
373.51245154674541
20
-79.386658854353115
42
-0.41421356249306185
10
374.51245154674496
20
-80.386658854763283
0
LWPOLYLINE
5
190
100
AcDbEntity
8
0
100
AcDbPolyline
90
8
70
1
43
0.0
10
336.41245154674561
20
-92.386658854352675
42
-0.41421356237321988
10
335.41245154674556
20
-93.38665885435303
10
323.41245154674567
20
-93.386658854352987
42
-0.41421356237310542
10
322.41245154674567
20
-92.386658854353016
10
322.41245154674561
20
-80.38665885435266
42
-0.41421356237307944
10
323.4124515467455
20
-79.386658854352646
10
335.41245154674561
20
-79.386658854352277
42
-0.41421356249319713
10
336.41245154674556
20
-80.386658854762558
0
LWPOLYLINE
5
191
100
AcDbEntity
8
0
100
AcDbPolyline
90
8
70
1
43
0.0
10
184.01245154674643
20
-130.48665885435258
42
-0.4142135623731783
10
183.01245154674643
20
-131.48665885435287
10
171.01245154674649
20
-131.48665885435236
42
-0.41421356232062451
10
170.01245154674618
20
-130.48665885453195
10
170.01245154674663
20
-118.48665885435261
42
-0.41421356237317308
10
171.01245154674658
20
-117.4866588543526
10
183.01245154674649
20
-117.48665885435294
42
-0.41421356249317631
10
184.01245154674629
20
-118.48665885476315
0
LWPOLYLINE
5
192
100
AcDbEntity
8
0
100
AcDbPolyline
90
8
70
1
43
0.0
10
131.62495154674679
20
-92.386658854352646
42
-0.4142135623731783
10
130.62495154674673
20
-93.386658854353072
10
118.62495154674683
20
-93.386658854353016
42
-0.4142135623730222
10
117.62495154674696
20
-92.38665885435303
10
117.62495154674683
20
-80.386658854352632
42
-0.41421356237310025
10
118.62495154674683
20
-79.386658854352618
10
130.62495154674679
20
-79.386658854352646
42
-0.41421356249321795
10
131.62495154674681
20
-80.386658854762885
0
LWPOLYLINE
5
193
100
AcDbEntity
8
0
100
AcDbPolyline
90
8
70
1
43
0.0
10
132.91245154674667
20
-131.48665885435238
10
144.91245154674664
20
-131.4866588543523
42
0.41421356237299617
10
145.91245154674667
20
-130.48665885435258
10
145.91245154674641
20
-118.48665885476314
42
0.41421356249312946
10
144.91245154674669
20
-117.486658854353
10
132.91245154674675
20
-117.48665885435257
42
0.41421356237307944
10
131.91245154674672
20
-118.4866588543526
10
131.91245154674638
20
-130.48665885453195
42
0.41421356232054124
0
LWPOLYLINE
5
194
100
AcDbEntity
8
0
100
AcDbPolyline
90
8
70
1
43
0.0
10
116.33745154674679
20
-98.436658854352515
42
-0.41421356249325958
10
117.33745154674691
20
-99.436658854762754
10
117.33745154674681
20
-111.43665885435256
42
-0.41421356237316265
10
116.33745154674673
20
-112.43665885435283
10
104.33745154674689
20
-112.43665885435237
42
-0.41421356232042678
10
103.33745154674715
20
-111.43665885453191
10
103.33745154674693
20
-99.436658854352629
42
-0.41421356237309503
10
104.33745154674691
20
-98.436658854352572
0
LWPOLYLINE
5
195
100
AcDbEntity
8
0
100
AcDbPolyline
90
130
70
1
43
0.0
10
242.18750323374607
20
-156.76165885435265
42
-0.41421356237311585
10
241.6875032337461
20
-157.26165885435262
10
239.60171679574609
20
-157.26165885408881
42
-0.19891236737962326
10
238.89461001474609
20
-156.96876563535261
10
236.4268430615258
20
-154.50099868257291
42
0.19891236737965587
10
235.36618288974614
20
-154.0616588543526
10
85.32132357659529
20
-154.06165885435252
42
0.19891236735340737
10
84.260663404746879
20
-154.50099868235256
10
81.792896451933487
20
-156.96876563553911
42
-0.19891236737967105
10
81.085789670747005
20
-157.26165885435253
10
79.000003233746995
20
-157.26165885435259
42
-0.41421356237306384
10
78.50000323374698
20
-156.76165885435256
10
78.500003233747591
20
-153.23665885496789
42
0.99999999999999989
10
75.500003233747066
20
-153.23665885435261
10
75.500003233746966
20
-156.76165885435256
42
-0.41421356237314183
10
75.000003233747094
20
-157.26165885435253
10
72.91421679574708
20
-157.26165885408878
42
-0.19891236737964774
10
72.207110014746974
20
-156.96876563535261
10
69.739343061526895
20
-154.5009986825728
42
0.19891236737963314
10
68.678682889747051
20
-154.06165885435254
10
31.874951546747276
20
-154.06165885435254
10
28.874951546747262
20
-151.06165885435257
10
28.87495154674739
20
-37.499158854352615
10
31.87495154674739
20
-34.499158854352608
10
52.39113120274672
20
-34.499158854352807
42
0.19891236737975587
10
53.451791374747287
20
-34.059819026352606
10
57.919558327560772
20
-29.592052073166069
42
-0.19891236737964843
10
58.626665108747218
20
-29.299158854352623
10
60.712451546747239
20
-29.299158854352637
42
-0.4142135623730534
10
61.212451546747239
20
-29.799158854352598
10
61.212451546747239
20
-33.74915885496798
42
0.99999999999999989
10
64.212451546747204
20
-33.749158854352657
10
64.212451546747204
20
-29.79915885435263
42
-0.41421356237314966
10
64.712451546747218
20
-29.299158854352637
10
66.798237983747185
20
-29.299158853909351
42
-0.19891236756343428
10
67.505344765747253
20
-29.592052073352647
10
71.9731117179672
20
-34.059819026132004
42
0.19891236737970514
10
73.033771889747158
20
-34.499158854352643
10
138.11613120274754
20
-34.499158854352544
42
0.19891236737957821
10
139.17679137474678
20
-34.059819026352606
10
143.64455832756025
20
-29.592052073166066
42
-0.19891236737961127
10
144.35166510874677
20
-29.299158854352623
10
146.43745154674679
20
-29.299158854352591
42
-0.41421356237316526
10
146.93745154674679
20
-29.799158854352594
10
146.93745154674679
20
-33.749158854968023
42
0.99999999999999989
10
149.93745154674681
20
-33.749158854352608
10
149.93745154674679
20
-29.79915885435263
42
-0.41421356237306123
10
150.43745154674673
20
-29.299158854352623
10
152.5232379837467
20
-29.299158853909315
42
-0.19891236756343542
10
153.23034476574676
20
-29.592052073352633
10
157.69811171796647
20
-34.059819026132004
42
0.19891236737974005
10
158.75877188974673
20
-34.499158854352643
10
223.84113120274637
20
-34.49915885435226
42
0.19891236737959864
10
224.90179137474627
20
-34.059819026352621
10
229.36955832755982
20
-29.592052073166109
42
-0.19891236737968523
10
230.07666510874631
20
-29.299158854352648
10
232.16245154674621
20
-29.299158854352608
42
-0.41421356237313406
10
232.6624515467463
20
-29.799158854352612
10
232.66245154674624
20
-35.324158854621814
42
0.99999999999999989
10
235.66245154674624
20
-35.324158854352689
10
235.66245154674624
20
-29.799158854352662
42
-0.41421356237310802
10
236.1624515467463
20
-29.29915885435268
10
238.24823798374626
20
-29.299158853909404
42
-0.19891236756342665
10
238.95534476574625
20
-29.592052073352679
10
243.42311171796692
20
-34.059819026132018
42
0.19891236737957063
10
244.48377188974618
20
-34.499158854352679
10
308.60378913874581
20
-34.499158854352679
42
-0.41421356237309243
10
309.60378913874587
20
-35.499158854352686
10
309.60378913874587
20
-35.524158854352699
42
-0.41421356237309503
10
308.60378913874581
20
-36.524158854352692
10
299.60378913874592
20
-36.524158854352677
42
0.41421356237309892
10
298.60378913874598
20
-37.524158854352685
10
298.60378913874604
20
-49.524158854532097
42
0.41421356232044237
10
299.60378913874587
20
-50.52415885435267
10
311.60378913874581
20
-50.524158854352699
42
0.41421356237310802
10
312.60378913874581
20
-49.524158854352656
10
312.60378913874581
20
-40.574158854352646
42
-0.41421356237311846
10
313.60378913874581
20
-39.574158854352667
10
321.41245154674573
20
-39.574158854352639
42
-0.41421356237310281
10
322.41245154674573
20
-40.574158854352682
10
322.41245154674522
20
-49.52415885453216
42
0.41421356232063489
10
323.41245154674573
20
-50.524158854352699
10
335.41245154674584
20
-50.524158854353047
42
0.41421356237317047
10
336.41245154674556
20
-49.524158854352692
10
336.41245154674556
20
-37.524158854762526
42
0.41421356249325697
10
335.41245154674556
20
-36.524158854352713
10
326.41245154674561
20
-36.524158854352649
42
-0.4142135623730937
10
325.41245154674573
20
-35.524158854352706
10
325.41245154674561
20
-35.499158854352693
42
-0.41421356237304563
10
326.41245154674561
20
-34.4991588543527
10
347.66613120274627
20
-34.499158854352956
42
0.19891236737960283
10
348.72679137474557
20
-34.059819026352677
10
353.19455832755898
20
-29.592052073166194
42
-0.19891236737967277
10
353.90166510874559
20
-29.299158854352708
10
355.98745154674555
20
-29.299158854352637
42
-0.414213562373004
10
356.48745154674555
20
-29.799158854352665
10
356.48745154674543
20
-35.324158854622112
42
0.99999999999999989
10
359.48745154674555
20
-35.324158854352731
10
359.48745154674549
20
-29.799158854352712
42
-0.41421356237313406
10
359.9874515467456
20
-29.299158854352704
10
362.07323798374551
20
-29.299158853909439
42
-0.19891236756344455
10
362.78034476574544
20
-29.592052073352729
10
367.24811171796603
20
-34.059819026132935
42
0.19891236737961113
10
368.30877188974557
20
-34.4991588543527
10
374.53745154674544
20
-34.499158854352679
10
377.53745154674539
20
-37.499158854352657
10
377.53745154674533
20
-151.06165885435263
10
374.53745154674539
20
-154.06165885435263
10
347.2587718895935
20
-154.06165885435243
42
0.19891236735336149
10
346.19811171774552
20
-154.50099868235264
10
343.73034476493211
20
-156.96876563553923
42
-0.19891236737963192
10
343.0232379837455
20
-157.26165885435265
10
340.93745154674559
20
-157.26165885435265
42
-0.41421356237314705
10
340.43745154674554
20
-156.76165885435265
10
340.43745154674519
20
-153.23665885496791
42
0.99999999999999989
10
337.43745154674565
20
-153.23665885435264
10
337.43745154674559
20
-156.76165885435262
42
-0.41421356237309503
10
336.93745154674559
20
-157.26165885435259
10
334.85166510874564
20
-157.26165885408892
42
-0.19891236737968732
10
334.14455832774547
20
-156.96876563535264
10
331.67679137452586
20
-154.50099868257294
42
0.19891236737974424
10
330.61613120274552
20
-154.0616588543526
10
252.00882357659427
20
-154.06165885435311
42
0.19891236735329193
10
250.94816340474605
20
-154.50099868235264
10
248.48039645193253
20
-156.96876563553914
42
-0.1989123673796363
10
247.77328967074598
20
-157.26165885435262
10
245.68750323374604
20
-157.26165885435267
42
-0.41421356237307422
10
245.18750323374601
20
-156.76165885435262
10
245.18750323374655
20
-153.23665885496791
42
0.99999999999999989
10
242.18750323374616
20
-153.23665885435264
0
ENDSEC
0
SECTION
2
OBJECTS
0
DICTIONARY
5
C
100
AcDbDictionary
3
ACAD_GROUP
350
D
3
ACAD_MLINESTYLE
350
17
0
DICTIONARY
5
D
100
AcDbDictionary
0
DICTIONARY
5
1A
330
C
100
AcDbDictionary
0
DICTIONARY
5
17
100
AcDbDictionary
0
ENDSEC
0
EOF
