0
SECTION
2
HEADER
9
$INSUNITS
70
4
9
$ACADVER
1
AC1014
9
$HANDSEED
5
FFFF
0
ENDSEC
0
SECTION
2
TABLES
0
TABLE
2
VPORT
5
8
100
AcDbSymbolTable
0
ENDTAB
0
TABLE
2
LTYPE
5
5
100
AcDbSymbolTable
0
LTYPE
5
14
100
AcDbSymbolTableRecord
100
AcDbLinetypeTableRecord
2
BYBLOCK
70
0
0
LTYPE
5
15
100
AcDbSymbolTableRecord
100
AcDbLinetypeTableRecord
2
BYLAYER
70
0
0
ENDTAB
0
TABLE
2
LAYER
5
2
100
AcDbSymbolTable
70
2
0
LAYER
5
50
100
AcDbSymbolTableRecord
100
AcDbLayerTableRecord
2
0
70
0
6
CONTINUOUS
0
ENDTAB
0
TABLE
2
STYLE
5
3
100
AcDbSymbolTable
70
1
0
STYLE
5
11
100
AcDbSymbolTableRecord
100
AcDbTextStyleTableRecord
2
STANDARD
70
0
0
ENDTAB
0
TABLE
2
VIEW
5
6
100
AcDbSymbolTable
70
0
0
ENDTAB
0
TABLE
2
UCS
5
7
100
AcDbSymbolTable
70
0
0
ENDTAB
0
TABLE
2
APPID
5
9
100
AcDbSymbolTable
70
2
0
APPID
5
12
100
AcDbSymbolTableRecord
100
AcDbRegAppTableRecord
2
ACAD
70
0
0
ENDTAB
0
TABLE
2
DIMSTYLE
5
A
100
AcDbSymbolTable
70
1
0
ENDTAB
0
TABLE
2
BLOCK_RECORD
5
1
100
AcDbSymbolTable
70
1
0
BLOCK_RECORD
5
1F
100
AcDbSymbolTableRecord
100
AcDbBlockTableRecord
2
*MODEL_SPACE
0
BLOCK_RECORD
5
1B
100
AcDbSymbolTableRecord
100
AcDbBlockTableRecord
2
*PAPER_SPACE
0
ENDTAB
0
ENDSEC
0
SECTION
2
BLOCKS
0
BLOCK
5
20
100
AcDbEntity
100
AcDbBlockBegin
2
*MODEL_SPACE
0
ENDBLK
5
21
100
AcDbEntity
100
AcDbBlockEnd
0
BLOCK
5
1C
100
AcDbEntity
100
AcDbBlockBegin
2
*PAPER_SPACE
0
ENDBLK
5
1D
100
AcDbEntity
100
AcDbBlockEnd
0
ENDSEC
0
SECTION
2
ENTITIES
0
LWPOLYLINE
5
100
100
AcDbEntity
8
0
100
AcDbPolyline
90
21
70
1
43
0.0
10
36.958366367222411
20
36.922760312987336
42
-0.41421356232038387
10
37.958366367222062
20
35.922760313167011
10
37.958366367222332
20
23.922760312987297
42
-0.41421356237309764
10
36.958366367222339
20
22.922760312987297
10
5.9083663672224063
20
22.922760312987304
42
-0.41421355597236703
10
4.9083663672226603
20
23.922760291134377
10
4.9083663672224498
20
35.922760312987343
42
-0.41421356237308171
10
5.9083663672224453
20
36.922760312987307
10
5.9953658792224509
20
36.922760312987336
10
5.9953658792224482
20
37.922760312987336
42
-0.4142135623730866
10
6.9953658792224651
20
38.9227603129873
10
11.995365879222447
20
38.922760312987336
42
-0.41421356232056145
10
12.995365879222673
20
37.922760313167032
10
12.995365879222478
20
36.922760312987336
10
29.871312357222408
20
36.922760312987336
10
29.871342441222389
20
36.930511016987339
10
29.871342441222389
20
37.922760312987329
42
-0.41421356237299095
10
30.871342441222403
20
38.922760312986973
10
35.871342441222389
20
38.922760312987336
42
-0.41421356232052042
10
36.871342441222474
20
37.922760313167025
10
36.87134244122241
20
36.922760312987336
0
LWPOLYLINE
5
101
100
AcDbEntity
8
0
100
AcDbPolyline
90
14
70
1
43
0.0
10
37.015095493222383
20
95.072760312987413
42
-0.41421356237294804
10
38.015095493222411
20
96.072760312986944
10
43.015095493222404
20
96.072760312987398
42
-0.41421356232036954
10
44.015095493221956
20
95.072760313166626
10
44.015095493222425
20
94.072735898987418
10
44.102049228222427
20
94.072735898987347
42
-0.41421356232036177
10
45.102049228222043
20
93.072735899166872
10
45.102049228222413
20
81.072735898987389
42
-0.41421372844356841
10
44.102048661222426
20
80.07273589898756
10
22.577106645222472
20
80.07276031298737
42
-0.41421339636814741
10
21.577107212222476
20
81.072760313211333
10
21.577107212222483
20
93.072760312987398
42
-0.41421385145886991
10
22.577108199222316
20
94.07276031298737
10
37.015095493222475
20
94.072731804987413
0
LWPOLYLINE
5
102
100
AcDbEntity
8
0
100
AcDbPolyline
90
8
70
1
43
0.0
10
243.03334805622171
20
54.972766416987341
42
-0.41421356237316009
10
244.03334805622177
20
55.972766416987547
10
256.03334805622171
20
55.972766416987753
42
-0.41421356237295975
10
257.03334805622126
20
54.972766416987739
10
257.0333480562216
20
42.972766416987341
42
-0.41421356237309243
10
256.0333480562216
20
41.972766416987348
10
244.03334805622168
20
41.972766416987312
42
-0.41421356249327779
10
243.03334805622171
20
42.972766417397551
0
LWPOLYLINE
5
103
100
AcDbEntity
8
0
100
AcDbPolyline
90
8
70
1
43
0.0
10
136.97084805622211
20
75.022766416987139
42
-0.41421356232047624
10
137.97084805622188
20
74.022766417166707
10
137.97084805622202
20
62.022766416987373
42
-0.41421356237309503
10
136.97084805622205
20
61.022766416987359
10
124.97084805622208
20
61.022766416987281
42
-0.41421356249328295
10
123.970848056222
20
62.022766417397499
10
123.97084805622214
20
74.022766416987395
42
-0.41421356237319651
10
124.97084805622215
20
75.022766416987793
0
LWPOLYLINE
5
104
100
AcDbEntity
8
0
100
AcDbPolyline
90
8
70
1
43
0.0
10
63.058348056222222
20
22.922766416987052
42
-0.41421356249316071
10
62.058348056222513
20
23.922766417397298
10
62.058348056222258
20
35.922766416987329
42
-0.41421356237314705
10
63.058348056222258
20
36.922766416987521
10
75.058348056222201
20
36.922766416987656
42
-0.41421356232044632
10
76.05834805622203
20
35.922766417167239
10
76.058348056222201
20
23.922766416987304
42
-0.41421356237309243
10
75.058348056222201
20
22.922766416987312
0
LWPOLYLINE
5
105
100
AcDbEntity
8
0
100
AcDbPolyline
90
8
70
1
43
0.0
10
-57.004151943777465
20
12.110266416987283
10
-57.004151943777536
20
0.11026641739710054
42
0.41421356249327024
10
-56.004151943777494
20
-0.88973358301315009
10
-44.004151943777501
20
-0.88973358301272509
42
0.41421356237309681
10
-43.004151943777522
20
0.11026641698728135
10
-43.004151943777629
20
12.11026641698729
42
0.41421356237306384
10
-44.004151943777501
20
13.110266416987294
10
-56.004151943777451
20
13.110266416987141
42
0.414213562373069
0
LWPOLYLINE
5
106
100
AcDbEntity
8
0
100
AcDbPolyline
90
8
70
1
43
0.0
10
209.69584805622188
20
93.072766416987406
10
209.69584805622196
20
81.07276641739756
42
0.41421356249324393
10
210.69584805622185
20
80.072766416987349
10
222.69584805622173
20
80.072766416987363
42
0.41421356237308982
10
223.69584805622185
20
81.072766416987378
10
223.69584805622196
20
93.072766417166747
42
0.41421356232056206
10
222.69584805622173
20
94.072766416987136
10
210.69584805622185
20
94.072766416987491
42
0.41421356237315227
0
LWPOLYLINE
5
107
100
AcDbEntity
8
0
100
AcDbPolyline
90
15
70
1
43
0.0
10
13.139118930222422
20
94.072735898987418
10
5.9082992282224458
20
94.072735898987347
42
0.41421356237307261
10
4.9082992282225177
20
93.072735898987403
10
4.9082992282222966
20
81.072735899397927
42
0.41421356249326474
10
5.90829922822242
20
80.072735898987375
10
17.9082992292225
20
80.072735898987375
10
17.91528689822244
20
80.07276031298737
10
19.144091196220433
20
80.072760313421
42
0.41276677805937734
10
20.139149062222387
20
81.072748104987355
10
20.139149062222405
20
94.072748105987358
10
20.139118930222402
20
94.080511016987387
10
20.139118931222306
20
95.072760313166526
42
0.41421356232041445
10
19.139118930222519
20
96.072760313987402
10
14.139118930222537
20
96.072760313987246
42
0.41421356237307488
10
13.139118930222516
20
95.072760313987402
0
LWPOLYLINE
5
108
100
AcDbEntity
8
0
100
AcDbPolyline
90
8
70
1
43
0.0
10
266.84578111122175
20
112.14186360198744
42
-0.4142136865597939
10
267.84578153522176
20
113.14186360198738
10
282.22704660022174
20
113.14185139498746
42
-0.41421343802172195
10
283.22704617622139
20
112.14185139554934
10
283.22704617622168
20
100.14185139498741
42
-0.41421368685265075
10
282.22704575122145
20
99.141851394987469
10
267.84578068622164
20
99.141863601987396
42
-0.41421343782503423
10
266.84578111122175
20
100.14186360175378
0
LWPOLYLINE
5
109
100
AcDbEntity
8
0
100
AcDbPolyline
90
8
70
1
43
0.0
10
-36.954151943777475
20
22.922766416987095
10
-24.954151943777489
20
22.922766416987322
42
0.41421356237309503
10
-23.954151943777489
20
23.922766416987308
10
-23.954151943777848
20
35.9227664169874
42
0.41421356237298967
10
-24.954151943777486
20
36.922766416987407
10
-36.954151943777454
20
36.92276641698691
42
0.41421356237297274
10
-37.954151943777454
20
35.922766416987336
10
-37.954151943777376
20
23.922766417397344
42
0.41421356249322183
0
LWPOLYLINE
5
110
100
AcDbEntity
8
0
100
AcDbPolyline
90
8
70
1
43
0.0
10
220.22078068722183
20
99.14186360198741
42
-0.41421343825748808
10
219.22078111122192
20
100.14186360223023
10
219.22078111122192
20
112.14186360198744
42
-0.41421368655983554
10
220.22078153522187
20
113.14186360198727
10
234.60204660022191
20
113.14185139498747
42
-0.41421343807426531
10
235.60204617622134
20
112.14185139537014
10
235.6020461762219
20
100.14185139498741
42
-0.41421368685273918
10
234.60204575122157
20
99.141851394987469
0
LWPOLYLINE
5
111
100
AcDbEntity
8
0
100
AcDbPolyline
90
8
70
1
43
0.0
10
-56.004151943777281
20
99.122766416986934
42
-0.4142135624933142
10
-57.004151943777444
20
100.12276641739717
10
-57.004151943777323
20
112.12276641698739
42
-0.41421356237311846
10
-56.004151943777316
20
113.12276641698737
10
-44.004151943777281
20
113.12276641698709
42
-0.4142135623730846
10
-43.004151943777416
20
112.12276641698706
10
-43.004151943777288
20
100.1227664169874
42
-0.41421356237309764
10
-44.004151943777281
20
99.122766416987417
0
LWPOLYLINE
5
112
100
AcDbEntity
8
0
100
AcDbPolyline
90
8
70
1
43
0.0
10
-24.954151943777411
20
94.072766416987918
10
-36.954151943777369
20
94.07276641698698
42
0.41421356237295975
10
-37.954151943777362
20
93.072766416987406
10
-37.954151943777305
20
81.072766417398043
42
0.41421356249323615
10
-36.954151943777404
20
80.072766416987804
10
-24.954151943777411
20
80.072766416987392
42
0.41421356237311063
10
-23.954151943777436
20
81.072766416987392
10
-23.954151943777688
20
93.072766416987932
42
0.41421356237301826
0
LWPOLYLINE
5
113
100
AcDbEntity
8
0
100
AcDbPolyline
90
8
70
1
43
0.0
10
214.45834805622172
20
35.941869705987344
10
214.45834805622169
20
23.941869706397583
42
0.41421356249321795
10
215.45834805622175
20
22.94186970598733
10
227.45834805622169
20
22.941869705987308
42
0.41421356237308071
10
228.45834805622172
20
23.941869705987283
10
228.45834805622192
20
35.941869705986953
42
0.41421356237308982
10
227.45834805622169
20
36.941869705986939
10
215.45834805622175
20
36.941869705987358
42
0.41421356237305729
0
LWPOLYLINE
5
114
100
AcDbEntity
8
0
100
AcDbPolyline
90
8
70
1
43
0.0
10
-23.954151943777351
20
100.1227664169874
42
-0.41421356237310414
10
-24.954151943777344
20
99.122766416987403
10
-36.954151943777333
20
99.122766416986934
42
-0.41421356249309438
10
-37.954151943776722
20
100.12276641739717
10
-37.95415194377734
20
112.12276641698742
42
-0.41421356237311974
10
-36.954151943777369
20
113.12276641698737
10
-24.954151943777344
20
113.12276641698708
42
-0.41421356237301177
10
-23.954151943777624
20
112.12276641698708
0
LWPOLYLINE
5
115
100
AcDbEntity
8
0
100
AcDbPolyline
90
8
70
1
43
0.0
10
129.73334805622204
20
41.972766416986985
42
-0.41421356249320751
10
128.73334805622218
20
42.972766417397246
10
128.7333480562221
20
54.972766416987355
42
-0.41421356237314966
10
129.7333480562221
20
55.972766416987625
10
141.73334805622204
20
55.972766416987753
42
-0.41421356237312623
10
142.7333480562221
20
54.972766416987767
10
142.73334805622198
20
42.972766416987355
42
-0.41421356237307161
10
141.73334805622201
20
41.972766416987341
0
LWPOLYLINE
5
116
100
AcDbEntity
8
0
100
AcDbPolyline
90
8
70
1
43
0.0
10
90.633348056222161
20
54.972766416987334
42
-0.41421356237301177
10
91.633348056222133
20
55.972766416987135
10
103.63334805622213
20
55.972766416987731
42
-0.41421356237326412
10
104.63334805622269
20
54.972766416987746
10
104.63334805622208
20
42.972766416987312
42
-0.41421356237308982
10
103.63334805622209
20
41.972766416987312
10
91.633348056222133
20
41.972766416986801
42
-0.41421356249313468
10
90.633348056222559
20
42.972766417396997
0
LWPOLYLINE
5
117
100
AcDbEntity
8
0
100
AcDbPolyline
90
8
70
1
43
0.0
10
77.345848056222323
20
80.07276641698779
42
-0.41421356249311908
10
76.345848056222749
20
81.072766417398
10
76.345848056222323
20
93.072766416987363
42
-0.41421356237309503
10
77.345848056222323
20
94.072766416987363
10
89.345848056222309
20
94.072766416987932
42
-0.41421356232043199
10
90.345848056222167
20
93.072766417167529
10
90.345848056222223
20
81.072766416987392
42
-0.41421356237312101
10
89.34584805622228
20
80.072766416987392
0
LWPOLYLINE
5
118
100
AcDbEntity
8
0
100
AcDbPolyline
90
8
70
1
43
0.0
10
228.7458480562218
20
93.072766416987406
10
228.74584805622177
20
81.07276641739756
42
0.41421356249321795
10
229.74584805622183
20
80.072766416987307
10
241.74584805622175
20
80.072766416987392
42
0.41421356237310542
10
242.74584805622175
20
81.072766416987378
10
242.74584805622169
20
93.072766417166548
42
0.41421356232041118
10
241.7458480562218
20
94.07276641698698
10
229.74584805622189
20
94.072766416987179
42
0.41421356237307422
0
LWPOLYLINE
5
119
100
AcDbEntity
8
0
100
AcDbPolyline
90
8
70
1
43
0.0
10
-37.954151943777525
20
12.110266416987299
42
-0.4142135623729799
10
-36.954151943777525
20
13.110266416986896
10
-24.954151943777561
20
13.110266416987308
42
-0.41421356237299228
10
-23.954151943777923
20
12.110266416987303
10
-23.954151943777575
20
0.11026641698729703
42
-0.41421356237310092
10
-24.954151943777561
20
-0.88973358301270999
10
-36.954151943777546
20
-0.88973358301313055
42
-0.41421356249323132
10
-37.954151943777454
20
0.11026641739711573
0
LWPOLYLINE
5
120
100
AcDbEntity
8
0
100
AcDbPolyline
90
8
70
1
43
0.0
10
81.108348056222184
20
35.922766416987322
42
-0.4142135623730781
10
82.108348056222212
20
36.922766416987258
10
94.108348056222155
20
36.922766416987308
42
-0.41421356232062578
10
95.108348056222596
20
35.922766417166862
10
95.108348056222127
20
23.922766416987301
42
-0.41421356237310025
10
94.108348056222141
20
22.922766416987315
10
82.108348056222155
20
22.922766416987685
42
-0.41421356249327779
10
81.108348056221971
20
23.92276641739787
0
LWPOLYLINE
5
121
100
AcDbEntity
8
0
100
AcDbPolyline
90
8
70
1
43
0.0
10
100.15834805622214
20
35.922766416987322
42
-0.41421356237300527
10
101.15834805622215
20
36.92276641698696
10
113.15834805622204
20
36.922766416987322
42
-0.41421356232055817
10
114.15834805622217
20
35.922766417166898
10
114.15834805622204
20
23.922766416987301
42
-0.41421356237307944
10
113.15834805622202
20
22.922766416987308
10
101.15834805622214
20
22.922766416987077
42
-0.41421356249312169
10
100.15834805622255
20
23.922766417397312
0
LWPOLYLINE
5
122
100
AcDbEntity
8
0
100
AcDbPolyline
90
8
70
1
43
0.0
10
66.820848056222246
20
74.022766416987366
10
66.820848056222488
20
62.022766417397435
42
0.4142135624931737
10
67.820848056222275
20
61.022766416987217
10
79.820848056222218
20
61.022766416987366
42
0.41421356237308982
10
80.820848056222218
20
62.022766416987373
10
80.820848056222232
20
74.022766417166736
42
0.41421356232046841
10
79.820848056222218
20
75.022766416987167
10
67.820848056222232
20
75.02276641698748
42
0.41421356237313145
0
LWPOLYLINE
5
123
100
AcDbEntity
8
0
100
AcDbPolyline
90
21
70
1
43
0.0
10
251.26411130122179
20
95.072754187987414
42
-0.41421356237297013
10
252.26411130122187
20
96.072754187986916
10
257.26411130122176
20
96.072754187987371
42
-0.41421356232061929
10
258.26411130122216
20
95.072754188166698
10
258.2641113012217
20
94.072754187987385
10
275.14005775522173
20
94.072751130987399
10
275.14008786322171
20
94.080504890987399
10
275.14008786322177
20
95.07275419898744
42
-0.41421355915131097
10
276.14008786322165
20
96.072754187987627
10
281.14008786322171
20
96.072754187987414
42
-0.41421356232035916
10
282.14008786322142
20
95.072754188166698
10
282.14008786322165
20
94.072754187987385
10
282.22585416022162
20
94.072754187987442
42
-0.41421356232034873
10
283.22585416022116
20
93.072754188166755
10
283.22585416022162
20
81.07275420998738
42
-0.41421356237310025
10
282.22585416022162
20
80.072754209987394
10
248.79585416022167
20
80.072754209987352
42
-0.41421356249320235
10
247.79585416022169
20
81.072754210397605
10
247.79585416022172
20
93.072754209987423
42
-0.41421356237290774
10
248.79585416022178
20
94.072754209986982
10
251.26411130122176
20
94.072754209987423
0
LWPOLYLINE
5
124
100
AcDbEntity
8
0
100
AcDbPolyline
90
8
70
1
43
0.0
10
233.50834805622171
20
35.941869705987344
42
-0.41421356237317175
10
234.50834805622176
20
36.941869705987514
10
246.50834805622162
20
36.94186970598696
42
-0.41421356237318346
10
247.50834805622213
20
35.941869705986967
10
247.50834805622162
20
23.94186970598728
42
-0.41421356237310542
10
246.50834805622162
20
22.941869705987305
10
234.50834805622165
20
22.941869705987305
42
-0.41421356249319191
10
233.50834805622171
20
23.941869706397569
0
LWPOLYLINE
5
125
100
AcDbEntity
8
0
100
AcDbPolyline
90
11
70
1
43
0.0
10
92.727046176222231
20
98.141839144987415
10
92.727046176222743
20
112.14185135169473
42
0.41421354957181594
10
91.727046220222292
20
113.141851351988
10
79.727046176312129
20
113.14185135198741
42
0.41421356239943435
10
78.727046176222288
20
112.1418513519874
10
78.727046176222302
20
100.14185135198737
42
0.41421356237307944
10
79.727046176222288
20
99.141851351987384
10
84.608281111222269
20
99.141851351987412
10
84.608281111222269
20
98.141839144987387
42
0.41421356237313667
10
85.608281111222269
20
97.141839144987387
10
91.727046176222231
20
97.141839144987415
42
0.41421356237310542
0
LWPOLYLINE
5
126
100
AcDbEntity
8
0
100
AcDbPolyline
90
8
70
1
43
0.0
10
104.65829007322222
20
97.138128206987403
42
-0.41421356237310542
10
103.6582900732222
20
98.138128206987417
10
103.65829007322222
20
111.13812820698742
42
-0.41421356239941093
10
104.65829007331209
20
112.13812820698736
10
109.65829011722222
20
112.13812820698737
42
-0.41421354949014716
10
110.65829007322247
20
111.13812820697319
10
110.65829007322225
20
98.138128206987403
42
-0.41421356237304818
10
109.6582900732222
20
97.138128206987403
0
LWPOLYLINE
5
127
100
AcDbEntity
8
0
100
AcDbPolyline
90
8
70
1
43
0.0
10
47.770848056222299
20
74.022766416987366
10
47.770848056221951
20
62.022766417397442
42
0.41421356249334018
10
48.770848056222334
20
61.022766416987224
10
60.770848056222285
20
61.022766416987359
42
0.41421356237308721
10
61.770848056222263
20
62.022766416987373
10
61.770848056222292
20
74.022766417166736
42
0.41421356232048923
10
60.770848056222285
20
75.022766416987167
10
48.770848056222292
20
75.02276641698775
42
0.41421356237320689
0
LWPOLYLINE
5
128
100
AcDbEntity
8
0
100
AcDbPolyline
90
8
70
1
43
0.0
10
7.2895461762226059
20
112.14185139498744
42
-0.41421343789348003
10
8.2895457512224713
20
113.1418513949873
10
22.670780687222528
20
113.1418636019874
42
-0.41421368645553575
10
23.670781111222688
20
112.14186360234379
10
23.67078111122246
20
100.14186360198735
42
-0.41421343818635503
10
22.670781535222567
20
99.141863601987481
10
8.2895466442225363
20
99.141851394987413
42
-0.41421369319212642
10
7.2895461762225997
20
100.14185137363178
0
ARC
5
129
100
AcDbEntity
8
0
100
AcDbCircle
10
209.67080228022172
20
111.13812820698712
30
0
40
0.99999994599997422
210
0
220
0
230
1
100
AcDbArc
50
0
51
89.978220669289897
0
LINE
5
130
100
AcDbEntity
8
0
100
AcDbLine
10
210.6708022262217
20
111.13812820698709
30
0
11
210.67080228022189
21
98.138128206987403
31
0
0
ARC
5
131
100
AcDbEntity
8
0
100
AcDbCircle
10
209.67080228022223
20
98.138128206987403
30
0
40
0.999999972622998
210
0
220
0
230
1
100
AcDbArc
50
-90.021779330726318
51
0
0
LINE
5
132
100
AcDbEntity
8
0
100
AcDbLine
10
209.67042215921174
20
97.138128306610398
30
0
11
199.90790099022203
21
97.141839289232834
31
0
0
ARC
5
133
100
AcDbEntity
8
0
100
AcDbCircle
10
199.90828111022222
20
98.141839144987202
30
0
40
0.99999992800000825
210
0
220
0
230
1
100
AcDbArc
50
180
51
269.97822072618817
0
LINE
5
134
100
AcDbEntity
8
0
100
AcDbLine
10
198.9082811822222
20
98.141839145361871
30
0
11
198.90828111022199
21
111.14183914498742
31
0
0
ARC
5
135
100
AcDbEntity
8
0
100
AcDbCircle
10
199.90828111022208
20
111.14183914498723
30
0
40
1.000000000000105
210
0
220
-0
230
1
100
AcDbArc
50
89.978220669282095
51
180
0
LINE
5
136
100
AcDbEntity
8
0
100
AcDbLine
10
199.90866123124283
20
112.14183907274133
30
0
11
209.67118240122181
21
112.1381280807411
31
0
0
LWPOLYLINE
5
137
100
AcDbEntity
8
0
100
AcDbPolyline
90
8
70
1
43
0.0
10
271.60834805622159
20
12.110266416987294
42
-0.41421356237309243
10
272.60834805622159
20
13.110266416987567
10
284.60834805622153
20
13.110266416987225
42
-0.41421356237298446
10
285.60834805622102
20
12.110266416987232
10
285.60834805622159
20
0.11026641698730578
42
-0.41421356237312995
10
284.60834805622153
20
-0.88973358301266936
10
272.60834805622147
20
-0.88973358301273442
42
-0.41421356249314678
10
271.60834805622159
20
0.11026641739755316
0
LWPOLYLINE
5
138
100
AcDbEntity
8
0
100
AcDbPolyline
90
8
70
1
43
0.0
10
138.25834805622202
20
35.922766416987329
42
-0.41421356237312235
10
139.25834805622199
20
36.92276641698745
10
151.25834805622191
20
36.922766416987379
42
-0.41421356232039819
10
152.25834805622154
20
35.922766417166947
10
152.25834805622191
20
23.922766416987319
42
-0.41421356237308721
10
151.25834805622191
20
22.922766416987322
10
139.25834805622196
20
22.922766416987336
42
-0.41421356249325308
10
138.25834805622202
20
23.922766417397575
0
LWPOLYLINE
5
139
100
AcDbEntity
8
0
100
AcDbPolyline
90
45
70
1
43
0.0
10
21.320848056222452
20
61.022766394987343
10
32.288173546222453
20
61.022766394987343
10
32.28817354722247
20
60.023703195143568
42
0.41421800005101428
10
33.28818869822237
20
59.023703190987348
10
35.752598249222359
20
59.022766416987352
10
38.252598545222448
20
59.022766416987352
42
0.4142135623730937
10
39.252598545222455
20
60.022766416987352
10
39.252598545222398
20
61.022766394987343
10
41.720848056222373
20
61.022766394987343
42
0.41421356237309243
10
42.720848056222422
20
62.022766394987343
10
42.72084805622238
20
74.022766417166693
42
0.41421356232050743
10
41.720848056222415
20
75.02276641698738
10
17.814610263427546
20
75.022766416987579
42
0.41421356243321439
10
16.814610263222541
20
74.022766416987366
10
16.814610263222537
20
73.935745542987377
10
15.412227115222528
20
73.935745542987377
10
15.412227115222159
20
74.023715403363312
42
0.40150926381470009
10
14.455782502222466
20
75.02276641698738
10
9.3766219824276309
20
75.022766416987253
42
0.41421356243314805
10
8.3766219822225558
20
74.022766416987366
10
8.3766219822225523
20
73.935745542987377
10
8.3208480562225198
20
73.935745542987348
42
0.41421356237307261
10
7.3208480562225162
20
72.935745542987377
10
7.3208480562393952
20
67.930804502090012
42
0.41276709847900656
10
8.3208358492225241
20
66.935745542987362
10
8.3766219822225523
20
66.935745542987362
10
8.3766219822225505
20
65.497757239987351
10
8.3208480562224505
20
65.497757239987294
42
0.41421356237308232
10
7.320848056222462
20
64.497757239987351
10
7.3208480562221689
20
52.497757240397711
42
0.41421356249332686
10
8.320848056222454
20
51.49775723998733
10
9.670841953222439
20
51.497757239987358
10
9.6708419532223662
20
50.059799089987351
10
8.3208358475187119
20
50.059799090986878
42
0.41276674859283918
10
7.3208480562224416
20
49.064741325987349
10
7.3208480562228786
20
44.059768959397154
42
0.41421356249312691
10
8.3208480562224523
20
43.059768958987341
10
9.670841953222439
20
43.059768958987341
10
9.6708419532221725
20
42.972748063544579
42
0.41421355609267463
10
10.670841953222421
20
41.97274808498733
10
22.670841997221988
20
41.97274808498733
42
0.41421354948580408
10
23.670841953222322
20
42.97274808498733
10
23.670841953222769
20
54.972748085167069
42
0.41421356232062578
10
22.670841953222336
20
55.972748084987352
10
21.320848056222417
20
55.972748084987352
0
LWPOLYLINE
5
140
100
AcDbEntity
8
0
100
AcDbPolyline
90
8
70
1
43
0.0
10
104.92084805622213
20
74.022766416987366
10
104.9208480562225
20
62.022766417397442
42
0.41421356249315289
10
105.92084805622221
20
61.022766416987231
10
117.92084805622213
20
61.022766416987352
42
0.41421356237309243
10
118.92084805622213
20
62.022766416987373
10
118.92084805622204
20
74.02276641716665
42
0.41421356232046319
10
117.92084805622213
20
75.02276641698711
10
105.92084805622214
20
75.02276641698694
42
0.41421356237293894
0
LWPOLYLINE
5
141
100
AcDbEntity
8
0
100
AcDbPolyline
90
8
70
1
43
0.0
10
119.20834805622205
20
35.922766416987322
42
-0.41421356237294155
10
120.20834805622204
20
36.922766416986832
10
132.20834805622204
20
36.922766416987344
42
-0.41421356232044371
10
133.20834805622187
20
35.922766417166919
10
133.20834805622201
20
23.922766416987322
42
-0.41421356237308593
10
132.20834805622204
20
22.922766416987336
10
120.20834805622204
20
22.922766416987081
42
-0.41421356249341174
10
119.20834805622164
20
23.922766417397312
0
LWPOLYLINE
5
142
100
AcDbEntity
8
0
100
AcDbPolyline
90
8
70
1
43
0.0
10
195.40834805622185
20
35.941869705987344
42
-0.41421356237297929
10
196.40834805622191
20
36.941869705987138
10
208.40834805622191
20
36.941869705986939
42
-0.41421356237303908
10
209.40834805622174
20
35.941869705986932
10
209.40834805622174
20
23.941869705987283
42
-0.41421356237312362
10
208.40834805622168
20
22.941869705987294
10
196.4083480562218
20
22.941869705987337
42
-0.41421356249321795
10
195.40834805622177
20
23.941869706397583
0
LWPOLYLINE
5
143
100
AcDbEntity
8
0
100
AcDbPolyline
90
8
70
1
43
0.0
10
156.02084805622201
20
75.022766416987153
10
144.02084805622209
20
75.022766416987494
42
0.41421356237313406
10
143.02084805622212
20
74.022766416987395
10
143.02084805622255
20
62.022766417397499
42
0.41421356249308527
10
144.02084805622201
20
61.022766416987288
10
156.02084805622195
20
61.022766416987373
42
0.41421356237309503
10
157.02084805622195
20
62.022766416987373
10
157.02084805622178
20
74.022766417166707
42
0.41421356232042678
0
LWPOLYLINE
5
144
100
AcDbEntity
8
0
100
AcDbPolyline
90
8
70
1
43
0.0
10
264.46459805622163
20
74.02276641698738
42
-0.41421356237320428
10
265.46459805622169
20
75.022766416987679
10
282.22709805622162
20
75.022766416987153
42
-0.41421356232038259
10
283.22709805622134
20
74.022766417166707
10
283.22709805622162
20
62.02276641698738
42
-0.4142135623730378
10
282.22709805622168
20
61.02276641698738
10
265.46459805622169
20
61.02276641698738
42
-0.41421356249331159
10
264.46459805622163
20
62.022766417397591
0
LWPOLYLINE
5
145
100
AcDbEntity
8
0
100
AcDbPolyline
90
8
70
1
43
0.0
10
177.3583480562219
20
22.941869705987322
42
-0.41421356249327518
10
176.35834805622181
20
23.941869706397586
10
176.35834805622193
20
35.941869705987351
42
-0.41421356237293633
10
177.3583480562219
20
36.941869705986917
10
189.35834805622181
20
36.941869705986903
42
-0.41421356237298185
10
190.35834805622159
20
35.941869705986953
10
190.35834805622184
20
23.941869705987283
42
-0.41421356237306511
10
189.35834805622181
20
22.941869705987301
0
LWPOLYLINE
5
146
100
AcDbEntity
8
0
100
AcDbPolyline
90
8
70
1
43
0.0
10
162.07084805622196
20
74.02276641698738
42
-0.414213562373069
10
163.07084805622199
20
75.022766416987125
10
175.07084805622199
20
75.022766416987182
42
-0.414213562320419
10
176.07084805622179
20
74.022766417166736
10
176.07084805622193
20
62.022766416987366
42
-0.41421356237308982
10
175.07084805622196
20
61.022766416987338
10
163.07084805622196
20
61.02276641698726
42
-0.4142135624931893
10
162.07084805622199
20
62.022766417397477
0
LWPOLYLINE
5
147
100
AcDbEntity
8
0
100
AcDbPolyline
90
8
70
1
43
0.0
10
171.30834805622186
20
23.922766416987319
42
-0.41421356237305601
10
170.30834805622189
20
22.922766416987315
10
158.30834805622192
20
22.922766416987344
42
-0.41421356249324004
10
157.30834805622186
20
23.922766417397593
10
157.30834805622192
20
35.922766416987329
42
-0.41421356237303258
10
158.30834805622186
20
36.922766416987095
10
170.30834805622189
20
36.922766416987685
42
-0.41421356232051915
10
171.30834805622186
20
35.922766417167281
0
LWPOLYLINE
5
148
100
AcDbEntity
8
0
100
AcDbPolyline
90
8
70
1
43
0.0
10
244.03328068722178
20
99.141863601987353
42
-0.41421343825753493
10
243.03328111122184
20
100.14186360223027
10
243.03328111122184
20
112.14186360198744
42
-0.4142136865598095
10
244.03328153522179
20
113.14186360198738
10
258.41454660022168
20
113.14185139498746
42
-0.41421343807433292
10
259.41454617622145
20
112.14185139536924
10
259.41454617622179
20
100.14185139498741
42
-0.4142136868527288
10
258.41454575122174
20
99.141851394987469
0
LWPOLYLINE
5
149
100
AcDbEntity
8
0
100
AcDbPolyline
90
8
70
1
43
0.0
10
71.295781111222354
20
100.14186360198738
42
-0.41421343818641748
10
70.295781535222076
20
99.141863601987481
10
55.914546644222398
20
99.141851394987427
42
-0.41421369319215767
10
54.914546176222373
20
100.1418513736316
10
54.914546176222416
20
112.14185139498741
42
-0.41421343789347742
10
55.91454575122232
20
113.1418513949873
10
70.295780687222376
20
113.1418636019874
42
-0.41421368645535489
10
71.295781111221913
20
112.14186360234402
0
LWPOLYLINE
5
150
100
AcDbEntity
8
0
100
AcDbPolyline
90
8
70
1
43
0.0
10
-18.904151943777496
20
35.922766416987322
42
-0.41421356237318346
10
-17.90415194377751
20
36.922766416987649
10
-5.904151943777471
20
36.922766416987407
42
-0.41421356237295259
10
-4.9041519437779737
20
35.9227664169874
10
-4.9041519437774763
20
23.922766416987308
42
-0.41421356237309342
10
-5.9041519437774763
20
22.922766416987322
10
-17.904151943777467
20
22.922766416987088
42
-0.41421356249322899
10
-18.904151943777357
20
23.922766417397341
0
LWPOLYLINE
5
151
100
AcDbEntity
8
0
100
AcDbPolyline
90
8
70
1
43
0.0
10
85.870848056222187
20
74.022766416987366
42
-0.4142135623730378
10
86.870848056222201
20
75.022766416987224
10
98.870848056222229
20
75.022766416987196
42
-0.41421356232046319
10
99.870848056222144
20
74.022766417166736
10
99.870848056222172
20
62.022766416987373
42
-0.41421356237310281
10
98.870848056222229
20
61.022766416987338
10
86.870848056222229
20
61.022766416987217
42
-0.41421356249330638
10
85.870848056221988
20
62.022766417397463
0
LWPOLYLINE
5
152
100
AcDbEntity
8
0
100
AcDbPolyline
90
8
70
1
43
0.0
10
32.10204664422244
20
99.141851394987427
10
46.483281535222368
20
99.141863601987481
42
0.41421343818636802
10
47.483281111222411
20
100.14186360198735
10
47.483281111222269
20
112.14186360234386
42
0.41421368645545897
10
46.483280687222432
20
113.1418636019874
10
32.102045751222413
20
113.14185139498733
42
0.41421343789349041
10
31.102046176222544
20
112.14185139498744
10
31.10204617622297
20
100.14185137363123
42
0.41421369319199636
0
LWPOLYLINE
5
153
100
AcDbEntity
8
0
100
AcDbPolyline
90
8
70
1
43
0.0
10
239.27084805622172
20
61.02276641698738
42
-0.41421356249324653
10
238.27084805622172
20
62.022766417397619
10
238.27084805622172
20
74.02276641698738
42
-0.41421356237299878
10
239.27084805622172
20
75.022766416987054
10
251.27084805622175
20
75.022766416987167
42
-0.41421356232040335
10
252.27084805622141
20
74.022766417166693
10
252.27084805622169
20
62.022766416987366
42
-0.41421356237308982
10
251.27084805622172
20
61.022766416987338
0
LWPOLYLINE
5
154
100
AcDbEntity
8
0
100
AcDbPolyline
90
8
70
1
43
0.0
10
71.583348056222221
20
54.972766416987334
10
71.58334805622205
20
42.972766417396997
42
0.41421356249327257
10
72.583348056222192
20
41.972766416986779
10
84.583348056222135
20
41.972766416987312
42
0.41421356237309243
10
85.583348056222107
20
42.972766416987312
10
85.583348056222519
20
54.972766416987746
42
0.41421356237318085
10
84.583348056222206
20
55.972766416987753
10
72.583348056222277
20
55.972766416987511
42
0.41421356237314705
0
LWPOLYLINE
5
155
100
AcDbEntity
8
0
100
AcDbPolyline
90
8
70
1
43
0.0
10
-18.904151943777418
20
112.12276641698742
10
-18.904151943776931
20
100.12276641739724
42
0.41421356249316005
10
-17.904151943777315
20
99.12276641698702
10
-5.9041519437773271
20
99.122766416987403
42
0.41421356237309798
10
-4.904151943777328
20
100.1227664169874
10
-4.9041519437768226
20
112.1227664169871
42
0.41421356237325663
10
-5.9041519437773253
20
113.12276641698709
10
-17.904151943777439
20
113.12276641698743
42
0.41421356237309309
0
LWPOLYLINE
5
156
100
AcDbEntity
8
0
100
AcDbPolyline
90
8
70
1
43
0.0
10
190.64488865822173
20
12.110266416987301
42
-0.41421356237316398
10
191.64488865822176
20
13.110266416987628
10
203.64488865822182
20
13.110266416986907
42
-0.41421356225290451
10
204.6448886582219
20
12.110266417397071
10
204.64488865822176
20
0.11026641698729472
42
-0.41421356237309398
10
203.64488865822176
20
-0.88973358301271677
10
191.64488865822187
20
-0.889733583012703
42
-0.41421356237313633
10
190.6448886582217
20
0.11026641698731021
0
LWPOLYLINE
5
157
100
AcDbEntity
8
0
100
AcDbPolyline
90
8
70
1
43
0.0
10
66.533348056222252
20
42.972766416987312
42
-0.41421356237309503
10
65.53334805622228
20
41.972766416987319
10
53.533348056222323
20
41.972766416987348
42
-0.41421356237311846
10
52.533348056222245
20
42.972766416987362
10
52.533348056222337
20
54.972766416987341
42
-0.41421356237318607
10
53.53334805622233
20
55.972766416987689
10
65.533348056222323
20
55.972766416987412
42
-0.41421356232056206
10
66.533348056222493
20
54.972766417167009
0
LWPOLYLINE
5
158
100
AcDbEntity
8
0
100
AcDbPolyline
90
8
70
1
43
0.0
10
128.73142926022194
20
12.110266416987304
10
128.73142926022194
20
0.11026641698715506
42
0.41421356237311252
10
129.731429260222
20
-0.8897335830128511
10
141.73142926022194
20
-0.88973358301269512
42
0.41421356237311707
10
142.73142926022194
20
0.11026641698730133
10
142.7314292602224
20
12.110266417397202
42
0.41421356225305145
10
141.73142926022194
20
13.110266416987002
10
129.73142926022194
20
13.11026641698758
42
0.41421356237318868
0
LWPOLYLINE
5
159
100
AcDbEntity
8
0
100
AcDbPolyline
90
8
70
1
43
0.0
10
42.717969862222262
20
0.11026641698729023
10
42.717969862221842
20
12.110266417397156
42
0.41421356225281997
10
41.717969862222297
20
13.110266416986944
10
29.717969862222308
20
13.110266416986978
42
0.41421356237300982
10
28.717969862222308
20
12.110266416987294
10
28.717969862222308
20
0.11026641698728801
42
0.41421356237309626
10
29.717969862222304
20
-0.8897335830127131
10
41.717969862222255
20
-0.88973358301271266
42
0.4142135623731048
0
LWPOLYLINE
5
160
100
AcDbEntity
8
0
100
AcDbPolyline
90
8
70
1
43
0.0
10
122.68334805622206
20
55.97276641698776
42
-0.414213562373004
10
123.6833480562218
20
54.972766416987767
10
123.683348056222
20
42.972766416987355
42
-0.41421356237309243
10
122.68334805622204
20
41.972766416987355
10
110.68334805622207
20
41.972766416986957
42
-0.41421356249321273
10
109.68334805622223
20
42.972766417397217
10
109.68334805622213
20
54.972766416987334
42
-0.41421356237320689
10
110.68334805622216
20
55.972766416987753
0
LWPOLYLINE
5
161
100
AcDbEntity
8
0
100
AcDbPolyline
90
8
70
1
43
0.0
10
79.817969862222085
20
13.110266416986976
42
-0.41421356225284789
10
80.817969862221787
20
12.110266417397192
10
80.817969862222085
20
0.11026641698728822
42
-0.41421356237309509
10
79.817969862222085
20
-0.8897335830127151
10
67.817969862222157
20
-0.88973358301275085
42
-0.41421356237310386
10
66.817969862222114
20
0.11026641698724804
10
66.817969862222114
20
12.11026641698729
42
-0.41421356237313406
10
67.817969862222114
20
13.1102664169874
0
LWPOLYLINE
5
162
100
AcDbEntity
8
0
100
AcDbPolyline
90
8
70
1
43
0.0
10
148.7814292602219
20
-0.88973358301273187
10
160.78142926022193
20
-0.88973358301272409
42
0.41421356237308887
10
161.7814292602219
20
0.11026641698729911
10
161.7814292602219
20
12.110266417397074
42
0.41421356225297079
10
160.78142926022193
20
13.110266416986928
10
148.7814292602219
20
13.1102664169872
42
0.41421356237307616
10
147.7814292602219
20
12.110266416987303
10
147.78142926022201
20
0.11026641698729579
42
0.41421356237305068
0
LWPOLYLINE
5
163
100
AcDbEntity
8
0
100
AcDbPolyline
90
8
70
1
43
0.0
10
123.68142926022196
20
0.11026641698730133
10
123.68142926022188
20
12.110266417397202
42
0.41421356225291817
10
122.68142926022196
20
13.110266416986978
10
110.68142926022203
20
13.110266416986789
42
0.41421356237295648
10
109.68142926022199
20
12.110266416987287
10
109.68142926022205
20
0.11026641698722792
42
0.41421356237311052
10
110.68142926022203
20
-0.88973358301277417
10
122.68142926022196
20
-0.88973358301270444
42
0.41421356237309775
0
LWPOLYLINE
5
164
100
AcDbEntity
8
0
100
AcDbPolyline
90
8
70
1
43
0.0
10
85.867969862222097
20
12.110266416987294
42
-0.41421356237305862
10
86.867969862222083
20
13.11026641698713
10
98.867969862222083
20
13.110266416987258
42
-0.41421356237304885
10
99.867969862221955
20
12.110266416987258
10
99.867969862222111
20
0.11026641698728598
42
-0.41421356237311674
10
98.867969862222083
20
-0.88973358301270933
10
86.867969862222125
20
-0.88973358301274774
42
-0.41421356237309992
10
85.867969862222083
20
0.11026641698724804
0
LWPOLYLINE
5
165
100
AcDbEntity
8
0
100
AcDbPolyline
90
8
70
1
43
0.0
10
48.767969862222216
20
-0.88973358301274941
10
60.767969862222174
20
-0.88973358301271865
42
0.41421356237309809
10
61.767969862222145
20
0.11026641698729023
10
61.767969862222358
20
12.110266417397193
42
0.41421356225300071
10
60.767969862222174
20
13.110266416986978
10
48.767969862222174
20
13.110266416987669
42
0.41421356237321144
10
47.767969862222174
20
12.110266416987292
10
47.767969862222174
20
0.11026641698725069
42
0.41421356237310386
0
LWPOLYLINE
5
166
100
AcDbEntity
8
0
100
AcDbPolyline
90
8
70
1
43
0.0
10
166.83142926022182
20
12.110266416987303
10
166.83142926022182
20
0.11026641698731186
42
0.41421356237311885
10
167.8314292602218
20
-0.88973358301270067
10
179.83142926022182
20
-0.88973358301270822
42
0.41421356237311407
10
180.83142926022185
20
0.11026641698729689
10
180.83142926022242
20
12.110266417397161
42
0.41421356225306771
10
179.83142926022182
20
13.110266416987317
10
167.8314292602218
20
13.110266416987022
42
0.41421356237297863
0
LWPOLYLINE
5
167
100
AcDbEntity
8
0
100
AcDbPolyline
90
8
70
1
43
0.0
10
161.78334805622197
20
42.972766416987341
42
-0.41421356237310025
10
160.78334805622191
20
41.972766416987341
10
148.78334805622194
20
41.972766416987369
42
-0.41421356249324393
10
147.78334805622194
20
42.972766417397636
10
147.783348056222
20
54.972766416987355
42
-0.41421356237311846
10
148.783348056222
20
55.972766416987454
10
160.78334805622191
20
55.97276641698776
42
-0.41421356237315227
10
161.78334805622228
20
54.972766416987795
0
LWPOLYLINE
5
168
100
AcDbEntity
8
0
100
AcDbPolyline
90
8
70
1
43
0.0
10
228.74488865822173
20
12.110266416987297
10
228.74488865822173
20
0.11026641698734216
42
0.41421356237307333
10
229.74488865822167
20
-0.88973358301267935
10
241.74488865822158
20
-0.8897335830127201
42
0.4142135623730579
10
242.74488865822161
20
0.11026641698729245
10
242.74488865822147
20
12.110266417396998
42
0.41421356225286093
10
241.7448886582217
20
13.110266416986873
10
229.7448886582217
20
13.110266416987095
42
0.41421356237306384
0
LWPOLYLINE
5
169
100
AcDbEntity
8
0
100
AcDbPolyline
90
8
70
1
43
0.0
10
260.79488865822157
20
13.110266416987306
10
248.79488865822165
20
13.110266416986819
42
0.41421356237294282
10
247.79488865822159
20
12.110266416987297
10
247.79488865822159
20
0.11026641698732295
42
0.41421356237308077
10
248.79488865822162
20
-0.88973358301270788
10
260.79488865822157
20
-0.8897335830127151
42
0.41421356237311407
10
261.79488865822157
20
0.11026641698729023
10
261.79488865822134
20
12.110266417397138
42
0.4142135622528661
0
LWPOLYLINE
5
170
100
AcDbEntity
8
0
100
AcDbPolyline
90
8
70
1
43
0.0
10
222.69488865822171
20
13.110266416986915
10
210.69488865822171
20
13.110266416987388
42
0.41421356237311519
10
209.69488865822171
20
12.110266416987299
10
209.69488865822171
20
0.11026641698727281
42
0.41421356237307866
10
210.69488865822171
20
-0.88973358301275307
10
222.69488865822171
20
-0.88973358301270311
42
0.41421356237306672
10
223.69488865822174
20
0.11026641698729467
10
223.69488865822134
20
12.110266417397106
42
0.41421356225278744
0
LWPOLYLINE
5
171
100
AcDbEntity
8
0
100
AcDbPolyline
90
10
70
1
43
0.0
10
148.77691338421673
20
113.12275833784156
42
-0.0015925197357264842
10
148.78328341468665
20
113.12277862398756
10
163.16454848022209
20
113.12276641698739
42
-0.41421344458541759
10
164.16454805622234
20
112.12276639513971
10
164.16454805622203
20
100.1227664169874
42
-0.41421356237302737
10
163.16454805622203
20
99.122766416987361
10
139.25829636922208
20
99.122766416987389
42
-0.41421356237312623
10
138.25829636922205
20
100.12276641698739
10
138.25829636922219
20
112.12276641698742
42
-0.41421356237309503
10
139.25829636922219
20
113.12276641698745
0
LWPOLYLINE
5
172
100
AcDbEntity
8
0
100
AcDbPolyline
90
8
70
1
43
0.0
10
108.39584805622223
20
94.072766416986852
10
96.395848056222206
20
94.072766416987079
42
0.41421356237300139
10
95.395848056222206
20
93.072766416987406
10
95.395848056222277
20
81.072766417397943
42
0.41421356249325436
10
96.395848056222206
20
80.072766416987733
10
108.39584805622222
20
80.072766416987363
42
0.41421356237311063
10
109.39584805622221
20
81.072766416987378
10
109.3958480562226
20
93.07276641716652
42
0.41421356232058809
0
LWPOLYLINE
5
173
100
AcDbEntity
8
0
100
AcDbPolyline
90
8
70
1
43
0.0
10
43.008348056222317
20
35.922766416987329
42
-0.41421356237323032
10
44.008348056222317
20
36.922766416987798
10
56.008348056222275
20
36.922766416987649
42
-0.41421356232039558
10
57.008348056221934
20
35.922766417167239
10
57.008348056222232
20
23.922766416987304
42
-0.41421356237309631
10
56.008348056222232
20
22.922766416987312
10
44.008348056222282
20
22.922766416987045
42
-0.41421356249321145
10
43.008348056222459
20
23.922766417397298
0
LWPOLYLINE
5
174
100
AcDbEntity
8
0
100
AcDbPolyline
90
8
70
1
43
0.0
10
127.44584805622213
20
94.072766416986894
42
-0.41421356232047885
10
128.44584805622208
20
93.072766417166548
10
128.44584805622213
20
81.072766416987378
42
-0.41421356237311585
10
127.4458480562221
20
80.072766416987378
10
115.44584805622215
20
80.072766416987719
42
-0.41421356249335323
10
114.44584805622178
20
81.072766417397929
10
114.44584805622213
20
93.072766416987378
42
-0.41421356237321988
10
115.44584805622215
20
94.072766416987832
0
LWPOLYLINE
5
175
100
AcDbEntity
8
0
100
AcDbPolyline
90
8
70
1
43
0.0
10
-57.004151943777387
20
35.922766416987322
42
-0.41421356237305473
10
-56.00415194377738
20
36.922766416987173
10
-44.00415194377743
20
36.9227664169874
42
-0.4142135623730222
10
-43.004151943777643
20
35.922766416987386
10
-43.00415194377743
20
23.922766416987294
42
-0.41421356237309631
10
-44.004151943777437
20
22.922766416987304
10
-56.004151943777423
20
22.922766416987088
42
-0.41421356249326868
10
-57.004151943777472
20
23.922766417397327
0
LWPOLYLINE
5
176
100
AcDbEntity
8
0
100
AcDbPolyline
90
8
70
1
43
0.0
10
184.595848056222
20
94.072766416987179
10
172.595848056222
20
94.072766416987093
42
0.41421356237299617
10
171.595848056222
20
93.072766416987406
10
171.59584805622228
20
81.072766417397929
42
0.41421356249312946
10
172.59584805622197
20
80.072766416987776
10
184.59584805622197
20
80.072766416987363
42
0.41421356237305862
10
185.59584805622197
20
81.072766416987378
10
185.59584805622228
20
93.072766417166747
42
0.41421356232052564
0
LWPOLYLINE
5
177
100
AcDbEntity
8
0
100
AcDbPolyline
90
8
70
1
43
0.0
10
47.483348056222283
20
42.972766416987326
42
-0.41421356237310281
10
46.483348056222297
20
41.972766416987326
10
34.483348056222361
20
41.972766416987348
42
-0.41421356237311974
10
33.483348056222326
20
42.972766416987369
10
33.48334805622239
20
54.972766416987341
42
-0.41421356237297274
10
34.483348056222397
20
55.972766416986971
10
46.483348056222347
20
55.972766416987419
42
-0.41421356232047624
10
47.483348056222269
20
54.972766417167016
0
LWPOLYLINE
5
178
100
AcDbEntity
8
0
100
AcDbPolyline
90
8
70
1
43
0.0
10
-18.904151943777503
20
54.972766416987341
42
-0.4142135623732095
10
-17.904151943777507
20
55.97276641698771
10
-5.9041519437774692
20
55.972766416987682
42
-0.41421356237306867
10
-4.9041519437775438
20
54.972766416987682
10
-4.9041519437774781
20
42.972766416987326
42
-0.41421356237307944
10
-5.9041519437774737
20
41.972766416987326
10
-17.904151943777464
20
41.972766416986985
42
-0.41421356249324459
10
-18.904151943777428
20
42.972766417397239
0
LWPOLYLINE
5
179
100
AcDbEntity
8
0
100
AcDbPolyline
90
8
70
1
43
0.0
10
232.22084805622188
20
75.022766416987139
42
-0.41421356232035916
10
233.22084805622148
20
74.022766417166679
10
233.22084805622177
20
62.022766416987366
42
-0.41421356237309243
10
232.22084805622174
20
61.022766416987359
10
220.22084805622174
20
61.022766416987359
42
-0.41421356249318414
10
219.22084805622188
20
62.022766417397591
10
219.22084805622177
20
74.02276641698738
42
-0.41421356237305862
10
220.22084805622185
20
75.022766416987267
0
LWPOLYLINE
5
180
100
AcDbEntity
8
0
100
AcDbPolyline
90
8
70
1
43
0.0
10
133.49584805622212
20
93.072766416987378
42
-0.41421356237317308
10
134.49584805622214
20
94.07276641698769
10
146.49584805622209
20
94.072766416987136
42
-0.41421356232063489
10
147.49584805622243
20
93.072766417166719
10
147.49584805622206
20
81.072766416987378
42
-0.41421356237313145
10
146.49584805622203
20
80.072766416987378
10
134.49584805622209
20
80.072766416987719
42
-0.41421356249318675
10
133.49584805622226
20
81.072766417397943
0
LWPOLYLINE
5
181
100
AcDbEntity
8
0
100
AcDbPolyline
90
8
70
1
43
0.0
10
185.88334805622185
20
54.972766416987341
42
-0.4142135623731783
10
186.88334805622193
20
55.972766416987795
10
198.88334805622185
20
55.972766416987753
42
-0.41421356237302481
10
199.88334805622173
20
54.97276641698776
10
199.88334805622188
20
42.972766416987341
42
-0.41421356237310025
10
198.88334805622185
20
41.972766416987362
10
186.88334805622188
20
41.972766416987398
42
-0.41421356249319452
10
185.88334805622182
20
42.972766417397636
0
LWPOLYLINE
5
182
100
AcDbEntity
8
0
100
AcDbPolyline
90
8
70
1
43
0.0
10
205.93334805622186
20
41.972766416987355
42
-0.41421356249320235
10
204.9333480562218
20
42.972766417397551
10
204.93334805622186
20
54.972766416987341
42
-0.41421356237320689
10
205.93334805622192
20
55.972766416987774
10
217.93334805622186
20
55.97276641698776
42
-0.41421356237313928
10
218.93334805622189
20
54.972766416987739
10
218.93334805622175
20
42.972766416987341
42
-0.4142135623730846
10
217.93334805622177
20
41.972766416987341
0
LWPOLYLINE
5
183
100
AcDbEntity
8
0
100
AcDbPolyline
90
8
70
1
43
0.0
10
-37.954151943777518
20
54.972766416987341
42
-0.4142135623730534
10
-36.954151943777454
20
55.972766416987142
10
-24.954151943777486
20
55.972766416987682
42
-0.41421356237300527
10
-23.954151943777777
20
54.972766416987682
10
-23.954151943777479
20
42.972766416987326
42
-0.41421356237309503
10
-24.954151943777486
20
41.972766416987319
10
-36.954151943777475
20
41.972766416986971
42
-0.41421356249325048
10
-37.954151943777447
20
42.972766417397224
0
LWPOLYLINE
5
184
100
AcDbEntity
8
0
100
AcDbPolyline
90
8
70
1
43
0.0
10
153.5458480562221
20
80.072766416987719
10
165.54584805622204
20
80.072766416987378
42
0.4142135623730378
10
166.54584805622204
20
81.072766416987378
10
166.54584805622233
20
93.072766417166719
42
0.41421356232054646
10
165.54584805622204
20
94.072766416987136
10
153.5458480562221
20
94.072766416987278
42
0.41421356237310025
10
152.5458480562221
20
93.072766416987378
10
152.54584805622181
20
81.072766417397986
42
0.41421356249335323
0
LWPOLYLINE
5
185
100
AcDbEntity
8
0
100
AcDbPolyline
90
8
70
1
43
0.0
10
167.83334805622189
20
41.972766416987341
10
179.83334805622189
20
41.972766416987326
42
0.41421356237305079
10
180.83334805622189
20
42.972766416987341
10
180.83334805622147
20
54.972766416987739
42
0.41421356237293372
10
179.83334805622189
20
55.972766416987703
10
167.83334805622195
20
55.97276641698744
42
0.41421356237313145
10
166.83334805622192
20
54.972766416987341
10
166.83334805622181
20
42.972766417397629
42
0.41421356249327518
0
LWPOLYLINE
5
186
100
AcDbEntity
8
0
100
AcDbPolyline
90
8
70
1
43
0.0
10
-57.004151943777387
20
54.972766416987334
42
-0.41421356237305601
10
-56.00415194377738
20
55.972766416987206
10
-44.004151943777423
20
55.97276641698766
42
-0.4142135623732251
10
-43.004151943776925
20
54.972766416987682
10
-43.004151943777444
20
42.972766416987312
42
-0.41421356237310542
10
-44.00415194377743
20
41.972766416987312
10
-56.004151943777423
20
41.972766416987746
42
-0.41421356249310087
10
-57.004151943776904
20
42.972766417397963
0
LWPOLYLINE
5
187
100
AcDbEntity
8
0
100
AcDbPolyline
90
8
70
1
43
0.0
10
204.64584805622192
20
81.072766416987378
10
204.64584805622212
20
93.072766417166719
42
0.41421356232050482
10
203.64584805622198
20
94.072766416987136
10
191.64584805622195
20
94.072766416987847
42
0.41421356237314705
10
190.64584805622195
20
93.072766416987378
10
190.64584805622195
20
81.072766417397574
42
0.41421356249323876
10
191.64584805622201
20
80.072766416987378
10
203.64584805622189
20
80.072766416987363
42
0.41421356237305862
0
LWPOLYLINE
5
188
100
AcDbEntity
8
0
100
AcDbPolyline
90
8
70
1
43
0.0
10
285.60834805622164
20
23.941869705987298
42
-0.41421356237312362
10
284.60834805622153
20
22.941869705987344
10
272.60834805622159
20
22.941869705987333
42
-0.41421356249325308
10
271.60834805622159
20
23.94186970639759
10
271.60834805622164
20
35.941869705987337
42
-0.41421356237321727
10
272.60834805622164
20
36.941869705987713
10
284.60834805622159
20
36.941869705986939
42
-0.4142135623730781
10
285.60834805622159
20
35.941869705986981
0
LWPOLYLINE
5
189
100
AcDbEntity
8
0
100
AcDbPolyline
90
8
70
1
43
0.0
10
201.17084805622193
20
61.022766416987288
42
-0.41421356249325436
10
200.17084805622179
20
62.022766417397513
10
200.17084805622193
20
74.02276641698738
42
-0.41421356237314966
10
201.17084805622201
20
75.022766416987594
10
213.17084805622187
20
75.022766416987153
42
-0.41421356232044237
10
214.17084805622159
20
74.022766417166693
10
214.17084805622181
20
62.022766416987366
42
-0.41421356237308982
10
213.17084805622184
20
61.022766416987338
0
LWPOLYLINE
5
190
100
AcDbEntity
8
0
100
AcDbPolyline
90
8
70
1
43
0.0
10
252.55834805622163
20
35.941869705987337
42
-0.41421356237307422
10
253.55834805622169
20
36.941869705987237
10
265.55834805622163
20
36.941869705986932
42
-0.41421356237300788
10
266.55834805622135
20
35.941869705986967
10
266.55834805622158
20
23.94186970598728
42
-0.414213562373069
10
265.55834805622158
20
22.941869705987305
10
253.55834805622169
20
22.941869705987351
42
-0.41421356249322966
10
252.55834805622158
20
23.941869706397565
0
LWPOLYLINE
5
191
100
AcDbEntity
8
0
100
AcDbPolyline
90
8
70
1
43
0.0
10
236.98334805622176
20
55.97276641698776
10
224.98334805622181
20
55.972766416987255
42
0.41421356237311063
10
223.98334805622173
20
54.972766416987341
10
223.9833480562217
20
42.97276641739758
42
0.41421356249323615
10
224.98334805622176
20
41.972766416987355
10
236.98334805622176
20
41.972766416987348
42
0.41421356237304302
10
237.98334805622173
20
42.972766416987341
10
237.98334805622207
20
54.972766416987739
42
0.41421356237315488
0
LWPOLYLINE
5
192
100
AcDbEntity
8
0
100
AcDbPolyline
90
8
70
1
43
0.0
10
280.8458480562216
20
42.972766416987341
42
-0.41421356237311846
10
279.8458480562216
20
41.972766416987355
10
267.8458480562216
20
41.972766416987298
42
-0.4142135624931737
10
266.8458480562216
20
42.972766417397537
10
266.84584805622166
20
54.972766416987334
42
-0.41421356237296758
10
267.84584805622171
20
55.972766416986858
10
279.84584805622171
20
55.97276641698771
42
-0.41421356237302481
10
280.8458480562216
20
54.972766416987724
0
LWPOLYLINE
5
193
100
AcDbEntity
8
0
100
AcDbPolyline
90
8
70
1
43
0.0
10
57.295848056222354
20
93.072766416987363
10
57.295848056222233
20
81.072766417398
42
0.41421356249326219
10
58.295848056222333
20
80.07276641698779
10
70.295848056222297
20
80.072766416987406
42
0.41421356237310281
10
71.295848056222297
20
81.072766416987392
10
71.295848056222724
20
93.072766417167529
42
0.41421356232063228
10
70.29584805622234
20
94.072766416987875
10
58.295848056222333
20
94.072766416987591
42
0.41421356237315748
0
LWPOLYLINE
5
194
100
AcDbEntity
8
0
100
AcDbPolyline
90
8
70
1
43
0.0
10
181.12084805622192
20
74.02276641698738
42
-0.41421356237317569
10
182.12084805622197
20
75.022766416987778
10
194.12084805622192
20
75.022766416987153
42
-0.41421356232039819
10
195.12084805622175
20
74.022766417166693
10
195.12084805622186
20
62.022766416987366
42
-0.41421356237309243
10
194.12084805622186
20
61.022766416987359
10
182.12084805622194
20
61.02276641698726
42
-0.41421356249322056
10
181.12084805622192
20
62.022766417397477
0
LWPOLYLINE
5
195
100
AcDbEntity
8
0
100
AcDbPolyline
90
130
70
1
43
0.0
10
75.32079636922235
20
119.34776641698745
42
-0.41421356237310542
10
75.820796369222364
20
119.84776641698744
10
77.906582807222392
20
119.84776641672356
42
-0.19891236737962822
10
78.613689588222357
20
119.55487319798742
10
81.081456541442606
20
117.08710624520775
42
0.19891236737966639
10
82.142116713222322
20
116.64776641698744
10
232.18697602637351
20
116.64776641698738
42
0.19891236735340298
10
233.24763619822193
20
117.08710624498741
10
235.71540315103533
20
119.55487319817399
42
-0.19891236737973741
10
236.42250993222183
20
119.84776641698743
10
238.50829636922185
20
119.84776641698744
42
-0.41421356237301177
10
239.00829636922185
20
119.34776641698744
10
239.00829636922126
20
115.82276641760275
42
0.99999999999999989
10
242.0082963692218
20
115.82276641698746
10
242.00829636922185
20
119.34776641698744
42
-0.41421356237310542
10
242.50829636922177
20
119.84776641698743
10
244.59408280722181
20
119.84776641672362
42
-0.19891236737966284
10
245.30118958822189
20
119.55487319798748
10
247.76895654144198
20
117.08710624520768
42
0.19891236737963161
10
248.82961671322181
20
116.64776641698739
10
285.63334805622168
20
116.64776641698742
10
288.63334805622168
20
113.64776641698742
10
288.63334805622151
20
0.085266416987306859
10
285.63334805622151
20
-2.9147335830127159
10
265.11716840022211
20
-2.9147335830125227
42
0.19891236737975615
10
264.05650822822156
20
-3.3540734110127262
10
259.58874127540804
20
-7.8218403641992769
42
-0.19891236737964102
10
258.8816344942216
20
-8.1147335830127183
10
256.79584805622159
20
-8.1147335830127005
42
-0.41421356237306578
10
256.29584805622159
20
-7.6147335830127441
10
256.29584805622159
20
-3.6647335823973402
42
0.99999999999999989
10
253.29584805622162
20
-3.6647335830126684
10
253.29584805622162
20
-7.6147335830127041
42
-0.41421356237314122
10
252.79584805622162
20
-8.1147335830127059
10
250.71006161922162
20
-8.114733583456001
42
-0.19891236756343483
10
250.00295483722155
20
-7.8218403640126972
10
245.53518788500159
20
-3.3540734112333221
42
0.19891236737970364
10
244.47452771322165
20
-2.9147335830126897
10
179.3921684002211
20
-2.9147335830127998
42
0.1989123673795809
10
178.33150822822182
20
-3.3540734110127444
10
173.86374127540836
20
-7.8218403641993124
42
-0.19891236737964207
10
173.15663449422181
20
-8.1147335830127414
10
171.07084805622182
20
-8.1147335830127592
42
-0.41421356237316592
10
170.57084805622182
20
-7.6147335830127725
10
170.57084805622182
20
-3.664733582397333
42
0.99999999999999989
10
167.57084805622179
20
-3.6647335830127497
10
167.57084805622182
20
-7.6147335830127325
42
-0.41421356237307355
10
167.07084805622185
20
-8.1147335830127396
10
164.98506161922191
20
-8.114733583456049
42
-0.19891236756342712
10
164.27795483722181
20
-7.8218403640127292
10
159.81018788500211
20
-3.3540734112333501
42
0.19891236737974302
10
158.74952771322182
20
-2.914733583012719
10
93.667168400222053
20
-2.9147335830131125
42
0.1989123673796018
10
92.60650822822214
20
-3.3540734110127604
10
88.138741275408634
20
-7.8218403641992786
42
-0.19891236737968709
10
87.431634494222052
20
-8.1147335830127449
10
85.345848056222152
20
-8.1147335830127414
42
-0.4142135623730957
10
84.84584805622211
20
-7.6147335830127698
10
84.845848056222138
20
-2.0897335827435666
42
0.99999999999999989
10
81.845848056222138
20
-2.0897335830126984
10
81.845848056222152
20
-7.6147335830127254
42
-0.4142135623731607
10
81.345848056222096
20
-8.1147335830127165
10
79.2600616192221
20
-8.1147335834559957
42
-0.19891236756342526
10
78.552954837222131
20
-7.8218403640127123
10
74.085187885001432
20
-3.3540734112333785
42
0.19891236737956727
10
73.02452771322217
20
-2.9147335830127115
10
8.9045104642223549
20
-2.9147335830127306
42
-0.41421356237309287
10
7.9045104642223398
20
-1.9147335830127163
10
7.9045104642223585
20
-1.8897335830127016
42
-0.4142135623730806
10
8.9045104642223123
20
-0.88973358301270777
10
17.90451046422227
20
-0.88973358301271266
42
0.41421356237309781
10
18.904510464222266
20
0.11026641698729245
10
18.904510464222128
20
12.110266417166727
42
0.41421356232043266
10
17.904510464222373
20
13.110266416987313
10
5.9045104642223842
20
13.110266416987324
42
0.41421356237310542
10
4.9045104642223878
20
12.110266416987292
10
4.9045104642223514
20
3.160266416987267
42
-0.41421356237310153
10
3.9045104642223287
20
2.1602664169872745
10
-3.9041519437775913
20
2.1602664169873109
42
-0.4142135623730972
10
-4.9041519437775518
20
3.1602664169872785
10
-4.9041519437771246
20
12.110266417166784
42
0.4142135623206219
10
-5.9041519437775847
20
13.110266416987317
10
-17.904151943777578
20
13.110266416987656
42
0.414213562373203
10
-18.904151943777496
20
12.110266416987299
10
-18.904151943777432
20
0.11026641739711751
42
0.41421356249324764
10
-17.904151943777478
20
-0.88973358301270578
10
-8.9041519437775207
20
-0.88973358301275784
42
-0.41421356237309481
10
-7.9041519437775776
20
-1.8897335830127024
10
-7.9041519437775261
20
-1.9147335830127166
42
-0.41421356237309276
10
-8.9041519437775172
20
-2.9147335830127097
10
-30.157831599778213
20
-2.9147335830124623
42
0.19891236737960466
10
-31.218491771777511
20
-3.3540734110127444
10
-35.686258724590971
20
-7.8218403641992591
42
-0.19891236737966123
10
-36.393365505777531
20
-8.1147335830127219
10
-38.479151943777552
20
-8.1147335830126934
42
-0.41421356237305729
10
-38.979151943777531
20
-7.6147335830127592
10
-38.979151943777453
20
-2.0897335827433077
42
0.99999999999999989
10
-41.979151943777552
20
-2.0897335830126931
10
-41.979151943777531
20
-7.6147335830127147
42
-0.41421356237308332
10
-42.479151943777545
20
-8.1147335830127236
10
-44.564938380777477
20
-8.1147335834559833
42
-0.19891236756343059
10
-45.272045162777452
20
-7.8218403640127026
10
-49.739812114998045
20
-3.3540734112324797
42
0.19891236737960144
10
-50.800472286777506
20
-2.9147335830127243
10
-57.029151943777457
20
-2.9147335830127452
10
-60.029151943777414
20
0.085266416987277438
10
-60.029151943777201
20
113.64776641698739
10
-57.029151943777208
20
116.64776641698739
10
-29.750472286625254
20
116.64776641698722
42
0.19891236735335185
10
-28.689812114777304
20
117.08710624498742
10
-26.222045161963848
20
119.55487319817401
42
-0.19891236737963364
10
-25.514938380777316
20
119.84776641698744
10
-23.42915194377737
20
119.84776641698744
42
-0.41421356237307161
10
-22.929151943777313
20
119.34776641698745
10
-22.929151943776915
20
115.82276641760272
42
0.99999999999999989
10
-19.929151943777388
20
115.82276641698742
10
-19.929151943777402
20
119.3477664169874
42
-0.4142135623730937
10
-19.429151943777381
20
119.84776641698743
10
-17.343365505777374
20
119.84776641672369
42
-0.19891236737967669
10
-16.636258724777285
20
119.55487319798742
10
-14.168491771557612
20
117.08710624520776
42
0.19891236737973458
10
-13.107831599777304
20
116.64776641698742
10
65.499476026374097
20
116.64776641698793
42
0.19891236735329793
10
66.560136198222366
20
117.08710624498742
10
69.027903151035844
20
119.55487319817395
42
-0.1989123673796753
10
69.735009932222411
20
119.84776641698744
10
71.820796369222393
20
119.84776641698744
42
-0.41421356237304302
10
72.320796369222393
20
119.34776641698745
10
72.320796369221867
20
115.82276641760274
42
0.99999999999999989
10
75.320796369222322
20
115.82276641698743
0
ENDSEC
0
SECTION
2
OBJECTS
0
DICTIONARY
5
C
100
AcDbDictionary
3
ACAD_GROUP
350
D
3
ACAD_MLINESTYLE
350
17
0
DICTIONARY
5
D
100
AcDbDictionary
0
DICTIONARY
5
1A
330
C
100
AcDbDictionary
0
DICTIONARY
5
17
100
AcDbDictionary
0
ENDSEC
0
EOF
