0
SECTION
2
HEADER
9
$INSUNITS
70
4
9
$ACADVER
1
AC1014
9
$HANDSEED
5
FFFF
0
ENDSEC
0
SECTION
2
TABLES
0
TABLE
2
VPORT
5
8
100
AcDbSymbolTable
0
ENDTAB
0
TABLE
2
LTYPE
5
5
100
AcDbSymbolTable
0
LTYPE
5
14
100
AcDbSymbolTableRecord
100
AcDbLinetypeTableRecord
2
BYBLOCK
70
0
0
LTYPE
5
15
100
AcDbSymbolTableRecord
100
AcDbLinetypeTableRecord
2
BYLAYER
70
0
0
ENDTAB
0
TABLE
2
LAYER
5
2
100
AcDbSymbolTable
70
2
0
LAYER
5
50
100
AcDbSymbolTableRecord
100
AcDbLayerTableRecord
2
0
70
0
6
CONTINUOUS
0
ENDTAB
0
TABLE
2
STYLE
5
3
100
AcDbSymbolTable
70
1
0
STYLE
5
11
100
AcDbSymbolTableRecord
100
AcDbTextStyleTableRecord
2
STANDARD
70
0
0
ENDTAB
0
TABLE
2
VIEW
5
6
100
AcDbSymbolTable
70
0
0
ENDTAB
0
TABLE
2
UCS
5
7
100
AcDbSymbolTable
70
0
0
ENDTAB
0
TABLE
2
APPID
5
9
100
AcDbSymbolTable
70
2
0
APPID
5
12
100
AcDbSymbolTableRecord
100
AcDbRegAppTableRecord
2
ACAD
70
0
0
ENDTAB
0
TABLE
2
DIMSTYLE
5
A
100
AcDbSymbolTable
70
1
0
ENDTAB
0
TABLE
2
BLOCK_RECORD
5
1
100
AcDbSymbolTable
70
1
0
BLOCK_RECORD
5
1F
100
AcDbSymbolTableRecord
100
AcDbBlockTableRecord
2
*MODEL_SPACE
0
BLOCK_RECORD
5
1B
100
AcDbSymbolTableRecord
100
AcDbBlockTableRecord
2
*PAPER_SPACE
0
ENDTAB
0
ENDSEC
0
SECTION
2
BLOCKS
0
BLOCK
5
20
100
AcDbEntity
100
AcDbBlockBegin
2
*MODEL_SPACE
0
ENDBLK
5
21
100
AcDbEntity
100
AcDbBlockEnd
0
BLOCK
5
1C
100
AcDbEntity
100
AcDbBlockBegin
2
*PAPER_SPACE
0
ENDBLK
5
1D
100
AcDbEntity
100
AcDbBlockEnd
0
ENDSEC
0
SECTION
2
ENTITIES
0
LWPOLYLINE
5
100
100
AcDbEntity
8
0
100
AcDbPolyline
90
82
70
1
43
0.0
10
79.971431795519138
20
-156.77308551058624
42
-0.66238270582660785
10
79.547518752040872
20
-156.59349081882689
10
79.547518752040872
20
-154.94121965464109
42
0.99999999999999989
10
76.84751875204087
20
-154.94121965464109
10
76.84751875204087
20
-156.59349081882692
42
-0.6623827058266093
10
76.423605708562604
20
-156.77308551058621
42
-0.20195861631838716
10
75.647542949783372
20
-154.95232856553218
42
0.4129381627393755
10
73.147566673060311
20
-152.46321965464111
10
29.368893752040858
20
-152.46321965464111
10
29.368893752040886
20
-33.400719654641001
10
57.669393752040889
20
-33.400719654640987
42
0.41421356237309398
10
60.169393752040882
20
-30.900719654640998
10
60.169393752040882
20
-30.878719654640992
42
-0.20309240043829277
10
60.945480708562613
20
-29.046853798695828
42
-0.66238270582659475
10
61.369393752040892
20
-29.226448490455169
10
61.369393752040878
20
-30.878719654640996
42
0.99999999999999989
10
64.069393752040881
20
-30.878719654640992
10
64.069393752040867
20
-29.226448490455166
42
-0.66238270582659753
10
64.493306795519146
20
-29.046853798695839
42
-0.2030924004382923
10
65.269393752040884
20
-30.878719654640989
10
65.26939375204087
20
-30.900719654640987
42
0.41421356237309293
10
67.769393752040855
20
-33.400719654640987
10
143.39439375204086
20
-33.400719654640973
42
0.41421356237309398
10
145.89439375204086
20
-30.90071965464098
10
145.89439375204086
20
-30.878719654640967
42
-0.20309240043829219
10
146.67048070856259
20
-29.046853798695818
42
-0.66238270582657599
10
147.09439375204087
20
-29.226448490455141
10
147.09439375204087
20
-30.878719654640967
42
0.99999999999999989
10
149.79439375204086
20
-30.878719654640964
10
149.79439375204083
20
-29.226448490455127
42
-0.66238270582654779
10
150.21830679551914
20
-29.046853798695803
42
-0.20309240043829277
10
150.99439375204088
20
-30.878719654640964
10
150.99439375204088
20
-30.900719654640966
42
0.41421356237309709
10
153.49439375204088
20
-33.400719654640973
10
229.11939375204088
20
-33.400719654640952
42
0.41421356237309453
10
231.61939375204088
20
-30.900719654640952
10
231.61939375204088
20
-30.878719654640957
42
-0.20309240043829588
10
232.39548070856262
20
-29.046853798695757
42
-0.66238270582646563
10
232.81939375204087
20
-29.226448490455141
10
232.81939375204087
20
-30.87871965464096
42
0.99999999999999989
10
235.51939375204088
20
-30.878719654640946
10
235.51939375204088
20
-29.226448490455116
42
-0.66238270582656
10
235.94330679551913
20
-29.046853798695803
42
-0.20309240043829252
10
236.71939375204087
20
-30.878719654640946
10
236.71939375204087
20
-30.900719654640948
42
0.41421356237309503
10
239.21939375204087
20
-33.400719654640952
10
352.94439375204087
20
-33.400719654640923
42
0.41421356237309453
10
355.44439375204087
20
-30.900719654640927
10
355.44439375204081
20
-30.878719654640918
42
-0.20309240043829668
10
356.2204807085626
20
-29.046853798695707
42
-0.66238270582672998
10
356.64439375204091
20
-29.226448490455038
10
356.64439375204091
20
-30.878719654640925
42
0.99999999999999989
10
359.34439375204084
20
-30.878719654640925
10
359.34439375204084
20
-29.226448490455038
42
-0.66238270582666525
10
359.76830679551909
20
-29.046853798695686
42
-0.20309240043830165
10
360.54439375204089
20
-30.878719654640921
10
360.54439375204089
20
-30.900719654640916
42
0.41421356237309503
10
363.04439375204089
20
-33.400719654640923
10
377.03139375204091
20
-33.400719654640909
10
377.03139375204091
20
-152.46321965464102
10
343.99434583102135
20
-152.46321965464102
42
0.41293816273935885
10
341.49436955429837
20
-154.9523285655321
42
-0.20195861631839618
10
340.71830679551903
20
-156.77308551058621
42
-0.6623827058266073
10
340.29439375204078
20
-156.59349081882689
10
340.29439375204078
20
-154.941219654641
42
0.99999999999999989
10
337.59439375204079
20
-154.941219654641
10
337.59439375204079
20
-156.59349081882689
42
-0.66238270582656378
10
337.17048070856259
20
-156.77308551058621
42
-0.20195861631839446
10
336.3944179497833
20
-154.95232856553213
42
0.41293816273936718
10
333.89444167306033
20
-152.46321965464105
10
247.55372083102145
20
-152.46321965464105
42
0.41293816273937134
10
245.05374455429833
20
-154.95232856553213
42
-0.20195861631839249
10
244.27768179551904
20
-156.77308551058613
42
-0.66238270582659964
10
243.85376875204091
20
-156.59349081882687
10
243.85376875204091
20
-154.94121965464106
42
0.99999999999999989
10
241.15376875204083
20
-154.94121965464106
10
241.15376875204089
20
-156.59349081882687
42
-0.66238270582674852
10
240.72985570856258
20
-156.77308551058618
42
-0.20195861631838474
10
239.95379294978338
20
-154.95232856553213
42
0.4129381627393755
10
237.45381667306035
20
-152.46321965464108
10
83.247470831021445
20
-152.46321965464108
42
0.41293816273937756
10
80.747494554298385
20
-154.95232856553218
42
-0.20195861631838843
0
LWPOLYLINE
5
101
100
AcDbEntity
8
0
100
AcDbPolyline
90
8
70
1
43
0.0
10
314.60689375204095
20
-60.216219654640724
10
314.60689375204095
20
-92.266219654640977
42
0.41421356237309503
10
315.10689375204095
20
-92.766219654640963
10
319.91939375204095
20
-92.766219654640992
42
0.41421356237309503
10
320.41939375204095
20
-92.266219654640977
10
320.41939375204089
20
-60.216219654640398
42
0.41421356237311585
10
319.91939375204083
20
-59.716219654640391
10
315.10689375204095
20
-59.716219654640739
42
0.414213562373069
0
LWPOLYLINE
5
102
100
AcDbEntity
8
0
100
AcDbPolyline
90
8
70
1
43
0.0
10
320.41939375204095
20
-133.41621965464105
10
320.41939375204095
20
-95.26621965464102
42
0.41421356237309503
10
319.91939375204089
20
-94.766219654640992
10
315.106893752041
20
-94.76621965464102
42
0.41421356237309503
10
314.60689375204095
20
-95.26621965464102
10
314.60689375204095
20
-133.41621965464105
42
0.41421356237309503
10
315.106893752041
20
-133.91621965464105
10
319.91939375204095
20
-133.91621965464108
42
0.41421356237309503
0
LWPOLYLINE
5
103
100
AcDbEntity
8
0
100
AcDbPolyline
90
8
70
1
43
0.0
10
314.60689375204095
20
-52.547469654640963
10
314.60689375204095
20
-57.216219654640966
42
0.41421356237309503
10
315.10689375204089
20
-57.716219654640959
10
319.91939375204095
20
-57.716219654640966
42
0.41421356237309503
10
320.41939375204095
20
-57.216219654640966
10
320.41939375204089
20
-52.547469654640963
42
0.41421356237309503
10
319.91939375204089
20
-52.047469654640949
10
315.106893752041
20
-52.047469654640963
42
0.41421356237309503
0
LWPOLYLINE
5
104
100
AcDbEntity
8
0
100
AcDbPolyline
90
8
70
1
43
0.0
10
320.41939375204089
20
-149.94121965464106
10
320.41939375204089
20
-136.41621965464105
42
0.41421356237309503
10
319.91939375204095
20
-135.91621965464103
10
315.10689375204095
20
-135.91621965464103
42
0.4142135623730846
10
314.60689375204095
20
-136.41621965464103
10
314.606893752041
20
-149.94121965464103
42
0.41421356237309503
10
315.106893752041
20
-150.44121965464103
10
319.91939375204095
20
-150.44121965464103
42
0.4142135623730846
0
LWPOLYLINE
5
105
100
AcDbEntity
8
0
100
AcDbPolyline
90
8
70
1
43
0.0
10
31.88189375204086
20
-57.716219654641201
10
88.2693937520406
20
-57.716219654641144
42
0.41421356237308982
10
88.7693937520406
20
-57.216219654641179
10
88.76939375204077
20
-52.54746965464102
42
0.41421356237310542
10
88.26939375204077
20
-52.047469654641006
10
31.881893752040874
20
-52.047469654641034
42
0.41421356237310025
10
31.381893752040881
20
-52.547469654641041
10
31.381893752040853
20
-57.216219654641229
42
0.41421356237310025
0
LWPOLYLINE
5
106
100
AcDbEntity
8
0
100
AcDbPolyline
90
8
70
1
43
0.0
10
175.28189375204033
20
-57.716219654641066
10
250.1943937520403
20
-57.716219654641002
42
0.41421356237307422
10
250.6943937520403
20
-57.216219654641037
10
250.69439375204064
20
-52.547469654641006
42
0.41421356237311585
10
250.19439375204061
20
-52.04746965464097
10
175.28189375204065
20
-52.047469654641006
42
0.41421356237307422
10
174.78189375204065
20
-52.54746965464097
10
174.78189375204033
20
-57.216219654641051
42
0.41421356237311585
0
LWPOLYLINE
5
107
100
AcDbEntity
8
0
100
AcDbPolyline
90
8
70
1
43
0.0
10
291.84439375204084
20
-148.41621965464097
10
291.84439375204084
20
-137.416219654641
42
0.41421356237309503
10
291.34439375204079
20
-136.916219654641
10
290.3443937520409
20
-136.916219654641
42
0.41421356237309503
10
289.8443937520409
20
-137.41621965464103
10
289.84439375204096
20
-148.416219654641
42
0.41421356237309503
10
290.34439375204096
20
-148.91621965464103
10
291.34439375204084
20
-148.916219654641
42
0.41421356237310542
0
LWPOLYLINE
5
108
100
AcDbEntity
8
0
100
AcDbPolyline
90
8
70
1
43
0.0
10
78.875347276794102
20
-136.91621965464105
10
77.875347276794088
20
-136.91621965464105
42
0.41421356237309503
10
77.375347276794088
20
-137.41621965464108
10
77.375347276794074
20
-148.41621965464105
42
0.41421356237309503
10
77.875347276794074
20
-148.91621965464108
10
78.875347276794102
20
-148.91621965464105
42
0.41421356237309503
10
79.375347276794088
20
-148.41621965464103
10
79.375347276794102
20
-137.41621965464108
42
0.41421356237309503
0
LWPOLYLINE
5
109
100
AcDbEntity
8
0
100
AcDbPolyline
90
8
70
1
43
0.0
10
34.169393752040882
20
-79.766219654641034
10
33.169393752040868
20
-79.766219654641034
42
0.41421356237307161
10
32.669393752040875
20
-80.266219654641048
10
32.669393752040875
20
-91.266219654641034
42
0.41421356237309503
10
33.169393752040868
20
-91.76621965464102
10
34.169393752040882
20
-91.766219654641048
42
0.41421356237309243
10
34.669393752040875
20
-91.266219654641034
10
34.669393752040875
20
-80.266219654641077
42
0.41421356237309243
0
LWPOLYLINE
5
110
100
AcDbEntity
8
0
100
AcDbPolyline
90
8
70
1
43
0.0
10
54.169393752040889
20
-136.91621965464105
10
53.169393752040868
20
-136.91621965464105
42
0.41421356237309503
10
52.669393752040875
20
-137.41621965464108
10
52.669393752040861
20
-148.41621965464105
42
0.41421356237309503
10
53.169393752040861
20
-148.91621965464108
10
54.169393752040882
20
-148.91621965464105
42
0.41421356237309503
10
54.669393752040875
20
-148.41621965464103
10
54.669393752040889
20
-137.41621965464108
42
0.41421356237309503
0
LWPOLYLINE
5
111
100
AcDbEntity
8
0
100
AcDbPolyline
90
8
70
1
43
0.0
10
243.71939375204084
20
-136.916219654641
10
242.71939375204096
20
-136.916219654641
42
0.41421356237310542
10
242.21939375204096
20
-137.41621965464105
10
242.21939375204099
20
-148.41621965464103
42
0.41421356237309503
10
242.71939375204099
20
-148.91621965464105
10
243.7193937520409
20
-148.916219654641
42
0.41421356237309503
10
244.2193937520409
20
-148.416219654641
10
244.21939375204087
20
-137.41621965464103
42
0.41421356237309503
0
LWPOLYLINE
5
112
100
AcDbEntity
8
0
100
AcDbPolyline
90
8
70
1
43
0.0
10
291.84439375204084
20
-91.266219654640963
10
291.84439375204084
20
-80.266219654640992
42
0.41421356237309503
10
291.34439375204079
20
-79.766219654640963
10
290.3443937520409
20
-79.76621965464102
42
0.41421356237307422
10
289.8443937520409
20
-80.266219654640992
10
289.84439375204096
20
-91.266219654640963
42
0.41421356237309503
10
290.34439375204096
20
-91.766219654640949
10
291.34439375204084
20
-91.766219654640963
42
0.41421356237309503
0
LWPOLYLINE
5
113
100
AcDbEntity
8
0
100
AcDbPolyline
90
8
70
1
43
0.0
10
101.79439375204086
20
-136.91621965464105
10
100.79439375204089
20
-136.91621965464105
42
0.41421356237309503
10
100.29439375204086
20
-137.41621965464108
10
100.29439375204089
20
-148.41621965464105
42
0.41421356237309503
10
100.79439375204089
20
-148.91621965464108
10
101.79439375204086
20
-148.91621965464105
42
0.41421356237309503
10
102.29439375204089
20
-148.41621965464103
10
102.29439375204088
20
-137.41621965464108
42
0.41421356237309503
0
LWPOLYLINE
5
114
100
AcDbEntity
8
0
100
AcDbPolyline
90
8
70
1
43
0.0
10
54.169393752040882
20
-79.766219654641034
10
53.169393752040861
20
-79.766219654641034
42
0.4142135623730846
10
52.669393752040847
20
-80.266219654641048
10
52.669393752040847
20
-91.26621965464102
42
0.41421356237309503
10
53.169393752040847
20
-91.766219654641006
10
54.169393752040868
20
-91.76621965464102
42
0.4142135623730846
10
54.669393752040875
20
-91.266219654641034
10
54.669393752040882
20
-80.266219654641048
42
0.41421356237309503
0
LWPOLYLINE
5
115
100
AcDbEntity
8
0
100
AcDbPolyline
90
8
70
1
43
0.0
10
55.05064375204087
20
-99.31621965464106
10
55.05064375204087
20
-110.31621965464105
42
0.41421356237309503
10
55.550643752040855
20
-110.81621965464103
10
56.550643752040877
20
-110.81621965464103
42
0.41421356237310542
10
57.05064375204087
20
-110.316219654641
10
57.050643752040877
20
-99.316219654641046
42
0.41421356237309503
10
56.550643752040877
20
-98.81621965464106
10
55.550643752040855
20
-98.81621965464106
42
0.41421356237309503
0
LWPOLYLINE
5
116
100
AcDbEntity
8
0
100
AcDbPolyline
90
8
70
1
43
0.0
10
266.10064375204098
20
-136.916219654641
10
265.10064375204092
20
-136.916219654641
42
0.41421356237310542
10
264.60064375204092
20
-137.41621965464105
10
264.60064375204087
20
-148.41621965464103
42
0.41421356237309503
10
265.10064375204087
20
-148.91621965464105
10
266.10064375204092
20
-148.916219654641
42
0.41421356237309503
10
266.60064375204092
20
-148.416219654641
10
266.60064375204098
20
-137.41621965464103
42
0.41421356237309503
0
LWPOLYLINE
5
117
100
AcDbEntity
8
0
100
AcDbPolyline
90
8
70
1
43
0.0
10
311.8443937520409
20
-91.266219654640963
10
311.8443937520409
20
-80.266219654641006
42
0.41421356237309503
10
311.3443937520409
20
-79.766219654640992
10
310.3443937520409
20
-79.766219654641006
42
0.4142135623730846
10
309.8443937520409
20
-80.266219654640992
10
309.84439375204084
20
-91.266219654640963
42
0.41421356237309503
10
310.3443937520409
20
-91.766219654640949
10
311.3443937520409
20
-91.766219654640963
42
0.41421356237309503
0
LWPOLYLINE
5
118
100
AcDbEntity
8
0
100
AcDbPolyline
90
8
70
1
43
0.0
10
169.23189375204055
20
-52.047469654640992
10
94.319393752040881
20
-52.047469654641006
42
0.41421356237309503
10
93.819393752040867
20
-52.547469654641013
10
93.819393752040867
20
-57.216219654641172
42
0.41421356237307422
10
94.319393752040838
20
-57.716219654641144
10
169.23189375204001
20
-57.716219654641094
42
0.41421356237306384
10
169.73189375204004
20
-57.216219654641151
10
169.73189375204049
20
-52.547469654641041
42
0.41421356237310542
0
LWPOLYLINE
5
119
100
AcDbEntity
8
0
100
AcDbPolyline
90
8
70
1
43
0.0
10
323.41939375204095
20
-95.26621965464102
10
323.41939375204095
20
-113.36621965464103
42
0.41421356237309503
10
323.91939375204089
20
-113.86621965464101
10
374.54439375204089
20
-113.86621965464101
42
0.41421356237309503
10
375.04439375204095
20
-113.36621965464101
10
375.04439375204095
20
-95.266219654640992
42
0.41421356237309503
10
374.54439375204095
20
-94.766219654640977
10
323.91939375204095
20
-94.76621965464102
42
0.41421356237309503
0
LWPOLYLINE
5
120
100
AcDbEntity
8
0
100
AcDbPolyline
90
8
70
1
43
0.0
10
215.64439375204086
20
-49.403719654640966
10
215.64439375204086
20
-36.403719654640952
42
0.41421356237309503
10
215.14439375204086
20
-35.903719654640959
10
210.33189375204091
20
-35.903719654640966
42
0.41421356237309503
10
209.83189375204088
20
-36.403719654640966
10
209.83189375204088
20
-49.40371965464098
42
0.41421356237309503
10
210.33189375204088
20
-49.903719654640966
10
215.1443937520408
20
-49.903719654640966
42
0.41421356237309503
0
LWPOLYLINE
5
121
100
AcDbEntity
8
0
100
AcDbPolyline
90
8
70
1
43
0.0
10
53.719393752040887
20
-49.403719654640994
10
53.719393752040887
20
-36.403719654640987
42
0.41421356237308982
10
53.219393752040887
20
-35.903719654640994
10
48.406893752040887
20
-35.903719654640994
42
0.41421356237309764
10
47.90689375204088
20
-36.403719654640994
10
47.906893752040887
20
-49.403719654641009
42
0.41421356237309503
10
48.406893752040887
20
-49.903719654641009
10
53.219393752040887
20
-49.903719654641002
42
0.41421356237310025
0
LWPOLYLINE
5
122
100
AcDbEntity
8
0
100
AcDbPolyline
90
8
70
1
43
0.0
10
296.60689375204089
20
-49.403719654640952
10
296.60689375204089
20
-36.403719654640938
42
0.41421356237309503
10
296.10689375204089
20
-35.903719654640938
10
291.29439375204095
20
-35.903719654640938
42
0.41421356237310025
10
290.79439375204095
20
-36.403719654640945
10
290.79439375204095
20
-49.403719654640959
42
0.41421356237309503
10
291.29439375204095
20
-49.903719654640952
10
296.10689375204083
20
-49.903719654640952
42
0.41421356237309503
0
LWPOLYLINE
5
123
100
AcDbEntity
8
0
100
AcDbPolyline
90
8
70
1
43
0.0
10
338.96939375204079
20
-115.86621965464101
10
323.91939375204089
20
-115.86621965464101
42
0.41421356237310542
10
323.41939375204095
20
-116.36621965464103
10
323.419393752041
20
-133.41621965464105
42
0.41421356237309503
10
323.91939375204095
20
-133.91621965464105
10
338.96939375204079
20
-133.91621965464105
42
0.41421356237309503
10
339.46939375204073
20
-133.41621965464105
10
339.46939375204073
20
-116.36621965464101
42
0.41421356237309503
0
LWPOLYLINE
5
124
100
AcDbEntity
8
0
100
AcDbPolyline
90
8
70
1
43
0.0
10
375.04439375204095
20
-57.216219654640952
10
375.04439375204095
20
-52.403719654640931
42
0.41421356237309503
10
374.54439375204095
20
-51.903719654640938
10
323.91939375204095
20
-51.903719654640945
42
0.41421356237309503
10
323.419393752041
20
-52.403719654640938
10
323.419393752041
20
-57.216219654640959
42
0.41421356237309503
10
323.91939375204095
20
-57.716219654640938
10
374.54439375204095
20
-57.716219654640952
42
0.41421356237309503
0
LWPOLYLINE
5
125
100
AcDbEntity
8
0
100
AcDbPolyline
90
8
70
1
43
0.0
10
134.68189375204093
20
-49.40371965464098
10
134.68189375204093
20
-36.403719654640973
42
0.41421356237309503
10
134.18189375204088
20
-35.90371965464098
10
129.36939375204088
20
-35.90371965464098
42
0.41421356237309764
10
128.86939375204091
20
-36.40371965464098
10
128.86939375204088
20
-49.403719654640987
42
0.41421356237309503
10
129.36939375204088
20
-49.903719654640994
10
134.18189375204091
20
-49.903719654640987
42
0.41421356237310025
0
LWPOLYLINE
5
126
100
AcDbEntity
8
0
100
AcDbPolyline
90
8
70
1
43
0.0
10
311.10689375204095
20
-52.047469654640963
10
256.24439375204071
20
-52.04746965464097
42
0.4142135623730846
10
255.74439375204076
20
-52.547469654640949
10
255.74439375204059
20
-57.216219654641009
42
0.41421356237310542
10
256.24439375204059
20
-57.716219654640994
10
311.10689375204095
20
-57.716219654640966
42
0.41421356237309503
10
311.60689375204095
20
-57.216219654640966
10
311.60689375204095
20
-52.547469654640963
42
0.41421356237309503
0
LWPOLYLINE
5
127
100
AcDbEntity
8
0
100
AcDbPolyline
90
8
70
1
43
0.0
10
315.10689375204089
20
-49.903719654640952
42
-0.41421356237309503
10
314.60689375204089
20
-49.403719654640945
10
314.606893752041
20
-36.403719654640945
42
-0.41421356237310281
10
315.106893752041
20
-35.903719654640931
10
319.91939375204089
20
-35.903719654640959
42
-0.41421356237309503
10
320.41939375204089
20
-36.403719654640931
10
320.41939375204095
20
-49.403719654640945
42
-0.41421356237309503
10
319.91939375204095
20
-49.903719654640938
0
LWPOLYLINE
5
128
100
AcDbEntity
8
0
100
AcDbPolyline
90
8
70
1
43
0.0
10
375.04439375204083
20
-133.41621965464103
10
375.04439375204083
20
-116.366219654641
42
0.41421356237309503
10
374.54439375204089
20
-115.86621965464101
10
357.96939375204084
20
-115.86621965464101
42
0.41421356237310542
10
357.46939375204084
20
-116.36621965464103
10
357.46939375204084
20
-133.41621965464105
42
0.41421356237309503
10
357.96939375204084
20
-133.916219654641
10
374.54439375204089
20
-133.91621965464105
42
0.41421356237310542
0
LWPOLYLINE
5
129
100
AcDbEntity
8
0
100
AcDbPolyline
90
12
70
1
43
0.0
10
196.92675209825006
20
-143.91621965464066
10
204.55376875204087
20
-143.91621965464105
42
0.41421356237310542
10
205.0537687520409
20
-143.41621965464103
10
205.0537687520409
20
-142.41621965464105
42
0.41421356237309503
10
204.55376875204087
20
-141.91621965464103
10
196.92675209824853
20
-141.91621965464185
42
0.77459666924163939
10
189.18078540583173
20
-141.91621965464142
10
181.55376875204092
20
-141.91621965464103
42
0.41421356237310542
10
181.0537687520409
20
-142.41621965464105
10
181.0537687520409
20
-143.41621965464103
42
0.41421356237309503
10
181.55376875204092
20
-143.91621965464105
10
189.18078540583332
20
-143.91621965464029
42
0.77459666924165038
0
LWPOLYLINE
5
130
100
AcDbEntity
8
0
100
AcDbPolyline
90
14
70
1
43
0.0
10
224.78814375204092
20
-136.41621965464103
10
224.78814375204092
20
-149.41621965464103
42
0.4142135623730846
10
225.28814375204092
20
-149.91621965464105
10
238.2881437520409
20
-149.91621965464103
42
0.41421356237306384
10
238.7881437520409
20
-149.41621965464105
10
238.7881437520409
20
-136.41621965464105
42
0.4142135623730846
10
238.2881437520409
20
-135.91621965464103
10
232.90689375204093
20
-135.91621965464103
10
232.90689375204093
20
-134.41621965464103
42
0.4142135623730846
10
232.4068937520409
20
-133.916219654641
10
226.4068937520409
20
-133.91621965464103
42
0.4142135623730846
10
225.9068937520409
20
-134.41621965464103
10
225.90689375204093
20
-135.91621965464103
10
225.28814375204092
20
-135.91621965464105
42
0.41421356237306384
0
LWPOLYLINE
5
131
100
AcDbEntity
8
0
100
AcDbPolyline
90
8
70
1
43
0.0
10
118.60689375204088
20
-148.41621965464105
10
118.60689375204088
20
-134.41621965464105
42
0.41421356237307422
10
118.10689375204086
20
-133.91621965464105
10
107.35064375204087
20
-133.91621965464105
42
0.41421356237306384
10
106.85064375204085
20
-134.41621965464105
10
106.85064375204085
20
-148.41621965464105
42
0.41421356237309503
10
107.35064375204087
20
-148.91621965464108
10
118.10689375204086
20
-148.91621965464105
42
0.41421356237304302
0
LWPOLYLINE
5
132
100
AcDbEntity
8
0
100
AcDbPolyline
90
22
70
1
43
0.0
10
58.751143752040875
20
-130.8662196546411
42
-0.414213562373069
10
59.251143752040875
20
-131.3662196546411
10
59.251143752040861
20
-132.36621965464104
42
0.41421356237307422
10
59.751143752040861
20
-132.86621965464107
10
65.751143752040861
20
-132.86621965464104
42
0.41421356237306384
10
66.251143752040861
20
-132.36621965464107
10
66.251143752040861
20
-118.36621965464104
42
0.41421356237309503
10
65.751143752040861
20
-117.86621965464104
10
58.313143752040872
20
-117.8662196546411
42
-0.41421356237310542
10
57.813143752040858
20
-117.36621965464107
42
0.41421356237310542
10
57.313143752040858
20
-116.86621965464107
10
44.313143752040872
20
-116.86621965464107
42
0.41421356237308982
10
43.81314375204083
20
-117.3662196546411
42
-0.41421356237306384
10
43.313143752040872
20
-117.86621965464104
10
35.87514375204087
20
-117.86621965464106
42
0.41421356237306123
10
35.37514375204087
20
-118.36621965464104
10
35.37514375204087
20
-132.36621965464107
42
0.41421356237310542
10
35.87514375204087
20
-132.8662196546411
10
41.87514375204087
20
-132.86621965464107
42
0.41421356237307944
10
42.37514375204087
20
-132.3662196546411
10
42.375143752040586
20
-131.36621965464113
42
-0.41421356237310542
10
42.875143752040863
20
-130.86621965464082
0
LWPOLYLINE
5
133
100
AcDbEntity
8
0
100
AcDbPolyline
90
24
70
1
43
0.0
10
273.00014375204091
20
-130.86621965464101
42
-0.41421356237310542
10
273.50014375204091
20
-131.36621965464104
10
273.50014375204091
20
-132.36621965464099
42
0.41421356237313667
10
274.00014375204091
20
-132.86621965464101
10
280.00014375204091
20
-132.86621965464099
42
0.4142135623730846
10
280.50014375204091
20
-132.36621965464104
10
280.50014375204
20
-131.36621965464104
42
-0.41421356237310542
10
281.00014375204091
20
-130.86621965464013
10
296.87614375204089
20
-130.86621965464107
42
-0.41421356237306384
10
297.37614375204095
20
-131.36621965464104
10
297.37614375204095
20
-132.36621965464101
42
0.4142135623730846
10
297.87614375204095
20
-132.86621965464101
10
303.87614375204095
20
-132.86621965464099
42
0.4142135623730846
10
304.37614375204095
20
-132.36621965464104
10
304.37614375204089
20
-131.36621965464104
42
-0.41421356237313667
10
304.87614375204095
20
-130.86621965464101
10
312.10689375204095
20
-130.86621965464101
42
0.41421356237312623
10
312.60689375204095
20
-130.36621965464101
10
312.60689375204095
20
-117.36621965464099
42
0.41421356237313667
10
312.10689375204095
20
-116.86621965464099
10
272.91314375204092
20
-116.86621965464099
42
0.41421356237312623
10
272.41314375204092
20
-117.36621965464097
10
272.41314375204092
20
-130.36621965464099
42
0.41421356237313667
10
272.91314375204092
20
-130.86621965464101
0
LWPOLYLINE
5
134
100
AcDbEntity
8
0
100
AcDbPolyline
90
22
70
1
43
0.0
10
286.20064375204095
20
-110.81621965464102
42
-0.4142135623730222
10
286.70064375204095
20
-111.316219654641
42
0.41421356237309503
10
287.20064375204095
20
-111.81621965464102
10
300.20064375204095
20
-111.81621965464103
42
0.4142135623730222
10
300.70064375204089
20
-111.31621965464103
42
-0.41421356237301177
10
301.20064375204095
20
-110.816219654641
10
308.63864375204093
20
-110.816219654641
42
0.4142135623730534
10
309.13864375204093
20
-110.31621965464097
10
309.13864375204093
20
-96.316219654640975
42
0.41421356237309503
10
308.63864375204093
20
-95.816219654640975
10
302.63864375204093
20
-95.81621965464096
42
0.4142135623730222
10
302.13864375204093
20
-96.316219654640989
10
302.13864375204093
20
-97.316219654640989
42
-0.4142135623730846
10
301.63864375204093
20
-97.816219654640989
10
285.76264375204096
20
-97.816219654640975
42
-0.41421356237313667
10
285.26264375204096
20
-97.316219654640975
10
285.26264375204096
20
-96.316219654640975
42
0.41421356237309503
10
284.7626437520409
20
-95.816219654640975
10
278.7626437520409
20
-95.81621965464096
42
0.4142135623730534
10
278.2626437520409
20
-96.316219654640989
10
278.2626437520409
20
-110.31621965464099
42
0.41421356237309503
10
278.7626437520409
20
-110.816219654641
0
LWPOLYLINE
5
135
100
AcDbEntity
8
0
100
AcDbPolyline
90
24
70
1
43
0.0
10
311.5198937520409
20
-74.216219654640966
42
-0.4142135623730222
10
312.01989375204084
20
-73.716219654640966
10
312.10689375204089
20
-73.71621965464098
42
0.41421356237309503
10
312.60689375204089
20
-73.216219654640966
10
312.60689375204089
20
-60.216219654640959
42
0.41421356237312623
10
312.10689375204089
20
-59.716219654640945
10
280.05689375204088
20
-59.716219654640959
42
0.41421356237307422
10
279.55689375204088
20
-60.216219654640959
10
279.55689375204088
20
-73.216219654640966
42
0.41421356237313667
10
280.05689375204088
20
-73.71621965464098
10
280.14389375204081
20
-73.71621965464098
42
-0.4142135623730846
10
280.64389375204087
20
-74.216219654640966
10
280.64389375204087
20
-75.21621965464098
42
0.41421356237313667
10
281.14389375204087
20
-75.71621965464098
10
287.14389375204087
20
-75.71621965464098
42
0.41421356237307944
10
287.64389375204087
20
-75.216219654640966
10
287.64389375204087
20
-74.216219654640966
42
-0.41421356237307422
10
288.14389375204092
20
-73.716219654640966
10
304.01989375204084
20
-73.71621965464098
42
-0.41421356237307944
10
304.51989375204084
20
-74.216219654640966
10
304.51989375204084
20
-75.216219654640966
42
0.41421356237313145
10
305.01989375204084
20
-75.71621965464098
10
311.01989375204084
20
-75.716219654640966
42
0.41421356237302737
10
311.51989375204084
20
-75.216219654640952
0
LWPOLYLINE
5
136
100
AcDbEntity
8
0
100
AcDbPolyline
90
8
70
1
43
0.0
10
155.73189375204089
20
-79.266219654640992
42
-0.41421356237310025
10
156.23189375204086
20
-78.766219654640992
10
169.23189375204089
20
-78.766219654640992
42
-0.41421356237311063
10
169.73189375204086
20
-79.266219654640992
10
169.73189375204086
20
-92.26621965464102
42
-0.4142135623730222
10
169.23189375204089
20
-92.76621965464102
10
156.23189375204089
20
-92.76621965464102
42
-0.4142135623730846
10
155.73189375204086
20
-92.26621965464102
0
LWPOLYLINE
5
137
100
AcDbEntity
8
0
100
AcDbPolyline
90
8
70
1
43
0.0
10
60.481893752040875
20
-79.26621965464102
42
-0.41421356237309503
10
60.981893752040868
20
-78.76621965464102
10
73.981893752040875
20
-78.76621965464102
42
-0.41421356237309503
10
74.481893752040875
20
-79.26621965464102
10
74.481893752040875
20
-92.266219654641034
42
-0.41421356237307422
10
73.981893752040861
20
-92.766219654641034
10
60.981893752040861
20
-92.76621965464102
42
-0.41421356237307422
10
60.481893752040861
20
-92.266219654641034
0
LWPOLYLINE
5
138
100
AcDbEntity
8
0
100
AcDbPolyline
90
8
70
1
43
0.0
10
270.03189375204084
20
-79.266219654640977
42
-0.41421356237307422
10
270.5318937520409
20
-78.766219654640977
10
283.5318937520409
20
-78.766219654640977
42
-0.41421356237312101
10
284.0318937520409
20
-79.266219654640963
10
284.0318937520409
20
-92.266219654640977
42
-0.4142135623730534
10
283.5318937520409
20
-92.766219654640992
10
270.5318937520409
20
-92.766219654640992
42
-0.4142135623730846
10
270.0318937520409
20
-92.266219654640992
0
LWPOLYLINE
5
139
100
AcDbEntity
8
0
100
AcDbPolyline
90
8
70
1
43
0.0
10
360.51939375204091
20
-79.266219654640963
42
-0.41421356237319906
10
361.01939375204091
20
-78.766219654640963
10
374.01939375204086
20
-78.766219654640977
42
-0.4142135623730222
10
374.51939375204086
20
-79.266219654640963
10
374.51939375204091
20
-92.266219654640963
42
-0.4142135623731783
10
374.01939375204086
20
-92.766219654640963
10
361.01939375204091
20
-92.766219654640963
42
-0.4142135623730222
10
360.51939375204091
20
-92.266219654640977
0
LWPOLYLINE
5
140
100
AcDbEntity
8
0
100
AcDbPolyline
90
8
70
1
43
0.0
10
193.83189375204091
20
-79.266219654640992
42
-0.4142135623730222
10
194.33189375204086
20
-78.766219654640992
10
207.33189375204086
20
-78.76621965464102
42
-0.41421356237312101
10
207.83189375204086
20
-79.266219654640992
10
207.83189375204088
20
-92.26621965464102
42
-0.41421356237303258
10
207.33189375204088
20
-92.766219654641006
10
194.33189375204091
20
-92.76621965464102
42
-0.41421356237313667
10
193.83189375204091
20
-92.26621965464102
0
LWPOLYLINE
5
141
100
AcDbEntity
8
0
100
AcDbPolyline
90
8
70
1
43
0.0
10
136.68189375204088
20
-79.26621965464102
42
-0.41421356237308982
10
137.18189375204088
20
-78.76621965464102
10
150.18189375204085
20
-78.766219654641006
42
-0.41421356237307422
10
150.68189375204088
20
-79.26621965464102
10
150.68189375204085
20
-92.266219654641034
42
-0.41421356237309503
10
150.18189375204085
20
-92.76621965464102
10
137.18189375204088
20
-92.766219654641034
42
-0.41421356237307422
10
136.68189375204088
20
-92.266219654641034
0
LWPOLYLINE
5
142
100
AcDbEntity
8
0
100
AcDbPolyline
90
8
70
1
43
0.0
10
231.93189375204093
20
-79.266219654640977
42
-0.4142135623730222
10
232.43189375204088
20
-78.766219654640977
10
245.43189375204091
20
-78.766219654640992
42
-0.41421356237313145
10
245.93189375204091
20
-79.266219654640992
10
245.93189375204093
20
-92.26621965464102
42
-0.41421356237300139
10
245.43189375204093
20
-92.766219654641006
10
232.43189375204093
20
-92.766219654641006
42
-0.41421356237309503
10
231.93189375204093
20
-92.266219654640992
0
LWPOLYLINE
5
143
100
AcDbEntity
8
0
100
AcDbPolyline
90
8
70
1
43
0.0
10
212.88189375204092
20
-79.266219654640992
42
-0.4142135623730222
10
213.38189375204087
20
-78.766219654640992
10
226.3818937520409
20
-78.766219654640977
42
-0.41421356237313145
10
226.8818937520409
20
-79.266219654640977
10
226.88189375204092
20
-92.266219654640992
42
-0.41421356237301177
10
226.38189375204092
20
-92.766219654641006
10
213.38189375204092
20
-92.766219654641006
42
-0.41421356237309503
10
212.88189375204092
20
-92.266219654640992
0
LWPOLYLINE
5
144
100
AcDbEntity
8
0
100
AcDbPolyline
90
8
70
1
43
0.0
10
341.4693937520409
20
-79.266219654640963
42
-0.41421356237319906
10
341.9693937520409
20
-78.766219654640963
10
354.96939375204084
20
-78.766219654640977
42
-0.4142135623730222
10
355.46939375204084
20
-79.266219654640963
10
355.4693937520409
20
-92.266219654640977
42
-0.4142135623731783
10
354.96939375204084
20
-92.766219654640992
10
341.9693937520409
20
-92.766219654640935
42
-0.41421356237313667
10
341.46939375204084
20
-92.266219654640963
0
LWPOLYLINE
5
145
100
AcDbEntity
8
0
100
AcDbPolyline
90
8
70
1
43
0.0
10
293.8443937520409
20
-79.266219654640977
42
-0.4142135623730222
10
294.34439375204084
20
-78.766219654640977
10
307.34439375204084
20
-78.766219654640977
42
-0.41421356237313145
10
307.8443937520409
20
-79.266219654640977
10
307.8443937520409
20
-92.266219654640992
42
-0.41421356237301177
10
307.3443937520409
20
-92.766219654640992
10
294.3443937520409
20
-92.766219654641006
42
-0.41421356237309503
10
293.8443937520409
20
-92.266219654640992
0
LWPOLYLINE
5
146
100
AcDbEntity
8
0
100
AcDbPolyline
90
8
70
1
43
0.0
10
79.531893752040872
20
-79.26621965464102
42
-0.41421356237309503
10
80.031893752040872
20
-78.76621965464102
10
93.031893752040844
20
-78.76621965464102
42
-0.41421356237310025
10
93.531893752040844
20
-79.26621965464102
10
93.531893752040844
20
-92.266219654641034
42
-0.4142135623730846
10
93.031893752040858
20
-92.766219654641034
10
80.031893752040872
20
-92.76621965464102
42
-0.41421356237310542
10
79.531893752040872
20
-92.26621965464102
0
LWPOLYLINE
5
147
100
AcDbEntity
8
0
100
AcDbPolyline
90
8
70
1
43
0.0
10
174.7818937520409
20
-79.266219654640992
42
-0.4142135623730222
10
175.28189375204084
20
-78.766219654640992
10
188.28189375204087
20
-78.766219654640992
42
-0.41421356237313145
10
188.78189375204087
20
-79.266219654640992
10
188.78189375204087
20
-92.26621965464102
42
-0.4142135623730222
10
188.2818937520409
20
-92.76621965464102
10
175.2818937520409
20
-92.766219654641006
42
-0.41421356237309503
10
174.7818937520409
20
-92.266219654640992
0
LWPOLYLINE
5
148
100
AcDbEntity
8
0
100
AcDbPolyline
90
8
70
1
43
0.0
10
335.91939375204095
20
-78.766219654640963
42
-0.41421356237311063
10
336.41939375204089
20
-79.266219654640963
10
336.41939375204089
20
-92.266219654640977
42
-0.41421356237304302
10
335.91939375204095
20
-92.766219654640963
10
322.91939375204095
20
-92.766219654641006
42
-0.41421356237312623
10
322.41939375204095
20
-92.266219654640977
10
322.41939375204095
20
-79.266219654640963
42
-0.41421356237311585
10
322.91939375204095
20
-78.766219654640963
0
LWPOLYLINE
5
149
100
AcDbEntity
8
0
100
AcDbPolyline
90
8
70
1
43
0.0
10
98.581893752040884
20
-79.26621965464102
10
98.581893752040884
20
-92.266219654641034
42
0.4142135623730846
10
99.08189375204087
20
-92.766219654641006
10
112.08189375204087
20
-92.76621965464102
42
0.41421356237309503
10
112.58189375204086
20
-92.266219654641034
10
112.58189375204088
20
-79.26621965464102
42
0.41421356237307422
10
112.08189375204087
20
-78.766219654641048
10
99.08189375204087
20
-78.76621965464102
42
0.41421356237310025
0
LWPOLYLINE
5
150
100
AcDbEntity
8
0
100
AcDbPolyline
90
8
70
1
43
0.0
10
74.769393752040855
20
-117.36621965464103
10
74.769393752040855
20
-130.36621965464104
42
0.41421356237307422
10
75.26939375204087
20
-130.8662196546411
10
88.269393752040884
20
-130.86621965464107
42
0.4142135623730534
10
88.76939375204087
20
-130.3662196546411
10
88.769393752040884
20
-117.36621965464107
42
0.41421356237309503
10
88.269393752040884
20
-116.86621965464106
10
75.26939375204087
20
-116.86621965464106
42
0.41421356237307944
0
LWPOLYLINE
5
151
100
AcDbEntity
8
0
100
AcDbPolyline
90
8
70
1
43
0.0
10
170.01939375204088
20
-117.36621965464104
42
-0.41421356237309503
10
170.51939375204088
20
-116.86621965464104
10
183.51939375204091
20
-116.86621965464101
42
-0.4142135623730846
10
184.01939375204091
20
-117.36621965464101
10
184.01939375204094
20
-130.36621965464104
42
-0.41421356237307422
10
183.51939375204091
20
-130.86621965464101
10
170.51939375204088
20
-130.86621965464104
42
-0.41421356237313667
10
170.01939375204088
20
-130.36621965464104
0
LWPOLYLINE
5
152
100
AcDbEntity
8
0
100
AcDbPolyline
90
8
70
1
43
0.0
10
208.11939375204091
20
-117.36621965464101
42
-0.41421356237309503
10
208.61939375204091
20
-116.866219654641
10
221.61939375204093
20
-116.86621965464101
42
-0.4142135623730846
10
222.11939375204093
20
-117.36621965464101
10
222.11939375204096
20
-130.36621965464104
42
-0.41421356237307422
10
221.61939375204093
20
-130.86621965464101
10
208.61939375204091
20
-130.86621965464101
42
-0.41421356237309503
10
208.11939375204091
20
-130.36621965464101
0
LWPOLYLINE
5
153
100
AcDbEntity
8
0
100
AcDbPolyline
90
8
70
1
43
0.0
10
116.84439375204087
20
-97.816219654641031
42
-0.4142135623730534
10
117.34439375204089
20
-98.316219654641031
10
117.34439375204087
20
-111.31621965464105
42
-0.4142135623730846
10
116.84439375204087
20
-111.81621965464105
10
103.84439375204087
20
-111.81621965464106
42
-0.41421356237310542
10
103.34439375204087
20
-111.31621965464106
10
103.34439375204087
20
-98.31621965464106
42
-0.41421356237310542
10
103.84439375204087
20
-97.816219654641046
0
LWPOLYLINE
5
154
100
AcDbEntity
8
0
100
AcDbPolyline
90
8
70
1
43
0.0
10
227.16939375204083
20
-117.36621965464101
42
-0.4142135623730846
10
227.66939375204089
20
-116.866219654641
10
240.66939375204089
20
-116.866219654641
42
-0.41421356237309503
10
241.16939375204089
20
-117.36621965464101
10
241.16939375204089
20
-130.36621965464104
42
-0.4142135623730846
10
240.66939375204089
20
-130.86621965464101
10
227.66939375204089
20
-130.86621965464101
42
-0.4142135623730846
10
227.16939375204089
20
-130.36621965464101
0
LWPOLYLINE
5
155
100
AcDbEntity
8
0
100
AcDbPolyline
90
8
70
1
43
0.0
10
34.288143752040874
20
-98.316219654641074
42
-0.41421356237308721
10
34.788143752040867
20
-97.81621965464106
10
52.55064375204087
20
-97.816219654641046
42
-0.4142135623730846
10
53.050643752040862
20
-98.31621965464106
10
53.050643752040862
20
-111.31621965464106
42
-0.41421356237310542
10
52.55064375204087
20
-111.81621965464106
10
34.788143752040874
20
-111.81621965464106
42
-0.41421356237307944
10
34.288143752040867
20
-111.31621965464107
0
LWPOLYLINE
5
156
100
AcDbEntity
8
0
100
AcDbPolyline
90
8
70
1
43
0.0
10
246.21939375204084
20
-117.36621965464101
42
-0.4142135623730846
10
246.7193937520409
20
-116.866219654641
10
259.7193937520409
20
-116.866219654641
42
-0.41421356237309503
10
260.2193937520409
20
-117.36621965464101
10
260.2193937520409
20
-130.36621965464104
42
-0.4142135623730846
10
259.7193937520409
20
-130.86621965464101
10
246.7193937520409
20
-130.86621965464101
42
-0.4142135623730846
10
246.2193937520409
20
-130.36621965464101
0
LWPOLYLINE
5
157
100
AcDbEntity
8
0
100
AcDbPolyline
90
8
70
1
43
0.0
10
131.91939375204086
20
-117.36621965464104
42
-0.41421356237307422
10
132.41939375204086
20
-116.86621965464104
10
145.41939375204086
20
-116.86621965464104
42
-0.4142135623730534
10
145.91939375204086
20
-117.36621965464104
10
145.91939375204086
20
-130.36621965464107
42
-0.4142135623730534
10
145.41939375204086
20
-130.86621965464104
10
132.41939375204086
20
-130.86621965464104
42
-0.41421356237309503
10
131.91939375204086
20
-130.36621965464104
0
LWPOLYLINE
5
158
100
AcDbEntity
8
0
100
AcDbPolyline
90
8
70
1
43
0.0
10
36.669393752040875
20
-79.266219654641034
42
-0.41421356237309503
10
37.169393752040875
20
-78.766219654641034
10
50.169393752040882
20
-78.766219654641034
42
-0.41421356237309503
10
50.669393752040875
20
-79.266219654641034
10
50.669393752040875
20
-92.266219654641048
42
-0.41421356237306384
10
50.169393752040875
20
-92.766219654641034
10
37.169393752040861
20
-92.766219654641048
42
-0.41421356237310025
10
36.669393752040875
20
-92.266219654641048
0
LWPOLYLINE
5
159
100
AcDbEntity
8
0
100
AcDbPolyline
90
8
70
1
43
0.0
10
255.74439375204091
20
-98.316219654641003
42
-0.41421356237301177
10
256.24439375204088
20
-97.816219654640989
10
269.24439375204093
20
-97.816219654640989
42
-0.41421356237309503
10
269.74439375204093
20
-98.316219654641003
10
269.74439375204093
20
-111.316219654641
42
-0.41421356237306384
10
269.24439375204093
20
-111.81621965464103
10
256.24439375204088
20
-111.81621965464105
42
-0.41421356237310542
10
255.74439375204091
20
-111.31621965464103
0
LWPOLYLINE
5
160
100
AcDbEntity
8
0
100
AcDbPolyline
90
8
70
1
43
0.0
10
189.0693937520409
20
-117.36621965464104
42
-0.41421356237309503
10
189.5693937520409
20
-116.86621965464104
10
202.56939375204092
20
-116.86621965464106
42
-0.4142135623730846
10
203.06939375204092
20
-117.36621965464104
10
203.06939375204087
20
-130.36621965464107
42
-0.4142135623730846
10
202.56939375204092
20
-130.86621965464104
10
189.5693937520409
20
-130.86621965464104
42
-0.41421356237313667
10
189.0693937520409
20
-130.36621965464104
0
LWPOLYLINE
5
161
100
AcDbEntity
8
0
100
AcDbPolyline
90
8
70
1
43
0.0
10
341.4693937520409
20
-60.216219654640952
42
-0.41421356237319906
10
341.9693937520409
20
-59.716219654640952
10
354.96939375204084
20
-59.716219654640952
42
-0.4142135623730222
10
355.46939375204084
20
-60.216219654640938
10
355.46939375204084
20
-73.216219654640952
42
-0.41421356237319906
10
354.96939375204084
20
-73.716219654640966
10
341.9693937520409
20
-73.716219654640938
42
-0.41421356237313667
10
341.46939375204084
20
-73.216219654640966
0
LWPOLYLINE
5
162
100
AcDbEntity
8
0
100
AcDbPolyline
90
8
70
1
43
0.0
10
360.51939375204091
20
-60.216219654640938
42
-0.41421356237318868
10
361.01939375204091
20
-59.716219654640945
10
374.01939375204086
20
-59.716219654640952
42
-0.4142135623730222
10
374.51939375204086
20
-60.216219654640938
10
374.51939375204086
20
-73.216219654640938
42
-0.41421356237320428
10
374.01939375204086
20
-73.716219654640966
10
361.01939375204091
20
-73.716219654640952
42
-0.4142135623730222
10
360.51939375204091
20
-73.216219654640952
0
LWPOLYLINE
5
163
100
AcDbEntity
8
0
100
AcDbPolyline
90
8
70
1
43
0.0
10
179.54439375204089
20
-98.316219654641017
42
-0.4142135623730534
10
180.04439375204089
20
-97.816219654641003
10
193.04439375204089
20
-97.816219654641046
42
-0.4142135623730846
10
193.54439375204092
20
-98.316219654641031
10
193.54439375204092
20
-111.31621965464105
42
-0.41421356237301177
10
193.04439375204089
20
-111.81621965464105
10
180.04439375204089
20
-111.81621965464103
42
-0.41421356237313667
10
179.54439375204089
20
-111.31621965464103
0
LWPOLYLINE
5
164
100
AcDbEntity
8
0
100
AcDbPolyline
90
8
70
1
43
0.0
10
184.30689375204088
20
-60.21621965464098
42
-0.4142135623730222
10
184.80689375204088
20
-59.71621965464098
10
197.80689375204088
20
-59.716219654640966
42
-0.41421356237313667
10
198.30689375204088
20
-60.21621965464098
10
198.30689375204088
20
-73.21621965464098
42
-0.41421356237311063
10
197.80689375204088
20
-73.716219654640994
10
184.80689375204088
20
-73.71621965464098
42
-0.41421356237312101
10
184.30689375204085
20
-73.216219654640994
0
LWPOLYLINE
5
165
100
AcDbEntity
8
0
100
AcDbPolyline
90
8
70
1
43
0.0
10
31.906893752040872
20
-60.216219654641023
42
-0.41421356237309503
10
32.406893752040872
20
-59.716219654641023
10
45.40689375204088
20
-59.716219654641023
42
-0.41421356237309503
10
45.906893752040872
20
-60.216219654641023
10
45.906893752040872
20
-73.216219654641023
42
-0.41421356237310025
10
45.40689375204088
20
-73.716219654641037
10
32.406893752040872
20
-73.716219654641023
42
-0.41421356237309503
10
31.906893752040872
20
-73.216219654641023
0
LWPOLYLINE
5
166
100
AcDbEntity
8
0
100
AcDbPolyline
90
8
70
1
43
0.0
10
322.41939375204095
20
-60.216219654640959
42
-0.41421356237310542
10
322.91939375204095
20
-59.716219654640959
10
335.91939375204095
20
-59.716219654640952
42
-0.41421356237311063
10
336.41939375204089
20
-60.216219654640952
10
336.41939375204089
20
-73.216219654640952
42
-0.41421356237311063
10
335.91939375204095
20
-73.71621965464098
10
322.91939375204095
20
-73.716219654640952
42
-0.41421356237310542
10
322.41939375204095
20
-73.216219654640966
0
LWPOLYLINE
5
167
100
AcDbEntity
8
0
100
AcDbPolyline
90
8
70
1
43
0.0
10
222.4068937520409
20
-60.216219654640966
42
-0.4142135623730222
10
222.9068937520409
20
-59.716219654640966
10
235.9068937520409
20
-59.716219654640966
42
-0.41421356237313145
10
236.4068937520409
20
-60.216219654640966
10
236.4068937520409
20
-73.21621965464098
42
-0.41421356237311063
10
235.9068937520409
20
-73.716219654640994
10
222.9068937520409
20
-73.71621965464098
42
-0.41421356237312623
10
222.40689375204087
20
-73.21621965464098
0
LWPOLYLINE
5
168
100
AcDbEntity
8
0
100
AcDbPolyline
90
8
70
1
43
0.0
10
260.50689375204081
20
-60.216219654640966
42
-0.41421356237307422
10
261.00689375204087
20
-59.716219654640966
10
274.00689375204087
20
-59.716219654640966
42
-0.41421356237312623
10
274.50689375204087
20
-60.216219654640959
10
274.50689375204087
20
-73.216219654640966
42
-0.41421356237310025
10
274.00689375204087
20
-73.71621965464098
10
261.00689375204087
20
-73.716219654640994
42
-0.41421356237313667
10
260.50689375204087
20
-73.21621965464098
0
LWPOLYLINE
5
169
100
AcDbEntity
8
0
100
AcDbPolyline
90
8
70
1
43
0.0
10
241.45689375204083
20
-60.216219654640966
42
-0.41421356237307422
10
241.95689375204086
20
-59.716219654640966
10
254.95689375204086
20
-59.716219654640987
42
-0.41421356237312101
10
255.45689375204088
20
-60.216219654640966
10
255.45689375204088
20
-73.21621965464098
42
-0.41421356237310025
10
254.95689375204086
20
-73.716219654640994
10
241.95689375204086
20
-73.716219654640994
42
-0.41421356237313667
10
241.45689375204086
20
-73.21621965464098
0
LWPOLYLINE
5
170
100
AcDbEntity
8
0
100
AcDbPolyline
90
8
70
1
43
0.0
10
165.25689375204087
20
-60.216219654640994
10
165.25689375204084
20
-73.216219654641009
42
0.41421356237312623
10
165.75689375204087
20
-73.716219654640994
10
178.75689375204087
20
-73.716219654641009
42
0.41421356237311063
10
179.25689375204087
20
-73.216219654640994
10
179.25689375204087
20
-60.216219654640987
42
0.41421356237313145
10
178.75689375204087
20
-59.716219654640987
10
165.75689375204087
20
-59.716219654640987
42
0.41421356237302737
0
LWPOLYLINE
5
171
100
AcDbEntity
8
0
100
AcDbPolyline
90
8
70
1
43
0.0
10
203.35689375204089
20
-60.21621965464098
42
-0.4142135623730222
10
203.85689375204089
20
-59.71621965464098
10
216.85689375204083
20
-59.716219654640987
42
-0.41421356237312101
10
217.35689375204086
20
-60.216219654640966
10
217.35689375204086
20
-73.21621965464098
42
-0.41421356237310025
10
216.85689375204083
20
-73.716219654640994
10
203.85689375204089
20
-73.71621965464098
42
-0.41421356237312101
10
203.35689375204086
20
-73.216219654640994
0
LWPOLYLINE
5
172
100
AcDbEntity
8
0
100
AcDbPolyline
90
8
70
1
43
0.0
10
146.20689375204091
20
-60.216219654640987
42
-0.41421356237310025
10
146.70689375204088
20
-59.716219654640987
10
159.70689375204086
20
-59.716219654640959
42
-0.41421356237309503
10
160.20689375204086
20
-60.216219654640987
10
160.20689375204086
20
-73.216219654640994
42
-0.41421356237310025
10
159.70689375204086
20
-73.716219654641009
10
146.70689375204091
20
-73.716219654641023
42
-0.41421356237307944
10
146.20689375204088
20
-73.216219654641009
0
LWPOLYLINE
5
173
100
AcDbEntity
8
0
100
AcDbPolyline
90
8
70
1
43
0.0
10
354.96939375204084
20
-35.903719654640931
42
-0.4142135623730222
10
355.46939375204084
20
-36.403719654640923
10
355.46939375204084
20
-49.403719654640938
42
-0.41421356237318868
10
354.96939375204084
20
-49.903719654640931
10
341.9693937520409
20
-49.903719654640916
42
-0.41421356237313667
10
341.46939375204084
20
-49.403719654640945
10
341.4693937520409
20
-36.403719654640938
42
-0.41421356237319906
10
341.9693937520409
20
-35.903719654640931
0
LWPOLYLINE
5
174
100
AcDbEntity
8
0
100
AcDbPolyline
90
8
70
1
43
0.0
10
70.006893752040881
20
-60.216219654641023
42
-0.41421356237309503
10
70.506893752040881
20
-59.716219654641023
10
83.506893752040867
20
-59.716219654641009
42
-0.41421356237311063
10
84.006893752040881
20
-60.216219654641002
10
84.006893752040881
20
-73.216219654641009
42
-0.41421356237306384
10
83.506893752040895
20
-73.716219654641023
10
70.506893752040881
20
-73.716219654641023
42
-0.41421356237310025
10
70.006893752040881
20
-73.216219654641023
0
LWPOLYLINE
5
175
100
AcDbEntity
8
0
100
AcDbPolyline
90
8
70
1
43
0.0
10
374.01939375204086
20
-35.903719654640931
42
-0.4142135623730222
10
374.51939375204086
20
-36.403719654640916
10
374.51939375204086
20
-49.403719654640923
42
-0.4142135623731939
10
374.01939375204086
20
-49.903719654640931
10
361.01939375204091
20
-49.903719654640923
42
-0.4142135623730222
10
360.51939375204091
20
-49.403719654640938
10
360.51939375204091
20
-36.403719654640916
42
-0.41421356237319129
10
361.01939375204091
20
-35.903719654640923
0
LWPOLYLINE
5
176
100
AcDbEntity
8
0
100
AcDbPolyline
90
8
70
1
43
0.0
10
50.956893752040877
20
-60.216219654641023
42
-0.41421356237309503
10
51.45689375204087
20
-59.716219654641023
10
64.45689375204087
20
-59.716219654641009
42
-0.41421356237309503
10
64.95689375204087
20
-60.216219654641002
10
64.95689375204087
20
-73.216219654641009
42
-0.41421356237310542
10
64.45689375204087
20
-73.716219654641023
10
51.456893752040884
20
-73.716219654641023
42
-0.41421356237310025
10
50.956893752040877
20
-73.216219654641023
0
LWPOLYLINE
5
177
100
AcDbEntity
8
0
100
AcDbPolyline
90
8
70
1
43
0.0
10
102.55689375204088
20
-59.716219654641009
42
-0.41421356237308982
10
103.05689375204089
20
-60.216219654641002
10
103.05689375204089
20
-73.216219654641009
42
-0.41421356237309503
10
102.55689375204088
20
-73.716219654641023
10
89.556893752040878
20
-73.716219654641009
42
-0.41421356237308982
10
89.056893752040878
20
-73.216219654641009
10
89.056893752040878
20
-60.216219654641002
42
-0.41421356237308982
10
89.556893752040878
20
-59.716219654641009
0
LWPOLYLINE
5
178
100
AcDbEntity
8
0
100
AcDbPolyline
90
8
70
1
43
0.0
10
217.64439375204088
20
-36.403719654640952
42
-0.41421356237304563
10
218.14439375204088
20
-35.903719654640952
10
231.14439375204088
20
-35.903719654640952
42
-0.41421356237313145
10
231.64439375204091
20
-36.403719654640952
10
231.64439375204086
20
-49.403719654640959
42
-0.41421356237304818
10
231.14439375204086
20
-49.903719654640959
10
218.14439375204086
20
-49.903719654640959
42
-0.41421356237313145
10
217.64439375204086
20
-49.403719654640959
0
LWPOLYLINE
5
179
100
AcDbEntity
8
0
100
AcDbPolyline
90
8
70
1
43
0.0
10
274.79439375204089
20
-36.403719654640945
42
-0.41421356237304563
10
275.29439375204095
20
-35.903719654640945
10
288.29439375204095
20
-35.903719654640945
42
-0.41421356237313145
10
288.79439375204095
20
-36.403719654640945
10
288.79439375204083
20
-49.403719654640952
42
-0.4142135623730222
10
288.29439375204089
20
-49.903719654640952
10
275.29439375204089
20
-49.903719654640959
42
-0.41421356237313667
10
274.79439375204089
20
-49.403719654640952
0
LWPOLYLINE
5
180
100
AcDbEntity
8
0
100
AcDbPolyline
90
8
70
1
43
0.0
10
335.91939375204095
20
-35.903719654640923
42
-0.41421356237311324
10
336.41939375204089
20
-36.403719654640923
10
336.41939375204089
20
-49.403719654640938
42
-0.41421356237312101
10
335.91939375204095
20
-49.903719654640938
10
322.91939375204095
20
-49.903719654640938
42
-0.41421356237311063
10
322.41939375204095
20
-49.403719654640945
10
322.41939375204095
20
-36.403719654640938
42
-0.41421356237311585
10
322.91939375204095
20
-35.903719654640931
0
LWPOLYLINE
5
181
100
AcDbEntity
8
0
100
AcDbPolyline
90
8
70
1
43
0.0
10
193.83189375204086
20
-36.403719654640966
42
-0.41421356237307683
10
194.33189375204091
20
-35.903719654640966
10
207.33189375204088
20
-35.903719654640966
42
-0.41421356237313145
10
207.83189375204088
20
-36.403719654640966
10
207.8318937520408
20
-49.403719654640966
42
-0.4142135623730222
10
207.33189375204086
20
-49.903719654640966
10
194.33189375204086
20
-49.903719654640959
42
-0.41421356237312623
10
193.83189375204086
20
-49.403719654640966
0
LWPOLYLINE
5
182
100
AcDbEntity
8
0
100
AcDbPolyline
90
8
70
1
43
0.0
10
298.60689375204095
20
-36.403719654640931
42
-0.41421356237305079
10
299.10689375204095
20
-35.903719654640931
10
312.10689375204095
20
-35.903719654640938
42
-0.41421356237313145
10
312.60689375204095
20
-36.403719654640938
10
312.60689375204089
20
-49.403719654640945
42
-0.41421356237304818
10
312.10689375204089
20
-49.903719654640938
10
299.10689375204089
20
-49.903719654640938
42
-0.41421356237313145
10
298.60689375204089
20
-49.403719654640945
0
LWPOLYLINE
5
183
100
AcDbEntity
8
0
100
AcDbPolyline
90
8
70
1
43
0.0
10
174.78189375204084
20
-36.403719654640966
42
-0.41421356237307683
10
175.2818937520409
20
-35.903719654640966
10
188.2818937520409
20
-35.903719654640945
42
-0.41421356237310025
10
188.7818937520409
20
-36.403719654640966
10
188.7818937520409
20
-49.403719654640966
42
-0.41421356237307422
10
188.28189375204087
20
-49.903719654640966
10
175.28189375204084
20
-49.903719654640959
42
-0.41421356237312101
10
174.78189375204084
20
-49.40371965464098
0
LWPOLYLINE
5
184
100
AcDbEntity
8
0
100
AcDbPolyline
90
8
70
1
43
0.0
10
31.906893752040876
20
-36.403719654640994
42
-0.41421356237309503
10
32.406893752040872
20
-35.903719654640994
10
45.406893752040887
20
-35.903719654640987
42
-0.41421356237308204
10
45.906893752040872
20
-36.403719654640987
10
45.906893752040872
20
-49.403719654640994
42
-0.41421356237310025
10
45.40689375204088
20
-49.903719654641002
10
32.406893752040872
20
-49.903719654640994
42
-0.41421356237309764
10
31.906893752040872
20
-49.403719654641009
0
LWPOLYLINE
5
185
100
AcDbEntity
8
0
100
AcDbPolyline
90
8
70
1
43
0.0
10
155.73189375204089
20
-36.403719654640973
42
-0.41421356237307422
10
156.23189375204086
20
-35.903719654640973
10
169.23189375204089
20
-35.903719654640952
42
-0.41421356237310025
10
169.73189375204089
20
-36.403719654640973
10
169.73189375204089
20
-49.40371965464098
42
-0.414213562373069
10
169.23189375204086
20
-49.903719654640966
10
156.23189375204083
20
-49.903719654640987
42
-0.41421356237307422
10
155.73189375204089
20
-49.40371965464098
0
LWPOLYLINE
5
186
100
AcDbEntity
8
0
100
AcDbPolyline
90
8
70
1
43
0.0
10
250.1943937520409
20
-35.903719654640952
42
-0.41421356237313145
10
250.69439375204092
20
-36.403719654640952
10
250.69439375204084
20
-49.403719654640959
42
-0.41421356237301699
10
250.19439375204087
20
-49.903719654640952
10
237.19439375204087
20
-49.903719654640959
42
-0.41421356237313145
10
236.69439375204087
20
-49.403719654640959
10
236.6943937520409
20
-36.403719654640952
42
-0.41421356237304563
10
237.1943937520409
20
-35.903719654640952
0
LWPOLYLINE
5
187
100
AcDbEntity
8
0
100
AcDbPolyline
90
8
70
1
43
0.0
10
74.769393752040884
20
-36.403719654640987
42
-0.41421356237309503
10
75.269393752040884
20
-35.903719654640994
10
88.269393752040898
20
-35.903719654640994
42
-0.41421356237309764
10
88.769393752040884
20
-36.403719654640987
10
88.769393752040884
20
-49.403719654640994
42
-0.414213562373069
10
88.269393752040898
20
-49.903719654640987
10
75.269393752040884
20
-49.903719654640994
42
-0.41421356237310025
10
74.769393752040884
20
-49.403719654640994
0
LWPOLYLINE
5
188
100
AcDbEntity
8
0
100
AcDbPolyline
90
8
70
1
43
0.0
10
153.35064375204087
20
-136.41621965464108
42
-0.41421356237307422
10
153.85064375204087
20
-135.91621965464105
10
178.7568937520409
20
-135.91621965464105
42
-0.4142135623730846
10
179.2568937520409
20
-136.41621965464105
10
179.25689375204092
20
-149.41621965464105
42
-0.41421356237306384
10
178.7568937520409
20
-149.91621965464103
10
153.85064375204087
20
-149.91621965464105
42
-0.4142135623730846
10
153.35064375204087
20
-149.41621965464105
0
LWPOLYLINE
5
189
100
AcDbEntity
8
0
100
AcDbPolyline
90
8
70
1
43
0.0
10
93.819393752040867
20
-36.40371965464098
42
-0.41421356237307422
10
94.319393752040867
20
-35.90371965464098
10
107.31939375204085
20
-35.90371965464098
42
-0.41421356237310025
10
107.81939375204087
20
-36.40371965464098
10
107.8193937520409
20
-49.403719654640987
42
-0.41421356237310542
10
107.3193937520409
20
-49.903719654640987
10
94.319393752040881
20
-49.903719654640994
42
-0.41421356237308982
10
93.819393752040867
20
-49.403719654640994
0
LWPOLYLINE
5
190
100
AcDbEntity
8
0
100
AcDbPolyline
90
8
70
1
43
0.0
10
136.68189375204088
20
-36.403719654640973
42
-0.41421356237310542
10
137.18189375204088
20
-35.903719654640973
10
150.18189375204085
20
-35.903719654640966
42
-0.41421356237307161
10
150.68189375204088
20
-36.403719654640973
10
150.68189375204088
20
-49.40371965464098
42
-0.41421356237311063
10
150.18189375204088
20
-49.903719654640987
10
137.18189375204088
20
-49.903719654640987
42
-0.41421356237307422
10
136.68189375204088
20
-49.40371965464098
0
LWPOLYLINE
5
191
100
AcDbEntity
8
0
100
AcDbPolyline
90
8
70
1
43
0.0
10
341.46939375204084
20
-117.36621965464097
42
-0.41421356237310542
10
341.96939375204079
20
-116.86621965464097
10
354.96939375204079
20
-116.866219654641
42
-0.4142135623730222
10
355.46939375204079
20
-117.36621965464099
10
355.46939375204079
20
-130.36621965464101
42
-0.41421356237311585
10
354.96939375204079
20
-130.86621965464101
10
341.96939375204079
20
-130.86621965464099
42
-0.41421356237310542
10
341.46939375204084
20
-130.36621965464099
0
LWPOLYLINE
5
192
100
AcDbEntity
8
0
100
AcDbPolyline
90
8
70
1
43
0.0
10
293.8443937520409
20
-136.41621965464105
42
-0.41421356237309503
10
294.3443937520409
20
-135.91621965464105
10
309.72564375204092
20
-135.91621965464103
42
-0.41421356237313667
10
310.22564375204092
20
-136.41621965464105
10
310.22564375204092
20
-149.41621965464105
42
-0.4142135623730846
10
309.72564375204092
20
-149.91621965464103
10
294.3443937520409
20
-149.91621965464105
42
-0.41421356237313667
10
293.8443937520409
20
-149.41621965464105
0
LWPOLYLINE
5
193
100
AcDbEntity
8
0
100
AcDbPolyline
90
8
70
1
43
0.0
10
73.981893752040861
20
-135.91621965464105
10
58.60064375204086
20
-135.91621965464105
42
0.41421356237305862
10
58.100643752040853
20
-136.41621965464105
10
58.10064375204086
20
-149.41621965464105
42
0.41421356237307422
10
58.60064375204086
20
-149.91621965464108
10
73.981893752040861
20
-149.91621965464108
42
0.41421356237305862
10
74.481893752040861
20
-149.41621965464111
10
74.481893752040861
20
-136.41621965464108
42
0.41421356237307422
0
LWPOLYLINE
5
194
100
AcDbEntity
8
0
100
AcDbPolyline
90
8
70
1
43
0.0
10
255.74439375204091
20
-36.403719654640945
42
-0.41421356237304563
10
256.24439375204088
20
-35.903719654640945
10
269.24439375204093
20
-35.903719654640945
42
-0.41421356237313145
10
269.74439375204093
20
-36.403719654640945
10
269.74439375204088
20
-49.403719654640952
42
-0.4142135623730222
10
269.24439375204088
20
-49.903719654640952
10
256.24439375204088
20
-49.903719654640959
42
-0.41421356237313145
10
255.74439375204088
20
-49.403719654640959
0
LWPOLYLINE
5
195
100
AcDbEntity
8
0
100
AcDbPolyline
90
8
70
1
43
0.0
10
112.86939375204086
20
-36.40371965464098
10
112.86939375204086
20
-49.403719654640987
42
0.41421356237307944
10
113.36939375204088
20
-49.903719654640994
10
126.36939375204088
20
-49.903719654640987
42
0.41421356237307422
10
126.86939375204088
20
-49.403719654640987
10
126.86939375204088
20
-36.403719654640973
42
0.41421356237309243
10
126.36939375204086
20
-35.903719654640973
10
113.36939375204085
20
-35.90371965464098
42
0.41421356237311063
0
LWPOLYLINE
5
196
100
AcDbEntity
8
0
100
AcDbPolyline
90
8
70
1
43
0.0
10
246.21939375204084
20
-136.41621965464105
42
-0.4142135623730846
10
246.7193937520409
20
-135.91621965464105
10
262.10064375204092
20
-135.91621965464105
42
-0.4142135623730846
10
262.60064375204092
20
-136.41621965464105
10
262.60064375204092
20
-149.41621965464105
42
-0.41421356237306384
10
262.10064375204092
20
-149.91621965464103
10
246.7193937520409
20
-149.91621965464103
42
-0.4142135623730846
10
246.2193937520409
20
-149.41621965464103
0
LWPOLYLINE
5
197
100
AcDbEntity
8
0
100
AcDbPolyline
90
8
70
1
43
0.0
10
34.28814375204086
20
-136.41621965464111
42
-0.41421356237309243
10
34.788143752040867
20
-135.91621965464111
10
50.169393752040875
20
-135.91621965464111
42
-0.41421356237307422
10
50.669393752040868
20
-136.41621965464108
10
50.669393752040889
20
-149.41621965464108
42
-0.41421356237305862
10
50.169393752040875
20
-149.91621965464108
10
34.788143752040867
20
-149.91621965464108
42
-0.41421356237311063
10
34.28814375204086
20
-149.41621965464108
0
LWPOLYLINE
5
198
100
AcDbEntity
8
0
100
AcDbPolyline
90
8
70
1
43
0.0
10
354.96939375204079
20
-135.91621965464105
42
-0.4142135623730222
10
355.46939375204079
20
-136.41621965464105
10
355.46939375204079
20
-149.41621965464105
42
-0.41421356237309503
10
354.96939375204079
20
-149.91621965464103
10
341.96939375204079
20
-149.91621965464103
42
-0.41421356237312623
10
341.46939375204084
20
-149.416219654641
10
341.46939375204084
20
-136.416219654641
42
-0.41421356237309503
10
341.96939375204079
20
-135.91621965464103
0
LWPOLYLINE
5
199
100
AcDbEntity
8
0
100
AcDbPolyline
90
8
70
1
43
0.0
10
270.0318937520409
20
-136.41621965464105
42
-0.4142135623730846
10
270.5318937520409
20
-135.91621965464105
10
285.91314375204092
20
-135.91621965464103
42
-0.41421356237310542
10
286.41314375204092
20
-136.41621965464105
10
286.41314375204098
20
-149.41621965464105
42
-0.41421356237307422
10
285.91314375204092
20
-149.91621965464103
10
270.5318937520409
20
-149.91621965464103
42
-0.4142135623730846
10
270.0318937520409
20
-149.41621965464103
0
LWPOLYLINE
5
200
100
AcDbEntity
8
0
100
AcDbPolyline
90
8
70
1
43
0.0
10
150.96939375204087
20
-117.36621965464104
42
-0.41421356237307422
10
151.46939375204087
20
-116.86621965464104
10
164.4693937520409
20
-116.86621965464106
42
-0.4142135623730846
10
164.9693937520409
20
-117.36621965464104
10
164.96939375204084
20
-130.36621965464107
42
-0.4142135623730846
10
164.4693937520409
20
-130.86621965464104
10
151.4693937520409
20
-130.86621965464104
42
-0.41421356237310542
10
150.96939375204087
20
-130.36621965464104
0
LWPOLYLINE
5
201
100
AcDbEntity
8
0
100
AcDbPolyline
90
8
70
1
43
0.0
10
322.41939375204083
20
-136.41621965464105
42
-0.41421356237313667
10
322.91939375204089
20
-135.91621965464103
10
335.91939375204083
20
-135.91621965464105
42
-0.41421356237313667
10
336.41939375204089
20
-136.41621965464103
10
336.41939375204089
20
-149.41621965464103
42
-0.41421356237312623
10
335.91939375204083
20
-149.91621965464103
10
322.91939375204089
20
-149.916219654641
42
-0.41421356237313667
10
322.41939375204083
20
-149.41621965464103
0
LWPOLYLINE
5
202
100
AcDbEntity
8
0
100
AcDbPolyline
90
8
70
1
43
0.0
10
140.6568937520409
20
-59.71621965464098
42
-0.41421356237307422
10
141.1568937520409
20
-60.216219654640987
10
141.15689375204087
20
-73.216219654640994
42
-0.41421356237306384
10
140.6568937520409
20
-73.716219654641009
10
127.65689375204089
20
-73.716219654641023
42
-0.41421356237307422
10
127.15689375204087
20
-73.216219654641009
10
127.1568937520409
20
-60.216219654641002
42
-0.41421356237310025
10
127.65689375204089
20
-59.716219654641009
0
LWPOLYLINE
5
203
100
AcDbEntity
8
0
100
AcDbPolyline
90
8
70
1
43
0.0
10
360.51939375204086
20
-136.41621965464105
42
-0.41421356237312623
10
361.01939375204086
20
-135.91621965464103
10
374.0193937520408
20
-135.91621965464103
42
-0.4142135623730222
10
374.51939375204074
20
-136.41621965464103
10
374.51939375204074
20
-149.41621965464103
42
-0.41421356237311585
10
374.0193937520408
20
-149.91621965464103
10
361.01939375204086
20
-149.91621965464103
42
-0.4142135623730222
10
360.51939375204086
20
-149.41621965464103
0
LWPOLYLINE
5
204
100
AcDbEntity
8
0
100
AcDbPolyline
90
8
70
1
43
0.0
10
55.719393752040872
20
-36.403719654640987
42
-0.41421356237309503
10
56.219393752040865
20
-35.903719654640994
10
69.219393752040887
20
-35.90371965464098
42
-0.41421356237308204
10
69.719393752040872
20
-36.403719654640987
10
69.719393752040872
20
-49.403719654640994
42
-0.41421356237310025
10
69.219393752040872
20
-49.903719654641002
10
56.219393752040865
20
-49.903719654640994
42
-0.41421356237309503
10
55.719393752040872
20
-49.403719654640994
0
LWPOLYLINE
5
205
100
AcDbEntity
8
0
100
AcDbPolyline
90
8
70
1
43
0.0
10
108.10689375204089
20
-60.216219654641002
42
-0.41421356237310025
10
108.60689375204088
20
-59.716219654641009
10
121.60689375204086
20
-59.71621965464098
42
-0.41421356237307944
10
122.10689375204089
20
-60.216219654640994
10
122.10689375204086
20
-73.216219654641009
42
-0.41421356237306384
10
121.60689375204088
20
-73.716219654641023
10
108.60689375204089
20
-73.716219654641009
42
-0.41421356237310025
10
108.10689375204089
20
-73.216219654641009
0
LWPOLYLINE
5
206
100
AcDbEntity
8
0
100
AcDbPolyline
90
8
70
1
43
0.0
10
93.819393752040853
20
-117.36621965464107
42
-0.41421356237307422
10
94.319393752040867
20
-116.86621965464106
10
107.31939375204087
20
-116.86621965464106
42
-0.41421356237310542
10
107.81939375204087
20
-117.36621965464107
10
107.81939375204088
20
-130.3662196546411
42
-0.41421356237303258
10
107.31939375204087
20
-130.86621965464107
10
94.319393752040867
20
-130.86621965464107
42
-0.4142135623730846
10
93.819393752040867
20
-130.36621965464104
0
LWPOLYLINE
5
207
100
AcDbEntity
8
0
100
AcDbPolyline
90
8
70
1
43
0.0
10
160.49439375204091
20
-98.316219654641031
42
-0.41421356237301177
10
160.99439375204093
20
-97.816219654641031
10
173.99439375204088
20
-97.816219654641046
42
-0.4142135623730846
10
174.49439375204091
20
-98.316219654641031
10
174.49439375204091
20
-111.31621965464105
42
-0.41421356237301177
10
173.99439375204088
20
-111.81621965464105
10
160.99439375204093
20
-111.81621965464103
42
-0.4142135623730846
10
160.49439375204091
20
-111.31621965464105
0
LWPOLYLINE
5
208
100
AcDbEntity
8
0
100
AcDbPolyline
90
8
70
1
43
0.0
10
112.86939375204085
20
-117.36621965464104
42
-0.41421356237307422
10
113.36939375204085
20
-116.86621965464104
10
126.36939375204086
20
-116.86621965464104
42
-0.41421356237307422
10
126.86939375204088
20
-117.36621965464104
10
126.86939375204088
20
-130.36621965464107
42
-0.41421356237307422
10
126.36939375204086
20
-130.86621965464104
10
113.36939375204085
20
-130.86621965464104
42
-0.41421356237309503
10
112.86939375204085
20
-130.36621965464104
0
LWPOLYLINE
5
209
100
AcDbEntity
8
0
100
AcDbPolyline
90
8
70
1
43
0.0
10
65.244393752040878
20
-98.31621965464106
42
-0.41421356237310542
10
65.744393752040864
20
-97.816219654641046
10
78.744393752040878
20
-97.816219654641046
42
-0.41421356237310542
10
79.244393752040864
20
-98.31621965464106
10
79.244393752040878
20
-111.31621965464106
42
-0.41421356237308982
10
78.744393752040878
20
-111.81621965464106
10
65.744393752040878
20
-111.81621965464106
42
-0.41421356237308982
10
65.244393752040878
20
-111.31621965464106
0
LWPOLYLINE
5
210
100
AcDbEntity
8
0
100
AcDbPolyline
90
8
70
1
43
0.0
10
217.64439375204091
20
-98.316219654641017
42
-0.4142135623730222
10
218.14439375204088
20
-97.816219654641003
10
231.14439375204088
20
-97.816219654641003
42
-0.41421356237313667
10
231.64439375204091
20
-98.316219654641017
10
231.64439375204091
20
-111.31621965464103
42
-0.4142135623730534
10
231.14439375204088
20
-111.81621965464103
10
218.14439375204088
20
-111.81621965464105
42
-0.41421356237310542
10
217.64439375204088
20
-111.31621965464103
0
LWPOLYLINE
5
211
100
AcDbEntity
8
0
100
AcDbPolyline
90
8
70
1
43
0.0
10
236.69439375204092
20
-98.316219654641017
42
-0.4142135623730222
10
237.1943937520409
20
-97.816219654641003
10
250.1943937520409
20
-97.816219654641003
42
-0.41421356237313667
10
250.69439375204092
20
-98.316219654641017
10
250.69439375204092
20
-111.316219654641
42
-0.41421356237306384
10
250.1943937520409
20
-111.81621965464103
10
237.1943937520409
20
-111.81621965464105
42
-0.41421356237310542
10
236.6943937520409
20
-111.31621965464103
0
LWPOLYLINE
5
212
100
AcDbEntity
8
0
100
AcDbPolyline
90
8
70
1
43
0.0
10
84.294393752040861
20
-98.31621965464106
42
-0.41421356237309503
10
84.794393752040875
20
-97.816219654641046
10
97.794393752040861
20
-97.816219654641046
42
-0.41421356237310542
10
98.294393752040861
20
-98.31621965464106
10
98.294393752040861
20
-111.31621965464106
42
-0.41421356237310542
10
97.794393752040861
20
-111.81621965464106
10
84.794393752040875
20
-111.81621965464106
42
-0.41421356237309503
10
84.294393752040861
20
-111.31621965464106
0
LWPOLYLINE
5
213
100
AcDbEntity
8
0
100
AcDbPolyline
90
8
70
1
43
0.0
10
250.98189375204083
20
-79.266219654640977
42
-0.41421356237307422
10
251.48189375204086
20
-78.766219654640977
10
264.48189375204089
20
-78.766219654640992
42
-0.41421356237312101
10
264.98189375204089
20
-79.266219654640977
10
264.98189375204095
20
-92.266219654640992
42
-0.41421356237304302
10
264.48189375204089
20
-92.766219654641006
10
251.48189375204089
20
-92.766219654640992
42
-0.4142135623730846
10
250.98189375204089
20
-92.266219654640992
0
LWPOLYLINE
5
214
100
AcDbEntity
8
0
100
AcDbPolyline
90
8
70
1
43
0.0
10
135.89439375204086
20
-97.816219654641046
42
-0.41421356237309503
10
136.39439375204088
20
-98.31621965464106
10
136.39439375204088
20
-111.31621965464106
42
-0.41421356237309503
10
135.89439375204086
20
-111.81621965464106
10
122.89439375204086
20
-111.81621965464105
42
-0.41421356237307422
10
122.39439375204086
20
-111.31621965464105
10
122.39439375204086
20
-98.316219654641031
42
-0.41421356237307422
10
122.89439375204086
20
-97.816219654641031
0
LWPOLYLINE
5
215
100
AcDbEntity
8
0
100
AcDbPolyline
90
8
70
1
43
0.0
10
198.5943937520409
20
-98.316219654641031
42
-0.41421356237304302
10
199.0943937520409
20
-97.816219654641031
10
212.0943937520409
20
-97.816219654640989
42
-0.41421356237310542
10
212.59439375204093
20
-98.316219654641017
10
212.5943937520409
20
-111.31621965464103
42
-0.4142135623730222
10
212.0943937520409
20
-111.81621965464103
10
199.0943937520409
20
-111.81621965464105
42
-0.41421356237309503
10
198.5943937520409
20
-111.31621965464105
0
LWPOLYLINE
5
216
100
AcDbEntity
8
0
100
AcDbPolyline
90
8
70
1
43
0.0
10
117.63189375204085
20
-79.266219654640992
10
117.63189375204085
20
-92.26621965464102
42
0.41421356237309503
10
118.13189375204087
20
-92.766219654641006
10
131.13189375204087
20
-92.76621965464102
42
0.41421356237309503
10
131.63189375204087
20
-92.26621965464102
10
131.63189375204087
20
-79.266219654640992
42
0.41421356237309503
10
131.13189375204087
20
-78.76621965464102
10
118.13189375204087
20
-78.76621965464102
42
0.41421356237307944
0
LWPOLYLINE
5
217
100
AcDbEntity
8
0
100
AcDbPolyline
90
8
70
1
43
0.0
10
154.94439375204087
20
-97.816219654641031
42
-0.4142135623730534
10
155.44439375204087
20
-98.316219654641031
10
155.44439375204087
20
-111.31621965464105
42
-0.4142135623730846
10
154.94439375204087
20
-111.81621965464105
10
141.94439375204087
20
-111.81621965464106
42
-0.41421356237309503
10
141.44439375204087
20
-111.31621965464106
10
141.44439375204087
20
-98.31621965464106
42
-0.41421356237309503
10
141.94439375204087
20
-97.816219654641046
0
LWPOLYLINE
5
218
100
AcDbEntity
8
0
100
AcDbPolyline
90
8
70
1
43
0.0
10
98.294393752040875
20
-149.41621965464111
10
98.294393752040861
20
-136.41621965464108
42
0.4142135623730846
10
97.794393752040861
20
-135.91621965464105
10
82.413143752040867
20
-135.91621965464108
42
0.4142135623730534
10
81.913143752040867
20
-136.41621965464105
10
81.913143752040867
20
-149.41621965464105
42
0.41421356237307422
10
82.413143752040867
20
-149.91621965464108
10
97.794393752040861
20
-149.91621965464108
42
0.41421356237303258
0
LWPOLYLINE
5
219
100
AcDbEntity
8
0
100
AcDbPolyline
90
12
70
1
43
0.0
10
132.10578540583174
20
-141.91621965464145
10
124.47876875204086
20
-141.91621965464103
42
0.41421356237310542
10
123.97876875204085
20
-142.41621965464108
10
123.97876875204085
20
-143.41621965464105
42
0.41421356237309503
10
124.47876875204086
20
-143.91621965464105
10
132.10578540583325
20
-143.91621965464029
42
0.77459666924164927
10
139.85175209824999
20
-143.91621965464066
10
147.47876875204088
20
-143.91621965464105
42
0.41421356237310542
10
147.97876875204085
20
-143.41621965464103
10
147.97876875204088
20
-142.41621965464105
42
0.41421356237309503
10
147.47876875204088
20
-141.91621965464105
10
139.85175209824848
20
-141.91621965464185
42
0.77459666924164239
0
LWPOLYLINE
5
220
100
AcDbEntity
8
0
100
AcDbPolyline
90
8
70
1
43
0.0
10
206.8506437520409
20
-134.41621965464105
10
206.8506437520409
20
-148.41621965464105
42
0.41421356237309503
10
207.3506437520409
20
-148.91621965464105
10
213.35064375204092
20
-148.91621965464105
42
0.41421356237310542
10
213.85064375204092
20
-148.41621965464103
10
213.85064375204092
20
-134.41621965464103
42
0.4142135623730846
10
213.35064375204092
20
-133.916219654641
10
207.3506437520409
20
-133.91621965464103
42
0.41421356237309503
0
ENDSEC
0
SECTION
2
OBJECTS
0
DICTIONARY
5
C
100
AcDbDictionary
3
ACAD_GROUP
350
D
3
ACAD_MLINESTYLE
350
17
0
DICTIONARY
5
D
100
AcDbDictionary
0
DICTIONARY
5
1A
330
C
100
AcDbDictionary
0
DICTIONARY
5
17
100
AcDbDictionary
0
ENDSEC
0
EOF
